<svg width="155" height="73" viewBox="0 0 155 73" fill="none" xmlns="http://www.w3.org/2000/svg">
<path fill-rule="evenodd" clip-rule="evenodd" d="M147 0H92.4088C81.5541 0 71.4395 5.50265 65.5426 14.616L47.5504 42.4221C37.2309 58.3704 19.5303 68 0.5345 68H155V8C155 3.58172 151.418 0 147 0Z" fill="#FBD353"/>
<g style="mix-blend-mode:overlay" opacity="0.41">
<path d="M142.976 48.839C143.048 47.5884 143.024 46.3377 142.881 45.087C142.212 39.2426 139.252 33.7349 134.861 29.8386C133.309 28.4437 131.519 27.2171 130.492 25.3651C128.774 22.2866 128.917 18.727 126.793 15.6966C124.668 12.6421 121.565 10.261 118.057 9.05848C107.626 5.42676 93.0176 11.3433 94.3304 24.0183C94.3304 24.0664 94.3304 24.1385 94.3543 24.2107C94.5213 26.8322 92.4924 29.045 89.8668 29.1171C80.2475 29.3576 71.9648 36.8135 70.1985 46.2896C69.0528 52.3745 70.9146 59.0607 75.3543 63.3659C78.6482 66.5887 83.0879 68.3445 87.5038 69.5711C96.3832 72.0002 105.74 72.5053 114.882 71.5914C123.451 70.7255 132.497 68.2483 138.035 61.5861C141.019 58.0265 142.714 53.4809 142.976 48.839V48.839Z" fill="#292C33"/>
</g>
<g style="mix-blend-mode:overlay" opacity="0.88">
<path d="M135.051 49.4398C135.099 48.4537 135.075 47.4676 134.98 46.5055C134.455 41.9358 132.139 37.6066 128.702 34.5521C127.485 33.4698 126.077 32.4837 125.289 31.0647C123.952 28.6596 124.048 25.8697 122.377 23.4886C120.706 21.1076 118.271 19.2316 115.55 18.2695C107.387 15.4075 95.9535 20.0734 96.9799 29.9824C96.9799 30.0065 96.9799 30.0786 97.0038 30.1267C97.147 32.1951 95.5477 33.9268 93.495 33.9749C85.9523 34.1433 79.4598 40.0117 78.0754 47.4195C77.1922 52.1816 78.6482 57.4247 82.1093 60.7919C84.6872 63.3173 88.1721 64.6882 91.6332 65.6502C98.5791 67.5503 105.907 67.9591 113.092 67.2376C119.799 66.5642 126.888 64.616 131.232 59.3969C133.524 56.6311 134.837 53.0715 135.051 49.4398V49.4398Z" fill="#292C33"/>
</g>
<path d="M98.3404 39.4827C105.235 39.4827 110.824 33.851 110.824 26.9039C110.824 19.9569 105.235 14.3252 98.3404 14.3252C91.4459 14.3252 85.8568 19.9569 85.8568 26.9039C85.8568 33.851 91.4459 39.4827 98.3404 39.4827Z" fill="#2EC6B0"/>
<path d="M107.005 35.9714C106.981 35.9714 106.933 35.9714 106.91 35.9474C106.862 35.8993 106.862 35.8271 106.91 35.779C109.249 33.422 110.538 30.2954 110.538 26.9763C110.538 23.6573 109.249 20.5066 106.91 18.1736C104.57 15.8166 101.467 14.5179 98.1734 14.5179C94.8794 14.5179 91.7525 15.8166 89.4372 18.1736C89.3894 18.2217 89.3178 18.2217 89.2701 18.1736C89.2224 18.1255 89.2224 18.0534 89.2701 18.0053C91.657 15.6002 94.8078 14.2773 98.1972 14.2773C101.563 14.2773 104.737 15.6002 107.124 18.0053C109.511 20.4104 110.824 23.5851 110.824 27.0004C110.824 30.4156 109.511 33.5904 107.124 35.9955C107.077 35.9474 107.029 35.9714 107.005 35.9714V35.9714Z" fill="#222220"/>
<path d="M98.3405 36.4762C103.587 36.4762 107.84 32.1905 107.84 26.9039C107.84 21.6172 103.587 17.3315 98.3405 17.3315C93.0937 17.3315 88.8405 21.6172 88.8405 26.9039C88.8405 32.1905 93.0937 36.4762 98.3405 36.4762Z" fill="white"/>
<path d="M98.3405 36.5966C93.0415 36.5966 88.7211 32.2434 88.7211 26.904C88.7211 21.5647 93.0415 17.2114 98.3405 17.2114C98.4121 17.2114 98.4598 17.2595 98.4598 17.3317C98.4598 17.4038 98.4121 17.4519 98.3405 17.4519C93.1608 17.4519 88.9598 21.6849 88.9598 26.904C88.9598 32.1231 93.1608 36.3561 98.3405 36.3561C98.4121 36.3561 98.4598 36.4042 98.4598 36.4764C98.4598 36.5485 98.3882 36.5966 98.3405 36.5966V36.5966Z" fill="#222220"/>
<path d="M100.799 28.7318H98.2211C97.696 28.7318 97.2663 28.2989 97.2663 27.7698V24.1621C97.2663 23.7051 97.6483 23.3203 98.1018 23.3203C98.5553 23.3203 98.9372 23.7051 98.9372 24.1621V27.0482H100.823C101.276 27.0482 101.658 27.4331 101.658 27.89C101.658 28.347 101.253 28.7318 100.799 28.7318Z" fill="#222220"/>
<path d="M78.9347 31.2812L92.397 44.846C95.0226 47.4917 99.2952 47.4917 101.921 44.846L103.52 43.2346C104.117 42.6333 104.117 41.6232 103.52 41.0219L98.0301 35.4902C97.4334 34.8889 96.4309 34.8889 95.8342 35.4902L93.0892 38.256C92.8744 38.4725 92.5163 38.4725 92.3015 38.256L85.6658 31.5217C85.451 31.3053 85.451 30.9685 85.6658 30.7521L88.3631 28.0343C88.9598 27.433 88.9598 26.4229 88.3631 25.8216L82.7299 20.1215C82.1332 19.5202 81.1545 19.5202 80.5578 20.0974L79.0301 21.5886C76.309 24.2342 76.2852 28.5875 78.9347 31.2812Z" fill="#222220"/>
<path d="M79.3643 21.8532L86.9309 29.4774L87.1935 29.2128L88.3869 28.0102C88.9837 27.409 88.9837 26.3988 88.3869 25.7975L82.7299 20.1215C82.1332 19.5202 81.1545 19.5202 80.5578 20.0974L79.0302 21.5886L79.3643 21.8532V21.8532Z" fill="#ECF1F7"/>
<path d="M86.9309 29.6462L79.2927 21.9498L78.8631 21.5891L80.4862 20.0017C81.1307 19.3763 82.1809 19.3763 82.8254 20.0257L88.4585 25.7018C89.103 26.3512 89.103 27.4335 88.4585 28.0829L86.9309 29.6462ZM79.1972 21.5891L79.4359 21.7815L86.907 29.3095L88.2676 27.9385C88.5302 27.674 88.6972 27.3132 88.6972 26.9043C88.6972 26.5195 88.554 26.1588 88.2676 25.8702L82.6583 20.2181C82.1093 19.665 81.2023 19.665 80.6533 20.1941L79.1972 21.5891V21.5891Z" fill="#222220"/>
<path d="M94.7362 37.1017L102.303 44.7259L102.565 44.4613L103.759 43.2588C104.356 42.6575 104.356 41.6474 103.759 41.0461L98.1256 35.37C97.5289 34.7687 96.5502 34.7687 95.9535 35.346L94.4259 36.8371L94.7362 37.1017V37.1017Z" fill="#ECF1F7"/>
<path d="M102.303 44.8942L94.6646 37.1979L94.2349 36.8371L95.858 35.2497C96.5025 34.6244 97.5528 34.6244 98.1972 35.2738L103.83 40.9498C104.141 41.2625 104.332 41.6954 104.332 42.1524C104.332 42.6094 104.165 43.0182 103.83 43.3549L102.303 44.8942ZM94.593 36.813L94.8317 37.0055L102.303 44.5335L103.663 43.1625C103.926 42.898 104.093 42.5372 104.093 42.1283C104.093 41.7435 103.95 41.3828 103.663 41.0941L98.0302 35.4421C97.4812 34.889 96.5741 34.889 96.0251 35.4181L94.593 36.813V36.813Z" fill="#222220"/>
<path d="M79.9372 20.9629L84.544 25.6048Z" fill="#ECF1F7"/>
<path d="M84.544 25.7253C84.5201 25.7253 84.4724 25.7253 84.4485 25.7013L79.8656 21.0594C79.8178 21.0113 79.8178 20.9392 79.8656 20.8911C79.9133 20.843 79.9849 20.843 80.0327 20.8911L84.6394 25.5329C84.6872 25.581 84.6872 25.6532 84.6394 25.7013C84.6156 25.7253 84.5678 25.7253 84.544 25.7253V25.7253Z" fill="#222220"/>
<path d="M98.2688 39.4351L102.876 44.0769Z" fill="#ECF1F7"/>
<path d="M102.876 44.1971C102.852 44.1971 102.804 44.1971 102.78 44.1731L98.1734 39.5072C98.1256 39.4591 98.1256 39.3869 98.1734 39.3388C98.2211 39.2907 98.2927 39.2907 98.3405 39.3388L102.947 43.9807C102.995 44.0288 102.995 44.1009 102.947 44.149C102.923 44.1731 102.9 44.1971 102.876 44.1971V44.1971Z" fill="#222220"/>
<path d="M123.093 67.9112L105.454 65.2897C103.449 65.0011 102.088 63.1251 102.374 61.1048L108.7 18.0052C108.986 15.9849 110.848 14.614 112.853 14.9026L130.492 17.5482C132.497 17.8368 133.858 19.7128 133.572 21.7331L127.246 64.8327C126.936 66.8289 125.074 68.2239 123.093 67.9112V67.9112Z" fill="#222220"/>
<path d="M110.084 18.9521L131.972 22.214L126.001 62.8971L104.113 59.6353L110.084 18.9521Z" fill="#ECF1F7"/>
<path d="M110.068 18.9375L131.956 22.1993L131.509 25.2444L109.621 21.9826L110.068 18.9375Z" fill="#FAC41A"/>
<path d="M114.691 65.2418C114.619 65.2418 114.548 65.2418 114.476 65.2178C114.094 65.1697 113.76 64.9532 113.545 64.6405C113.307 64.3279 113.235 63.943 113.283 63.5823C113.33 63.1975 113.545 62.8607 113.856 62.6443C114.166 62.4038 114.548 62.3076 114.906 62.3797C115.288 62.4278 115.622 62.6443 115.837 62.957C116.075 63.2696 116.147 63.6544 116.099 64.0152C115.98 64.7127 115.383 65.2418 114.691 65.2418ZM114.667 62.5962C114.405 62.5962 114.166 62.6683 113.951 62.8367C113.688 63.0291 113.521 63.3177 113.474 63.6304C113.426 63.943 113.497 64.2557 113.688 64.5203C113.879 64.7848 114.166 64.9532 114.476 65.0013C115.121 65.0975 115.741 64.6405 115.837 63.9912C115.884 63.6785 115.813 63.3658 115.622 63.1013C115.431 62.8367 115.144 62.6683 114.834 62.6202C114.786 62.5962 114.739 62.5962 114.667 62.5962V62.5962ZM117.842 18.5586H117.77C117.651 18.5345 117.531 18.4864 117.46 18.3662C117.388 18.27 117.364 18.1497 117.364 18.0295C117.364 17.9092 117.436 17.789 117.555 17.7168C117.651 17.6447 117.77 17.6206 117.889 17.6206C118.009 17.6447 118.128 17.6928 118.2 17.813C118.271 17.9092 118.295 18.0295 118.295 18.1497C118.271 18.3902 118.08 18.5586 117.842 18.5586V18.5586ZM117.842 17.8611C117.794 17.8611 117.746 17.8852 117.722 17.9092C117.675 17.9333 117.651 18.0054 117.627 18.0535C117.627 18.1016 117.627 18.1738 117.675 18.2219C117.698 18.27 117.77 18.294 117.818 18.3181C117.866 18.3181 117.937 18.3181 117.985 18.27C118.033 18.2459 118.057 18.1738 118.08 18.1257C118.08 18.0776 118.08 18.0054 118.033 17.9573C118.009 17.9092 117.937 17.8852 117.889 17.8611H117.842ZM124.955 19.6168H124.883L119.298 18.7751C119.178 18.751 119.059 18.7029 118.987 18.5826C118.916 18.4864 118.892 18.3662 118.892 18.2459C118.916 18.1257 118.964 18.0054 119.083 17.9333C119.178 17.8611 119.298 17.8371 119.417 17.8371L125.003 18.6789C125.122 18.7029 125.241 18.751 125.313 18.8713C125.384 18.9675 125.408 19.0877 125.408 19.208C125.384 19.3282 125.337 19.4485 125.217 19.5206C125.146 19.5928 125.05 19.6168 124.955 19.6168ZM119.369 18.1016C119.25 18.1016 119.178 18.1738 119.155 18.294C119.155 18.3421 119.155 18.4143 119.202 18.4624C119.226 18.5105 119.298 18.5345 119.345 18.5586L124.931 19.4004C125.05 19.4244 125.17 19.3282 125.193 19.208C125.193 19.1599 125.193 19.0877 125.146 19.0396C125.122 18.9915 125.05 18.9675 125.003 18.9434L119.393 18.1016H119.369Z" fill="#ECF1F7"/>
<path d="M126.1 50.45L110.824 48.1651C110.585 48.117 110.347 48.3094 110.299 48.55L109.702 52.5424C109.655 52.783 109.845 53.0235 110.084 53.0716L123.141 55.0197L124.477 56.8957L124.716 55.2602L125.337 55.3564C125.575 55.4045 125.814 55.2121 125.862 54.9716L126.459 50.9791C126.506 50.7146 126.339 50.4981 126.1 50.45V50.45Z" fill="#67DCCB"/>
<path d="M123.165 55.1402C123.141 55.1402 123.141 55.1402 123.165 55.1402L110.084 53.1921C109.941 53.168 109.798 53.0959 109.702 52.9756C109.607 52.8554 109.583 52.687 109.607 52.5427L110.204 48.5502C110.251 48.2375 110.538 48.0211 110.848 48.0692L114.381 48.5983C114.452 48.5983 114.5 48.6705 114.476 48.7426C114.476 48.8148 114.405 48.8629 114.333 48.8388L110.8 48.3097C110.609 48.2857 110.442 48.4059 110.418 48.5983L109.822 52.5908C109.798 52.687 109.822 52.7592 109.893 52.8313C109.941 52.9035 110.036 52.9516 110.108 52.9756L123.165 54.9238C123.236 54.9238 123.284 54.9959 123.26 55.0681C123.26 55.0921 123.212 55.1402 123.165 55.1402V55.1402Z" fill="#222220"/>
<path d="M128.511 33.9031L113.235 31.6183C112.996 31.5702 112.758 31.7626 112.71 32.0031L112.113 35.9956C112.065 36.2361 112.256 36.4766 112.495 36.5247L125.552 38.4728L126.888 40.3488L127.127 38.7133L127.747 38.8095C127.986 38.8576 128.225 38.6652 128.273 38.4247L128.869 34.4322C128.941 34.1677 128.774 33.9512 128.511 33.9031Z" fill="#67DCCB"/>
<path d="M127.008 40.6611L125.528 38.5927L112.519 36.6446C112.209 36.5965 111.994 36.3079 112.041 35.9952C112.041 35.923 112.113 35.8749 112.185 35.899C112.256 35.899 112.304 35.9711 112.28 36.0433C112.256 36.1395 112.28 36.2117 112.352 36.2838C112.4 36.356 112.495 36.4041 112.567 36.4281L125.671 38.3763L126.864 40.0598L127.079 38.5927L127.819 38.713C127.915 38.737 127.986 38.713 128.058 38.6408C128.129 38.5927 128.177 38.4965 128.201 38.4244L128.583 35.7787C128.583 35.7066 128.655 35.6585 128.726 35.6825C128.798 35.6825 128.845 35.7547 128.822 35.8268L128.44 38.4725C128.416 38.6168 128.344 38.7611 128.225 38.8573C128.106 38.9535 127.938 38.9775 127.795 38.9535L127.294 38.8813L127.008 40.6611V40.6611Z" fill="#222220"/>
<path d="M109.177 39.0499L124.454 41.3348C124.692 41.3829 124.883 41.5993 124.835 41.8639L124.239 45.8563C124.191 46.0969 123.976 46.2893 123.714 46.2412L110.657 44.293L108.843 45.688L109.082 44.0525L108.461 43.9563C108.222 43.9082 108.031 43.6918 108.079 43.4272L108.676 39.4347C108.7 39.1942 108.938 39.0018 109.177 39.0499Z" fill="#FAC41A"/>
<path d="M123.809 46.3617H123.714L115.55 45.1351C115.479 45.1351 115.431 45.0629 115.455 44.9908C115.455 44.9186 115.526 44.8705 115.598 44.8946L123.761 46.1212C123.857 46.1452 123.928 46.1212 124 46.049C124.072 46.0009 124.119 45.9047 124.143 45.8326L124.74 41.8401C124.764 41.6477 124.644 41.4793 124.454 41.4553C124.382 41.4553 124.334 41.3831 124.358 41.311C124.358 41.2388 124.43 41.1907 124.501 41.2148C124.812 41.2629 125.026 41.5515 124.979 41.8641L124.382 45.8566C124.358 46.0009 124.286 46.1452 124.167 46.2414C124.048 46.3136 123.928 46.3617 123.809 46.3617V46.3617Z" fill="#222220"/>
<path d="M104.655 55.8833L126.543 59.1454L125.994 62.8805L104.106 59.6187L104.655 55.8833Z" fill="white"/>
<path d="M106.575 59.3969C107.314 59.3969 107.912 58.7938 107.912 58.05C107.912 57.3061 107.314 56.7031 106.575 56.7031C105.837 56.7031 105.239 57.3061 105.239 58.05C105.239 58.7938 105.837 59.3969 106.575 59.3969Z" fill="#67DCCB"/>
<path opacity="0.33" d="M124.024 61.8987C123.976 61.8987 123.905 61.8987 123.857 61.8746L109.655 59.7581C109.344 59.71 109.058 59.5417 108.867 59.2771C108.676 59.0125 108.604 58.6999 108.652 58.3872C108.747 57.7378 109.344 57.2808 110.013 57.3771L124.215 59.4936C124.859 59.5898 125.313 60.191 125.217 60.8404C125.122 61.4657 124.621 61.8987 124.024 61.8987V61.8987ZM123.905 61.6341C124.43 61.7063 124.907 61.3455 124.979 60.8164C125.026 60.5518 124.955 60.3113 124.812 60.0948C124.668 59.8784 124.43 59.7581 124.191 59.71L109.989 57.5935C109.464 57.5214 108.986 57.8821 108.915 58.4113C108.867 58.6758 108.938 58.9163 109.082 59.1328C109.225 59.3492 109.464 59.4695 109.702 59.5176L123.905 61.6341Z" fill="#FAC41A"/>
<path d="M111.445 21.1318H111.373C111.111 21.0837 110.943 20.8432 110.967 20.6027C110.991 20.4825 111.063 20.3622 111.158 20.2901C111.254 20.2179 111.373 20.1938 111.516 20.1938C111.779 20.2419 111.946 20.4825 111.922 20.723C111.874 20.9635 111.66 21.1318 111.445 21.1318V21.1318ZM111.445 20.4344C111.397 20.4344 111.349 20.4584 111.302 20.4825C111.254 20.5306 111.23 20.5787 111.206 20.6268C111.206 20.6989 111.206 20.747 111.254 20.7951C111.302 20.8432 111.349 20.8673 111.397 20.8913C111.516 20.9154 111.636 20.8192 111.66 20.6989C111.66 20.6268 111.66 20.5787 111.612 20.5306C111.564 20.4825 111.516 20.4584 111.469 20.4344H111.445V20.4344ZM112.734 21.3243H112.662C112.399 21.2761 112.232 21.0356 112.256 20.7951C112.304 20.5306 112.543 20.3622 112.781 20.3863C112.901 20.4103 113.02 20.4584 113.092 20.5787C113.163 20.6749 113.187 20.7951 113.187 20.9394C113.163 21.0597 113.092 21.1799 112.996 21.2521C112.925 21.3002 112.829 21.3243 112.734 21.3243V21.3243ZM112.734 20.6268C112.614 20.6268 112.519 20.6989 112.519 20.8192C112.519 20.8913 112.519 20.9394 112.567 20.9875C112.614 21.0356 112.662 21.0597 112.71 21.0837C112.781 21.0837 112.829 21.0837 112.877 21.0356C112.925 20.9875 112.948 20.9394 112.972 20.8913C112.972 20.8192 112.972 20.7711 112.925 20.723C112.877 20.6749 112.829 20.6508 112.781 20.6268H112.734V20.6268ZM113.999 21.5167H113.927C113.665 21.4686 113.497 21.228 113.545 20.9875C113.593 20.723 113.832 20.5546 114.07 20.5787C114.333 20.6268 114.5 20.8673 114.476 21.1078C114.428 21.3483 114.214 21.5167 113.999 21.5167V21.5167ZM113.999 20.8192C113.951 20.8192 113.903 20.8432 113.856 20.8673C113.808 20.9154 113.784 20.9635 113.76 21.0116C113.76 21.0837 113.76 21.1318 113.808 21.1799C113.856 21.228 113.903 21.2521 113.951 21.2761C114.07 21.3002 114.19 21.204 114.214 21.0837C114.237 20.9635 114.142 20.8432 114.023 20.8192H113.999V20.8192Z" fill="white"/>
<path d="M131.829 25.413C131.829 25.413 131.805 25.413 131.829 25.413L111.54 22.3825C111.469 22.3825 111.421 22.3104 111.445 22.2382C111.445 22.1661 111.516 22.1179 111.588 22.142L131.853 25.1724C131.925 25.1724 131.972 25.2446 131.949 25.3168C131.925 25.3889 131.877 25.413 131.829 25.413Z" fill="#222220"/>
<path d="M123.379 51.3641C123.356 51.3641 123.356 51.3641 123.379 51.3641L112.543 49.7526C112.471 49.7526 112.423 49.6805 112.447 49.6083C112.447 49.5362 112.519 49.4881 112.59 49.5121L123.403 51.1235C123.475 51.1235 123.523 51.1957 123.499 51.2679C123.475 51.316 123.427 51.3641 123.379 51.3641V51.3641ZM116.959 51.7489L112.352 51.0514C112.28 51.0514 112.232 50.9792 112.256 50.9071C112.256 50.8349 112.328 50.7868 112.399 50.8109L117.006 51.5084C117.078 51.5084 117.126 51.5805 117.102 51.6527C117.078 51.7008 117.03 51.7489 116.959 51.7489ZM115.407 52.759L112.161 52.278C112.089 52.278 112.041 52.2058 112.065 52.1337C112.065 52.0615 112.137 52.0134 112.209 52.0375L115.431 52.5185C115.503 52.5185 115.55 52.5907 115.526 52.6628C115.526 52.7109 115.479 52.759 115.407 52.759ZM123.188 52.6628C123.188 52.6628 123.165 52.6628 123.188 52.6628L118.415 51.9413C118.343 51.9413 118.295 51.8691 118.319 51.797C118.319 51.7248 118.391 51.6767 118.462 51.7008L123.212 52.3983C123.284 52.3983 123.332 52.4704 123.308 52.5426C123.284 52.6388 123.236 52.6628 123.188 52.6628Z" fill="white"/>
<path d="M122.043 42.3211L111.206 40.7097C111.134 40.7097 111.087 40.6375 111.111 40.5654C111.111 40.4932 111.182 40.4451 111.254 40.4691L122.067 42.0806C122.138 42.0806 122.186 42.1527 122.162 42.2249C122.162 42.273 122.114 42.3211 122.043 42.3211ZM115.646 42.7059L111.015 42.0084C110.943 42.0084 110.896 41.9363 110.92 41.8641C110.92 41.792 110.991 41.7439 111.063 41.7679L115.67 42.4654C115.741 42.4654 115.789 42.5375 115.765 42.6097C115.765 42.6578 115.717 42.7059 115.646 42.7059ZM120.443 44.6541C120.42 44.6541 120.42 44.6541 120.443 44.6541L111.087 43.1869C111.015 43.1869 110.967 43.1148 110.991 43.0426C110.991 42.9705 111.063 42.9224 111.134 42.9464L120.467 44.4135C120.539 44.4135 120.587 44.4857 120.563 44.5578C120.539 44.606 120.491 44.6541 120.443 44.6541V44.6541ZM121.852 43.6199L117.078 42.8983C117.006 42.8983 116.959 42.8262 116.982 42.754C116.982 42.6819 117.054 42.6338 117.126 42.6578L121.876 43.3553C121.947 43.3553 121.995 43.4274 121.971 43.4996C121.971 43.5718 121.923 43.6199 121.852 43.6199Z" fill="white"/>
<path d="M111.134 24.0424L126.411 26.3272C126.649 26.3753 126.84 26.5918 126.793 26.8564L126.196 30.8488C126.148 31.0893 125.933 31.2818 125.671 31.2337L112.614 29.2855L110.8 30.6805L111.039 29.045L110.418 28.9488C110.18 28.9007 109.989 28.6842 110.036 28.4197L110.633 24.4272C110.657 24.1626 110.896 23.9943 111.134 24.0424V24.0424Z" fill="#FAC41A"/>
<path d="M126.22 30.9447C126.148 30.9447 126.101 30.8726 126.101 30.8004L126.697 26.8079C126.721 26.7117 126.697 26.6396 126.626 26.5674C126.578 26.4953 126.482 26.4472 126.411 26.4231L116.935 25.0041C116.863 25.0041 116.815 24.9319 116.839 24.8598C116.839 24.7876 116.911 24.7395 116.982 24.7636L126.459 26.1826C126.602 26.2066 126.745 26.2788 126.84 26.3991C126.936 26.5193 126.96 26.6877 126.936 26.832L126.339 30.8485C126.339 30.8966 126.268 30.9447 126.22 30.9447Z" fill="#222220"/>
<path d="M124.024 27.3128C124 27.3128 124 27.3128 124.024 27.3128L113.187 25.7014C113.116 25.7014 113.068 25.6292 113.092 25.5571C113.092 25.4849 113.163 25.4368 113.235 25.4608L124.048 27.0723C124.119 27.0723 124.167 27.1444 124.143 27.2166C124.119 27.2647 124.072 27.3128 124.024 27.3128ZM117.603 27.6976L112.996 27.0001C112.925 27.0001 112.877 26.928 112.901 26.8558C112.901 26.7837 112.972 26.7356 113.044 26.7596L117.651 27.4571C117.722 27.4571 117.77 27.5292 117.746 27.6014C117.722 27.6495 117.675 27.6976 117.603 27.6976ZM122.401 29.6457C122.377 29.6457 122.377 29.6457 122.401 29.6457L113.044 28.1786C112.972 28.1786 112.925 28.1065 112.948 28.0343C112.948 27.9622 113.02 27.9141 113.092 27.9381L122.425 29.4052C122.496 29.4052 122.544 29.4774 122.52 29.5495C122.496 29.5976 122.449 29.6457 122.401 29.6457V29.6457ZM123.833 28.6115C123.809 28.6115 123.809 28.6115 123.833 28.6115L119.059 27.89C118.987 27.89 118.94 27.8179 118.964 27.7457C118.964 27.6735 119.035 27.6254 119.107 27.6495L123.857 28.347C123.928 28.347 123.976 28.4191 123.952 28.4913C123.928 28.5634 123.881 28.6115 123.833 28.6115Z" fill="white"/>
<path d="M125.814 34.9851C125.814 34.9851 125.79 34.9851 125.814 34.9851L114.977 33.3737C114.906 33.3737 114.858 33.3016 114.882 33.2294C114.882 33.1573 114.954 33.1092 115.025 33.1332L125.838 34.7446C125.91 34.7446 125.957 34.8168 125.933 34.8889C125.91 34.937 125.862 34.9851 125.814 34.9851ZM119.417 35.3459C119.393 35.3459 119.393 35.3459 119.417 35.3459L114.786 34.6484C114.715 34.6484 114.667 34.5763 114.691 34.5041C114.691 34.432 114.763 34.3839 114.834 34.4079L119.441 35.1054C119.513 35.1054 119.56 35.1776 119.536 35.2497C119.513 35.2978 119.465 35.3459 119.417 35.3459ZM117.866 36.3561C117.842 36.3561 117.842 36.3561 117.866 36.3561L114.619 35.875C114.548 35.875 114.5 35.8029 114.524 35.7307C114.524 35.6586 114.595 35.6105 114.667 35.6345L117.889 36.1155C117.961 36.1155 118.009 36.1877 117.985 36.2599C117.961 36.308 117.913 36.3561 117.866 36.3561ZM125.623 36.2839C125.623 36.2839 125.599 36.2839 125.623 36.2839L120.849 35.5624C120.778 35.5624 120.73 35.4902 120.754 35.4181C120.754 35.3459 120.825 35.2978 120.897 35.3219L125.647 36.0193C125.719 36.0193 125.766 36.0915 125.742 36.1637C125.719 36.2358 125.671 36.2839 125.623 36.2839Z" fill="white"/>
<path d="M103.807 64.2313L79.3166 66.9971C78.8392 67.0452 78.4096 66.7085 78.3618 66.2275L76.5955 50.4019C76.5955 50.3778 76.6194 50.3538 76.6432 50.3538L102.756 47.3955C102.78 47.3955 102.804 47.4196 102.804 47.4436L104.57 63.2692C104.618 63.7502 104.284 64.1591 103.807 64.2313V64.2313Z" fill="#B48A04"/>
<path d="M79.2211 67.1415C78.7199 67.1415 78.3141 66.7807 78.2425 66.2756L76.4761 50.45C76.4761 50.3538 76.5239 50.2817 76.6194 50.2576L102.732 47.2993C102.828 47.2993 102.9 47.3474 102.923 47.4436L104.69 63.2692C104.714 63.5338 104.642 63.7743 104.475 63.9908C104.308 64.1832 104.093 64.3275 103.83 64.3515L79.3166 67.1174C79.2927 67.1174 79.245 67.1415 79.2211 67.1415ZM76.7148 50.4981L78.4812 66.2516C78.5289 66.6604 78.8869 66.9491 79.2927 66.901L103.807 64.111L103.83 64.2313L103.807 64.111C103.997 64.087 104.165 63.9908 104.308 63.8465C104.427 63.7022 104.475 63.5097 104.451 63.2933L102.685 47.5398L76.7148 50.4981V50.4981Z" fill="#222220"/>
<path opacity="0.29" d="M102.661 64.2317L80.5101 67.0216C80.0327 67.0697 87.3844 57.5935 87.3128 57.1125L76.5955 50.4263C76.5955 50.4023 76.6194 50.3782 76.6432 50.3782L102.756 47.4199C102.78 47.4199 102.804 47.444 102.804 47.468L93.8769 56.3669C93.9246 56.8239 103.138 64.1595 102.661 64.2317V64.2317Z" fill="#222220"/>
<path d="M76.6432 50.3778L87.4322 39.6269C88.0766 38.9776 89.0792 38.8573 89.843 39.3383L102.685 47.3714C102.709 47.3954 102.709 47.4195 102.685 47.4195L76.5955 50.3778" fill="#B48A04"/>
<path d="M76.5955 50.4983L76.5716 50.33L76.5477 50.3059L76.5716 50.2819L87.3367 39.5551C88.0289 38.8817 89.0792 38.7373 89.8907 39.2665L102.732 47.2995C102.78 47.3236 102.804 47.3957 102.804 47.4679C102.78 47.5401 102.732 47.5641 102.685 47.5882L76.5955 50.4983ZM88.8166 39.1703C88.3392 39.1703 87.8857 39.3627 87.5276 39.6994L76.9774 50.2097L102.398 47.3236L89.7952 39.4348C89.4849 39.2424 89.1508 39.1703 88.8166 39.1703V39.1703Z" fill="#222220"/>
<path opacity="0.29" d="M76.6432 50.3778L87.4322 39.6269C88.0766 38.9776 89.0792 38.8573 89.843 39.3383L102.685 47.3714C102.709 47.3954 102.709 47.4195 102.685 47.4195L76.5955 50.3778" fill="#222220"/>
<path d="M88.6256 55.4528L80.51 66.829L102.661 64.3036L92.2299 55.0199C91.1558 54.0578 89.4849 54.2502 88.6256 55.4528V55.4528Z" fill="#B48A04"/>
<path d="M80.2714 66.9731L88.5302 55.3804L88.6256 55.4526L88.5302 55.3804C88.9598 54.7791 89.6043 54.3943 90.3204 54.3222C91.0364 54.25 91.7764 54.4665 92.3015 54.9475L102.923 64.3996L80.2714 66.9731V66.9731ZM90.6307 54.5386C90.5352 54.5386 90.4636 54.5386 90.3681 54.5627C89.7236 54.6348 89.1269 54.9956 88.745 55.5247L80.7726 66.6844L102.398 64.2312L92.1822 55.1399C91.7286 54.7551 91.1796 54.5386 90.6307 54.5386V54.5386Z" fill="#222220"/>
<path d="M77.956 42.5856L95.0226 40.6374C96.1445 40.5172 97.147 41.1906 97.2425 42.1767L98.3404 51.9895L93.5904 56.3909L87.3128 57.1124L81.1068 53.2162L80.0327 43.716L77.956 42.5856V42.5856Z" fill="white"/>
<path d="M87.289 57.2328L81.0113 53.2644L79.9611 43.7642L78.338 42.4173L95.0226 40.5173C95.5955 40.4451 96.1445 40.5894 96.598 40.9021C97.0515 41.2148 97.3141 41.6717 97.3857 42.1768L98.4837 52.0378L93.6621 56.5113L87.289 57.2328ZM81.25 53.1201L87.3606 56.9683L93.5427 56.2708L98.2211 51.9416L97.1231 42.2009C97.0754 41.7679 96.8367 41.3831 96.4309 41.0945C96.0251 40.83 95.5239 40.7097 95.0226 40.7578L78.338 42.6578L80.152 43.6199L81.25 53.1201Z" fill="#222220"/>
<path opacity="0.29" d="M88.6256 54.4671L80.51 66.8294L102.661 64.304L92.2299 54.0582C91.1558 53.0962 89.4849 53.2645 88.6256 54.4671V54.4671Z" fill="#222220"/>
<path d="M88.6256 55.4528L80.51 66.829L102.661 64.3036L92.2299 55.0199C91.1558 54.0578 89.4849 54.2502 88.6256 55.4528V55.4528Z" fill="#B48A04"/>
<path d="M80.2714 66.9731L88.5302 55.3804L88.6256 55.4526L88.5302 55.3804C88.9598 54.7791 89.6043 54.3943 90.3204 54.3222C91.0364 54.25 91.7764 54.4665 92.3015 54.9475L102.923 64.3996L80.2714 66.9731V66.9731ZM90.6307 54.5386C90.5352 54.5386 90.4636 54.5386 90.3681 54.5627C89.7236 54.6348 89.1269 54.9956 88.745 55.5247L80.7726 66.6844L102.398 64.2312L92.1822 55.1399C91.7286 54.7551 91.1796 54.5386 90.6307 54.5386V54.5386Z" fill="#222220"/>
<path opacity="0.35" d="M89.4133 57.9542L83.446 66.2999L99.7249 64.448L92.0628 57.6656C91.2751 56.9441 90.0339 57.0884 89.4133 57.9542V57.9542Z" fill="#ECF1F7"/>
<path d="M76.6432 50.4019L87.3367 57.1121Z" fill="#B48A04"/>
<path d="M76.7053 50.2871L87.3811 56.9909L87.2548 57.1953L76.579 50.4913L76.7053 50.2871Z" fill="#222220"/>
<path d="M102.804 47.4199L93.8769 56.3669Z" fill="#B48A04"/>
<path d="M102.726 47.3433L102.894 47.514L93.9681 56.4459L93.7998 56.2751L102.726 47.3433Z" fill="#222220"/>
<path d="M80.5339 48.0687L77.5741 48.4054L77.0967 44.1243C77.0013 43.3307 77.5741 42.6091 78.3618 42.537L78.505 42.5129C79.2927 42.4167 80.0088 42.9939 80.0804 43.7876L80.5339 48.0687V48.0687Z" fill="#ECF1F7"/>
<path d="M77.4548 48.5498L76.9535 44.1484C76.9058 43.7396 77.0251 43.3307 77.2877 42.994C77.5503 42.6573 77.9083 42.4649 78.3141 42.4168L78.4573 42.3927C78.8631 42.3446 79.2688 42.4649 79.603 42.7294C79.9372 42.994 80.1281 43.3547 80.1759 43.7636L80.6771 48.165L77.4548 48.5498V48.5498ZM78.6482 42.6332H78.505L78.3618 42.6573C78.0038 42.7054 77.6935 42.8737 77.4786 43.1383C77.2638 43.4029 77.1683 43.7636 77.1922 44.1003L77.6457 48.2612L80.3907 47.9485L79.9133 43.7877C79.8656 43.4269 79.6985 43.1142 79.4359 42.8978C79.2211 42.7294 78.9347 42.6332 78.6482 42.6332V42.6332Z" fill="#222220"/>
<path d="M82.5628 45.8562C82.4912 45.8562 82.4435 45.8081 82.4435 45.76C82.4435 45.6878 82.4912 45.6397 82.5389 45.6157L94.9033 44.2207C94.9749 44.2207 95.0226 44.2688 95.0465 44.3169C95.0465 44.3891 94.9987 44.4372 94.951 44.4612L82.5628 45.8562V45.8562ZM83.0402 50.0892C82.9686 50.0892 82.9209 50.0411 82.9209 49.993C82.9209 49.9208 82.9686 49.8727 83.0163 49.8487L95.3807 48.4537C95.4523 48.4537 95.5 48.5018 95.5239 48.5499C95.5239 48.622 95.4761 48.6701 95.4284 48.6942L83.0402 50.0892ZM82.8015 47.9486C82.7299 47.9486 82.6822 47.9005 82.6822 47.8524C82.6822 47.7803 82.7299 47.7322 82.7776 47.7081L88.1244 47.1068C88.196 47.1068 88.2437 47.1549 88.2676 47.203C88.2676 47.2752 88.2198 47.3233 88.1721 47.3473L82.8015 47.9486V47.9486ZM89.5327 47.179C89.4611 47.179 89.4133 47.1309 89.4133 47.0828C89.4133 47.0106 89.4611 46.9625 89.5088 46.9385L95.142 46.2891C95.2136 46.2891 95.2613 46.3372 95.2852 46.3853C95.2852 46.4575 95.2374 46.5056 95.1897 46.5296L89.5327 47.179C89.5565 47.179 89.5565 47.179 89.5327 47.179V47.179ZM83.3028 52.4943C83.2312 52.4943 83.1834 52.4462 83.1834 52.3981C83.1834 52.3259 83.2312 52.2778 83.2789 52.2538L88.6256 51.6525C88.6972 51.6525 88.745 51.7006 88.7688 51.7487C88.7688 51.8208 88.7211 51.8689 88.6734 51.893L83.3028 52.4943C83.3028 52.4943 83.3266 52.4943 83.3028 52.4943Z" fill="#222220"/>
</svg>
