<svg width="295" height="147" viewBox="0 0 295 147" fill="none" xmlns="http://www.w3.org/2000/svg">
<path d="M0 0V146.5C5 127.827 20.8 86 64 56C107.2 26 152 29.5 177.5 34.5C208.497 40.5778 222 9.5 295 0H0Z" fill="#EDB112"/>
<path d="M0 0L1.11196e-05 135.519C5.00001 116.846 20.3 81 63.5 51C106.7 21 146.5 28 172 33C202.997 39.0778 222 9.5 295 0H0Z" fill="#EFB92A"/>
<path d="M0 0L1.11196e-05 135.519C5.00001 116.846 25.8 72 69 42C112.2 12 150.5 23 176 28C206.997 34.0778 211.5 9.5 284.5 0H0Z" fill="#F3C959"/>
</svg>
