<svg width="262" height="218" viewBox="0 0 262 218" fill="none" xmlns="http://www.w3.org/2000/svg">
<g style="mix-blend-mode:hard-light" opacity="0.16" clip-path="url(#clip0)">
<g style="mix-blend-mode:overlay" opacity="0.41">
<path d="M261.918 139.107C262.165 134.847 262.082 130.587 261.589 126.327C259.285 106.419 249.081 87.6586 233.94 74.3869C228.592 69.6353 222.42 65.4571 218.882 59.149C212.957 48.6627 213.451 36.5379 206.128 26.2155C198.804 15.8111 188.107 7.70065 176.011 3.60445C140.052 -8.76609 89.6922 11.3872 94.218 54.5612C94.218 54.7251 94.218 54.9709 94.3003 55.2166C94.8763 64.1463 87.8819 71.6834 78.8304 71.9291C45.669 72.7484 17.1156 98.1448 11.0264 130.423C7.07665 151.15 13.495 173.925 28.8003 188.589C40.1558 199.567 55.4611 205.547 70.6841 209.725C101.295 218 133.551 219.72 165.067 216.607C194.607 213.658 225.794 205.22 244.884 182.527C255.17 170.402 261.013 154.918 261.918 139.107Z" fill="#292C33"/>
</g>
<g style="mix-blend-mode:overlay" opacity="0.88">
<path d="M234.599 141.155C234.763 137.797 234.681 134.438 234.352 131.161C232.541 115.595 224.56 100.849 212.71 90.4444C208.514 86.7578 203.659 83.3989 200.943 78.5654C196.335 70.373 196.665 60.8698 190.905 52.7593C185.144 44.6488 176.751 38.2587 167.371 34.9818C139.229 25.2328 99.8134 41.1261 103.352 74.8788C103.352 74.9607 103.352 75.2065 103.434 75.3703C103.928 82.4158 98.4146 88.3144 91.3379 88.4782C65.3354 89.0517 42.9535 109.041 38.1809 134.274C35.1363 150.495 40.1558 168.354 52.0873 179.824C60.9742 188.426 72.988 193.095 84.9196 196.372C108.865 202.844 134.127 204.237 158.895 201.779C182.018 199.485 206.457 192.849 221.433 175.072C229.332 165.651 233.858 153.526 234.599 141.155Z" fill="#292C33"/>
</g>
<g style="mix-blend-mode:overlay" opacity="0.31">
<path d="M246.695 40.3064C251.194 40.3064 254.841 36.6752 254.841 32.1959C254.841 27.7166 251.194 24.0854 246.695 24.0854C242.196 24.0854 238.548 27.7166 238.548 32.1959C238.548 36.6752 242.196 40.3064 246.695 40.3064Z" fill="#292C33"/>
</g>
<g style="mix-blend-mode:overlay" opacity="0.31">
<path d="M68.4623 32.1142C73.6431 32.1142 77.843 27.9329 77.843 22.7749C77.843 17.6169 73.6431 13.4355 68.4623 13.4355C63.2815 13.4355 59.0817 17.6169 59.0817 22.7749C59.0817 27.9329 63.2815 32.1142 68.4623 32.1142Z" fill="#292C33"/>
</g>
<g style="mix-blend-mode:overlay" opacity="0.31">
<path d="M12.1784 214.805C18.9043 214.805 24.3568 209.376 24.3568 202.68C24.3568 195.984 18.9043 190.555 12.1784 190.555C5.45245 190.555 0 195.984 0 202.68C0 209.376 5.45245 214.805 12.1784 214.805Z" fill="#292C33"/>
</g>
<path d="M108.042 107.239C131.81 107.239 151.078 88.056 151.078 64.3927C151.078 40.7293 131.81 21.5464 108.042 21.5464C84.2741 21.5464 65.0063 40.7293 65.0063 64.3927C65.0063 88.056 84.2741 107.239 108.042 107.239Z" fill="#2EC6B0"/>
<path d="M137.912 95.2779C137.83 95.2779 137.665 95.2779 137.583 95.1959C137.418 95.0321 137.418 94.7863 137.583 94.6225C145.647 86.5939 150.09 75.9438 150.09 64.6383C150.09 53.3327 145.647 42.6007 137.583 34.654C129.519 26.6255 118.822 22.2016 107.466 22.2016C96.1106 22.2016 85.3311 26.6255 77.3493 34.654C77.1847 34.8179 76.9378 34.8179 76.7733 34.654C76.6087 34.4902 76.6087 34.2444 76.7733 34.0806C85.0019 25.8881 95.8637 21.3823 107.548 21.3823C119.151 21.3823 130.095 25.8881 138.324 34.0806C146.552 42.273 151.078 53.087 151.078 64.7202C151.078 76.3534 146.552 87.1674 138.324 95.3598C138.159 95.1959 137.994 95.2779 137.912 95.2779Z" fill="#222220"/>
<path d="M108.042 96.9982C126.129 96.9982 140.792 82.4001 140.792 64.3924C140.792 46.3847 126.129 31.7866 108.042 31.7866C89.9547 31.7866 75.2921 46.3847 75.2921 64.3924C75.2921 82.4001 89.9547 96.9982 108.042 96.9982Z" fill="white"/>
<path d="M108.042 97.4078C89.7745 97.4078 74.8807 82.5795 74.8807 64.3924C74.8807 46.2052 89.7745 31.377 108.042 31.377C108.289 31.377 108.454 31.5408 108.454 31.7866C108.454 32.0323 108.289 32.1962 108.042 32.1962C90.1859 32.1962 75.7035 46.6148 75.7035 64.3924C75.7035 82.1699 90.1859 96.5885 108.042 96.5885C108.289 96.5885 108.454 96.7524 108.454 96.9981C108.454 97.2439 108.207 97.4078 108.042 97.4078Z" fill="#222220"/>
<path d="M116.518 70.6189H107.631C105.82 70.6189 104.339 69.1443 104.339 67.342V55.0534C104.339 53.4968 105.656 52.186 107.219 52.186C108.783 52.186 110.099 53.4968 110.099 55.0534V64.8843H116.6C118.163 64.8843 119.48 66.1951 119.48 67.7516C119.48 69.3082 118.081 70.6189 116.518 70.6189Z" fill="#222220"/>
<path d="M41.1432 79.3024L87.5528 125.508C96.6043 134.519 111.334 134.519 120.385 125.508L125.898 120.019C127.955 117.971 127.955 114.53 125.898 112.482L106.972 93.6391C104.915 91.591 101.459 91.591 99.402 93.6391L89.9391 103.06C89.1985 103.798 87.9642 103.798 87.2236 103.06L64.348 80.1217C63.6074 79.3843 63.6074 78.2374 64.348 77.5001L73.6464 68.2427C75.7035 66.1946 75.7035 62.7537 73.6464 60.7056L54.2268 41.2896C52.1696 39.2415 48.7959 39.2415 46.7387 41.2077L41.4724 46.287C32.0917 55.2987 32.0094 70.1269 41.1432 79.3024Z" fill="#222220"/>
<path d="M42.6244 47.1882L68.7092 73.1581L69.6143 72.2569L73.7286 68.1607C75.7858 66.1126 75.7858 62.6718 73.7286 60.6237L54.2267 41.2896C52.1696 39.2415 48.7958 39.2415 46.7387 41.2077L41.4724 46.287L42.6244 47.1882Z" fill="#ECF1F7"/>
<path d="M68.7092 73.7315L42.3775 47.5158L40.8964 46.2869L46.4918 40.8799C48.7136 38.7499 52.3342 38.7499 54.5559 40.9618L73.9755 60.2959C76.1972 62.5079 76.1972 66.1945 73.9755 68.4064L68.7092 73.7315ZM42.0484 46.2869L42.8712 46.9423L68.6269 72.5845L73.3172 67.9149C74.2224 67.0137 74.7984 65.7848 74.7984 64.3921C74.7984 63.0813 74.3046 61.8525 73.3172 60.8694L53.9799 41.6172C52.0873 39.733 48.9604 39.733 47.0678 41.5353L42.0484 46.2869Z" fill="#222220"/>
<path d="M95.6168 99.1281L121.702 125.098L122.607 124.197L126.721 120.101C128.778 118.053 128.778 114.612 126.721 112.564L107.302 93.2296C105.244 91.1815 101.871 91.1815 99.8135 93.1477L94.5471 98.2269L95.6168 99.1281Z" fill="#ECF1F7"/>
<path d="M121.702 125.671L95.37 99.4557L93.8888 98.2268L99.4843 92.8198C101.706 90.6898 105.327 90.6898 107.548 92.9018L126.968 112.236C128.038 113.301 128.696 114.775 128.696 116.332C128.696 117.889 128.12 119.281 126.968 120.428L121.702 125.671ZM95.1231 98.1449L95.946 98.8003L121.702 124.443L126.392 119.773C127.297 118.872 127.873 117.643 127.873 116.25C127.873 114.939 127.379 113.71 126.392 112.727L106.972 93.4752C105.08 91.591 101.953 91.591 100.06 93.3933L95.1231 98.1449Z" fill="#222220"/>
<path d="M44.5992 44.1567L60.4805 59.9681L44.5992 44.1567Z" fill="#ECF1F7"/>
<path d="M60.4805 60.3777C60.3982 60.3777 60.2337 60.3777 60.1514 60.2958L44.3524 44.4844C44.1878 44.3206 44.1878 44.0748 44.3524 43.911C44.5169 43.7471 44.7638 43.7471 44.9284 43.911L60.8097 59.7223C60.9742 59.8862 60.9742 60.1319 60.8097 60.2958C60.7274 60.3777 60.5628 60.3777 60.4805 60.3777Z" fill="#222220"/>
<path d="M107.795 107.075L123.677 122.886L107.795 107.075Z" fill="#ECF1F7"/>
<path d="M123.676 123.296C123.594 123.296 123.43 123.296 123.347 123.214L107.466 107.32C107.302 107.157 107.302 106.911 107.466 106.747C107.631 106.583 107.878 106.583 108.042 106.747L123.923 122.558C124.088 122.722 124.088 122.968 123.923 123.132C123.841 123.214 123.759 123.296 123.676 123.296Z" fill="#222220"/>
<path d="M193.373 204.073L132.563 195.143C125.651 194.16 120.961 187.77 121.948 180.889L143.754 34.0806C144.742 27.199 151.16 22.5293 158.072 23.5124L218.882 32.5241C225.794 33.5072 230.484 39.8972 229.497 46.7789L207.691 193.587C206.621 200.387 200.203 205.138 193.373 204.073Z" fill="#222220"/>
<path d="M148.527 37.3062L223.984 48.4167L203.397 186.994L127.942 175.883L148.527 37.3062Z" fill="#ECF1F7"/>
<path d="M148.473 37.2549L223.929 48.3654L222.387 58.7378L146.931 47.6273L148.473 37.2549Z" fill="#FAC41A"/>
<path d="M164.408 194.98C164.161 194.98 163.915 194.98 163.668 194.898C162.351 194.734 161.199 193.997 160.459 192.932C159.636 191.867 159.389 190.556 159.553 189.327C159.718 188.016 160.459 186.869 161.528 186.132C162.598 185.313 163.915 184.985 165.149 185.231C166.465 185.395 167.617 186.132 168.358 187.197C169.181 188.262 169.428 189.573 169.263 190.802C168.852 193.177 166.795 194.98 164.408 194.98ZM164.326 185.968C163.421 185.968 162.598 186.214 161.857 186.787C160.952 187.443 160.376 188.426 160.212 189.491C160.047 190.556 160.294 191.621 160.952 192.522C161.611 193.423 162.598 193.997 163.668 194.16C165.889 194.488 168.029 192.932 168.358 190.72C168.523 189.655 168.276 188.59 167.617 187.688C166.959 186.787 165.972 186.214 164.902 186.05C164.737 185.968 164.573 185.968 164.326 185.968ZM175.27 35.9651H175.023C174.612 35.8831 174.2 35.7193 173.954 35.3097C173.707 34.982 173.624 34.5724 173.624 34.1627C173.624 33.7531 173.871 33.3435 174.283 33.0977C174.612 32.8519 175.023 32.77 175.435 32.77C175.846 32.8519 176.258 33.0158 176.504 33.4254C176.751 33.7531 176.834 34.1627 176.834 34.5724C176.751 35.3916 176.093 35.9651 175.27 35.9651ZM175.27 33.5893C175.106 33.5893 174.941 33.6712 174.859 33.7531C174.694 33.835 174.612 34.0808 174.53 34.2447C174.53 34.4085 174.53 34.6543 174.694 34.8181C174.776 34.982 175.023 35.0639 175.188 35.1458C175.352 35.1458 175.599 35.1458 175.764 34.982C175.928 34.9 176.011 34.6543 176.093 34.4904C176.093 34.3266 176.093 34.0808 175.928 33.917C175.846 33.7531 175.599 33.6712 175.435 33.5893H175.27ZM199.791 39.5697H199.545L180.29 36.7024C179.878 36.6205 179.467 36.4566 179.22 36.047C178.973 35.7193 178.891 35.3097 178.891 34.9C178.973 34.4904 179.138 34.0808 179.549 33.835C179.878 33.5893 180.29 33.5073 180.701 33.5073L199.956 36.3747C200.367 36.4566 200.779 36.6205 201.026 37.0301C201.273 37.3578 201.355 37.7674 201.355 38.177C201.273 38.5866 201.108 38.9963 200.697 39.242C200.45 39.4878 200.121 39.5697 199.791 39.5697ZM180.536 34.4085C180.125 34.4085 179.878 34.6543 179.796 35.0639C179.796 35.2277 179.796 35.4735 179.96 35.6374C180.043 35.8012 180.29 35.8831 180.454 35.9651L199.709 38.8324C200.121 38.9143 200.532 38.5866 200.614 38.177C200.614 38.0132 200.614 37.7674 200.45 37.6035C200.367 37.4397 200.121 37.3578 199.956 37.2758L180.619 34.4085H180.536Z" fill="#ECF1F7"/>
<path d="M203.741 144.596L151.078 136.813C150.255 136.65 149.432 137.305 149.268 138.124L147.21 151.724C147.046 152.543 147.704 153.362 148.527 153.526L193.538 160.162L198.146 166.552L198.969 160.981L201.108 161.309C201.931 161.473 202.754 160.817 202.918 159.998L204.976 146.398C205.14 145.497 204.564 144.76 203.741 144.596Z" fill="#67DCCB"/>
<path d="M193.62 160.571C193.538 160.571 193.538 160.571 193.62 160.571L148.527 153.936C148.033 153.854 147.54 153.608 147.21 153.198C146.881 152.789 146.799 152.215 146.881 151.724L148.938 138.124C149.103 137.059 150.09 136.322 151.16 136.486L163.339 138.288C163.585 138.288 163.75 138.534 163.668 138.78C163.668 139.025 163.421 139.189 163.174 139.107L150.996 137.305C150.337 137.223 149.761 137.633 149.679 138.288L147.622 151.887C147.54 152.215 147.622 152.461 147.869 152.707C148.033 152.952 148.362 153.116 148.609 153.198L193.62 159.834C193.867 159.834 194.031 160.08 193.949 160.326C193.949 160.408 193.785 160.571 193.62 160.571Z" fill="#222220"/>
<path d="M212.052 88.2324L159.389 80.4496C158.566 80.2857 157.743 80.9411 157.579 81.7604L155.521 95.3598C155.357 96.179 156.015 96.9983 156.838 97.1621L201.849 103.798L206.457 110.188L207.28 104.617L209.419 104.945C210.242 105.109 211.065 104.453 211.229 103.634L213.286 90.0347C213.533 89.1335 212.957 88.3962 212.052 88.2324Z" fill="#67DCCB"/>
<path d="M206.868 111.253L201.766 104.208L156.92 97.5717C155.851 97.4079 155.11 96.4248 155.275 95.3598C155.275 95.114 155.521 94.9501 155.768 95.0321C156.015 95.0321 156.18 95.2778 156.097 95.5236C156.015 95.8513 156.097 96.0971 156.344 96.3429C156.509 96.5886 156.838 96.7525 157.085 96.8344L202.26 103.47L206.374 109.205L207.115 104.208L209.666 104.617C209.995 104.699 210.242 104.617 210.489 104.371C210.736 104.208 210.9 103.88 210.982 103.634L212.299 94.6224C212.299 94.3767 212.546 94.2128 212.793 94.2947C213.04 94.2947 213.204 94.5405 213.122 94.7863L211.805 103.798C211.723 104.289 211.476 104.781 211.065 105.109C210.653 105.436 210.077 105.518 209.584 105.436L207.856 105.191L206.868 111.253Z" fill="#222220"/>
<path d="M145.4 105.764L198.063 113.547C198.886 113.711 199.545 114.448 199.38 115.349L197.323 128.949C197.158 129.768 196.418 130.423 195.513 130.259L150.502 123.623L144.248 128.375L145.071 122.804L142.932 122.477C142.109 122.313 141.45 121.575 141.615 120.674L143.672 107.075C143.754 106.256 144.577 105.6 145.4 105.764Z" fill="#FAC41A"/>
<path d="M195.842 130.669H195.513L167.371 126.491C167.124 126.491 166.959 126.245 167.041 126C167.041 125.754 167.288 125.59 167.535 125.672L195.677 129.85C196.006 129.932 196.253 129.85 196.5 129.604C196.747 129.44 196.911 129.113 196.994 128.867L199.051 115.268C199.133 114.612 198.722 114.039 198.063 113.957C197.817 113.957 197.652 113.711 197.734 113.465C197.734 113.219 197.981 113.056 198.228 113.138C199.298 113.301 200.038 114.284 199.874 115.349L197.817 128.949C197.734 129.44 197.487 129.932 197.076 130.26C196.665 130.505 196.253 130.669 195.842 130.669Z" fill="#222220"/>
<path d="M129.809 163.103L205.265 174.214L203.375 186.937L127.919 175.827L129.809 163.103Z" fill="white"/>
<path d="M136.431 175.072C138.976 175.072 141.039 173.018 141.039 170.484C141.039 167.95 138.976 165.896 136.431 165.896C133.886 165.896 131.823 167.95 131.823 170.484C131.823 173.018 133.886 175.072 136.431 175.072Z" fill="#67DCCB"/>
<path opacity="0.33" d="M196.582 183.592C196.418 183.592 196.171 183.592 196.006 183.51L147.046 176.301C145.976 176.137 144.989 175.564 144.33 174.663C143.672 173.761 143.425 172.696 143.59 171.631C143.919 169.419 145.976 167.863 148.28 168.191L197.241 175.4C199.462 175.728 201.026 177.776 200.697 179.988C200.367 182.118 198.639 183.592 196.582 183.592ZM196.171 182.691C197.981 182.937 199.627 181.708 199.874 179.906C200.038 179.005 199.791 178.185 199.298 177.448C198.804 176.711 197.981 176.301 197.158 176.137L148.198 168.928C146.388 168.682 144.742 169.911 144.495 171.713C144.33 172.614 144.577 173.434 145.071 174.171C145.565 174.908 146.388 175.318 147.21 175.482L196.171 182.691Z" fill="#FAC41A"/>
<path d="M153.217 44.7307H152.97C152.065 44.5668 151.489 43.7476 151.572 42.9284C151.654 42.5187 151.901 42.1091 152.23 41.8633C152.559 41.6176 152.97 41.5356 153.464 41.5356C154.369 41.6995 154.945 42.5187 154.863 43.338C154.698 44.1572 153.958 44.7307 153.217 44.7307ZM153.217 42.3549C153.053 42.3549 152.888 42.4368 152.724 42.5187C152.559 42.6826 152.477 42.8464 152.394 43.0103C152.394 43.256 152.394 43.4199 152.559 43.5837C152.724 43.7476 152.888 43.8295 153.053 43.9114C153.464 43.9934 153.876 43.6657 153.958 43.256C153.958 43.0103 153.958 42.8464 153.793 42.6826C153.629 42.5187 153.464 42.4368 153.3 42.3549H153.217ZM157.661 45.3861H157.414C156.509 45.2222 155.933 44.403 156.015 43.5837C156.18 42.6826 157.003 42.1091 157.825 42.191C158.237 42.273 158.648 42.4368 158.895 42.8464C159.142 43.1741 159.224 43.5837 159.224 44.0753C159.142 44.4849 158.895 44.8945 158.566 45.1403C158.319 45.3041 157.99 45.3861 157.661 45.3861ZM157.661 43.0103C157.249 43.0103 156.92 43.256 156.92 43.6657C156.92 43.9114 156.92 44.0753 157.085 44.2391C157.249 44.403 157.414 44.4849 157.579 44.5668C157.825 44.5668 157.99 44.5668 158.155 44.403C158.319 44.2391 158.401 44.0753 158.484 43.9114C158.484 43.6657 158.484 43.5018 158.319 43.338C158.155 43.1741 157.99 43.0922 157.825 43.0103H157.661ZM162.022 46.0415H161.775C160.87 45.8776 160.294 45.0584 160.459 44.2391C160.623 43.338 161.446 42.7645 162.269 42.8464C163.174 43.0103 163.75 43.8295 163.668 44.6488C163.503 45.468 162.763 46.0415 162.022 46.0415ZM162.022 43.6657C161.857 43.6657 161.693 43.7476 161.528 43.8295C161.364 43.9934 161.281 44.1572 161.199 44.3211C161.199 44.5668 161.199 44.7307 161.364 44.8945C161.528 45.0584 161.693 45.1403 161.857 45.2222C162.269 45.3041 162.68 44.9765 162.763 44.5668C162.845 44.1572 162.516 43.7476 162.104 43.6657H162.022Z" fill="white"/>
<path d="M223.49 59.3134C223.49 59.3134 223.408 59.3134 223.49 59.3134L153.546 48.9909C153.3 48.9909 153.135 48.7452 153.217 48.4994C153.217 48.2536 153.464 48.0898 153.711 48.1717L223.572 58.4941C223.819 58.4941 223.984 58.7399 223.901 58.9857C223.819 59.2315 223.655 59.3134 223.49 59.3134Z" fill="#222220"/>
<path d="M194.361 147.709C194.278 147.709 194.278 147.709 194.361 147.709L157.003 142.22C156.756 142.22 156.591 141.975 156.673 141.729C156.673 141.483 156.92 141.319 157.167 141.401L194.443 146.89C194.69 146.89 194.854 147.136 194.772 147.382C194.69 147.545 194.525 147.709 194.361 147.709ZM172.226 149.02L156.344 146.644C156.097 146.644 155.933 146.399 156.015 146.153C156.015 145.907 156.262 145.743 156.509 145.825L172.39 148.201C172.637 148.201 172.802 148.447 172.719 148.692C172.637 148.856 172.472 149.02 172.226 149.02ZM166.877 152.461L155.686 150.822C155.439 150.822 155.275 150.577 155.357 150.331C155.357 150.085 155.604 149.921 155.851 150.003L166.959 151.642C167.206 151.642 167.371 151.887 167.288 152.133C167.288 152.297 167.124 152.461 166.877 152.461ZM193.702 152.133C193.702 152.133 193.62 152.133 193.702 152.133L177.245 149.676C176.998 149.676 176.834 149.43 176.916 149.184C176.916 148.938 177.163 148.774 177.41 148.856L193.785 151.232C194.031 151.232 194.196 151.478 194.114 151.724C194.031 152.051 193.867 152.133 193.702 152.133Z" fill="white"/>
<path d="M189.752 116.906L152.394 111.417C152.148 111.417 151.983 111.171 152.065 110.925C152.065 110.679 152.312 110.516 152.559 110.597L189.835 116.086C190.082 116.086 190.246 116.332 190.164 116.578C190.164 116.742 189.999 116.906 189.752 116.906ZM167.7 118.216L151.736 115.841C151.489 115.841 151.325 115.595 151.407 115.349C151.407 115.103 151.654 114.939 151.901 115.021L167.782 117.397C168.029 117.397 168.193 117.643 168.111 117.889C168.111 118.053 167.947 118.216 167.7 118.216ZM184.239 124.852C184.157 124.852 184.157 124.852 184.239 124.852L151.983 119.855C151.736 119.855 151.572 119.609 151.654 119.363C151.654 119.118 151.901 118.954 152.148 119.036L184.322 124.033C184.568 124.033 184.733 124.279 184.651 124.525C184.568 124.688 184.404 124.852 184.239 124.852ZM189.094 121.33L172.637 118.872C172.39 118.872 172.225 118.626 172.308 118.38C172.308 118.134 172.555 117.971 172.801 118.053L189.176 120.428C189.423 120.428 189.588 120.674 189.506 120.92C189.506 121.166 189.341 121.33 189.094 121.33Z" fill="white"/>
<path d="M152.148 54.6436L204.811 62.4264C205.634 62.5903 206.292 63.3276 206.127 64.2287L204.07 77.8281C203.906 78.6474 203.165 79.3028 202.26 79.1389L157.249 72.5031L150.996 77.2547L151.818 71.6838L149.679 71.3561C148.856 71.1923 148.198 70.455 148.362 69.5538L150.42 55.9544C150.502 55.0532 151.325 54.4798 152.148 54.6436Z" fill="#FAC41A"/>
<path d="M204.153 78.1559C203.906 78.1559 203.741 77.9101 203.741 77.6643L205.798 64.0649C205.881 63.7372 205.798 63.4915 205.552 63.2457C205.387 62.9999 205.058 62.8361 204.811 62.7542L172.143 57.9206C171.896 57.9206 171.732 57.6749 171.814 57.4291C171.814 57.1833 172.061 57.0195 172.308 57.1014L204.976 61.9349C205.469 62.0168 205.963 62.2626 206.292 62.6722C206.621 63.0819 206.704 63.6553 206.621 64.1469L204.564 77.8282C204.564 77.992 204.317 78.1559 204.153 78.1559Z" fill="#222220"/>
<path d="M196.582 65.7855C196.5 65.7855 196.5 65.7855 196.582 65.7855L159.224 60.2966C158.977 60.2966 158.813 60.0508 158.895 59.8051C158.895 59.5593 159.142 59.3954 159.389 59.4774L196.665 64.9663C196.911 64.9663 197.076 65.2121 196.994 65.4578C196.911 65.6217 196.747 65.7855 196.582 65.7855ZM174.447 67.0963L158.566 64.7205C158.319 64.7205 158.155 64.4747 158.237 64.229C158.237 63.9832 158.484 63.8193 158.731 63.9013L174.612 66.2771C174.859 66.2771 175.023 66.5228 174.941 66.7686C174.859 66.9325 174.694 67.0963 174.447 67.0963ZM190.987 73.7322C190.905 73.7322 190.905 73.7322 190.987 73.7322L158.731 68.7348C158.484 68.7348 158.319 68.489 158.401 68.2432C158.401 67.9975 158.648 67.8336 158.895 67.9156L191.069 72.9129C191.316 72.9129 191.481 73.1587 191.398 73.4045C191.316 73.5683 191.151 73.7322 190.987 73.7322ZM195.924 70.2094C195.842 70.2094 195.842 70.2094 195.924 70.2094L179.467 67.7517C179.22 67.7517 179.055 67.5059 179.138 67.2602C179.138 67.0144 179.384 66.8505 179.631 66.9325L196.006 69.3083C196.253 69.3083 196.418 69.554 196.335 69.7998C196.253 70.0456 196.089 70.2094 195.924 70.2094Z" fill="white"/>
<path d="M202.754 91.9193C202.754 91.9193 202.671 91.9193 202.754 91.9193L165.396 86.4304C165.149 86.4304 164.984 86.1846 165.067 85.9389C165.067 85.6931 165.313 85.5292 165.56 85.6112L202.836 91.1001C203.083 91.1001 203.247 91.3458 203.165 91.5916C203.083 91.7555 202.918 91.9193 202.754 91.9193ZM180.701 93.1482C180.619 93.1482 180.619 93.1482 180.701 93.1482L164.737 90.7724C164.491 90.7724 164.326 90.5266 164.408 90.2808C164.408 90.0351 164.655 89.8712 164.902 89.9531L180.783 92.3289C181.03 92.3289 181.195 92.5747 181.112 92.8205C181.03 92.9843 180.866 93.1482 180.701 93.1482ZM175.352 96.589C175.27 96.589 175.27 96.589 175.352 96.589L164.161 94.9505C163.915 94.9505 163.75 94.7047 163.832 94.459C163.832 94.2132 164.079 94.0493 164.326 94.1313L175.435 95.7697C175.682 95.7697 175.846 96.0155 175.764 96.2613C175.682 96.4251 175.517 96.589 175.352 96.589ZM202.095 96.3432C202.095 96.3432 202.013 96.3432 202.095 96.3432L185.638 93.8855C185.391 93.8855 185.227 93.6397 185.309 93.3939C185.309 93.1482 185.556 92.9843 185.803 93.0662L202.178 95.442C202.425 95.442 202.589 95.6878 202.507 95.9336C202.425 96.1794 202.26 96.3432 202.095 96.3432Z" fill="white"/>
<path d="M126.886 191.538L42.4598 200.96C40.8141 201.123 39.3329 199.976 39.1684 198.338L33.0792 144.432C33.0792 144.35 33.1614 144.268 33.2437 144.268L123.265 134.191C123.347 134.191 123.43 134.273 123.43 134.355L129.519 188.261C129.683 189.9 128.531 191.292 126.886 191.538Z" fill="#B48A04"/>
<path d="M42.1307 201.451C40.4027 201.451 39.0038 200.222 38.7569 198.502L32.6677 144.596C32.6677 144.268 32.8323 144.022 33.1614 143.94L123.183 133.864C123.512 133.864 123.759 134.028 123.841 134.355L129.93 188.261C130.013 189.163 129.766 189.982 129.19 190.719C128.614 191.374 127.873 191.866 126.968 191.948L42.4598 201.369C42.3775 201.369 42.213 201.451 42.1307 201.451ZM33.4906 144.76L39.5798 198.42C39.7444 199.813 40.9787 200.796 42.3775 200.632L126.886 191.129L126.968 191.538L126.886 191.129C127.544 191.047 128.12 190.719 128.614 190.228C129.025 189.736 129.19 189.081 129.107 188.343L123.018 134.683L33.4906 144.76Z" fill="#222220"/>
<path opacity="0.29" d="M122.936 191.538L46.5741 201.042C44.9284 201.205 70.2726 168.927 70.0258 167.289L33.0792 144.514C33.0792 144.432 33.1614 144.35 33.2437 144.35L123.265 134.273C123.347 134.273 123.43 134.355 123.43 134.437L92.6545 164.749C92.8191 166.306 124.582 191.293 122.936 191.538Z" fill="#222220"/>
<path d="M33.2437 144.35L70.4372 107.73C72.6589 105.518 76.115 105.108 78.7481 106.747L123.018 134.11C123.101 134.192 123.101 134.273 123.018 134.273L33.0792 144.35" fill="#B48A04"/>
<path d="M33.08 144.76L32.9977 144.186L32.9154 144.104L32.9977 144.022L70.1089 107.484C72.4952 105.19 76.1158 104.699 78.9135 106.501L123.184 133.864C123.348 133.946 123.43 134.192 123.43 134.437C123.348 134.683 123.184 134.765 123.019 134.847L33.08 144.76ZM75.2106 106.173C73.5649 106.173 72.0015 106.829 70.7672 107.976L34.3966 143.777L122.032 133.946L78.5844 107.075C77.5147 106.419 76.3626 106.173 75.2106 106.173Z" fill="#222220"/>
<path opacity="0.29" d="M33.2437 144.35L70.4372 107.73C72.6589 105.518 76.115 105.108 78.7481 106.747L123.018 134.11C123.101 134.192 123.101 134.273 123.018 134.273L33.0792 144.35" fill="#222220"/>
<path d="M74.5515 161.636L46.5742 200.386L122.936 191.784L86.9768 160.161C83.2739 156.884 77.5139 157.54 74.5515 161.636Z" fill="#B48A04"/>
<path d="M45.7513 200.878L74.2224 161.39L74.5515 161.636L74.2224 161.39C75.7035 159.342 77.9253 158.031 80.3939 157.786C82.8625 157.54 85.4133 158.277 87.2236 159.916L123.841 192.112L45.7513 200.878ZM81.4636 158.523C81.1344 158.523 80.8876 158.523 80.5584 158.605C78.3367 158.851 76.2795 160.079 74.963 161.882L47.4793 199.894L122.031 191.538L86.8122 160.571C85.2488 159.26 83.3562 158.523 81.4636 158.523Z" fill="#222220"/>
<path d="M37.7695 117.807L96.6043 111.171C100.472 110.761 103.928 113.055 104.257 116.414L108.042 149.839L91.6671 164.831L70.0257 167.289L48.6313 154.017L44.9284 121.657L37.7695 117.807Z" fill="white"/>
<path d="M69.9435 167.698L48.3021 154.181L44.6815 121.821L39.0861 117.233L96.6043 110.761C98.5791 110.515 100.472 111.007 102.035 112.072C103.599 113.137 104.504 114.693 104.751 116.414L108.536 150.003L91.9139 165.24L69.9435 167.698ZM49.125 153.689L70.1903 166.797L91.5025 164.421L107.631 149.675L103.845 116.496C103.681 115.021 102.858 113.71 101.459 112.727C100.06 111.826 98.3323 111.416 96.6043 111.58L39.0861 118.052L45.3398 121.329L49.125 153.689Z" fill="#222220"/>
<path opacity="0.29" d="M74.5515 158.277L46.5742 200.386L122.936 191.784L86.9768 156.884C83.2739 153.607 77.5139 154.181 74.5515 158.277Z" fill="#222220"/>
<path d="M74.5515 161.636L46.5742 200.386L122.936 191.784L86.9768 160.161C83.2739 156.884 77.5139 157.54 74.5515 161.636Z" fill="#B48A04"/>
<path d="M45.7513 200.878L74.2224 161.39L74.5515 161.636L74.2224 161.39C75.7035 159.342 77.9253 158.031 80.3939 157.786C82.8625 157.54 85.4133 158.277 87.2236 159.916L123.841 192.112L45.7513 200.878ZM81.4636 158.523C81.1344 158.523 80.8876 158.523 80.5584 158.605C78.3367 158.851 76.2795 160.079 74.963 161.882L47.4793 199.894L122.031 191.538L86.8122 160.571C85.2488 159.26 83.3562 158.523 81.4636 158.523Z" fill="#222220"/>
<path opacity="0.35" d="M77.267 170.156L56.6954 198.584L112.815 192.276L86.4008 169.173C83.6853 166.716 79.4064 167.207 77.267 170.156Z" fill="#ECF1F7"/>
<path d="M33.2438 144.432L70.1081 167.289L33.2438 144.432Z" fill="#B48A04"/>
<path d="M33.4577 144.041L70.2611 166.876L69.8258 167.572L33.0224 144.737L33.4577 144.041Z" fill="#222220"/>
<path d="M123.43 134.273L92.6545 164.749L123.43 134.273Z" fill="#B48A04"/>
<path d="M123.161 134.013L123.741 134.595L92.9689 165.019L92.3887 164.437L123.161 134.013Z" fill="#222220"/>
<path d="M46.6564 136.486L36.4529 137.632L34.8072 123.05C34.478 120.347 36.4529 117.889 39.1683 117.643L39.6621 117.561C42.3775 117.233 44.8461 119.2 45.093 121.903L46.6564 136.486Z" fill="#ECF1F7"/>
<path d="M36.0415 138.124L34.3135 123.132C34.1489 121.739 34.5603 120.347 35.4655 119.2C36.3706 118.053 37.6049 117.397 39.0038 117.233L39.4975 117.152C40.8964 116.988 42.2952 117.397 43.4473 118.298C44.5993 119.2 45.2576 120.429 45.4221 121.821L47.1501 136.813L36.0415 138.124ZM40.1558 117.971H39.6621L39.1684 118.053C37.9341 118.217 36.8643 118.79 36.1238 119.691C35.3832 120.592 35.054 121.821 35.1363 122.968L36.6998 137.141L46.1627 136.076L44.517 121.903C44.3524 120.674 43.7764 119.609 42.8712 118.872C42.1307 118.299 41.1432 117.971 40.1558 117.971Z" fill="#222220"/>
<path d="M53.6508 128.948C53.4039 128.948 53.2393 128.784 53.2393 128.621C53.2393 128.375 53.4039 128.211 53.5685 128.129L96.1928 123.377C96.4397 123.377 96.6043 123.541 96.6866 123.705C96.6866 123.951 96.522 124.115 96.3574 124.197L53.6508 128.948ZM55.2965 143.367C55.0496 143.367 54.885 143.203 54.885 143.039C54.885 142.793 55.0496 142.63 55.2142 142.548L97.8386 137.796C98.0854 137.796 98.25 137.96 98.3323 138.124C98.3323 138.37 98.1677 138.533 98.0031 138.615L55.2965 143.367ZM54.4736 136.076C54.2268 136.076 54.0622 135.912 54.0622 135.748C54.0622 135.502 54.2268 135.338 54.3913 135.256L72.8235 133.208C73.0704 133.208 73.2349 133.372 73.3172 133.536C73.3172 133.782 73.1526 133.946 72.9881 134.028L54.4736 136.076ZM77.6784 133.454C77.4315 133.454 77.267 133.29 77.267 133.126C77.267 132.881 77.4315 132.717 77.5961 132.635L97.0157 130.423C97.2626 130.423 97.4271 130.587 97.5094 130.751C97.5094 130.996 97.3449 131.16 97.1803 131.242L77.6784 133.454C77.7607 133.454 77.7607 133.454 77.6784 133.454ZM56.2016 151.559C55.9548 151.559 55.7902 151.395 55.7902 151.232C55.7902 150.986 55.9548 150.822 56.1193 150.74L74.5515 148.692C74.7984 148.692 74.9629 148.856 75.0452 149.02C75.0452 149.265 74.8807 149.429 74.7161 149.511L56.2016 151.559C56.2839 151.559 56.2016 151.559 56.2016 151.559Z" fill="#222220"/>
</g>
<defs>
<clipPath id="clip0">
<rect width="262" height="218" fill="white"/>
</clipPath>
</defs>
</svg>
