<svg width="416" height="347" viewBox="0 0 416 347" fill="none" xmlns="http://www.w3.org/2000/svg">
<g clip-path="url(#clip0)">
<g style="mix-blend-mode:overlay" opacity="0.41">
<path d="M415.869 221.423C416.261 214.642 416.131 207.861 415.347 201.08C411.688 169.392 395.487 139.53 371.447 118.405C362.955 110.842 353.156 104.191 347.538 94.1503C338.131 77.4588 338.915 58.1593 327.286 41.7286C315.658 25.1676 298.673 12.2578 279.467 5.73766C222.372 -13.9531 142.412 18.1259 149.598 86.8478C149.598 87.1086 149.598 87.4998 149.729 87.891C150.643 102.105 139.538 114.102 125.166 114.493C72.5126 115.797 27.1759 156.222 17.5076 207.6C11.2362 240.592 21.4272 276.844 45.7287 300.186C63.7588 317.659 88.0603 327.179 112.231 333.829C160.834 347 212.05 349.738 262.09 344.783C308.995 340.089 358.513 326.657 388.824 290.536C405.156 271.236 414.432 246.59 415.869 221.423Z" fill="#292C33"/>
</g>
<g style="mix-blend-mode:overlay" opacity="0.88">
<path d="M372.492 224.683C372.754 219.336 372.623 213.99 372.1 208.774C369.226 183.997 356.553 160.525 337.739 143.964C331.075 138.096 323.367 132.749 319.055 125.056C311.739 112.016 312.261 96.8889 303.116 83.9791C293.97 71.0692 280.643 60.8979 265.749 55.6818C221.065 40.1639 158.482 65.462 164.101 119.188C164.101 119.318 164.101 119.709 164.231 119.97C165.015 131.185 156.261 140.574 145.025 140.834C103.739 141.747 68.201 173.565 60.6231 213.729C55.7889 239.549 63.7588 267.976 82.7035 286.233C96.8141 299.925 115.889 307.358 134.834 312.574C172.854 322.876 212.965 325.093 252.291 321.18C289.005 317.529 327.809 306.967 351.588 278.669C364.131 263.673 371.317 244.374 372.492 224.683Z" fill="#292C33"/>
</g>
<g style="mix-blend-mode:overlay" opacity="0.31">
<path d="M391.698 64.1577C398.842 64.1577 404.633 58.3778 404.633 51.2479C404.633 44.1181 398.842 38.3381 391.698 38.3381C384.555 38.3381 378.764 44.1181 378.764 51.2479C378.764 58.3778 384.555 64.1577 391.698 64.1577Z" fill="#292C33"/>
</g>
<g style="mix-blend-mode:overlay" opacity="0.31">
<path d="M108.703 51.1177C116.929 51.1177 123.598 44.462 123.598 36.2518C123.598 28.0416 116.929 21.386 108.703 21.386C100.477 21.386 93.809 28.0416 93.809 36.2518C93.809 44.462 100.477 51.1177 108.703 51.1177Z" fill="#292C33"/>
</g>
<g style="mix-blend-mode:overlay" opacity="0.31">
<path d="M19.3367 341.914C30.016 341.914 38.6734 333.274 38.6734 322.615C38.6734 311.956 30.016 303.315 19.3367 303.315C8.65733 303.315 0 311.956 0 322.615C0 333.274 8.65733 341.914 19.3367 341.914Z" fill="#292C33"/>
</g>
<path d="M171.548 170.696C209.286 170.696 239.879 140.161 239.879 102.495C239.879 64.8292 209.286 34.2949 171.548 34.2949C133.809 34.2949 103.216 64.8292 103.216 102.495C103.216 140.161 133.809 170.696 171.548 170.696Z" fill="#2EC6B0"/>
<path d="M218.975 151.658C218.844 151.658 218.583 151.658 218.452 151.527C218.191 151.266 218.191 150.875 218.452 150.614C231.256 137.835 238.312 120.883 238.312 102.887C238.312 84.8917 231.256 67.8091 218.452 55.1601C205.648 42.3806 188.663 35.3389 170.633 35.3389C152.603 35.3389 135.487 42.3806 122.814 55.1601C122.553 55.4209 122.161 55.4209 121.9 55.1601C121.638 54.8992 121.638 54.508 121.9 54.2472C134.965 41.207 152.211 34.0349 170.764 34.0349C189.186 34.0349 206.563 41.207 219.628 54.2472C232.694 67.2874 239.879 84.5005 239.879 103.018C239.879 121.535 232.694 138.748 219.628 151.788C219.367 151.527 219.106 151.658 218.975 151.658Z" fill="#222220"/>
<path d="M171.548 154.396C200.267 154.396 223.548 131.16 223.548 102.496C223.548 73.8324 200.267 50.5959 171.548 50.5959C142.829 50.5959 119.548 73.8324 119.548 102.496C119.548 131.16 142.829 154.396 171.548 154.396Z" fill="white"/>
<path d="M171.548 155.048C142.543 155.048 118.895 131.445 118.895 102.496C118.895 73.5466 142.543 49.9438 171.548 49.9438C171.94 49.9438 172.201 50.2047 172.201 50.5959C172.201 50.9871 171.94 51.2479 171.548 51.2479C143.196 51.2479 120.201 74.1986 120.201 102.496C120.201 130.793 143.196 153.744 171.548 153.744C171.94 153.744 172.201 154.005 172.201 154.396C172.201 154.787 171.809 155.048 171.548 155.048Z" fill="#222220"/>
<path d="M185.005 112.407H170.894C168.02 112.407 165.668 110.059 165.668 107.191V87.6302C165.668 85.1526 167.759 83.0662 170.241 83.0662C172.724 83.0662 174.814 85.1526 174.814 87.6302V103.278H185.136C187.618 103.278 189.709 105.365 189.709 107.843C189.709 110.32 187.487 112.407 185.005 112.407Z" fill="#222220"/>
<path d="M65.3266 126.229L139.015 199.776C153.387 214.12 176.774 214.12 191.146 199.776L199.899 191.039C203.166 187.779 203.166 182.302 199.899 179.042L169.849 149.05C166.583 145.79 161.095 145.79 157.829 149.05L142.804 164.046C141.628 165.22 139.668 165.22 138.492 164.046L102.171 127.533C100.995 126.36 100.995 124.534 102.171 123.361L116.935 108.625C120.201 105.365 120.201 99.8882 116.935 96.6281L86.1005 65.7228C82.8341 62.4628 77.4774 62.4628 74.211 65.5924L65.8492 73.6773C50.9547 88.0216 50.8241 111.624 65.3266 126.229Z" fill="#222220"/>
<path d="M67.6784 75.1118L109.095 116.449L110.533 115.015L117.065 108.495C120.332 105.235 120.332 99.7578 117.065 96.4977L86.1005 65.7228C82.8342 62.4628 77.4774 62.4628 74.211 65.5924L65.8492 73.6773L67.6784 75.1118Z" fill="#ECF1F7"/>
<path d="M109.095 117.362L67.2864 75.6333L64.9346 73.6773L73.8191 65.0707C77.3467 61.6803 83.0954 61.6803 86.6231 65.2011L117.457 95.976C120.985 99.4969 120.985 105.365 117.457 108.886L109.095 117.362ZM66.7638 73.6773L68.0703 74.7205L108.965 115.536L116.412 108.103C117.849 106.669 118.764 104.713 118.764 102.496C118.764 100.41 117.98 98.4537 116.412 96.8888L85.7085 66.2443C82.7035 63.2451 77.7386 63.2451 74.7336 66.1139L66.7638 73.6773Z" fill="#222220"/>
<path d="M151.819 157.787L193.236 199.124L194.673 197.69L201.206 191.17C204.472 187.909 204.472 182.433 201.206 179.173L170.372 148.398C167.105 145.138 161.749 145.138 158.482 148.267L150.121 156.352L151.819 157.787Z" fill="#ECF1F7"/>
<path d="M193.236 200.037L151.427 158.308L149.075 156.352L157.96 147.746C161.487 144.355 167.236 144.355 170.764 147.876L201.598 178.651C203.296 180.346 204.342 182.693 204.342 185.171C204.342 187.649 203.427 189.865 201.598 191.691L193.236 200.037ZM151.035 156.222L152.342 157.265L193.236 198.081L200.683 190.648C202.121 189.213 203.035 187.257 203.035 185.041C203.035 182.954 202.251 180.998 200.683 179.433L169.849 148.789C166.844 145.789 161.879 145.789 158.874 148.658L151.035 156.222Z" fill="#222220"/>
<path d="M70.814 70.2866L96.0301 95.4542L70.814 70.2866Z" fill="#ECF1F7"/>
<path d="M96.0301 96.1064C95.8994 96.1064 95.6381 96.1064 95.5075 95.976L70.4221 70.8084C70.1607 70.5476 70.1607 70.1564 70.4221 69.8956C70.6834 69.6348 71.0753 69.6348 71.3366 69.8956L96.5527 95.0632C96.814 95.324 96.814 95.7152 96.5527 95.976C96.4221 96.1064 96.1607 96.1064 96.0301 96.1064Z" fill="#222220"/>
<path d="M171.156 170.436L196.372 195.603L171.156 170.436Z" fill="#ECF1F7"/>
<path d="M196.372 196.255C196.241 196.255 195.98 196.255 195.849 196.125L170.633 170.827C170.372 170.566 170.372 170.175 170.633 169.914C170.894 169.653 171.286 169.653 171.548 169.914L196.764 195.082C197.025 195.343 197.025 195.734 196.764 195.995C196.633 196.125 196.503 196.255 196.372 196.255Z" fill="#222220"/>
<path d="M307.035 324.832L210.482 310.618C199.508 309.053 192.06 298.882 193.628 287.928L228.251 54.2473C229.819 43.2935 240.01 35.8606 250.985 37.4254L347.538 51.7696C358.513 53.3344 365.96 63.5058 364.392 74.4596L329.769 308.14C328.07 318.964 317.879 326.527 307.035 324.832Z" fill="#222220"/>
<path d="M235.829 59.3811L355.638 77.0662L322.951 297.645L203.145 279.96L235.829 59.3811Z" fill="#ECF1F7"/>
<path d="M235.743 59.3003L355.551 76.9854L353.104 93.4956L233.296 75.8105L235.743 59.3003Z" fill="#FAC41A"/>
<path d="M261.045 310.357C260.653 310.357 260.261 310.357 259.869 310.227C257.779 309.966 255.95 308.792 254.774 307.097C253.467 305.402 253.075 303.315 253.337 301.359C253.598 299.273 254.774 297.447 256.472 296.274C258.171 294.97 260.261 294.448 262.221 294.839C264.312 295.1 266.141 296.274 267.317 297.969C268.623 299.664 269.015 301.751 268.754 303.707C268.101 307.488 264.834 310.357 261.045 310.357ZM260.915 296.013C259.477 296.013 258.171 296.404 256.995 297.317C255.558 298.36 254.643 299.925 254.382 301.62C254.121 303.315 254.513 305.011 255.558 306.445C256.603 307.879 258.171 308.792 259.869 309.053C263.397 309.575 266.794 307.097 267.317 303.576C267.578 301.881 267.186 300.186 266.141 298.751C265.095 297.317 263.528 296.404 261.829 296.143C261.568 296.013 261.307 296.013 260.915 296.013ZM278.291 57.2466H277.9C277.246 57.1162 276.593 56.8554 276.201 56.2034C275.809 55.6817 275.678 55.0297 275.678 54.3777C275.678 53.7257 276.07 53.0737 276.724 52.6825C277.246 52.2913 277.9 52.1609 278.553 52.1609C279.206 52.2913 279.859 52.5521 280.251 53.2041C280.643 53.7257 280.774 54.3777 280.774 55.0297C280.643 56.3338 279.598 57.2466 278.291 57.2466ZM278.291 53.4649C278.03 53.4649 277.769 53.5953 277.638 53.7257C277.377 53.8561 277.246 54.2473 277.116 54.5081C277.116 54.7689 277.116 55.1601 277.377 55.4209C277.508 55.6817 277.899 55.8121 278.161 55.9426C278.422 55.9426 278.814 55.9426 279.075 55.6817C279.337 55.5513 279.467 55.1601 279.598 54.8993C279.598 54.6385 279.598 54.2473 279.337 53.9865C279.206 53.7257 278.814 53.5953 278.553 53.4649H278.291ZM317.226 62.9843H316.834L286.261 58.4202C285.608 58.2898 284.955 58.029 284.563 57.377C284.171 56.8554 284.04 56.2034 284.04 55.5513C284.171 54.8993 284.432 54.2473 285.085 53.8561C285.608 53.4649 286.261 53.3345 286.915 53.3345L317.487 57.8986C318.141 58.029 318.794 58.2898 319.186 58.9418C319.578 59.4634 319.709 60.1154 319.709 60.7674C319.578 61.4194 319.317 62.0715 318.663 62.4627C318.271 62.8539 317.749 62.9843 317.226 62.9843ZM286.653 54.7689C286 54.7689 285.608 55.1601 285.477 55.8121C285.477 56.073 285.477 56.4642 285.739 56.725C285.869 56.9858 286.261 57.1162 286.523 57.2466L317.096 61.8106C317.749 61.941 318.402 61.4194 318.533 60.7674C318.533 60.5066 318.533 60.1154 318.271 59.8546C318.141 59.5938 317.749 59.4634 317.487 59.333L286.784 54.7689H286.653Z" fill="#ECF1F7"/>
<path d="M323.497 230.16L239.879 217.771C238.573 217.511 237.266 218.554 237.005 219.858L233.739 241.505C233.477 242.809 234.523 244.113 235.829 244.373L307.296 254.936L314.613 265.107L315.92 256.24L319.317 256.762C320.623 257.022 321.93 255.979 322.191 254.675L325.457 233.028C325.719 231.594 324.804 230.42 323.497 230.16Z" fill="#67DCCB"/>
<path d="M307.427 255.588C307.296 255.588 307.296 255.588 307.427 255.588L235.829 245.026C235.045 244.895 234.261 244.504 233.739 243.852C233.216 243.2 233.085 242.287 233.216 241.505L236.482 219.858C236.744 218.163 238.312 216.989 240.01 217.25L259.347 220.119C259.739 220.119 260 220.51 259.869 220.901C259.869 221.292 259.477 221.553 259.085 221.423L239.749 218.554C238.704 218.424 237.789 219.076 237.658 220.119L234.392 241.765C234.261 242.287 234.392 242.678 234.784 243.07C235.045 243.461 235.568 243.722 235.96 243.852L307.427 254.415C307.819 254.415 308.08 254.806 307.95 255.197C307.95 255.327 307.688 255.588 307.427 255.588Z" fill="#222220"/>
<path d="M336.693 140.443L253.075 128.055C251.769 127.794 250.462 128.837 250.201 130.141L246.935 151.788C246.673 153.092 247.719 154.396 249.025 154.657L320.492 165.219L327.809 175.391L329.116 166.523L332.513 167.045C333.819 167.306 335.126 166.263 335.387 164.959L338.653 143.312C339.045 141.878 338.131 140.704 336.693 140.443Z" fill="#67DCCB"/>
<path d="M328.462 177.086L320.362 165.871L249.156 155.309C247.457 155.048 246.281 153.483 246.543 151.788C246.543 151.397 246.935 151.136 247.327 151.266C247.719 151.266 247.98 151.658 247.849 152.049C247.719 152.57 247.849 152.962 248.241 153.353C248.503 153.744 249.025 154.005 249.417 154.135L321.146 164.698L327.678 173.826L328.854 165.871L332.904 166.523C333.427 166.654 333.819 166.523 334.211 166.132C334.603 165.871 334.864 165.35 334.995 164.959L337.085 150.614C337.085 150.223 337.477 149.962 337.869 150.093C338.261 150.093 338.523 150.484 338.392 150.875L336.301 165.219C336.171 166.002 335.779 166.784 335.126 167.306C334.472 167.827 333.558 167.958 332.774 167.827L330.03 167.436L328.462 177.086Z" fill="#222220"/>
<path d="M230.864 168.349L314.482 180.737C315.789 180.998 316.834 182.172 316.573 183.606L313.307 205.253C313.045 206.557 311.869 207.6 310.432 207.339L238.965 196.777L229.035 204.34L230.342 195.473L226.945 194.951C225.638 194.69 224.593 193.517 224.854 192.082L228.121 170.435C228.251 169.131 229.558 168.088 230.864 168.349Z" fill="#FAC41A"/>
<path d="M310.955 207.991H310.432L265.749 201.341C265.357 201.341 265.095 200.95 265.226 200.558C265.226 200.167 265.618 199.906 266.01 200.037L310.693 206.687C311.216 206.818 311.608 206.687 312 206.296C312.392 206.035 312.653 205.514 312.784 205.122L316.05 183.476C316.181 182.432 315.528 181.52 314.482 181.389C314.09 181.389 313.829 180.998 313.96 180.607C313.96 180.216 314.352 179.955 314.744 180.085C316.442 180.346 317.618 181.911 317.357 183.606L314.09 205.253C313.96 206.035 313.568 206.818 312.915 207.339C312.261 207.73 311.608 207.991 310.955 207.991Z" fill="#222220"/>
<path d="M206.109 259.617L325.917 277.304L322.916 297.555L203.108 279.87L206.109 259.617Z" fill="white"/>
<path d="M216.623 278.669C220.664 278.669 223.94 275.4 223.94 271.367C223.94 267.334 220.664 264.064 216.623 264.064C212.582 264.064 209.307 267.334 209.307 271.367C209.307 275.4 212.582 278.669 216.623 278.669Z" fill="#67DCCB"/>
<path opacity="0.33" d="M312.131 292.231C311.869 292.231 311.477 292.231 311.216 292.101L233.477 280.625C231.779 280.365 230.211 279.452 229.166 278.017C228.121 276.583 227.729 274.888 227.99 273.193C228.513 269.672 231.779 267.194 235.437 267.716L313.176 279.191C316.704 279.713 319.186 282.973 318.663 286.494C318.141 289.884 315.397 292.231 312.131 292.231ZM311.477 290.797C314.352 291.188 316.965 289.232 317.357 286.363C317.618 284.929 317.226 283.625 316.442 282.451C315.658 281.277 314.352 280.625 313.045 280.365L235.307 268.889C232.432 268.498 229.819 270.454 229.427 273.323C229.166 274.757 229.558 276.061 230.342 277.235C231.126 278.409 232.432 279.061 233.739 279.321L311.477 290.797Z" fill="#FAC41A"/>
<path d="M243.276 71.1995H242.884C241.447 70.9386 240.533 69.6346 240.663 68.3306C240.794 67.6786 241.186 67.0266 241.709 66.6354C242.231 66.2442 242.884 66.1138 243.668 66.1138C245.106 66.3746 246.02 67.6786 245.889 68.9826C245.628 70.2866 244.452 71.1995 243.276 71.1995ZM243.276 67.4178C243.015 67.4178 242.754 67.5482 242.492 67.6786C242.231 67.9394 242.1 68.2002 241.97 68.461C241.97 68.8522 241.97 69.113 242.231 69.3738C242.492 69.6346 242.754 69.765 243.015 69.8954C243.668 70.0258 244.322 69.5042 244.452 68.8522C244.452 68.461 244.452 68.2002 244.191 67.9394C243.93 67.6786 243.668 67.5482 243.407 67.4178H243.276ZM250.332 72.2427H249.94C248.502 71.9819 247.588 70.6778 247.719 69.3738C247.98 67.9394 249.286 67.0266 250.593 67.157C251.246 67.2874 251.899 67.5482 252.291 68.2002C252.683 68.7218 252.814 69.3738 252.814 70.1562C252.683 70.8082 252.291 71.4603 251.769 71.8515C251.377 72.1123 250.854 72.2427 250.332 72.2427ZM250.332 68.461C249.678 68.461 249.156 68.8522 249.156 69.5042C249.156 69.8954 249.156 70.1562 249.417 70.417C249.678 70.6778 249.94 70.8082 250.201 70.9387C250.593 70.9387 250.854 70.9386 251.116 70.6778C251.377 70.417 251.508 70.1562 251.638 69.8954C251.638 69.5042 251.638 69.2434 251.377 68.9826C251.116 68.7218 250.854 68.5914 250.593 68.461H250.332ZM257.256 73.2859H256.864C255.427 73.0251 254.513 71.7211 254.774 70.417C255.035 68.9826 256.342 68.0698 257.648 68.2002C259.085 68.461 260 69.765 259.869 71.0691C259.608 72.3731 258.432 73.2859 257.256 73.2859ZM257.256 69.5042C256.995 69.5042 256.734 69.6346 256.472 69.765C256.211 70.0258 256.08 70.2866 255.95 70.5474C255.95 70.9386 255.95 71.1995 256.211 71.4603C256.472 71.7211 256.734 71.8515 256.995 71.9819C257.648 72.1123 258.301 71.5907 258.432 70.9387C258.563 70.2866 258.04 69.6346 257.387 69.5042H257.256Z" fill="white"/>
<path d="M354.854 94.4112C354.854 94.4112 354.724 94.4112 354.854 94.4112L243.799 77.9805C243.407 77.9805 243.146 77.5893 243.276 77.1981C243.276 76.8069 243.668 76.5461 244.06 76.6765L354.985 93.1072C355.377 93.1072 355.638 93.4984 355.508 93.8896C355.377 94.2808 355.116 94.4112 354.854 94.4112Z" fill="#222220"/>
<path d="M308.603 235.115C308.472 235.115 308.472 235.115 308.603 235.115L249.286 226.378C248.894 226.378 248.633 225.987 248.764 225.596C248.764 225.204 249.156 224.944 249.548 225.074L308.734 233.811C309.126 233.811 309.387 234.202 309.256 234.593C309.126 234.854 308.864 235.115 308.603 235.115ZM273.457 237.201L248.241 233.42C247.849 233.42 247.588 233.028 247.719 232.637C247.719 232.246 248.111 231.985 248.502 232.116L273.719 235.897C274.111 235.897 274.372 236.289 274.241 236.68C274.111 236.941 273.849 237.201 273.457 237.201ZM264.965 242.678L247.196 240.07C246.804 240.07 246.543 239.679 246.673 239.288C246.673 238.897 247.065 238.636 247.457 238.766L265.095 241.374C265.487 241.374 265.749 241.765 265.618 242.157C265.618 242.417 265.357 242.678 264.965 242.678ZM307.558 242.157C307.558 242.157 307.427 242.157 307.558 242.157L281.427 238.245C281.035 238.245 280.774 237.853 280.905 237.462C280.905 237.071 281.296 236.81 281.688 236.941L307.688 240.722C308.08 240.722 308.342 241.113 308.211 241.505C308.08 242.026 307.819 242.157 307.558 242.157Z" fill="white"/>
<path d="M301.286 186.084L241.97 177.347C241.578 177.347 241.317 176.956 241.447 176.564C241.447 176.173 241.839 175.912 242.231 176.043L301.417 184.78C301.809 184.78 302.07 185.171 301.94 185.562C301.94 185.823 301.678 186.084 301.286 186.084ZM266.271 188.17L240.925 184.388C240.533 184.388 240.271 183.997 240.402 183.606C240.402 183.215 240.794 182.954 241.186 183.084L266.402 186.866C266.794 186.866 267.055 187.257 266.925 187.648C266.925 187.909 266.663 188.17 266.271 188.17ZM292.533 198.733C292.402 198.733 292.402 198.733 292.533 198.733L241.317 190.778C240.925 190.778 240.663 190.387 240.794 189.996C240.794 189.605 241.186 189.344 241.578 189.474L292.663 197.429C293.055 197.429 293.317 197.82 293.186 198.211C293.055 198.472 292.794 198.733 292.533 198.733ZM300.241 193.125L274.111 189.213C273.719 189.213 273.457 188.822 273.588 188.431C273.588 188.04 273.98 187.779 274.372 187.909L300.372 191.691C300.764 191.691 301.025 192.082 300.894 192.473C300.894 192.865 300.633 193.125 300.241 193.125Z" fill="white"/>
<path d="M241.578 86.9782L325.196 99.3664C326.503 99.6272 327.548 100.801 327.286 102.235L324.02 123.882C323.759 125.186 322.583 126.229 321.146 125.968L249.678 115.406L239.749 122.969L241.055 114.102L237.658 113.58C236.352 113.319 235.306 112.146 235.568 110.711L238.834 89.0647C238.965 87.6303 240.271 86.7174 241.578 86.9782Z" fill="#FAC41A"/>
<path d="M324.151 124.403C323.759 124.403 323.497 124.012 323.497 123.621L326.764 101.974C326.894 101.453 326.764 101.061 326.372 100.67C326.111 100.279 325.588 100.018 325.196 99.8879L273.327 92.1941C272.935 92.1941 272.673 91.8029 272.804 91.4117C272.804 91.0205 273.196 90.7597 273.588 90.8901L325.457 98.5838C326.241 98.7142 327.025 99.1055 327.548 99.7575C328.07 100.409 328.201 101.322 328.07 102.105L324.804 123.882C324.804 124.143 324.412 124.403 324.151 124.403Z" fill="#222220"/>
<path d="M312.131 104.713C312 104.713 312 104.713 312.131 104.713L252.814 95.9759C252.422 95.9759 252.161 95.5847 252.291 95.1935C252.291 94.8023 252.683 94.5415 253.075 94.6719L312.261 103.409C312.653 103.409 312.915 103.8 312.784 104.191C312.653 104.452 312.392 104.713 312.131 104.713ZM276.985 106.799L251.769 103.018C251.377 103.018 251.116 102.626 251.246 102.235C251.246 101.844 251.638 101.583 252.03 101.714L277.246 105.495C277.638 105.495 277.899 105.886 277.769 106.278C277.638 106.538 277.377 106.799 276.985 106.799ZM303.246 117.362C303.116 117.362 303.116 117.362 303.246 117.362L252.03 109.407C251.638 109.407 251.377 109.016 251.508 108.625C251.508 108.234 251.899 107.973 252.291 108.103L303.377 116.058C303.769 116.058 304.03 116.449 303.899 116.84C303.769 117.101 303.508 117.362 303.246 117.362ZM311.085 111.755C310.955 111.755 310.955 111.755 311.085 111.755L284.955 107.842C284.563 107.842 284.301 107.451 284.432 107.06C284.432 106.669 284.824 106.408 285.216 106.538L311.216 110.32C311.608 110.32 311.869 110.711 311.739 111.103C311.608 111.494 311.347 111.755 311.085 111.755Z" fill="white"/>
<path d="M321.93 146.311C321.93 146.311 321.799 146.311 321.93 146.311L262.613 137.574C262.221 137.574 261.96 137.183 262.09 136.792C262.09 136.401 262.482 136.14 262.874 136.27L322.06 145.007C322.452 145.007 322.714 145.398 322.583 145.79C322.452 146.05 322.191 146.311 321.93 146.311ZM286.915 148.267C286.784 148.267 286.784 148.267 286.915 148.267L261.568 144.486C261.176 144.486 260.915 144.094 261.045 143.703C261.045 143.312 261.437 143.051 261.829 143.182L287.045 146.963C287.437 146.963 287.699 147.354 287.568 147.746C287.437 148.006 287.176 148.267 286.915 148.267ZM278.422 153.744C278.291 153.744 278.291 153.744 278.422 153.744L260.653 151.136C260.261 151.136 260 150.745 260.131 150.354C260.131 149.962 260.523 149.702 260.915 149.832L278.553 152.44C278.945 152.44 279.206 152.831 279.075 153.223C278.945 153.483 278.683 153.744 278.422 153.744ZM320.884 153.353C320.884 153.353 320.754 153.353 320.884 153.353L294.754 149.441C294.362 149.441 294.101 149.05 294.231 148.658C294.231 148.267 294.623 148.006 295.015 148.137L321.015 151.919C321.407 151.919 321.668 152.31 321.538 152.701C321.407 153.092 321.146 153.353 320.884 153.353Z" fill="white"/>
<path d="M201.467 304.88L67.4171 319.876C64.804 320.137 62.4523 318.312 62.191 315.703L52.5226 229.899C52.5226 229.768 52.6533 229.638 52.784 229.638L195.719 213.599C195.849 213.599 195.98 213.729 195.98 213.859L205.648 299.664C205.91 302.272 204.08 304.489 201.467 304.88Z" fill="#B48A04"/>
<path d="M66.8945 320.659C64.1508 320.659 61.9297 318.703 61.5377 315.964L51.8694 230.16C51.8694 229.638 52.1307 229.247 52.6533 229.117L195.588 213.077C196.111 213.077 196.503 213.338 196.633 213.86L206.302 299.664C206.432 301.099 206.04 302.403 205.126 303.576C204.211 304.619 203.035 305.402 201.598 305.532L67.4171 320.528C67.2865 320.528 67.0252 320.659 66.8945 320.659ZM53.1759 230.421L62.8443 315.834C63.1056 318.051 65.0654 319.616 67.2865 319.355L201.467 304.228L201.598 304.88L201.467 304.228C202.513 304.098 203.427 303.576 204.211 302.794C204.864 302.011 205.126 300.968 204.995 299.795L195.327 214.381L53.1759 230.421Z" fill="#222220"/>
<path opacity="0.29" d="M195.196 304.88L73.9498 320.007C71.3367 320.268 111.578 268.889 111.186 266.281L52.5226 230.029C52.5226 229.899 52.6533 229.768 52.784 229.768L195.719 213.729C195.849 213.729 195.98 213.859 195.98 213.99L147.116 262.239C147.377 264.716 197.809 304.489 195.196 304.88Z" fill="#222220"/>
<path d="M52.784 229.769L111.839 171.479C115.367 167.958 120.854 167.306 125.035 169.914L195.327 213.468C195.457 213.599 195.457 213.729 195.327 213.729L52.5226 229.769" fill="#B48A04"/>
<path d="M52.5227 230.421L52.392 229.508L52.2614 229.377L52.392 229.247L111.317 171.088C115.106 167.436 120.854 166.654 125.297 169.523L195.588 213.077C195.849 213.207 195.98 213.599 195.98 213.99C195.849 214.381 195.588 214.512 195.327 214.642L52.5227 230.421ZM119.417 169.001C116.804 169.001 114.322 170.044 112.362 171.87L54.6131 228.856L193.759 213.207L124.774 170.436C123.075 169.392 121.246 169.001 119.417 169.001Z" fill="#222220"/>
<path opacity="0.29" d="M52.784 229.769L111.839 171.479C115.367 167.958 120.854 167.306 125.035 169.914L195.327 213.468C195.457 213.599 195.457 213.729 195.327 213.729L52.5226 229.769" fill="#222220"/>
<path d="M118.372 257.283L73.9498 318.964L195.196 305.271L138.101 254.936C132.221 249.72 123.075 250.763 118.372 257.283Z" fill="#B48A04"/>
<path d="M72.6432 319.746L117.849 256.892L118.372 257.283L117.849 256.892C120.201 253.632 123.729 251.546 127.648 251.154C131.568 250.763 135.618 251.937 138.492 254.545L196.633 305.793L72.6432 319.746ZM129.347 252.328C128.824 252.328 128.432 252.328 127.91 252.458C124.382 252.85 121.116 254.806 119.025 257.675L75.387 318.181L193.759 304.88L137.839 255.588C135.357 253.502 132.352 252.328 129.347 252.328Z" fill="#222220"/>
<path d="M59.9699 187.518L153.387 176.956C159.528 176.304 165.015 179.955 165.538 185.301L171.548 238.505L145.548 262.369L111.186 266.281L77.2161 245.156L71.3367 193.647L59.9699 187.518Z" fill="white"/>
<path d="M111.055 266.933L76.6935 245.417L70.9448 193.908L62.0604 186.605L153.387 176.304C156.523 175.912 159.528 176.695 162.01 178.39C164.493 180.085 165.93 182.563 166.322 185.301L172.332 238.766L145.94 263.021L111.055 266.933ZM78.0001 244.634L111.447 265.499L145.286 261.717L170.895 238.245L164.884 185.432C164.623 183.085 163.317 180.998 161.096 179.433C158.874 177.999 156.131 177.347 153.387 177.608L62.0604 187.909L71.99 193.126L78.0001 244.634Z" fill="#222220"/>
<path opacity="0.29" d="M118.372 251.937L73.9498 318.964L195.196 305.271L138.101 249.72C132.221 244.504 123.075 245.417 118.372 251.937Z" fill="#222220"/>
<path d="M118.372 257.283L73.9498 318.964L195.196 305.271L138.101 254.936C132.221 249.72 123.075 250.763 118.372 257.283Z" fill="#B48A04"/>
<path d="M72.6432 319.746L117.849 256.892L118.372 257.283L117.849 256.892C120.201 253.632 123.729 251.546 127.648 251.154C131.568 250.763 135.618 251.937 138.492 254.545L196.633 305.793L72.6432 319.746ZM129.347 252.328C128.824 252.328 128.432 252.328 127.91 252.458C124.382 252.85 121.116 254.806 119.025 257.675L75.387 318.181L193.759 304.88L137.839 255.588C135.357 253.502 132.352 252.328 129.347 252.328Z" fill="#222220"/>
<path opacity="0.35" d="M122.683 270.845L90.0201 316.095L179.126 306.054L137.186 269.28C132.874 265.368 126.08 266.151 122.683 270.845Z" fill="#ECF1F7"/>
<path d="M52.7839 229.899L111.317 266.281L52.7839 229.899Z" fill="#B48A04"/>
<path d="M53.1237 229.277L111.56 265.624L110.868 266.732L52.4325 230.384L53.1237 229.277Z" fill="#222220"/>
<path d="M195.98 213.729L147.116 262.239L195.98 213.729Z" fill="#B48A04"/>
<path d="M195.553 213.314L196.474 214.24L147.615 262.668L146.694 261.742L195.553 213.314Z" fill="#222220"/>
<path d="M74.0805 217.25L57.8795 219.076L55.2664 195.864C54.7438 191.561 57.8795 187.649 62.191 187.258L62.975 187.127C67.2865 186.606 71.2061 189.735 71.5981 194.038L74.0805 217.25Z" fill="#ECF1F7"/>
<path d="M57.2262 219.858L54.4825 195.995C54.2212 193.778 54.8744 191.561 56.3116 189.735C57.7488 187.91 59.7086 186.866 61.9297 186.606L62.7136 186.475C64.9347 186.214 67.1558 186.866 68.985 188.301C70.8141 189.735 71.8594 191.691 72.1207 193.908L74.8644 217.772L57.2262 219.858ZM63.7588 187.779H62.9749L62.191 187.91C60.2312 188.17 58.5327 189.083 57.3568 190.518C56.181 191.952 55.6583 193.908 55.789 195.734L58.2714 218.293L73.2965 216.598L70.6835 194.039C70.4222 192.083 69.5076 190.387 68.0704 189.214C66.8945 188.301 65.3267 187.779 63.7588 187.779Z" fill="#222220"/>
<path d="M85.186 205.253C84.794 205.253 84.5327 204.992 84.5327 204.731C84.5327 204.34 84.794 204.079 85.0553 203.949L152.734 196.386C153.126 196.386 153.387 196.647 153.518 196.907C153.518 197.299 153.256 197.559 152.995 197.69L85.186 205.253ZM87.799 228.204C87.4071 228.204 87.1458 227.943 87.1458 227.682C87.1458 227.291 87.4071 227.03 87.6684 226.9L155.347 219.337C155.739 219.337 156 219.597 156.131 219.858C156.131 220.249 155.869 220.51 155.608 220.641L87.799 228.204ZM86.4925 216.598C86.1006 216.598 85.8392 216.337 85.8392 216.076C85.8392 215.685 86.1006 215.424 86.3619 215.294L115.628 212.034C116.02 212.034 116.281 212.295 116.412 212.556C116.412 212.947 116.151 213.208 115.889 213.338L86.4925 216.598ZM123.337 212.425C122.945 212.425 122.683 212.164 122.683 211.904C122.683 211.512 122.945 211.252 123.206 211.121L154.04 207.6C154.432 207.6 154.694 207.861 154.824 208.122C154.824 208.513 154.563 208.774 154.302 208.904L123.337 212.425C123.467 212.425 123.467 212.425 123.337 212.425ZM89.2362 241.244C88.8443 241.244 88.583 240.983 88.583 240.722C88.583 240.331 88.8443 240.07 89.1056 239.94L118.372 236.68C118.764 236.68 119.025 236.941 119.156 237.202C119.156 237.593 118.895 237.854 118.633 237.984L89.2362 241.244C89.3669 241.244 89.2362 241.244 89.2362 241.244Z" fill="#222220"/>
</g>
<defs>
<clipPath id="clip0">
<rect width="416" height="347" fill="white"/>
</clipPath>
</defs>
</svg>
