<svg width="1400" height="980" xmlns="http://www.w3.org/2000/svg">
 <style type="text/css">.st0{fill:#AFCBE6;}
	.st1{fill:#91B9DC;}
	.st2{fill:#F1D1A9;}
	.st3{fill:#525388;}
	.st4{fill:#ECC086;}
	.st5{fill:#F8F8F9;}
	.st6{fill:#97C39D;}
	.st7{fill:#07074E;}
	.st8{fill:#5FA871;}
	.st9{fill:#007D37;}
	.st10{fill:#E0D9EC;}
	.st11{fill:#D9F1FD;}
	.st12{fill:#53616E;}
	.st13{fill:#75808E;}
	.st14{fill:#E4E5E6;}
	.st15{fill:#C2C4C6;}
	.st16{fill:#44515C;}
	.st17{fill:#7F8A9A;}
	.st18{fill:#657585;}
	.st19{fill:#FFE9A6;}
	.st20{fill:#757679;}
	.st21{fill:#D1D3D4;}
	.st22{fill:#FFE18B;}
	.st23{fill:#E5BF45;}
	.st24{fill:#40C4E0;}
	.st25{fill:#FFFEF9;}
	.st26{fill:#FFFDEB;}
	.st27{fill:#E8DBBE;}</style>

 <metadata>image/svg+xmlPrint2017-04-20T20:23:54+07:002017-04-20T20:23:54+07:002017-04-20T20:23:53+07:00Adobe Illustrator CC 2015 (Windows)256180JPEG/9j/4AAQSkZJRgABAgEASABIAAD/7QAsUGhvdG9zaG9wIDMuMAA4QklNA+0AAAAAABAASAAAAAEA
AQBIAAAAAQAB/+4ADkFkb2JlAGTAAAAAAf/bAIQABgQEBAUEBgUFBgkGBQYJCwgGBggLDAoKCwoK
DBAMDAwMDAwQDA4PEA8ODBMTFBQTExwbGxscHx8fHx8fHx8fHwEHBwcNDA0YEBAYGhURFRofHx8f
Hx8fHx8fHx8fHx8fHx8fHx8fHx8fHx8fHx8fHx8fHx8fHx8fHx8fHx8fHx8f/8AAEQgAtAEAAwER
AAIRAQMRAf/EAaIAAAAHAQEBAQEAAAAAAAAAAAQFAwIGAQAHCAkKCwEAAgIDAQEBAQEAAAAAAAAA
AQACAwQFBgcICQoLEAACAQMDAgQCBgcDBAIGAnMBAgMRBAAFIRIxQVEGE2EicYEUMpGhBxWxQiPB
UtHhMxZi8CRygvElQzRTkqKyY3PCNUQnk6OzNhdUZHTD0uIIJoMJChgZhJRFRqS0VtNVKBry4/PE
1OT0ZXWFlaW1xdXl9WZ2hpamtsbW5vY3R1dnd4eXp7fH1+f3OEhYaHiImKi4yNjo+Ck5SVlpeYmZ
qbnJ2en5KjpKWmp6ipqqusra6voRAAICAQIDBQUEBQYECAMDbQEAAhEDBCESMUEFURNhIgZxgZEy
obHwFMHR4SNCFVJicvEzJDRDghaSUyWiY7LCB3PSNeJEgxdUkwgJChgZJjZFGidkdFU38qOzwygp
0+PzhJSktMTU5PRldYWVpbXF1eX1RlZmdoaWprbG1ub2R1dnd4eXp7fH1+f3OEhYaHiImKi4yNjo
+DlJWWl5iZmpucnZ6fkqOkpaanqKmqq6ytrq+v/aAAwDAQACEQMRAD8A6/m1dY7FXYq7FXYq7FXY
q7FXYq7FXYq7FXYq7FXYq7FXYq7FXYq7FXYq7FXYq7FXYq7FXYq7FXYq7FXYq7FXYq7FXYq7FXYq
7FXYq7FXYq7FXYq7FXYq7FXYq7FXYq7FXYq7FXYq7FXYq7FXYq7FXYq7FXYq7FXYq7FXYq7FXYq7
FXYq7FXYq7FXYq7FXYq7FXYq7FXYq7FXYq7FXYq7FXYq7FXYq7FXYq7FXYq7FXYq7FXYq7FXYq7F
XYq7FXYq7FXYq7FXYq7FXYq7FXYq7FXYq7FXYq7FXYq7FXYq7FXYq7FXYq7FXYq7FXYq7FXYq7FX
Yq7FXYq7FXYq7FXYq7FXYq7FXYq7FXYq7FXYq7FXYq7FXYq7FXYq7FXYq7FXYq7FXYq7FXYq7FXY
q7FXYq7FXYq7FXYq7FXYq7FXYq7FXYq7FXYq7FXYq7FXYq7FXYq7FXYq7FXYq7FXYq7FXYq7FXYq
7FXYq7FXYq7FXYq7FXYq7FVk7lIncdQNsIG6CUqNzOTX1G+85bQarKZWcryQhm6g0r45XIUWyJsI
O8uJvWZQxVV2AG2TiBTCRNqHrz/78b/gjhoIsu9ef/fjf8EcaC2VO4vzbW8txPO0cEKNJLIWNFRR
VifkBhoKCWKr+cHkhlDLq0rKdwRbXhBH/IrDwNvhTb/5W95K/wCrrN/0jXn/AFSwcK+FPubj/N3y
TIzKmryckpzUwXQIruOsYxMUeFPuX/8AK1vJ3/V2f/kTc/8AVPHhCfCn3O/5Wt5O/wCrs/8AyJuf
+qePCF8Kfc7/AJWt5O/6uz/8ibn/AKp48IXwp9zv+VreTv8Aq7P/AMibn/qnjwhfCn3O/wCVreTv
+rs//Im5/wCqePCF8Kfc7/la3k7/AKuz/wDIm5/6p48IXwp9zTfmx5MVSzau4UCpJhuQAB/zzx4Q
jwp9zJrbUDc28VzBO0kEyLJFIGNGRxVSPmDjQaySmVhPJIGVzy40IJyuYZwKLyDN2KuxV2KuxV2K
uxV2KuxV2KuxV2KuxVxAIodweoxVQNjbV+z+JyXEWPCFZVVVCqKKOgyLJTltoZW5OtT49MIkQgxB
WfULb+U/ecPGUcId9Qtv5T95x4yvCEj88WcaeUNakSopY3NR16xMMnCW6iO4eR+Uo/Pp8s6YbGPW
zafV09A27a56XGm3D0LhIqf6igZr9QcHiHi4LvrwfpFu3hxUOf2pv6X5lf768wf8F5i/7KsovTd+
P/pX+pl6vP7WU/kQNTHmLzsNTFwt96unesLz6wZ/95248/rbST/ZpTk3TptTNT2/w8GLhrh9XKq5
ju2cjSXcr8nsOc25rsVdirsVdirsVY7+ZH/ku/NP/bIv/wDqGkzM7P8A8Yx/14/eGvN9B9xeeeV/
Pn5dQeWdIgudcs47iKyt0mjaYAq6xKGUjxBz0YxlfJ5iWPfknMX5mflvEvFPMFiB3/fDImEj0UQI
6J9pWt6Pq9v9Z0u9gvoNgZLeRZACex4k0PscgQRzUikbgQ7FXYq7FXYq7FXYq7FXYq7FXYq07BEZ
j0UVOIVLzqU1dlUDtWv9cs4A18Za/SU/8q/cf64eAI4y79JT/wAq/cf648AXjLv0lP8Ayr9x/rjw
BeMu/SU/8q/cf648AXjLv0lP/Kv3H+uPAF4ylHm6ea68satCaDnZ3AAHSpiYb9cMYgFIlZDyfyn5
jitvLWmQN+XegakY7dAb+6WEzTbfbk5QseR+ea/UaUyyE+LkjvyF0PtdrHOAK4QraLq36NtpIZvy
/wBE1RpJWlE96tkZEDAD019GzhXgKVFRXfrgy6fjNjLOPu4v0yKxzxH8IZ3+Q92t35i87XC6XbaK
Hl06mmWIUW8VLdx8HFUHxU5HbqTmj7fhwwxDiMvq3PPmHN0cuLiNVyew5zTnOxV2KuxV2KuxVjv5
kf8Aku/NP/bIv/8AqGkzM7P/AMYx/wBeP3hrzfQfcXiGhtrF9LFpmnz2On2um6Posg5aZZ3LyPd2
KySM7yryryHjnc6bQwyiUpGV8c/4pDlIjoXme1O1JaXhAiDY/QPLzZDa+UPOt1DcTwalYvDapznk
/QunBVX5lRv7dcul2dgiQCZWf6c/1uvx9v55gyjjFR58v1MX0C/vdL8w2eqvHb2+qQ6wNA136lGt
tbXcN5AZbOZ4E4osgdW3UDtghDw8pxWTEx4o3uRRo7npuHbDMM+AZQKe2Wt60r8HAB6gjLZRpxIy
tF5Bm7FXYq7FXYq7FXYq7FXYq7FWmUMpU9CKHFUEdMNdpNu1RlnG18DX6Mb/AH4Pu/tx414Hfoxv
9+D7v7ceNeB36Mb/AH4Pu/tx414FOexeJOYYMo69sIlaDGkNkmKA8wf8cHUv+YWf/k22EJjzeXeX
Yf8AnVNIlA/49Yw3/A7Zh5vrLnlF5UhmH5C/8pB51/4y6d/1Dvmj9ovpxf533h2nZ/IvYs5h2DsV
dirsVdirsVY7+ZH/AJLvzT/2yL//AKhpMzOz/wDGMf8AXj94a830H3F5P+VmkPqfmS/j9RYLeHQv
Lkt1cOaLHGNOFT7nwz0DSZeDEep8Sdf6eTx3bWlObJjF1ERsnuFRemazMJNI9Ky/0HQ4T/oiyAiS
9kDAM5I60679P1X4RU7l6p9f6Lp9XK8NQ9GEfT3zPf8Aj+zh/m6OS3v/ADYI95TZaZr9uP8AizTb
tbdz/wAipjler9ObFLvMo/6aN/fEO67Bnx6WUe4/j73uOnQwtFHdRv6iSoHiYbDiwqD92MpNojSM
yDJ2KuxV2KuxV2KuxV2KuxV2KuxV2KqU9xHCBzrU9AOuEC0E0pfpKD+VvuH9clwFjxh36Sg/lb7h
/XHgK8YY/qfnizSa4s4bK7uGh5erJEiMo9NBJJSrg/Cp3wiNc20YpSFhvS9Uh1GGWSOOSFoZGhli
lAV1dQCQQCw7+OTaZwMTRW+YP+ODqX/MLP8A8m2whjHm878nor+UdLVujWsYP/A5hZvrLsG5IzHI
yHqpytiy38hf+Ug86/8AGXTv+od80ftF9OL/ADvvDtOz+RexZzDsHYq7FXYq7FXYqx38yP8AyXfm
n/tkX/8A1DSZmdn/AOMY/wCvH7w15voPuLyTy75O/MBGstb0C10+9s9S0bROcd3NJEym2slTjRVP
2t++dZg7cwYTPHPi4hOfTvkS6LX9jnVGEidgP1fqZHq1j+eWp3Xrz6Zoyqo4QwpdShI0HREHDYDL
cXb+kgKHF8nE1Ps7PNK5S9w6AeSSn8t/zF1DWTe67a6fbWTabf6dcG2nkkZlu4GWMlSg2SXi3t1z
G1/tBp5QHDxWJRPLuO/2OZ2Z2NLTWLsSR2j+ddU8q6NYaZ5z8v6hpwsYIbZ9XhjF5ZMI0CiRpbcv
x5AV40ObPDq8OffHMG+nI/IsculnHmGYaF5r8t69F6mj6lb3opVkicF1H+VGaOv0jLzEjm4xBCa5
FDsVdirsVdirsVdirsVWTzwW8TTTyLFCgq8jkKoHuTsMVWWt5aXcXrWk8dxFUj1ImV1qOoqpIxpV
t5qOn2Sq15cxWyuaIZnWMEjw5EYQFpSu4GnCTQkOpUUIIoQdwQclE0wlFDfU7n+Q/hk+IMOEu+p3
P8h/DHiC8JY35atPrlv61AW1C21u8A8VkaG2ShPT7J+jKckt/k7XHGogLtBjZNWuokX4Luysb+NV
3FJIFWQj/ZjLYnZxdVHkUb5g/wCODqX/ADCz/wDJtsmHEjzea+Wr23sfI9heXLcYLeySSVgCSFVa
nYZiZYk5CB3uxQep+brFbdb17DUYrcBazyWkqx0cgIeZHHcnbxwDFZq4371MD3M6/wCce7j6xrPn
Ob0pYOUun/up0aKQUgcfEjUIznvaP6cXX6vvDstACLBe0ZzDnuxV2KuxV2KuxVjv5kf+S780/wDb
Iv8A/qGkzM7P/wAYx/14/eGvN9B9xUPICTReQvLk8RVgdIsOcbbfZtk6Ef0yvtEEanIR/Pl95ZYf
oHuZPG4eNXGwYAgfMVzGBsMl2FVGyFLZAOgrT7zkMfJJ5vE/zfs9Lnv9Rh8peXl/xP5ctP0zqfmG
1dLL6lGgMoDkD/SHkRD8HgfnTsuwvGoTnP8AdyNCJ3v9TrdXwcq3egeXNSk1Ty9pepyKEkvrSC5d
F6BpolcgfLlm+kKNOlI3THAh2KuxV2KuxV2KuxV5P+ZFoms+f7XStRJm0qy0xL2OyJIja4mnkiLu
B9qiR7VyjV5pY8dx2JLXlmYx26pJb+UtGWU3uhXV1o0rVjkl0yYwcwDTiy0ZTQ+2a+HaWUCjUve4
+PVSrnbn8oeXRcevqzS6tfXLcBdalI1xK22yitFFPYYJ9o5Zcjw+5E9VLvpMvIEnmHSbjzbp2hyW
/wChtFWC9S1vPVcx+vDJI6QFWFATEdj/AFzPjrBwY+P6p2Ptp2mlxHLDiPRmial57e10+4H6L46j
LbQwgrcVVrt1RC3xdAX3plePtDHLIcYErF93Ry56DhjxW6+vvPdva6pJL+i2TTTOlwqrc/F6C1bh
8Q6jpXJT1+OOSOOpXKu7qiGhuJlfJLrry55bGi6VdQwejJcS2SyItxOQEuJE9VAGkNAeRzYWbcMZ
DZFpl5O0vTrGS+uvqz20yTy21uZXdibVWDRhQWYcfA4JWxyZL6r/ADIwbRdUYCgNtOQP+ebZOLjj
m8h/8pR/27P+NMo/y3xc96b+ZP8A5Ikf8w2k/wDUTbZotH/jfxn9xdtl/uvkmv5d/wDkx/zC/wCM
uk/9QOantH/FsH+f/um6P95P4fc9GzTNzsVdirsVdirsVY7+ZH/ku/NP/bIv/wDqGkzM7P8A8Yx/
14/eGvN9B9xW+Qf/ACXPlz/tj2X/AFCpke0v7/J/Xl95Th+ke4Mgtv8AeaL/AFF/VmHDkGw81TJI
UbP/AHmT6f1nIQ5JLzH8zdB826RB5w8w+XpLa403X9GmtvMdhdlldFt7aREubZ1G7LEzfA2x/V1P
Y/aGOoYZg2JekjzPI/FwNTgO8h3Jx5GQp5K8voeq6bZg09oEGdRPmXRS5p3kUOxV2KuxV2KuxVxI
UEk0A3JPQDFXhnmn8wPKE35gTalDf+tYR6XFZtdRxTPH60dzM7KGVDUBXB5Db3yrWaac8YERvfkw
zYpSAAR+ieZdA1j1E0u5WYxAM8YVo2Ab9ri6qae+aXNpsmP6hThyxGPMJhNLbxtEJSAztxir3anb
KGokDmkmkecvLnl3V/P1vrF0baXUrK0jslEU0odltp1IJiRwu8i/apm0hp55IYTEWIyN/MO/7OyR
jiIPVl+m/mP+Wt55TiF3qMU9taxW0N3bvDMziRlASkPp+o3xDZlUj3zWZdDqY5yYggkyINj77d1D
PiOPc9yH1P8AMj8uLby9e6ZYTyW7XUE8VrbrYXsYeWSMgBawAVJyeLQaqWaM5i6Is8UeQPvRPPiE
DGPUHoUon/MPyoNJ0u1NxOLiF7RpIzZ3gIWB0MhFYt+IHbOqG/J57wZCRNd6bD81fIxhM4vpjCoJ
Mv1K94gL1PL0abUx601/l59yS/mT58u4YbDRPL8Qur3X7fnC3BpGaGb4I1ijFCXk5Hr0AwigLPIJ
w4rKtb/kj5og8lrDrvm+30q0jtCL62+pRyxwRhd1NwZo+XFepp16V65qj2jA5PTDiN7b/op2Xgbb
lhVxY/mlr1tpehQa3cXPlrXbg2mhS3sCWq3MFgqzvcemPUdYo+Cld6t94zMjjwwJnwgTHOt+anJI
ir2er+Xfy4/MLRLu/v7fzrG9/q3otqEs2mJKWaBPTShM67Kpp0GazPi0+URiYemN16q5tkc0wSb3
KQefvzK8z+TpTZXPneG91agb6hb6PCWQEVHqu1yFSo+n2xw9i6fJvwGv6xSdVMdWEWX/ADkP+Ys0
4E+qwxwVAZorK3klA70jeWIMfABsvPYGlH8J+ZR+byd71jypq3nbzTpv1/R/PtrNGp4TxNo0aSwy
U3SVDcVVh9x7VzDydl6aBo4z/piyGpn3/Ymd9Z/mTYWc17e+erO3tLdDJPM+kRhVRRUkn6xkB2dp
SaGM/wCmK/mcnewBvzh1NWWvniT0ZG429x/htvTlJ6enWfka9tsyv5DwfzP9mj83Pv8AsbH5waob
g2/+OJBON/S/w2/Mila8fWrTB/IeD+Z/s1/Nz7/sTG/1rzT5k8geZLyy88W+oWVrYXa6jZHRxbTA
C3cvE3ObnGWUEBuJ9q44+zNPjyxPAQbFeq+qJaiZBFsc0zz95/0nyrYL/iG1tdMtbOCKMSWCMUiW
NVRS3OrGlB74cvZemyZJEwJlIn+ItcdZMCgxy4/5yM/MaJhHZanDNEtFV5LKGKoG3TlJ+OXR9ntL
W8T/AKYs/wA5kTPR/wA+vP8AfyrBPr9vZzueKc7CF42Y/siRZKV+dMrn2FphuIE/5xR+dyMlTzz+
aSIFXzBbUHT/AHHR/wDVTMcdk6QfwH/TFfz2RL/M/nX8yrjy3q1vea5bzWk1ncR3ES2EaF42iYOo
cOeNVNK9suwdm6aOSJjE2CP4ixOsmRRereRnL+SfL7nq2m2ZP0wJmznzLrpc07yKHYq7FXYq7FXY
qlHnEkeUdcINCNPuiCP+MLZKPMJHN5Z5ijjT8iLNEUKrWOlllUAAl5bcvUD+Yk18c12I/wCFn3y/
Sv8AEfikOqXJ0nz1ZvFa3mpSNYTVhtIvXmCtKCvwrx+BafRkNPiOTTyFgerr7nDw4iYEX16psfNl
0aV8r68adP8Ace3/ADVlP5H+nj/0yfyp7wxvVb7UJLTzW83l/V4YNVGmNG01lIqLHYyc5zKeijj0
/hmxwYxHgHFG48XXv5OVjhUQLF7qOrzWVx5q8vXtlM08F59WkWVtiV/SENF6DZelO2R0kJRxzjLm
Cf8Acll2dAxJB7/0vaPzY/5SjyD/ANtZv+TeafR/3Ob+o9Bk+uHvT7UIdfg8waXrejJazTWEV1DJ
BePJGrC59PcNGkh29LMTQauGISE79VcvK27U4DOq6MJ8wTt5b/Lz/CEq/pDzLrcN5aWOn2XJ2d7x
pSXHIKRHGJfiYgdMy8MfzGq8YenHExJJ8q+001TPh4uA/UQU/wDIfkPT/JWlHzP5vvIptcgtkjnv
5mHo2VtGoRLe3J2AA+EsN2Pz3y9Vq5Z5cEPp7u9wseMQFsS8w3Hm38zZY7u2ePTPJ0EoexsL2ORz
qHA1E9xGjRn0yRVELZtNJo44RvvP7vc4efVC6CW/mrq/5hxx+XJrvVNPF9ZXoXRmsbNrd4QYyJOs
joYuCgMvHfbL44oRB7urGGfiStPzl/NI6fb3P1jT2FzdmygrbNybhUNKaOAB8J2yk6fF3Hlbbxli
+g6baLDf+ataR9Xumu2htIWHJrm5aTiZCDWrPI1F8B4nLpyJqMdtvkx5s+80eW/O2haFHqXm3R9N
m8vMUS9itZGlmsxIQitKrqEIDMBWMnMfGYSNQJ4vvSYkJF5P0PzJofn+7tfLGoxWjNZfWIhdI00c
lsZAnpvQgkxPTgetO+ZFRyQ9TCWXhFp/+ZzfmjN5F1VNT1DT7mw4Rtcw2ttIkxRJkaqsXIAWlW9q
44sEIyBFsRqeI0zL85PNPku//KtrbS9RsriW5lsBpFvDJG0gK3MTfAiksnGJWB6UG2YWmxzGTcHr
bkk7JT5n8w+Xp/zK8lmHUbWQ2h1Frp0ljYRJJaFU9RgaLybYVODHCQxy27vvU82BeefNV6PPPmKz
8tXNtNa+YYLXSb2UL6qMZIXRyrowHKNGNTvmVhgOCPF/DZYyluwt7XV9bl03Sp7hDAty9naiNCoK
wjjJOwJNeKqaZcJRjZA6X+xqem+UfK+vahc3umeRtNsorTSSIb7VNQd0WScjkYgYld3cDdidh7bZ
jZJCgZk79AzEbYr5x8u/XrLWPrWnLpXmnQTTUrZKGOROPqBqjZleP40brl2KfCRvcZckEMt0T8tf
zAuNIsbi21nTpLSeCOWCWaKYymN1DIXp+1xO++CUYXyLUZhHP+Tnm/UKWmq69bRadJtdCzgYTOn7
SK0jUXkNq/gcY8ETYG6PED1mys7ays4LO1QRW1tGkMEYqQscahVXep2AyBLUrYq7FXYq7FXYq7FU
n85/8ofrv/bPuv8Akw+SjzCY83k/lHytD50v7HQNV1C+h0m28taZcraWk/pRtIeO7oQytuARUdhm
v1Oc4ImcQOI5JDcOdpMMZk2jdF/K/Tbnz/5osn1nWF/Qf1KGyukvCtx6d1bCeRWk41I5nYCmYmo7
RljwwIjD18Vjh22NOZh0OMykK2FIRdH8vompWNx521qLzLDr1tpthpR1Jw8llNc20byFCvIt6U0r
BgQNumZ0Zk4fE4IfQZfT1ouOdPAZOHzpf5+8q6h5fvdDttJ8zawG1aWe2ne7u2uVVBCT8KMFFfft
1G+Yeh1vixmZwh6ADsK6r2hp4YYcUQ860+NY7nyiimqr6dD/ANvVM2934n4/gcPSm5y94e+fmx/y
lHkH/trN/wAm857R/wBzm/qO7yfXD3o/zh5yGjG303Tbf9J+Z9SPDS9KQ7se8sp/YiTqzH+pGDot
Ecxs+nHHmf0DzcjPnEB/SXeWvLFh5KsL/wA3+cdRjutfmj5anq0m0cMY+zb2y0BVK7AKKse3QZtJ
5PErFiFQHIfpLrv6UjuxSWTUPzKvYdW1mB7TyfbsJdH0SQ0a6btdXYB3H8idKe32tzpdIMI759T+
gOt1OpvYMxVVVQqgBQKADYADMlwWCfm9pVzPodpq1rGZpNGuBczRruTbspSYgeKghvkMNWCO9twy
ovJIr9W0lLaBvVn0u8N/aopqZ7OUsZPT8WTmeQ7ZWY2d+or3FzE08uzQajpdxoNvdpBfw3I1HRbh
vsSD1PVTbuVaoYdR9GCVgiRHSioZ55n83+f/ADboR8valp8Ok2M/EarqC3KzCSKMhysMYAZeRXq5
NBlGOEIHiBs9GZnbvy/U6t5uv9fthTSbO0Gl2k1KLM5lEsrJ4qhQLXMrHExjR5lxM8uj0V0R0ZHU
MjAhlIqCDsQQcLjMdb8t/IbStIdCs+T7kCIBfoUfCPoGS4yz8SXe4flv5DFf9wVnv/xUMeMr4ku9
435p0t/Kvmae2S3EcMF+NV0xEFEltn2kij7cogaU9sjKNm+8U5WOVhLbTVbfTdUt7uJhNFY3cl1A
y0JlsroMJCvi8fI8l7fRgMCfiK+IbHp/lXzR5m8r3F/c+XbaLXNC1qX66IluFgeK4ZQrsGdWVlbi
PcfrxckIzAEjwyGzOMqSDXLvW5n1WfUCk/m7zcyW9vYQEsI41T0UFfCKMks/TLccQSAPpixlLqXt
nli1bT9NstLDF4rO2igVvaFAgP4ZZMdXBErKdZUzdirsVdirsVdirsVdiqSeafKsPmK1W1n1C+sY
QsiSpYzCESrKArLKCrhhTt75KMqSDTFLL8ktKsZhPY+ZfMFpMIUthJBepG3ox/YiqsIPBey9BjIx
kKMYnrybI5pR5bKsX5N2kV1cXcXmvzIl3eFDd3C36iSUxrwT1GEVW4rsK9BkJQxkAGECBy2ZjVTH
Iq3/ACqk/wDU5eZ/+4iP+qWQ8DD/AKnD/ShP5zJ3lCX/AOSOl6iYjqHmbzDdmEsYTPepJwLji3Hl
CaVGxplmMQh9MYi+4MJ6iUtpboRP+cevKieiV1fWQbYAW5FzCPTCuHHCkPw0cctu+WeJz2G7AZCN
wmF5+Tdney28155p8x3Eto/q2skt+rtE9Kcoy0RKn3GVxjAAgRjR57Nh1M+9Tg/JTTYNSl1SDzN5
hi1KdQk16l8izugp8LSCHmR8I2rh9PDw8MeEdK2QdRIm73b1X8ltO1i3W21bzP5i1G2VuawXV8ky
BwCAwV4iK0PXDAxgbjGI+CDnkUZB+VNlbwRwQ+YtdjhiUJGi3oAVVFAABH0AyXilrsdwVP8AlV8H
/Uya9/0nD/qnj4pWx3Bo/lfbkUPmTXqf8xo/6p4+KVsdwSGX/nHPyPJJ6gvdTjflzqk0I+L+b+56
5Lxyz8QqQ/5xt8kBgw1HVuQbmD68FeXj/cdcfHPkviFGy/kN5dni9G61zXLqD/fM12jpt/k+lkRk
rkAviFMrX8pdOtLeO2tdf1u3t4hxihivFRFA7KqxgDHxSwJ8lX/lV8H/AFMmvf8AScP+qePilbHc
Hf8AKr4P+pk17/pOH/VPHxStjuDv+VXwf9TJr3/ScP8Aqnj4pWx3BBap+S2g6rEkWpaxrF5HGeUa
z3SScW8V5RGh+WEZSEiVcglB/wCcbPI1ajUNVG/LaaDr4/3GHxz5MvEKJs/+cfvLNiGFlret2oc1
cQ3UUYY+/GEYDlvmAviFE2P5G+W7G7a8tdW1eO9ccXuxcoJiD2LiLlTHxT5IM75pon5Zxp9jzNr6
160vqf8AMvB4nkEX5Bd/yrj/AL+jzB/0n/8AXvBx+QXi8k58veXf0Ks6/pO/1L1yprqE/rlONfsf
CvGtd8BlaCbTfIodirsVdirsVdirsVdirsVdirsVdirsVdirsVdirsVdirsVdirsVdirsVdirsVd
irsVdirsVdirsVdirsVdirsVdirsVdirsVdirsVdirsVdirsVdirsVdirsVdirsVdirsVdirsVdi
rsVdirsVdirsVdirsVdirsVdirsVdirsVdirsVdirsVdirsVdirsVdirsVdirsVdirsVdirsVdir
sVdirsVdirsVdirsVdirsVdirsVdirsVdirsVdirsVdirsVdirsVdirsVdirsVdirsVdirsVdirs
VdirsVdirsVdirsVdirsVdirsVdirsVdirsVdirsVdirsVdirsVdirsVdirsVdirsVdirsVdirsV
dirsVdirsVdirsVdirsVdirsVdirsVdirsVdirsVR3+4X/l5/wCSeV+vybPR5u/3C/8ALz/yTx9f
kvo83f7hf+Xn/knj6/JfR5u/3C/8vP8AyTx9fkvo83f7hf8Al5/5J4+vyX0ebv8AcL/y8/8AJPH1
+S+jzd/uF/5ef+SePr8l9Hm7/cL/AMvP/JPH1+S+jzd/uF/5ef8Aknj6/JfR5u/3C/8ALz/yTx9f
kvo83f7hf+Xn/knj6/JfR5u/3C/8vP8AyTx9fkvo83f7hf8Al5/5J4+vyX0ebv8AcL/y8/8AJPH1
+S+jzd/uF/5ef+SePr8l9Hm7/cL/AMvP/JPH1+S+jzd/uF/5ef8Aknj6/JfR5u/3C/8ALz/yTx9f
kvo83f7hf+Xn/knj6/JfR5u/3C/8vP8AyTx9fkvo83f7hf8Al5/5J4+vyX0ebv8AcL/y8/8AJPH1
+S+jzd/uF/5ef+SePr8l9Hm7/cL/AMvP/JPH1+S+jzd/uF/5ef8Aknj6/JfR5u/3C/8ALz/yTx9f
kvo83f7hf+Xn/knj6/JfR5u/3C/8vP8AyTx9fkvo83f7hf8Al5/5J4+vyX0ebv8AcL/y8/8AJPH1
+S+jzd/uF/5ef+SePr8l9Hm7/cL/AMvP/JPH1+S+jzf/2Q==xmp.iid:23644d22-b698-d642-8cac-f2f0330ecc7bxmp.did:23644d22-b698-d642-8cac-f2f0330ecc7buuid:5D20892493BFDB11914A8590D31508C8proof:pdfxmp.iid:17b44579-147b-ea4d-97b8-02c6782ef46exmp.did:17b44579-147b-ea4d-97b8-02c6782ef46euuid:5D20892493BFDB11914A8590D31508C8proof:pdfsavedxmp.iid:931c2c07-4829-584b-960d-e531ec01678d2017-04-20T19:36:47+07:00Adobe Illustrator CC 2015 (Windows)/savedxmp.iid:23644d22-b698-d642-8cac-f2f0330ecc7b2017-04-20T20:23:54+07:00Adobe Illustrator CC 2015 (Windows)/PrintFalseFalse11400.000000980.000000PixelsCyanMagentaYellowBlackDefault Swatch Group0WhiteCMYKPROCESS0.0000000.0000000.0000000.000000BlackCMYKPROCESS0.0000000.0000000.000000100.000000CMYK RedCMYKPROCESS0.000000100.000000100.0000000.000000CMYK YellowCMYKPROCESS0.0000000.000000100.0000000.000000CMYK GreenCMYKPROCESS100.0000000.000000100.0000000.000000CMYK CyanCMYKPROCESS100.0000000.0000000.0000000.000000CMYK BlueCMYKPROCESS100.000000100.0000000.0000000.000000CMYK MagentaCMYKPROCESS0.000000100.0000000.0000000.000000C=15 M=100 Y=90 K=10CMYKPROCESS15.000000100.00000090.00000010.000000C=0 M=90 Y=85 K=0CMYKPROCESS0.00000090.00000085.0000000.000000C=0 M=80 Y=95 K=0CMYKPROCESS0.00000080.00000095.0000000.000000C=0 M=50 Y=100 K=0CMYKPROCESS0.00000050.000000100.0000000.000000C=0 M=35 Y=85 K=0CMYKPROCESS0.00000035.00000085.0000000.000000C=5 M=0 Y=90 K=0CMYKPROCESS5.0000000.00000090.0000000.000000C=20 M=0 Y=100 K=0CMYKPROCESS20.0000000.000000100.0000000.000000C=50 M=0 Y=100 K=0CMYKPROCESS50.0000000.000000100.0000000.000000C=75 M=0 Y=100 K=0CMYKPROCESS75.0000000.000000100.0000000.000000C=85 M=10 Y=100 K=10CMYKPROCESS85.00000010.000000100.00000010.000000C=90 M=30 Y=95 K=30CMYKPROCESS90.00000030.00000095.00000030.000000C=75 M=0 Y=75 K=0CMYKPROCESS75.0000000.00000075.0000000.000000C=80 M=10 Y=45 K=0CMYKPROCESS80.00000010.00000045.0000000.000000C=70 M=15 Y=0 K=0CMYKPROCESS70.00000015.0000000.0000000.000000C=85 M=50 Y=0 K=0CMYKPROCESS85.00000050.0000000.0000000.000000C=100 M=95 Y=5 K=0CMYKPROCESS100.00000095.0000005.0000000.000000C=100 M=100 Y=25 K=25CMYKPROCESS100.000000100.00000025.00000025.000000C=75 M=100 Y=0 K=0CMYKPROCESS75.000000100.0000000.0000000.000000C=50 M=100 Y=0 K=0CMYKPROCESS50.000000100.0000000.0000000.000000C=35 M=100 Y=35 K=10CMYKPROCESS35.000000100.00000035.00000010.000000C=10 M=100 Y=50 K=0CMYKPROCESS10.000000100.00000050.0000000.000000C=0 M=95 Y=20 K=0CMYKPROCESS0.00000095.00000020.0000000.000000C=25 M=25 Y=40 K=0CMYKPROCESS25.00000025.00000040.0000000.000000C=40 M=45 Y=50 K=5CMYKPROCESS40.00000045.00000050.0000005.000000C=50 M=50 Y=60 K=25CMYKPROCESS50.00000050.00000060.00000025.000000C=55 M=60 Y=65 K=40CMYKPROCESS55.00000060.00000065.00000040.000000C=25 M=40 Y=65 K=0CMYKPROCESS25.00000040.00000065.0000000.000000C=30 M=50 Y=75 K=10CMYKPROCESS30.00000050.00000075.00000010.000000C=35 M=60 Y=80 K=25CMYKPROCESS35.00000060.00000080.00000025.000000C=40 M=65 Y=90 K=35CMYKPROCESS40.00000065.00000090.00000035.000000C=40 M=70 Y=100 K=50CMYKPROCESS40.00000070.000000100.00000050.000000C=50 M=70 Y=80 K=70CMYKPROCESS50.00000070.00000080.00000070.000000PANTONE P 101-15 UPROCESS100.000000CMYK79.00000274.0000010.00000047.000000PANTONE P 101-16 UPROCESS100.000000CMYK100.00000094.0000000.00000060.000002PANTONE P 103-6 UPROCESS100.000000CMYK72.00000360.0000020.00000019.000000PANTONE P 175-3 UPROCESS100.000000CMYK34.99999923.00000023.9999990.000000PANTONE P 174-7 UPROCESS100.000000CMYK61.00000144.99999934.9999990.000000PANTONE P 174-6 UPROCESS100.000000CMYK56.00000041.99999931.9999990.000000PANTONE P 7-5 UPROCESS100.000000CMYK0.00000010.00000054.0000020.000000PANTONE P 7-4 UPROCESS100.000000CMYK0.0000007.00000041.0000000.000000PANTONE P 175-4 UPROCESS100.000000CMYK41.99999927.00000128.0000000.000000PANTONE P 174-5 UPROCESS100.000000CMYK50.99999938.00000028.9999990.000000PANTONE P 174-8 UPROCESS100.000000CMYK64.99999847.99999937.0000000.000000PANTONE P 174-9 UPROCESS100.000000CMYK64.99999847.99999937.0000008.000000PANTONE P 179-2 UPROCESS100.000000CMYK0.0000000.0000000.00000011.000000PANTONE P 179-4 UPROCESS100.000000CMYK0.0000000.0000000.00000027.000001PANTONE P 179-3 UPROCESS100.000000CMYK0.0000000.0000000.00000020.000000PANTONE P 174-10 UPROCESS100.000000CMYK64.99999847.99999937.00000015.000001PANTONE P 174-11 UPROCESS100.000000CMYK64.99999847.99999937.00000022.000000PANTONE P 174-12 UPROCESS100.000000CMYK64.99999847.99999937.00000028.000000PANTONE P 174-4 UPROCESS100.000000CMYK47.00000034.00000027.0000010.000000PANTONE P 179-1 UPROCESS100.000000CMYK0.0000000.0000000.0000002.000000PANTONE P 109-10 UPROCESS100.000000CMYK27.0000019.0000000.0000003.000000PANTONE P 179-5 UPROCESS100.000000CMYK0.0000000.0000000.00000033.000001PANTONE P 179-6 UPROCESS100.000000CMYK0.0000000.0000000.00000040.000001PANTONE P 179-10 UPROCESS100.000000CMYK0.0000000.0000000.00000066.000003PANTONE P 118-5 UPROCESS100.000000CMYK63.0000000.00000010.0000000.000000PANTONE P 1-2 UPROCESS100.000000CMYK0.0000000.0000009.0000000.000000PANTONE P 1-1 UPROCESS100.000000CMYK0.0000000.0000002.0000000.000000PANTONE P 1-7 UPROCESS100.000000CMYK0.0000000.00000081.0000000.000000PANTONE P 1-4 UPROCESS100.000000CMYK0.0000000.00000031.9999990.000000PANTONE P 1-5 UPROCESS100.000000CMYK0.0000000.00000046.0000010.000000PANTONE P 174-13 UPROCESS100.000000CMYK64.99999847.99999937.00000034.999999PANTONE P 174-14 UPROCESS100.000000CMYK64.99999847.99999937.00000043.000001PANTONE P 8-1 UPROCESS100.000000CMYK0.0000004.00000020.0000006.000000PANTONE P 3-2 UPROCESS100.000000CMYK0.0000000.00000025.99999913.000000PANTONE P 14-9 UPROCESS100.000000CMYK0.00000010.00000025.9999994.000000PANTONE P 14-10 UPROCESS100.000000CMYK0.00000013.00000034.9999995.000000PANTONE P 16-2 UPROCESS100.000000CMYK0.00000013.00000036.00000118.000001PANTONE P 16-1 UPROCESS100.000000CMYK0.00000010.00000025.99999913.000000PANTONE P 17-10 UPROCESS100.000000CMYK0.00000017.00000038.9999995.000000PANTONE P 17-11 UPROCESS100.000000CMYK0.00000020.99999947.9999997.000000PANTONE P 17-9 UPROCESS100.000000CMYK0.00000014.00000031.9999995.000000PANTONE P 10-10 UPROCESS100.000000CMYK0.0000009.00000033.0000015.000000PANTONE P 10-11 UPROCESS100.000000CMYK0.00000011.00000041.0000006.000000PANTONE P 9-1 UPROCESS100.000000CMYK0.0000004.00000020.00000010.000000PANTONE P 101-2 UPROCESS100.000000CMYK25.00000023.0000000.00000012.000000PANTONE P 101-4 UPROCESS100.000000CMYK41.99999940.0000010.00000020.999999PANTONE P 101-10 UPROCESS100.000000CMYK28.99999928.0000000.00000018.000001PANTONE P 101-11 UPROCESS100.000000CMYK37.00000034.9999990.00000022.000000PANTONE P 101-12 UPROCESS100.000000CMYK44.00000041.0000000.00000025.999999PANTONE P 101-13 UPROCESS100.000000CMYK51.99999849.0000010.00000031.000000PANTONE P 101-7 UPROCESS100.000000CMYK77.99999774.0000010.00000038.999999PANTONE P 101-6 UPROCESS100.000000CMYK63.00000058.9999970.00000031.000000PANTONE P 10-2 UPROCESS100.000000CMYK0.0000009.00000033.0000010.000000PANTONE P 10-1 UPROCESS100.000000CMYK0.0000007.00000023.9999990.000000PANTONE P 106-3 UPROCESS100.000000CMYK31.99999917.0000000.0000000.000000PANTONE P 106-2 UPROCESS100.000000CMYK18.0000019.0000000.0000000.000000PANTONE P 106-9 UPROCESS100.000000CMYK12.0000006.0000000.0000002.000000PANTONE P 115-3 UPROCESS100.000000CMYK25.0000000.0000000.0000000.000000PANTONE P 115-2 UPROCESS100.000000CMYK13.0000000.0000000.0000000.000000PANTONE P 93-1 UPROCESS100.000000CMYK10.00000013.0000000.0000000.000000PANTONE P 7-6 UPROCESS100.000000CMYK0.00000012.00000063.9999990.000000PANTONE P 7-13 UPROCESS100.000000CMYK0.00000010.00000055.0000018.000000PANTONE P 7-14 UPROCESS100.000000CMYK0.00000012.00000066.00000310.000000PANTONE P 7-15 UPROCESS100.000000CMYK0.00000015.00000181.00000012.000000PANTONE P 157-4 UPROCESS100.000000CMYK22.0000000.00000046.0000010.000000PANTONE P 157-13 UPROCESS100.000000CMYK30.0000010.00000063.0000009.000000PANTONE P 148-2 UPROCESS100.000000CMYK31.0000000.00000040.0000010.000000PANTONE P 146-2 UPROCESS100.000000CMYK43.0000010.00000049.00000112.000000PANTONE P 146-4 UPROCESS100.000000CMYK57.9999980.00000066.00000316.000000PANTONE P 146-1 UPROCESS100.000000CMYK36.0000010.00000041.00000010.000000PANTONE P 146-7 UPROCESS100.000000CMYK81.0000000.00000092.00000222.000000PANTONE P 146-8 UPROCESS100.000000CMYK88.0000000.000000100.00000023.999999PANTONE P 146-16 UPROCESS100.000000CMYK88.0000000.000000100.00000034.999999PANTONE P 109-12 UPROCESS100.000000CMYK50.00000018.0000010.0000006.000000PANTONE P 109-11 UPROCESS100.000000CMYK38.00000013.0000000.0000005.000000Grays1C=0 M=0 Y=0 K=100CMYKPROCESS0.0000000.0000000.000000100.000000C=0 M=0 Y=0 K=90CMYKPROCESS0.0000000.0000000.00000089.999400C=0 M=0 Y=0 K=80CMYKPROCESS0.0000000.0000000.00000079.998800C=0 M=0 Y=0 K=70CMYKPROCESS0.0000000.0000000.00000069.999700C=0 M=0 Y=0 K=60CMYKPROCESS0.0000000.0000000.00000059.999100C=0 M=0 Y=0 K=50CMYKPROCESS0.0000000.0000000.00000050.000000C=0 M=0 Y=0 K=40CMYKPROCESS0.0000000.0000000.00000039.999400C=0 M=0 Y=0 K=30CMYKPROCESS0.0000000.0000000.00000029.998800C=0 M=0 Y=0 K=20CMYKPROCESS0.0000000.0000000.00000019.999700C=0 M=0 Y=0 K=10CMYKPROCESS0.0000000.0000000.0000009.999100C=0 M=0 Y=0 K=5CMYKPROCESS0.0000000.0000000.0000004.998800Brights1C=0 M=100 Y=100 K=0CMYKPROCESS0.000000100.000000100.0000000.000000C=0 M=75 Y=100 K=0CMYKPROCESS0.00000075.000000100.0000000.000000C=0 M=10 Y=95 K=0CMYKPROCESS0.00000010.00000095.0000000.000000C=85 M=10 Y=100 K=0CMYKPROCESS85.00000010.000000100.0000000.000000C=100 M=90 Y=0 K=0CMYKPROCESS100.00000090.0000000.0000000.000000C=60 M=90 Y=0 K=0CMYKPROCESS60.00000090.0000000.0031000.003100Adobe PDF library 10.01</metadata>
 <g>
  <title>Layer 1</title>
  <g id="svg_2">
   <path id="svg_3" d="m1168,392l0,-0.3c0,-13.5 -10.9,-24.5 -24.5,-24.5l-170,0c-13.5,0 -24.5,-10.9 -24.5,-24.5l0,0c0,-13.5 10.9,-24.5 24.5,-24.5l75.6,0c13.5,0 24.5,-10.9 24.5,-24.5l0,-0.3c0,-13.5 -10.9,-24.5 -24.5,-24.5l-622.2,0c-13.5,0 -24.5,10.9 -24.5,24.5l0,0.3c0,13.5 10.9,24.5 24.5,24.5l107.7,0c13.5,0 24.5,10.9 24.5,24.5l0,0c0,13.5 -10.9,24.5 -24.5,24.5l-253.8,0c-13.5,0 -24.5,10.9 -24.5,24.5l0,0.3c0,13.5 10.9,24.5 24.5,24.5l169,0c13.5,0 24.5,10.9 24.5,24.5l0,0c0,13.5 -10.9,24.5 -24.5,24.5l-101.6,0c-13.5,0 -24.5,10.9 -24.5,24.5l0,0.3c0,13.5 10.9,24.5 24.5,24.5l160.2,0c13.5,0 24.5,10.9 24.5,24.5l0,0c0,13.5 -10.9,24.5 -24.5,24.5l-106.3,0c-13.5,0 -24.5,10.9 -24.5,24.5l0,0.3c0,13.5 10.9,24.5 24.5,24.5l135,0c13.5,0 24.5,10.9 24.5,24.5l0,0c0,13.5 -10.9,24.5 -24.5,24.5l-233.1,0c-13.5,0 -24.5,10.9 -24.5,24.5l0,0.3c0,13.5 10.9,24.5 24.5,24.5l838.2,0c13.5,0 24.5,-10.9 24.5,-24.5l0,-0.3c0,-13.5 -10.9,-24.5 -24.5,-24.5l-191.9,0c-13.5,0 -24.5,-10.9 -24.5,-24.5l0,0c0,-13.5 10.9,-24.5 24.5,-24.5l123.6,0c13.5,0 24.5,-10.9 24.5,-24.5l0,-0.6c0,-13.5 -10.9,-24.5 -24.5,-24.5l-76.3,0c-13.5,0 -24.5,-10.9 -24.5,-24.5l0,0c0,-13.5 10.9,-24.5 24.5,-24.5l46.5,0c13.5,0 24.5,-10.9 24.5,-24.5l0,-0.3c0,-13.5 -10.9,-24.5 -24.5,-24.5l-117.5,0c-13.5,0 -24.5,-10.9 -24.5,-24.5l0,0c0,-13.5 10.9,-24.5 24.5,-24.5l216.9,0c13.6,0.3 24.5,-10.7 24.5,-24.2z" class="st1"/>
   <path id="svg_4" d="m339.9,269.1l-17.3,0c-13.6,0 -24.6,11 -24.6,24.6l0,0c0,13.6 11,24.6 24.6,24.6l17.3,0c13.6,0 24.6,-11 24.6,-24.6l0,0c0,-13.5 -11,-24.6 -24.6,-24.6z" class="st1"/>
  </g>
  <g id="svg_5">
   <rect id="svg_6" height="165.1" width="34.3" class="st2" y="545.7" x="315.7"/>
   <path id="svg_7" d="m350,714.9l-34.3,0c-2.2,0 -4,-1.8 -4,-4l0,-165.2c0,-2.2 1.8,-4 4,-4l34.3,0c2.2,0 4,1.8 4,4l0,165.1c0,2.3 -1.8,4.1 -4,4.1zm-30.3,-8l26.3,0l0,-157.2l-26.3,0l0,157.2z" class="st3"/>
   <rect id="svg_8" height="165.1" width="87.2" class="st4" y="545.7" x="350"/>
   <g id="svg_9">
    <rect id="svg_10" height="26.1" width="20.4" class="st5" y="545.7" x="384.4"/>
    <g id="svg_11">
     <path id="svg_12" d="m404.8,574.4l-20.4,0c-1.4,0 -2.5,-1.1 -2.5,-2.5l0,-26.1c0,-1.4 1.1,-2.5 2.5,-2.5l20.4,0c1.4,0 2.5,1.1 2.5,2.5l0,26.1c0,1.4 -1.1,2.5 -2.5,2.5zm-17.9,-5l15.4,0l0,-21.1l-15.4,0l0,21.1z" class="st3"/>
    </g>
   </g>
   <path id="svg_13" d="m437.2,714.9l-87.2,0c-2.2,0 -4,-1.8 -4,-4l0,-165.2c0,-2.2 1.8,-4 4,-4l87.2,0c2.2,0 4,1.8 4,4l0,165.1c0,2.3 -1.8,4.1 -4,4.1zm-83.2,-8l79.2,0l0,-157.2l-79.2,0l0,157.2z" class="st3"/>
  </g>
  <g id="svg_14">
   <g id="svg_15">
    <path id="svg_16" d="m309.9,606.6l0,0c-8.4,0 -15.2,6.8 -15.2,15.2l0,89l15.2,0l15.2,0l33.2,0l0,-104.2l-48.4,0z" class="st6"/>
    <path id="svg_17" d="m358.3,714.9l-63.6,0c-2.2,0 -4,-1.8 -4,-4l0,-89c0,-10.6 8.6,-19.2 19.2,-19.2l48.4,0c2.2,0 4,1.8 4,4l0,104.2c0,2.2 -1.8,4 -4,4zm-59.6,-8l55.6,0l0,-96.2l-44.4,0c-6.2,0 -11.2,5 -11.2,11.2l0,85z" class="st7"/>
    <path id="svg_18" d="m358.3,606.6l0,0c-8.4,0 -15.2,6.8 -15.2,15.2l0,89l30.4,0l0,-89c0,-8.4 -6.8,-15.2 -15.2,-15.2z" class="st8"/>
    <path id="svg_19" d="m373.5,714.9l-30.4,0c-2.2,0 -4,-1.8 -4,-4l0,-89c0,-10.6 8.6,-19.2 19.2,-19.2s19.2,8.6 19.2,19.2l0,89c0,2.2 -1.7,4 -4,4zm-26.4,-8l22.4,0l0,-85c0,-6.2 -5,-11.2 -11.2,-11.2s-11.2,5 -11.2,11.2l0,85z" class="st7"/>
    <g id="svg_20">
     <path id="svg_21" d="m355.9,629.2c-0.6,0 -1.3,-0.2 -1.8,-0.7c-1,-1 -1,-2.6 0,-3.5l4.9,-4.9c1,-1 2.6,-1 3.5,0c1,1 1,2.6 0,3.5l-4.9,4.9c-0.4,0.5 -1.1,0.7 -1.7,0.7z" class="st9"/>
     <path id="svg_22" d="m360.8,629.2c-0.6,0 -1.3,-0.2 -1.8,-0.7l-4.9,-4.9c-1,-1 -1,-2.6 0,-3.5c1,-1 2.6,-1 3.5,0l4.9,4.9c1,1 1,2.6 0,3.5c-0.4,0.5 -1.1,0.7 -1.7,0.7z" class="st9"/>
    </g>
   </g>
   <path id="svg_23" d="m298.1,527c-19.2,0 -19.2,10.1 -38.5,10.1c-19.2,0 -19.2,-10.1 -38.5,-10.1c-2.4,0 -4.5,0.2 -6.4,0.4c-11.1,1.6 -19.2,11.2 -19.2,22.4l0,95.7l128.1,0l0,-95.7c0,-11.2 -8.2,-20.8 -19.2,-22.4c-1.8,-0.2 -3.9,-0.4 -6.3,-0.4z" class="st8"/>
   <g id="svg_24">
    <g id="svg_25">
     <path id="svg_26" d="m290.7,613.8c-0.6,0 -1.3,-0.2 -1.8,-0.7c-1,-1 -1,-2.6 0,-3.5l4.9,-4.9c1,-1 2.6,-1 3.5,0c1,1 1,2.6 0,3.5l-4.9,4.9c-0.4,0.4 -1,0.7 -1.7,0.7z" class="st9"/>
     <path id="svg_27" d="m295.7,613.8c-0.6,0 -1.3,-0.2 -1.8,-0.7l-4.9,-4.9c-1,-1 -1,-2.6 0,-3.5c1,-1 2.6,-1 3.5,0l4.9,4.9c1,1 1,2.6 0,3.5c-0.5,0.4 -1.1,0.7 -1.7,0.7z" class="st9"/>
    </g>
    <g id="svg_28">
     <path id="svg_29" d="m223.7,613.8c-0.6,0 -1.3,-0.2 -1.8,-0.7c-1,-1 -1,-2.6 0,-3.5l4.9,-4.9c1,-1 2.6,-1 3.5,0c1,1 1,2.6 0,3.5l-4.9,4.9c-0.5,0.4 -1.1,0.7 -1.7,0.7z" class="st9"/>
     <path id="svg_30" d="m228.6,613.8c-0.6,0 -1.3,-0.2 -1.8,-0.7l-4.9,-4.9c-1,-1 -1,-2.6 0,-3.5c1,-1 2.6,-1 3.5,0l4.9,4.9c1,1 1,2.6 0,3.5c-0.4,0.4 -1.1,0.7 -1.7,0.7z" class="st9"/>
    </g>
   </g>
   <g id="svg_31">
    <path id="svg_32" d="m241.7,659l113.9,0l0,36.7c0,8.4 -6.8,15.2 -15.2,15.2l-98.7,0l0,-51.9z" class="st8"/>
    <path id="svg_33" d="m340.4,714.9l-98.7,0c-2.2,0 -4,-1.8 -4,-4l0,-51.9c0,-2.2 1.8,-4 4,-4l113.9,0c2.2,0 4,1.8 4,4l0,36.7c-0.1,10.6 -8.7,19.2 -19.2,19.2zm-94.7,-8l94.7,0c6.2,0 11.2,-5 11.2,-11.2l0,-32.7l-105.9,0l0,43.9z" class="st7"/>
   </g>
   <path id="svg_34" d="m323.7,649.5l-128.1,0c-2.2,0 -4,-1.8 -4,-4l0,-95.7c0,-13.1 9.7,-24.4 22.7,-26.3c2.2,-0.3 4.4,-0.5 6.9,-0.5c10.6,0 16.2,2.9 21.1,5.5c4.7,2.5 8.7,4.6 17.4,4.6c8.6,0 12.7,-2.1 17.4,-4.6c4.9,-2.6 10.5,-5.5 21.1,-5.5c2.5,0 4.8,0.2 6.9,0.5c12.9,1.9 22.7,13.2 22.7,26.3l0,95.7c-0.1,2.2 -1.9,4 -4.1,4zm-124.1,-8l120.1,0l0,-91.7c0,-9.2 -6.8,-17.1 -15.8,-18.4c-1.8,-0.3 -3.7,-0.4 -5.8,-0.4c-8.6,0 -12.7,2.1 -17.4,4.6c-4.9,2.6 -10.5,5.5 -21.1,5.5c-10.6,0 -16.2,-2.9 -21.1,-5.5c-4.7,-2.5 -8.7,-4.6 -17.4,-4.6c-2.1,0 -4,0.1 -5.8,0.4c-9,1.3 -15.8,9.2 -15.8,18.4l0,91.7l0.1,0z" class="st7"/>
   <g id="svg_35">
    <path id="svg_36" d="m190.8,606.6l0,0c-8.4,0 -15.2,6.8 -15.2,15.2l0,89l15.2,0l3.7,0l33.2,0l0,-104.2l-36.9,0z" class="st6"/>
    <path id="svg_37" d="m227.7,714.9l-52.1,0c-2.2,0 -4,-1.8 -4,-4l0,-89c0,-10.6 8.6,-19.2 19.2,-19.2l36.9,0c2.2,0 4,1.8 4,4l0,104.2c0,2.2 -1.8,4 -4,4zm-48.1,-8l44.1,0l0,-96.2l-32.9,0c-6.2,0 -11.2,5 -11.2,11.2l0,85z" class="st7"/>
    <path id="svg_38" d="m227.7,606.6l0,0c-8.4,0 -15.2,6.8 -15.2,15.2l0,89l30.4,0l0,-89c0,-8.4 -6.8,-15.2 -15.2,-15.2z" class="st8"/>
    <path id="svg_39" d="m242.9,714.9l-30.4,0c-2.2,0 -4,-1.8 -4,-4l0,-89c0,-10.6 8.6,-19.2 19.2,-19.2s19.2,8.6 19.2,19.2l0,89c0,2.2 -1.8,4 -4,4zm-26.4,-8l22.4,0l0,-85c0,-6.2 -5,-11.2 -11.2,-11.2s-11.2,5 -11.2,11.2l0,85z" class="st7"/>
    <g id="svg_40">
     <path id="svg_41" d="m225.2,629.2c-0.6,0 -1.3,-0.2 -1.8,-0.7c-1,-1 -1,-2.6 0,-3.5l4.9,-4.9c1,-1 2.6,-1 3.5,0c1,1 1,2.6 0,3.5l-4.9,4.9c-0.4,0.5 -1.1,0.7 -1.7,0.7z" class="st9"/>
     <path id="svg_42" d="m230.1,629.2c-0.6,0 -1.3,-0.2 -1.8,-0.7l-4.9,-4.9c-1,-1 -1,-2.6 0,-3.5c1,-1 2.6,-1 3.5,0l4.9,4.9c1,1 1,2.6 0,3.5c-0.4,0.5 -1,0.7 -1.7,0.7z" class="st9"/>
    </g>
   </g>
   <g id="svg_43">
    <path id="svg_44" d="m242.9,672.5l99.1,0c7.5,0 13.5,-6 13.5,-13.5l0,0c0,-7.5 -6,-13.5 -13.5,-13.5l-99.1,0l0,27z" class="st6"/>
    <path id="svg_45" d="m342,676.5l-99.1,0c-2.2,0 -4,-1.8 -4,-4l0,-27c0,-2.2 1.8,-4 4,-4l99.1,0c9.7,0 17.5,7.9 17.5,17.5s-7.8,17.5 -17.5,17.5zm-95.1,-8l95.1,0c5.2,0 9.5,-4.3 9.5,-9.5s-4.3,-9.5 -9.5,-9.5l-95.1,0l0,19z" class="st7"/>
   </g>
   <g id="svg_46">
    <g id="svg_47">
     <path id="svg_48" d="m290.7,570.5c-0.6,0 -1.3,-0.2 -1.8,-0.7c-1,-1 -1,-2.6 0,-3.5l4.9,-4.9c1,-1 2.6,-1 3.5,0c1,1 1,2.6 0,3.5l-4.9,4.9c-0.4,0.5 -1,0.7 -1.7,0.7z" class="st9"/>
     <path id="svg_49" d="m295.7,570.5c-0.6,0 -1.3,-0.2 -1.8,-0.7l-4.9,-4.9c-1,-1 -1,-2.6 0,-3.5c1,-1 2.6,-1 3.5,0l4.9,4.9c1,1 1,2.6 0,3.5c-0.5,0.5 -1.1,0.7 -1.7,0.7z" class="st9"/>
    </g>
    <g id="svg_50">
     <path id="svg_51" d="m223.7,570.5c-0.6,0 -1.3,-0.2 -1.8,-0.7c-1,-1 -1,-2.6 0,-3.5l4.9,-4.9c1,-1 2.6,-1 3.5,0c1,1 1,2.6 0,3.5l-4.9,4.9c-0.5,0.5 -1.1,0.7 -1.7,0.7z" class="st9"/>
     <path id="svg_52" d="m228.6,570.5c-0.6,0 -1.3,-0.2 -1.8,-0.7l-4.9,-4.9c-1,-1 -1,-2.6 0,-3.5c1,-1 2.6,-1 3.5,0l4.9,4.9c1,1 1,2.6 0,3.5c-0.4,0.5 -1.1,0.7 -1.7,0.7z" class="st9"/>
    </g>
   </g>
  </g>
  <g id="svg_53">
   <polygon id="svg_54" points="503.4,531.8 440.7,531.8 452.7,469 491.4,469  " class="st10"/>
   <path id="svg_55" d="m503.4,535.8l-62.8,0c-1.2,0 -2.3,-0.5 -3.1,-1.5s-1.1,-2.1 -0.8,-3.3l12,-62.8c0.4,-1.9 2,-3.2 3.9,-3.2l38.8,0c1.9,0 3.6,1.4 3.9,3.2l12,62.8c0.2,1.2 -0.1,2.4 -0.8,3.3s-1.9,1.5 -3.1,1.5zm-57.9,-8l53.1,0l-10.5,-54.8l-32.1,0l-10.5,54.8z" class="st3"/>
   <path id="svg_56" d="m483.7,534.3l-23.2,0c-0.7,0 -1.4,-0.3 -1.8,-0.8c-0.5,-0.5 -0.7,-1.2 -0.7,-1.9l4.4,-62.8c0.1,-1.3 1.2,-2.3 2.5,-2.3l14.3,0c1.3,0 2.4,1 2.5,2.3l4.4,62.8c0,0.7 -0.2,1.4 -0.7,1.9c-0.4,0.5 -1,0.8 -1.7,0.8zm-20.6,-5l17.9,0l-4.1,-57.8l-9.7,0l-4.1,57.8z" class="st3"/>
   <path id="svg_57" d="m472.1,713.4c-1.4,0 -2.5,-1.1 -2.5,-2.5l0,-179.1c0,-1.4 1.1,-2.5 2.5,-2.5s2.5,1.1 2.5,2.5l0,179.1c0,1.3 -1.2,2.5 -2.5,2.5z" class="st3"/>
   <path id="svg_58" d="m491.4,554.8c-1.4,0 -2.5,-1.1 -2.5,-2.5l0,-20.5c0,-1.4 1.1,-2.5 2.5,-2.5s2.5,1.1 2.5,2.5l0,20.5c0,1.4 -1.1,2.5 -2.5,2.5z" class="st3"/>
   <path id="svg_59" d="m491.4,562.7c-3.5,0 -6.4,-2.9 -6.4,-6.4s2.9,-6.4 6.4,-6.4c3.5,0 6.4,2.9 6.4,6.4s-2.8,6.4 -6.4,6.4zm0,-7.8c-0.8,0 -1.4,0.6 -1.4,1.4s0.6,1.4 1.4,1.4s1.4,-0.6 1.4,-1.4s-0.6,-1.4 -1.4,-1.4z" class="st3"/>
   <path id="svg_60" d="m453.4,710.9l0,0l37.2,0l0,0c0,-3.6 -2.9,-6.6 -6.6,-6.6l-24,0c-3.6,0 -6.6,2.9 -6.6,6.6z" class="st11"/>
   <path id="svg_61" d="m490.7,713.4l-37.2,0c-1.4,0 -2.5,-1.1 -2.5,-2.5c0,-5 4.1,-9.1 9.1,-9.1l24.1,0c5,0 9.1,4.1 9.1,9.1c-0.1,1.3 -1.2,2.5 -2.6,2.5zm-33.9,-5l30.5,0c-0.7,-1 -1.9,-1.6 -3.2,-1.6l-24.1,0c-1.3,0 -2.5,0.6 -3.2,1.6z" class="st3"/>
  </g>
  <g id="svg_62">
   <rect id="svg_63" height="105.1" width="39.6" class="st2" y="605.7" x="384.4"/>
   <path id="svg_64" d="m424,714.9l-39.6,0c-2.2,0 -4,-1.8 -4,-4l0,-105.2c0,-2.2 1.8,-4 4,-4l39.6,0c2.2,0 4,1.8 4,4l0,105.1c0,2.3 -1.8,4.1 -4,4.1zm-35.6,-8l31.6,0l0,-97.1l-31.6,0l0,97.1z" class="st7"/>
   <rect id="svg_65" height="105.1" width="100.5" class="st4" y="605.7" x="424"/>
   <g id="svg_66">
    <rect id="svg_67" height="30.2" width="23.5" class="st5" y="605.7" x="463.7"/>
    <g id="svg_68">
     <path id="svg_69" d="m487.2,638.4l-23.5,0c-1.4,0 -2.5,-1.1 -2.5,-2.5l0,-30.2c0,-1.4 1.1,-2.5 2.5,-2.5l23.5,0c1.4,0 2.5,1.1 2.5,2.5l0,30.2c0,1.4 -1.1,2.5 -2.5,2.5zm-21,-5l18.5,0l0,-25.2l-18.5,0l0,25.2z" class="st7"/>
    </g>
   </g>
   <path id="svg_70" d="m524.5,714.9l-100.5,0c-2.2,0 -4,-1.8 -4,-4l0,-105.2c0,-2.2 1.8,-4 4,-4l100.5,0c2.2,0 4,1.8 4,4l0,105.1c0,2.3 -1.8,4.1 -4,4.1zm-96.5,-8l92.5,0l0,-97.1l-92.5,0l0,97.1z" class="st7"/>
  </g>
  <g id="svg_71">
   <rect id="svg_72" height="44.1" width="39.6" class="st2" y="666.7" x="195.2"/>
   <path id="svg_73" d="m234.8,714.9l-39.6,0c-2.2,0 -4,-1.8 -4,-4l0,-44.1c0,-2.2 1.8,-4 4,-4l39.6,0c2.2,0 4,1.8 4,4l0,44.1c0,2.2 -1.8,4 -4,4zm-35.6,-8l31.6,0l0,-36.1l-31.6,0l0,36.1z" class="st7"/>
   <rect id="svg_74" height="44.1" width="100.5" class="st4" y="666.7" x="234.8"/>
   <g id="svg_75">
    <rect id="svg_76" height="30.2" width="23.5" class="st5" y="666.7" x="274.5"/>
    <g id="svg_77">
     <path id="svg_78" d="m298.1,699.4l-23.5,0c-1.4,0 -2.5,-1.1 -2.5,-2.5l0,-30.2c0,-1.4 1.1,-2.5 2.5,-2.5l23.5,0c1.4,0 2.5,1.1 2.5,2.5l0,30.2c0,1.4 -1.1,2.5 -2.5,2.5zm-21.1,-5l18.5,0l0,-25.2l-18.5,0l0,25.2z" class="st7"/>
    </g>
   </g>
   <path id="svg_79" d="m335.3,714.9l-100.5,0c-2.2,0 -4,-1.8 -4,-4l0,-44.1c0,-2.2 1.8,-4 4,-4l100.5,0c2.2,0 4,1.8 4,4l0,44.1c0,2.2 -1.8,4 -4,4zm-96.5,-8l92.5,0l0,-36.1l-92.5,0l0,36.1z" class="st7"/>
  </g>
  <g id="svg_80">
   <g id="svg_81">
    <g id="svg_82">
     <path id="svg_83" d="m1075.5,659.2c0,-21.1 -12.6,-39.2 -30.7,-47.2l0,-4.5l-21,0c-28.5,0 -51.7,23.1 -51.7,51.7c0,28.5 23.1,51.7 51.7,51.7l21,0l0,-4.5c18.1,-8 30.7,-26.1 30.7,-47.2z" class="st12"/>
     <path id="svg_84" d="m1044.9,714.9l-21,0c-30.7,0 -55.7,-25 -55.7,-55.7s25,-55.7 55.7,-55.7l21,0c2.2,0 4,1.8 4,4l0,1.9c18.7,9.4 30.7,28.7 30.7,49.7s-12,40.3 -30.7,49.7l0,1.9c0,2.4 -1.8,4.2 -4,4.2zm-21,-103.4c-26.3,0 -47.7,21.4 -47.7,47.7s21.4,47.7 47.7,47.7l17,0l0,-0.5c0,-1.6 0.9,-3 2.4,-3.7c17.2,-7.7 28.3,-24.8 28.3,-43.6s-11.1,-35.9 -28.3,-43.6c-1.4,-0.6 -2.4,-2.1 -2.4,-3.7l0,-0.5l-17,0l0,0.2z" class="st7"/>
     <circle id="svg_85" r="51.7" cy="659.2" cx="1044.9" class="st13"/>
     <path id="svg_86" d="m1044.9,714.9c-30.7,0 -55.7,-25 -55.7,-55.7s25,-55.7 55.7,-55.7s55.7,25 55.7,55.7s-25,55.7 -55.7,55.7zm0,-103.4c-26.3,0 -47.7,21.4 -47.7,47.7s21.4,47.7 47.7,47.7s47.7,-21.4 47.7,-47.7s-21.4,-47.7 -47.7,-47.7z" class="st7"/>
     <circle id="svg_87" r="24.7" cy="659.2" cx="1044.9" class="st14"/>
     <path id="svg_88" d="m1044.9,666.9c-9.9,0 -18.6,-4.6 -24.4,-11.7c-0.2,1.3 -0.3,2.7 -0.3,4c0,13.6 11.1,24.7 24.7,24.7s24.7,-11.1 24.7,-24.7c0,-1.4 -0.1,-2.7 -0.3,-4c-5.8,7.1 -14.6,11.7 -24.4,11.7z" class="st15"/>
     <path id="svg_89" d="m1044.9,687.9c-15.8,0 -28.7,-12.9 -28.7,-28.7s12.9,-28.7 28.7,-28.7s28.7,12.9 28.7,28.7s-12.9,28.7 -28.7,28.7zm0,-49.4c-11.4,0 -20.7,9.3 -20.7,20.7s9.3,20.7 20.7,20.7s20.7,-9.3 20.7,-20.7s-9.3,-20.7 -20.7,-20.7z" class="st7"/>
    </g>
    <g id="svg_90">
     <rect id="svg_91" height="39.5" width="127.1" class="st16" y="592.1" x="1044.9"/>
     <path id="svg_92" d="m1172,635.6l-127.1,0c-2.2,0 -4,-1.8 -4,-4l0,-39.5c0,-2.2 1.8,-4 4,-4l127.1,0c2.2,0 4,1.8 4,4l0,39.5c0,2.2 -1.8,4 -4,4zm-123.1,-8l119.1,0l0,-31.5l-119.1,0l0,31.5z" class="st7"/>
    </g>
    <g id="svg_93">
     <path id="svg_94" d="m1116.7,659.2c0,-21.1 -12.6,-39.2 -30.7,-47.2l0,-4.5l-21,0c-28.5,0 -51.7,23.1 -51.7,51.7c0,28.5 23.1,51.7 51.7,51.7l21,0l0,-4.5c18.1,-8 30.7,-26.1 30.7,-47.2z" class="st12"/>
     <path id="svg_95" d="m1086,714.9l-21,0c-30.7,0 -55.7,-25 -55.7,-55.7s25,-55.7 55.7,-55.7l21,0c2.2,0 4,1.8 4,4l0,1.9c18.7,9.4 30.7,28.7 30.7,49.7s-12,40.3 -30.7,49.7l0,1.9c0,2.4 -1.7,4.2 -4,4.2zm-21,-103.4c-26.3,0 -47.7,21.4 -47.7,47.7s21.4,47.7 47.7,47.7l17,0l0,-0.5c0,-1.6 0.9,-3 2.4,-3.7c17.2,-7.7 28.3,-24.8 28.3,-43.6s-11.1,-35.9 -28.3,-43.6c-1.4,-0.6 -2.4,-2.1 -2.4,-3.7l0,-0.5l-17,0l0,0.2z" class="st7"/>
     <circle id="svg_96" r="51.7" cy="659.2" cx="1086" class="st17"/>
     <path id="svg_97" d="m1086,714.9c-30.7,0 -55.7,-25 -55.7,-55.7s25,-55.7 55.7,-55.7c30.7,0 55.7,25 55.7,55.7s-25,55.7 -55.7,55.7zm0,-103.4c-26.3,0 -47.7,21.4 -47.7,47.7s21.4,47.7 47.7,47.7s47.7,-21.4 47.7,-47.7s-21.4,-47.7 -47.7,-47.7z" class="st7"/>
     <circle id="svg_98" r="24.7" cy="659.2" cx="1086" class="st14"/>
     <path id="svg_99" d="m1086,666.9c-9.9,0 -18.6,-4.6 -24.4,-11.7c-0.2,1.3 -0.3,2.7 -0.3,4c0,13.6 11.1,24.7 24.7,24.7c13.6,0 24.7,-11.1 24.7,-24.7c0,-1.4 -0.1,-2.7 -0.3,-4c-5.7,7.1 -14.5,11.7 -24.4,11.7z" class="st15"/>
     <path id="svg_100" d="m1086,687.9c-15.8,0 -28.7,-12.9 -28.7,-28.7s12.9,-28.7 28.7,-28.7s28.7,12.9 28.7,28.7s-12.8,28.7 -28.7,28.7zm0,-49.4c-11.4,0 -20.7,9.3 -20.7,20.7s9.3,20.7 20.7,20.7s20.7,-9.3 20.7,-20.7s-9.2,-20.7 -20.7,-20.7z" class="st7"/>
    </g>
    <g id="svg_101">
     <path id="svg_102" d="m745.3,659.2c0,-21.1 -12.6,-39.2 -30.7,-47.2l0,-4.5l-21,0c-28.5,0 -51.7,23.1 -51.7,51.7c0,28.5 23.1,51.7 51.7,51.7l21,0l0,-4.5c18.1,-8 30.7,-26.1 30.7,-47.2z" class="st12"/>
     <path id="svg_103" d="m714.7,714.9l-21,0c-30.7,0 -55.7,-25 -55.7,-55.7s25,-55.7 55.7,-55.7l21,0c2.2,0 4,1.8 4,4l0,1.9c18.7,9.4 30.7,28.7 30.7,49.7s-12,40.3 -30.7,49.7l0,1.9c0,2.4 -1.8,4.2 -4,4.2zm-21,-103.4c-26.3,0 -47.7,21.4 -47.7,47.7s21.4,47.7 47.7,47.7l17,0l0,-0.5c0,-1.6 0.9,-3 2.4,-3.7c17.2,-7.7 28.3,-24.8 28.3,-43.6s-11.1,-35.9 -28.3,-43.6c-1.4,-0.6 -2.4,-2.1 -2.4,-3.7l0,-0.5l-17,0l0,0.2z" class="st7"/>
     <circle id="svg_104" r="51.7" cy="659.2" cx="714.7" class="st13"/>
     <path id="svg_105" d="m714.7,714.9c-30.7,0 -55.7,-25 -55.7,-55.7s25,-55.7 55.7,-55.7c30.7,0 55.7,25 55.7,55.7s-25,55.7 -55.7,55.7zm0,-103.4c-26.3,0 -47.7,21.4 -47.7,47.7s21.4,47.7 47.7,47.7c26.3,0 47.7,-21.4 47.7,-47.7s-21.4,-47.7 -47.7,-47.7z" class="st7"/>
     <circle id="svg_106" r="24.7" cy="659.2" cx="714.7" class="st14"/>
     <path id="svg_107" d="m714.7,666.9c-9.9,0 -18.6,-4.6 -24.4,-11.7c-0.2,1.3 -0.3,2.7 -0.3,4c0,13.6 11.1,24.7 24.7,24.7s24.7,-11.1 24.7,-24.7c0,-1.4 -0.1,-2.7 -0.3,-4c-5.8,7.1 -14.6,11.7 -24.4,11.7z" class="st15"/>
     <path id="svg_108" d="m714.7,687.9c-15.8,0 -28.7,-12.9 -28.7,-28.7s12.9,-28.7 28.7,-28.7s28.7,12.9 28.7,28.7s-12.9,28.7 -28.7,28.7zm0,-49.4c-11.4,0 -20.7,9.3 -20.7,20.7s9.3,20.7 20.7,20.7s20.7,-9.3 20.7,-20.7s-9.3,-20.7 -20.7,-20.7z" class="st7"/>
    </g>
    <path id="svg_109" d="m570.5,586.6c-12.4,0 -22.5,10.1 -22.5,22.5l0,0c0,12.4 10.1,22.5 22.5,22.5l343.2,0l0,-45l-343.2,0z" class="st5"/>
    <path id="svg_110" d="m913.7,635.6l-343.2,0c-14.6,0 -26.5,-11.9 -26.5,-26.5s11.9,-26.5 26.5,-26.5l343.2,0c2.2,0 4,1.8 4,4l0,45c0,2.2 -1.8,4 -4,4zm-343.2,-45c-10.2,0 -18.5,8.3 -18.5,18.5s8.3,18.5 18.5,18.5l339.2,0l0,-37l-339.2,0z" class="st7"/>
    <g id="svg_111">
     <rect id="svg_112" height="285.7" width="102.1" class="st17" y="300.9" x="570.3"/>
     <polygon id="svg_113" points="570.3,374.7 672.3,569.4 672.3,374.7    " class="st18"/>
     <path id="svg_114" d="m672.3,590.6l-102,0c-2.2,0 -4,-1.8 -4,-4l0,-285.7c0,-2.2 1.8,-4 4,-4l102.1,0c2.2,0 4,1.8 4,4l0,285.7c-0.1,2.2 -1.9,4 -4.1,4zm-98,-8l94.1,0l0,-277.7l-94.1,0l0,277.7z" class="st7"/>
     <rect id="svg_115" height="73.9" width="102.1" class="st19" y="300.9" x="570.3"/>
     <path id="svg_116" d="m672.3,378.7l-102,0c-2.2,0 -4,-1.8 -4,-4l0,-73.9c0,-2.2 1.8,-4 4,-4l102.1,0c2.2,0 4,1.8 4,4l0,73.9c-0.1,2.2 -1.9,4 -4.1,4zm-98,-8l94.1,0l0,-65.9l-94.1,0l0,65.9z" class="st7"/>
     <g id="svg_117">
      <path id="svg_118" d="m672.3,317.6l-102,0c-1.4,0 -2.5,-1.1 -2.5,-2.5s1.1,-2.5 2.5,-2.5l102.1,0c1.4,0 2.5,1.1 2.5,2.5s-1.2,2.5 -2.6,2.5z" class="st7"/>
      <path id="svg_119" d="m672.3,330.1l-102,0c-1.4,0 -2.5,-1.1 -2.5,-2.5s1.1,-2.5 2.5,-2.5l102.1,0c1.4,0 2.5,1.1 2.5,2.5s-1.2,2.5 -2.6,2.5z" class="st7"/>
      <path id="svg_120" d="m672.3,342.6l-102,0c-1.4,0 -2.5,-1.1 -2.5,-2.5s1.1,-2.5 2.5,-2.5l102.1,0c1.4,0 2.5,1.1 2.5,2.5s-1.2,2.5 -2.6,2.5z" class="st7"/>
      <path id="svg_121" d="m672.3,355.1l-102,0c-1.4,0 -2.5,-1.1 -2.5,-2.5s1.1,-2.5 2.5,-2.5l102.1,0c1.4,0 2.5,1.1 2.5,2.5s-1.2,2.5 -2.6,2.5z" class="st7"/>
     </g>
     <path id="svg_122" d="m626.1,365.4l-9.7,0c-1.4,0 -2.5,-1.1 -2.5,-2.5s1.1,-2.5 2.5,-2.5l9.7,0c1.4,0 2.5,1.1 2.5,2.5s-1.1,2.5 -2.5,2.5z" class="st7"/>
    </g>
    <rect id="svg_123" height="45" width="151.5" class="st20" y="586.6" x="736.5"/>
    <g id="svg_124">
     <path id="svg_125" d="m789.7,659.2c0,-21.1 -12.6,-39.2 -30.7,-47.2l0,-4.5l-21,0c-28.5,0 -51.7,23.1 -51.7,51.7c0,28.5 23.1,51.7 51.7,51.7l21,0l0,-4.5c18.1,-8 30.7,-26.1 30.7,-47.2z" class="st12"/>
     <path id="svg_126" d="m759,714.9l-21,0c-30.7,0 -55.7,-25 -55.7,-55.7s25,-55.7 55.7,-55.7l21,0c2.2,0 4,1.8 4,4l0,1.9c18.7,9.4 30.7,28.7 30.7,49.7s-12,40.3 -30.7,49.7l0,1.9c0,2.4 -1.8,4.2 -4,4.2zm-21,-103.4c-26.3,0 -47.7,21.4 -47.7,47.7s21.4,47.7 47.7,47.7l17,0l0,-0.5c0,-1.6 0.9,-3 2.4,-3.7c17.2,-7.7 28.3,-24.8 28.3,-43.6s-11.1,-35.9 -28.3,-43.6c-1.4,-0.6 -2.4,-2.1 -2.4,-3.7l0,-0.5l-17,0l0,0.2z" class="st7"/>
     <circle id="svg_127" r="51.7" cy="659.2" cx="759" class="st17"/>
     <path id="svg_128" d="m759,714.9c-30.7,0 -55.7,-25 -55.7,-55.7s25,-55.7 55.7,-55.7s55.7,25 55.7,55.7s-25,55.7 -55.7,55.7zm0,-103.4c-26.3,0 -47.7,21.4 -47.7,47.7s21.4,47.7 47.7,47.7s47.7,-21.4 47.7,-47.7s-21.4,-47.7 -47.7,-47.7z" class="st7"/>
     <circle id="svg_129" r="24.7" cy="659.2" cx="759" class="st14"/>
     <path id="svg_130" d="m759,666.9c-9.9,0 -18.6,-4.6 -24.4,-11.7c-0.2,1.3 -0.3,2.7 -0.3,4c0,13.6 11.1,24.7 24.7,24.7s24.7,-11.1 24.7,-24.7c0,-1.4 -0.1,-2.7 -0.3,-4c-5.7,7.1 -14.5,11.7 -24.4,11.7z" class="st15"/>
     <path id="svg_131" d="m759,687.9c-15.8,0 -28.7,-12.9 -28.7,-28.7s12.9,-28.7 28.7,-28.7s28.7,12.9 28.7,28.7s-12.9,28.7 -28.7,28.7zm0,-49.4c-11.4,0 -20.7,9.3 -20.7,20.7s9.3,20.7 20.7,20.7s20.7,-9.3 20.7,-20.7s-9.3,-20.7 -20.7,-20.7z" class="st7"/>
    </g>
    <path id="svg_132" d="m662.5,586.6c-12.4,0 -22.5,10.1 -22.5,22.5l0,0c0,12.4 10.1,22.5 22.5,22.5l39.5,0c10.3,-21.1 31.9,-35.7 57,-35.7s46.7,14.6 57,35.7l189.7,0l0,-45l-343.2,0z" class="st21"/>
    <path id="svg_133" d="m1005.7,635.6l-189.7,0c-1.5,0 -2.9,-0.9 -3.6,-2.3c-10,-20.6 -30.5,-33.4 -53.4,-33.4s-43.4,12.8 -53.4,33.4c-0.7,1.4 -2.1,2.3 -3.6,2.3l-39.5,0c-14.6,0 -26.5,-11.9 -26.5,-26.5s11.9,-26.5 26.5,-26.5l343.2,0c2.2,0 4,1.8 4,4l0,45c0,2.2 -1.8,4 -4,4zm-187.2,-8l183.2,0l0,-37l-339.2,0c-10.2,0 -18.5,8.3 -18.5,18.5s8.3,18.5 18.5,18.5l37.1,0c11.7,-22.1 34.3,-35.7 59.4,-35.7s47.7,13.6 59.5,35.7z" class="st7"/>
    <path id="svg_134" d="m1204.3,483.6l-64.1,-20.2l-16.5,-90.3c-2.6,-14.4 -15.1,-24.8 -29.7,-24.8l-88.3,0l0,283.3l22.8,0c10.3,-21.4 32.2,-36.2 57.6,-36.2s47.3,14.8 57.6,36.2l59.8,0c11.6,0 20.9,-9.4 20.9,-20.9l0,-99.7c-0.1,-12.6 -8.2,-23.6 -20.1,-27.4z" class="st22"/>
    <path id="svg_135" d="m1203.4,635.6l-59.8,0c-1.5,0 -2.9,-0.9 -3.6,-2.3c-9.9,-20.6 -31.1,-34 -54,-34c-22.9,0 -44.1,13.3 -54,34c-0.7,1.4 -2.1,2.3 -3.6,2.3l-22.8,0c-2.2,0 -4,-1.8 -4,-4l0,-283.3c0,-2.2 1.8,-4 4,-4l88.3,0c16.5,0 30.7,11.8 33.7,28.1l16,88l61.8,19.5l0,0c13.6,4.3 22.8,16.8 22.8,31.1l0,99.7c0.1,13.7 -11,24.9 -24.8,24.9zm-57.3,-8l57.3,0c9.3,0 16.9,-7.6 16.9,-16.9l0,-99.7c0,-10.8 -6.9,-20.2 -17.2,-23.5l-64.1,-20.2c-1.4,-0.4 -2.5,-1.6 -2.7,-3.1l-16.5,-90.3c-2.3,-12.5 -13.1,-21.5 -25.8,-21.5l-84.3,0l0,275.3l16.3,0c11.7,-22.1 35,-36.2 60,-36.2s48.4,14 60.1,36.1z" class="st7"/>
    <g id="svg_136">
     <path id="svg_137" d="m964.9,605.3l-78.2,0c-8.9,0 -16.1,7.2 -16.1,16.1l0,20.4c0,8.9 7.2,16.1 16.1,16.1l78.2,0c8.9,0 16.1,-7.2 16.1,-16.1l0,-20.4c0,-8.9 -7.2,-16.1 -16.1,-16.1z" class="st15"/>
     <path id="svg_138" d="m964.9,661.9l-78.2,0c-11.1,0 -20.1,-9 -20.1,-20.1l0,-20.4c0,-11.1 9,-20.1 20.1,-20.1l78.2,0c11.1,0 20.1,9 20.1,20.1l0,20.4c0,11 -9,20.1 -20.1,20.1zm-78.2,-52.6c-6.7,0 -12.1,5.4 -12.1,12.1l0,20.4c0,6.7 5.4,12.1 12.1,12.1l78.2,0c6.7,0 12.1,-5.4 12.1,-12.1l0,-20.4c0,-6.7 -5.4,-12.1 -12.1,-12.1l-78.2,0z" class="st7"/>
     <path id="svg_139" d="m912.3,641.7l0,-20.4c0,-8.9 -7.2,-16.1 -16.1,-16.1l-9.5,0c-8.9,0 -16.1,7.2 -16.1,16.1l0,20.4c0,8.9 7.2,16.1 16.1,16.1l9.5,0c8.9,0.1 16.1,-7.2 16.1,-16.1z" class="st14"/>
     <path id="svg_140" d="m896.2,661.9l-9.5,0c-11.1,0 -20.1,-9 -20.1,-20.1l0,-20.4c0,-11.1 9,-20.1 20.1,-20.1l9.5,0c11.1,0 20.1,9 20.1,20.1l0,20.4c0,11 -9,20.1 -20.1,20.1zm-9.5,-52.6c-6.7,0 -12.1,5.4 -12.1,12.1l0,20.4c0,6.7 5.4,12.1 12.1,12.1l9.5,0c6.7,0 12.1,-5.4 12.1,-12.1l0,-20.4c0,-6.7 -5.4,-12.1 -12.1,-12.1l-9.5,0z" class="st7"/>
     <path id="svg_141" d="m931.2,661.9c-2.2,0 -4,-1.8 -4,-4s1.8,-4 4,-4c6.7,0 12.1,-5.4 12.1,-12.1l0,-20.4c0,-6.7 -5.4,-12.1 -12.1,-12.1c-2.2,0 -4,-1.8 -4,-4s1.8,-4 4,-4c11.1,0 20.1,9 20.1,20.1l0,20.4c0,11 -9,20.1 -20.1,20.1z" class="st7"/>
    </g>
    <path id="svg_142" d="m1143,589.1l-92.5,0c-1.4,0 -2.5,-1.1 -2.5,-2.5l0,-75.9l-25.4,-11.8c-0.9,-0.4 -1.4,-1.3 -1.4,-2.3l0,-35.2c0,-1.4 1.1,-2.5 2.5,-2.5s2.5,1.1 2.5,2.5l0,33.6l25.4,11.8c0.9,0.4 1.4,1.3 1.4,2.3l0,75l87.5,0l0,-97.1l-20.9,-24c-0.9,-1 -0.8,-2.6 0.2,-3.5c1,-0.9 2.6,-0.8 3.5,0.2l21.5,24.7c0.4,0.5 0.6,1 0.6,1.6l0,100.5c0.1,1.5 -1,2.6 -2.4,2.6z" class="st23"/>
    <path id="svg_143" d="m1005.7,631.6l22.8,0c10.3,-21.4 32.2,-36.2 57.6,-36.2s47.3,14.8 57.6,36.2l59.8,0c11.6,0 20.9,-9.4 20.9,-20.9l0,-24.1l-218.7,0l0,45z" class="st18"/>
    <path id="svg_144" d="m1203.4,635.6l-59.8,0c-1.5,0 -2.9,-0.9 -3.6,-2.3c-9.9,-20.6 -31.1,-34 -54,-34c-22.9,0 -44.1,13.3 -54,34c-0.7,1.4 -2.1,2.3 -3.6,2.3l-22.8,0c-2.2,0 -4,-1.8 -4,-4l0,-45c0,-2.2 1.8,-4 4,-4l218.7,0c2.2,0 4,1.8 4,4l0,24.1c0,13.7 -11.1,24.9 -24.9,24.9zm-57.3,-8l57.3,0c9.3,0 16.9,-7.6 16.9,-16.9l0,-20.1l-210.7,0l0,37l16.3,0c11.7,-22.1 35,-36.2 60,-36.2s48.5,14.1 60.2,36.2z" class="st7"/>
    <path id="svg_145" d="m1121.5,461.4l-15.5,-85c-1.1,-5.8 -6.1,-10 -12,-10l-70.3,0l0,95.1l97.8,0l0,-0.1z" class="st24"/>
    <path id="svg_146" d="m1121.5,465.4l-97.9,0c-2.2,0 -4,-1.8 -4,-4l0,-95.1c0,-2.2 1.8,-4 4,-4l70.3,0c7.8,0 14.6,5.6 16,13.3l15.5,85c0.2,1.2 -0.1,2.4 -0.9,3.3c-0.7,1 -1.8,1.5 -3,1.5zm-93.8,-8l89.1,0l-14.7,-80.3c-0.7,-3.9 -4.1,-6.8 -8.1,-6.8l-66.3,0l0,87.1z" class="st7"/>
    <path id="svg_147" d="m1036.3,437.3c-1,0 -2,-0.4 -2.8,-1.2c-1.6,-1.6 -1.6,-4.1 0,-5.7l46.8,-46.8c1.6,-1.6 4.1,-1.6 5.7,0c1.6,1.6 1.6,4.1 0,5.7l-46.8,46.8c-0.9,0.8 -1.9,1.2 -2.9,1.2z" class="st25"/>
    <path id="svg_148" d="m1050.5,455.6c-1,0 -2,-0.4 -2.8,-1.2c-1.6,-1.6 -1.6,-4.1 0,-5.7l18.6,-18.6c1.6,-1.6 4.1,-1.6 5.7,0c1.6,1.6 1.6,4.1 0,5.7l-18.6,18.6c-0.9,0.8 -1.9,1.2 -2.9,1.2z" class="st25"/>
    <path id="svg_149" d="m1076.3,429.8c-1,0 -2,-0.4 -2.8,-1.2c-1.6,-1.6 -1.6,-4.1 0,-5.7l4,-4c1.6,-1.6 4.1,-1.6 5.7,0c1.6,1.6 1.6,4.1 0,5.7l-4,4c-0.9,0.8 -1.9,1.2 -2.9,1.2z" class="st25"/>
    <path id="svg_150" d="m1197.7,528.1c0,12 9.7,21.7 21.7,21.7c1.7,0 3.4,-0.2 5,-0.6l0,-38.2c0,-1.4 -0.1,-2.7 -0.3,-4c-1.5,-0.3 -3.1,-0.5 -4.7,-0.5c-12,-0.1 -21.7,9.6 -21.7,21.6z" class="st26"/>
    <path id="svg_151" d="m1219.3,553.7c-14.2,0 -25.7,-11.5 -25.7,-25.7s11.5,-25.7 25.7,-25.7c1.9,0 3.7,0.2 5.6,0.6c1.6,0.4 2.9,1.7 3.1,3.3c0.2,1.6 0.3,3.1 0.3,4.6l0,38.2c0,1.9 -1.3,3.5 -3.1,3.9c-1.9,0.6 -3.9,0.8 -5.9,0.8zm0,-43.3c-9.7,0 -17.7,7.9 -17.7,17.7s7.9,17.7 17.7,17.7c0.3,0 0.7,0 1,0l0,-34.8c0,-0.2 0,-0.3 0,-0.5c-0.3,-0.1 -0.6,-0.1 -1,-0.1z" class="st7"/>
    <g id="svg_152">
     <rect id="svg_153" height="66.3" width="39.6" class="st2" y="516.5" x="610.2"/>
     <path id="svg_154" d="m649.8,586.9l-39.6,0c-2.2,0 -4,-1.8 -4,-4l0,-66.3c0,-2.2 1.8,-4 4,-4l39.6,0c2.2,0 4,1.8 4,4l0,66.3c0,2.2 -1.8,4 -4,4zm-35.6,-8l31.6,0l0,-58.3l-31.6,0l0,58.3z" class="st7"/>
     <rect id="svg_155" height="66.3" width="100.5" class="st4" y="516.5" x="649.8"/>
     <g id="svg_156">
      <rect id="svg_157" height="19" width="23.5" class="st5" y="516.5" x="689.5"/>
      <g id="svg_158">
       <path id="svg_159" d="m713.1,538.1l-23.5,0c-1.4,0 -2.5,-1.1 -2.5,-2.5l0,-19c0,-1.4 1.1,-2.5 2.5,-2.5l23.5,0c1.4,0 2.5,1.1 2.5,2.5l0,19c0,1.3 -1.2,2.5 -2.5,2.5zm-21.1,-5l18.5,0l0,-14l-18.5,0l0,14z" class="st7"/>
      </g>
     </g>
     <path id="svg_160" d="m750.3,586.9l-100.5,0c-2.2,0 -4,-1.8 -4,-4l0,-66.3c0,-2.2 1.8,-4 4,-4l100.5,0c2.2,0 4,1.8 4,4l0,66.3c0,2.2 -1.8,4 -4,4zm-96.5,-8l92.5,0l0,-58.3l-92.5,0l0,58.3z" class="st7"/>
    </g>
    <rect id="svg_161" height="285.7" width="333.3" class="st22" y="300.9" x="672.3"/>
    <path id="svg_162" d="m1005.7,590.6l-333.4,0c-2.2,0 -4,-1.8 -4,-4l0,-285.7c0,-2.2 1.8,-4 4,-4l333.3,0c2.2,0 4,1.8 4,4l0,285.7c0.1,2.2 -1.7,4 -3.9,4zm-329.4,-8l325.3,0l0,-277.7l-325.3,0l0,277.7z" class="st7"/>
   </g>
   <polygon id="svg_163" points="578,586.6 448.3,710.9 507.8,710.9 637.5,586.6  " class="st27"/>
   <path id="svg_164" d="m507.8,714.9l-59.5,0c-1.6,0 -3.1,-1 -3.7,-2.5c-0.6,-1.5 -0.2,-3.3 0.9,-4.4l129.8,-124.3c0.7,-0.7 1.7,-1.1 2.8,-1.1l59.5,0c1.6,0 3.1,1 3.7,2.5c0.6,1.5 0.2,3.3 -0.9,4.4l-129.9,124.3c-0.7,0.7 -1.7,1.1 -2.7,1.1zm-49.6,-8l47.9,0l121.4,-116.3l-47.9,0l-121.4,116.3z" class="st7"/>
  </g>
  <path id="svg_165" d="m1242.2,714.9l-1084.4,0c-2.2,0 -4,-1.8 -4,-4s1.8,-4 4,-4l1084.4,0c2.2,0 4,1.8 4,4s-1.8,4 -4,4z" class="st7"/>
 </g>
</svg>