<svg width="70" height="96" viewBox="0 0 70 96" fill="none" xmlns="http://www.w3.org/2000/svg">
<g clip-path="url(#clip0)">
<g opacity="0.7">
<path opacity="0.7" d="M29.0401 90.6371L24.7561 89.0399V61.5947C24.8771 61.643 25.0062 61.6678 25.1365 61.6679H26.5285C27.128 61.6672 27.7028 61.4289 28.1269 61.0051C28.5509 60.5813 28.7895 60.0066 28.7905 59.4071V56.9447H29.2801C29.3683 56.9447 29.4528 56.9096 29.5151 56.8473C29.5775 56.785 29.6125 56.7004 29.6125 56.6123V35.7767C29.6112 34.4021 29.0647 33.0841 28.0928 32.112C27.1209 31.1399 25.8031 30.5931 24.4285 30.5915H19.0429V28.7135C19.9701 28.1266 20.7339 27.315 21.2634 26.3539C21.7929 25.3928 22.0709 24.3135 22.0717 23.2163V20.9687H22.8001C22.821 20.9685 22.8419 20.9665 22.8625 20.9627H22.8829L22.9213 20.9507L22.9429 20.9399L22.9753 20.9231L22.9957 20.9099L23.0245 20.8859C23.03 20.881 23.0352 20.8758 23.0401 20.8703C23.0495 20.8607 23.0579 20.8503 23.0653 20.8391C23.0703 20.8344 23.0748 20.8292 23.0785 20.8235C23.0869 20.8101 23.0941 20.7961 23.1001 20.7815L23.1073 20.7695C23.1149 20.7513 23.1205 20.7324 23.1241 20.7131V20.6963V19.1291C23.1236 17.6585 22.6958 16.2198 21.8926 14.988C21.0894 13.7561 19.9455 12.7843 18.6001 12.1907V11.8655C18.6001 11.798 18.5795 11.7321 18.5411 11.6766C18.5028 11.6211 18.4484 11.5785 18.3853 11.5547C16.5679 10.8688 14.5627 10.8688 12.7453 11.5547C12.6822 11.5785 12.6278 11.6211 12.5894 11.6766C12.5511 11.7321 12.5305 11.798 12.5305 11.8655V12.1907C11.1822 12.782 10.035 13.7528 9.22894 14.9848C8.42287 16.2168 7.9927 17.6568 7.9909 19.1291V20.6399C7.99034 20.6422 7.99034 20.6447 7.9909 20.6471C7.98971 20.6622 7.98971 20.6775 7.9909 20.6927V20.7095C7.9945 20.7288 8.00013 20.7477 8.0077 20.7659L8.0149 20.7791C8.02115 20.7931 8.02837 20.8068 8.0365 20.8199L8.0497 20.8367C8.05738 20.8472 8.0658 20.8573 8.0749 20.8667C8.0799 20.8725 8.08554 20.8777 8.0917 20.8823L8.1193 20.9063L8.1397 20.9195L8.1721 20.9363L8.1937 20.9471L8.2321 20.9591H8.2525C8.27308 20.9629 8.29396 20.9649 8.3149 20.9651H9.0469V23.2127C9.04756 24.3101 9.3257 25.3895 9.85545 26.3507C10.3852 27.3118 11.1494 28.1233 12.0769 28.7099V30.5879H6.6925C5.3179 30.5895 4.00007 31.1363 3.02819 32.1084C2.05631 33.0805 1.50977 34.3985 1.5085 35.7731V56.6123C1.5085 56.7004 1.54352 56.785 1.60586 56.8473C1.66819 56.9096 1.75274 56.9447 1.8409 56.9447H2.3305V59.4071C2.33145 60.0066 2.57011 60.5813 2.99415 61.0051C3.41818 61.4289 3.99298 61.6672 4.5925 61.6679H5.9905C6.11872 61.6665 6.24561 61.6417 6.3649 61.5947V89.0399L2.0797 90.6371C1.64586 90.7997 1.27188 91.0907 1.00755 91.4712C0.743218 91.8517 0.601092 92.3037 0.600098 92.7671L0.600098 93.9755C0.600415 94.2577 0.712659 94.5282 0.912204 94.7278C1.11175 94.9273 1.3823 95.0395 1.6645 95.0399H13.9201C14.2447 95.0399 14.5643 94.9597 14.8505 94.8065C15.1367 94.6533 15.3806 94.4317 15.5605 94.1615C15.7406 94.4315 15.9845 94.653 16.2706 94.8062C16.5568 94.9594 16.8763 95.0397 17.2009 95.0399H29.4565C29.7387 95.0395 30.0092 94.9273 30.2088 94.7278C30.4083 94.5282 30.5206 94.2577 30.5209 93.9755V92.7671C30.5198 92.3036 30.3775 91.8515 30.113 91.4709C29.8484 91.0904 29.4742 90.7995 29.0401 90.6371Z" fill="#0D0D0D"/>
<path opacity="0.7" d="M2.17334 35.777V56.2802H6.36014V42.6002C6.36014 42.512 6.39516 42.4275 6.4575 42.3652C6.51983 42.3028 6.60438 42.2678 6.69254 42.2678C6.7807 42.2678 6.86525 42.3028 6.92758 42.3652C6.98992 42.4275 7.02494 42.512 7.02494 42.6002V45.1202C7.34276 45.0452 7.626 44.8652 7.82893 44.6094C8.03186 44.3535 8.14263 44.0367 8.14334 43.7102V31.2566H6.69254C5.49425 31.2582 4.34552 31.735 3.49831 32.5824C2.65111 33.4298 2.17461 34.5787 2.17334 35.777ZM24.4285 31.2566H22.9729V43.7138C22.9745 44.0397 23.0856 44.3557 23.2885 44.6108C23.4913 44.8659 23.7741 45.0453 24.0913 45.1202V42.6002C24.0913 42.512 24.1264 42.4275 24.1887 42.3652C24.251 42.3028 24.3356 42.2678 24.4237 42.2678C24.5119 42.2678 24.5964 42.3028 24.6588 42.3652C24.7211 42.4275 24.7561 42.512 24.7561 42.6002V56.2802H28.9477V35.777C28.9465 34.5787 28.47 33.4298 27.6228 32.5824C26.7756 31.735 25.6268 31.2582 24.4285 31.2566ZM15.5605 34.4054C14.6951 34.4041 13.8611 34.0811 13.2206 33.4992C12.5802 32.9172 12.1789 32.1179 12.0949 31.2566H11.1793V40.307H19.9393V31.2566H19.0237C18.9398 32.1175 18.5389 32.9165 17.8989 33.4984C17.2589 34.0802 16.4255 34.4035 15.5605 34.4054Z" fill="#F4F5F4"/>
<path opacity="0.7" d="M12.744 29.0856V30.924C12.7445 31.0351 12.7517 31.1461 12.7656 31.2564C12.8472 31.9404 13.1767 32.5709 13.6919 33.0282C14.2071 33.4856 14.8721 33.7383 15.561 33.7383C16.2499 33.7383 16.9149 33.4856 17.4301 33.0282C17.9453 32.5709 18.2748 31.9404 18.3564 31.2564C18.3693 31.146 18.3761 31.035 18.3768 30.924V29.0856C17.4978 29.5073 16.5353 29.7263 15.5604 29.7263C14.5855 29.7263 13.623 29.5073 12.744 29.0856ZM3 59.4072C3.00077 59.7918 3.14009 60.1632 3.39243 60.4535C3.64477 60.7437 3.99324 60.9333 4.374 60.9876C3.9568 60.5672 3.72186 59.9995 3.72 59.4072C3.7251 59.3223 3.7624 59.2426 3.82429 59.1843C3.88618 59.126 3.96799 59.0936 4.053 59.0936C4.13801 59.0936 4.21982 59.126 4.28171 59.1843C4.3436 59.2426 4.3809 59.3223 4.386 59.4072C4.38632 59.8304 4.55457 60.2361 4.85381 60.5354C5.15305 60.8346 5.55881 61.0029 5.982 61.0032C6.08247 61.0025 6.17861 60.9622 6.24943 60.8909C6.32025 60.8196 6.36 60.7233 6.36 60.6228V56.9448H3V59.4072ZM9.72 23.2164C9.72012 24.1289 9.93414 25.0286 10.3449 25.8435C10.7557 26.6583 11.3517 27.3655 12.0852 27.9084C12.192 27.9888 12.3036 28.0644 12.4176 28.1376C12.5316 28.2108 12.636 28.2744 12.75 28.3368C13.6126 28.8122 14.5815 29.0615 15.5664 29.0615C16.5513 29.0615 17.5202 28.8122 18.3828 28.3368C18.5028 28.2744 18.6072 28.2072 18.7152 28.1376C18.8232 28.068 18.9408 27.9888 19.0488 27.9084C19.7819 27.3653 20.3777 26.658 20.7882 25.8432C21.1987 25.0284 21.4126 24.1287 21.4128 23.2164V20.9688H9.72V23.2164ZM24.756 56.9448V60.6228C24.756 60.7237 24.7961 60.8204 24.8674 60.8918C24.9388 60.9631 25.0355 61.0032 25.1364 61.0032C25.5596 61.0029 25.9654 60.8346 26.2646 60.5354C26.5638 60.2361 26.7321 59.8304 26.7324 59.4072C26.7375 59.3223 26.7748 59.2426 26.8367 59.1843C26.8986 59.126 26.9804 59.0936 27.0654 59.0936C27.1504 59.0936 27.2322 59.126 27.2941 59.1843C27.356 59.2426 27.3933 59.3223 27.3984 59.4072C27.3985 59.9984 27.1662 60.566 26.7516 60.9876C27.1324 60.9333 27.4808 60.7437 27.7332 60.4535C27.9855 60.1632 28.1248 59.7918 28.1256 59.4072V56.9448H24.756Z" fill="#FDDAC5"/>
<path opacity="0.7" d="M2.31105 91.261C2.00442 91.3762 1.74009 91.5819 1.55318 91.8509C1.36628 92.1199 1.26564 92.4394 1.26465 92.767V93.9754C1.26465 94.0279 1.27498 94.0798 1.29507 94.1283C1.31515 94.1768 1.34458 94.2208 1.38169 94.2579C1.41879 94.2951 1.46285 94.3245 1.51133 94.3446C1.55981 94.3646 1.61177 94.375 1.66425 94.375H13.9198C14.2667 94.3747 14.5992 94.2368 14.8444 93.9915C15.0896 93.7463 15.2275 93.4138 15.2278 93.067V89.605H6.75705L2.31105 91.261ZM28.8095 91.261L24.3598 89.605H15.8926V93.067C15.893 93.4138 16.0309 93.7463 16.2761 93.9915C16.5213 94.2368 16.8538 94.3747 17.2006 94.375H29.4574C29.5632 94.3747 29.6646 94.3324 29.7392 94.2575C29.8139 94.1826 29.8559 94.0812 29.8559 93.9754V92.767C29.8549 92.4394 29.7542 92.1199 29.5673 91.8509C29.3804 91.5819 29.1161 91.3762 28.8095 91.261Z" fill="#1A1A1A"/>
<path opacity="0.7" d="M22.3083 31.2566H20.6067V41.9366H22.3083V31.2566ZM10.5147 31.2566H8.81313V41.9366H10.5147V31.2566ZM22.3083 43.7138V42.6002H20.2803C20.1922 42.6002 20.1076 42.5652 20.0453 42.5028C19.9829 42.4405 19.9479 42.356 19.9479 42.2678V40.9718H11.1879V42.269C11.1878 42.3133 11.1788 42.3571 11.1615 42.3978C11.1442 42.4385 11.1189 42.4754 11.0872 42.5063C11.0554 42.5371 11.0179 42.5613 10.9766 42.5775C10.9354 42.5936 10.8914 42.6013 10.8471 42.6002H8.80713V43.7126C8.80661 44.2159 8.62687 44.7026 8.3001 45.0854C7.97334 45.4683 7.52092 45.7222 7.02393 45.8018V61.0034H24.0915V45.803C23.5945 45.7234 23.1421 45.4695 22.8154 45.0866C22.4886 44.7038 22.3088 44.2171 22.3083 43.7138ZM20.6067 52.6418C20.6067 52.73 20.5717 52.8145 20.5094 52.8768C20.447 52.9392 20.3625 52.9742 20.2743 52.9742H10.8471C10.759 52.9742 10.6744 52.9392 10.6121 52.8768C10.5497 52.8145 10.5147 52.73 10.5147 52.6418V45.1946C10.5147 45.1064 10.5497 45.0219 10.6121 44.9596C10.6744 44.8972 10.759 44.8622 10.8471 44.8622H20.2803C20.3685 44.8622 20.453 44.8972 20.5154 44.9596C20.5777 45.0219 20.6127 45.1064 20.6127 45.1946L20.6067 52.6418ZM7.02993 88.9406H15.2283V71.2334C15.2283 71.1453 15.2633 71.0607 15.3257 70.9984C15.388 70.936 15.4726 70.901 15.5607 70.901C15.6489 70.901 15.7334 70.936 15.7958 70.9984C15.8581 71.0607 15.8931 71.1453 15.8931 71.2334V88.9406H24.0915V61.6682H7.02993V88.9406ZM11.1795 52.3094H19.9395V45.527H11.1795V52.3094Z" fill="#1C75BC"/>
<path opacity="0.7" d="M9.97704 20.3037H21.1454C19.359 19.6343 17.4683 19.2862 15.5606 19.2753C13.6534 19.2861 11.763 19.6342 9.97704 20.3037ZM18.6002 12.9237V15.6597C18.5881 15.7423 18.5452 15.8173 18.4803 15.8697C18.4154 15.9222 18.333 15.9483 18.2497 15.9429C18.1664 15.9374 18.0882 15.9008 18.0306 15.8404C17.9731 15.7799 17.9404 15.7 17.939 15.6165V12.0993C16.402 11.573 14.7336 11.573 13.1966 12.0993V15.6165C13.1953 15.7 13.1626 15.7799 13.1051 15.8404C13.0475 15.9008 12.9693 15.9374 12.886 15.9429C12.8026 15.9483 12.7203 15.9222 12.6554 15.8697C12.5904 15.8173 12.5476 15.7423 12.5354 15.6597V12.9237C11.374 13.4923 10.3953 14.3751 9.71036 15.472C9.02544 16.5688 8.66177 17.8357 8.66064 19.1289V20.1213C8.80704 20.0577 8.95464 19.9953 9.10104 19.9353C9.22104 19.8873 9.34104 19.8417 9.45384 19.7961C9.56664 19.7505 9.69384 19.7049 9.81384 19.6617C11.6576 18.977 13.6071 18.6212 15.5738 18.6105C17.5406 18.6212 19.4901 18.977 21.3338 19.6617C21.4538 19.7049 21.5738 19.7493 21.6938 19.7961C21.8138 19.8429 21.9338 19.8873 22.0466 19.9353C22.193 19.9953 22.3406 20.0553 22.487 20.1213V19.1289C22.4848 17.8345 22.1194 16.5667 21.4322 15.4697C20.7451 14.3727 19.7639 13.4906 18.6002 12.9237Z" fill="#FBB040"/>
<path opacity="0.7" d="M29.0401 90.6371L24.7561 89.0399V61.5947C24.8771 61.643 25.0062 61.6678 25.1365 61.6679H26.5285C27.128 61.6672 27.7028 61.4289 28.1269 61.0051C28.5509 60.5813 28.7895 60.0066 28.7905 59.4071V56.9447H29.2801C29.3683 56.9447 29.4528 56.9096 29.5151 56.8473C29.5775 56.785 29.6125 56.7004 29.6125 56.6123V35.7767C29.6112 34.4021 29.0647 33.0841 28.0928 32.112C27.1209 31.1399 25.8031 30.5931 24.4285 30.5915H19.0429V28.7135C19.9701 28.1266 20.7339 27.315 21.2634 26.3539C21.7929 25.3928 22.0709 24.3135 22.0717 23.2163V20.9687H22.8001C22.821 20.9685 22.8419 20.9665 22.8625 20.9627H22.8829L22.9213 20.9507L22.9429 20.9399L22.9753 20.9231L22.9957 20.9099L23.0245 20.8859C23.03 20.881 23.0352 20.8758 23.0401 20.8703C23.0495 20.8607 23.0579 20.8503 23.0653 20.8391C23.0703 20.8344 23.0748 20.8292 23.0785 20.8235C23.0869 20.8101 23.0941 20.7961 23.1001 20.7815L23.1073 20.7695C23.1149 20.7513 23.1205 20.7324 23.1241 20.7131V20.6963V19.1291C23.1236 17.6585 22.6958 16.2198 21.8926 14.988C21.0894 13.7561 19.9455 12.7843 18.6001 12.1907V11.8655C18.6001 11.798 18.5795 11.7321 18.5411 11.6766C18.5028 11.6211 18.4484 11.5785 18.3853 11.5547C16.5679 10.8688 14.5627 10.8688 12.7453 11.5547C12.6822 11.5785 12.6278 11.6211 12.5894 11.6766C12.5511 11.7321 12.5305 11.798 12.5305 11.8655V12.1907C11.1822 12.782 10.035 13.7528 9.22894 14.9848C8.42287 16.2168 7.9927 17.6568 7.9909 19.1291V20.6399C7.99034 20.6422 7.99034 20.6447 7.9909 20.6471C7.98971 20.6622 7.98971 20.6775 7.9909 20.6927V20.7095C7.9945 20.7288 8.00013 20.7477 8.0077 20.7659L8.0149 20.7791C8.02115 20.7931 8.02837 20.8068 8.0365 20.8199L8.0497 20.8367C8.05738 20.8472 8.0658 20.8573 8.0749 20.8667C8.0799 20.8725 8.08554 20.8777 8.0917 20.8823L8.1193 20.9063L8.1397 20.9195L8.1721 20.9363L8.1937 20.9471L8.2321 20.9591H8.2525C8.27308 20.9629 8.29396 20.9649 8.3149 20.9651H9.0469V23.2127C9.04756 24.3101 9.3257 25.3895 9.85545 26.3507C10.3852 27.3118 11.1494 28.1233 12.0769 28.7099V30.5879H6.6925C5.3179 30.5895 4.00007 31.1363 3.02819 32.1084C2.05631 33.0805 1.50977 34.3985 1.5085 35.7731V56.6123C1.5085 56.7004 1.54352 56.785 1.60586 56.8473C1.66819 56.9096 1.75274 56.9447 1.8409 56.9447H2.3305V59.4071C2.33145 60.0066 2.57011 60.5813 2.99415 61.0051C3.41818 61.4289 3.99298 61.6672 4.5925 61.6679H5.9905C6.11872 61.6665 6.24561 61.6417 6.3649 61.5947V89.0399L2.0797 90.6371C1.64586 90.7997 1.27188 91.0907 1.00755 91.4712C0.743218 91.8517 0.601092 92.3037 0.600098 92.7671L0.600098 93.9755C0.600415 94.2577 0.712659 94.5282 0.912204 94.7278C1.11175 94.9273 1.3823 95.0395 1.6645 95.0399H13.9201C14.2447 95.0399 14.5643 94.9597 14.8505 94.8065C15.1367 94.6533 15.3806 94.4317 15.5605 94.1615C15.7406 94.4315 15.9845 94.653 16.2706 94.8062C16.5568 94.9594 16.8763 95.0397 17.2009 95.0399H29.4577C29.7397 95.0392 30.0099 94.9268 30.2092 94.7273C30.4085 94.5278 30.5206 94.2575 30.5209 93.9755V92.7671C30.5198 92.3036 30.3775 91.8515 30.113 91.4709C29.8484 91.0904 29.4742 90.7995 29.0401 90.6371ZM28.1245 59.4071C28.1237 59.7917 27.9844 60.1631 27.7321 60.4534C27.4797 60.7436 27.1313 60.9332 26.7505 60.9875C27.1651 60.5659 27.3974 59.9983 27.3973 59.4071C27.3922 59.3222 27.3549 59.2425 27.293 59.1842C27.2311 59.1259 27.1493 59.0935 27.0643 59.0935C26.9793 59.0935 26.8975 59.1259 26.8356 59.1842C26.7737 59.2425 26.7364 59.3222 26.7313 59.4071C26.731 59.8303 26.5627 60.236 26.2635 60.5353C25.9643 60.8345 25.5585 61.0028 25.1353 61.0031C25.0344 61.0031 24.9377 60.963 24.8663 60.8917C24.795 60.8203 24.7549 60.7236 24.7549 60.6227V56.9447H28.1245V59.4071ZM22.9729 31.2563H24.4285C25.6268 31.2579 26.7755 31.7347 27.6227 32.5821C28.4699 33.4295 28.9464 34.5784 28.9477 35.7767V56.2799H24.7561V42.5999C24.7561 42.5117 24.7211 42.4272 24.6587 42.3648C24.5964 42.3025 24.5119 42.2675 24.4237 42.2675C24.3355 42.2675 24.251 42.3025 24.1887 42.3648C24.1263 42.4272 24.0913 42.5117 24.0913 42.5999V45.1199C23.7735 45.0448 23.4902 44.8649 23.2873 44.609C23.0844 44.3532 22.9736 44.0364 22.9729 43.7099V31.2563ZM20.6065 31.2563H22.3081V41.9363H20.6065V31.2563ZM9.0865 19.9355C8.9401 19.9955 8.7925 20.0555 8.6461 20.1215V19.1291C8.64755 17.8355 9.01176 16.5684 9.69734 15.4715C10.3829 14.3746 11.3624 13.492 12.5245 12.9239V15.6599C12.5367 15.7425 12.5795 15.8175 12.6444 15.8699C12.7094 15.9224 12.7917 15.9485 12.875 15.9431C12.9583 15.9376 13.0365 15.901 13.0941 15.8405C13.1517 15.7801 13.1844 15.7001 13.1857 15.6167V12.0995C14.7227 11.5732 16.3911 11.5732 17.9281 12.0995V15.6167C17.9294 15.7001 17.9621 15.7801 18.0197 15.8405C18.0773 15.901 18.1555 15.9376 18.2388 15.9431C18.3221 15.9485 18.4044 15.9224 18.4694 15.8699C18.5343 15.8175 18.5771 15.7425 18.5893 15.6599V12.9239C19.7507 13.4925 20.7295 14.3753 21.4144 15.4722C22.0993 16.569 22.463 17.8359 22.4641 19.1291V20.1215C22.3177 20.0579 22.1701 19.9955 22.0237 19.9355C21.9037 19.8875 21.7837 19.8419 21.6709 19.7963C21.5581 19.7507 21.4309 19.7051 21.3109 19.6619C19.4672 18.9772 17.5176 18.6214 15.5509 18.6107C13.5842 18.6214 11.6346 18.9772 9.7909 19.6619C9.6709 19.7051 9.5509 19.7495 9.4309 19.7963C9.3109 19.8431 9.2077 19.8875 9.0901 19.9355H9.0865ZM21.1417 20.3039H9.9769C11.7629 19.6344 13.6532 19.2863 15.5605 19.2755C17.4682 19.2863 19.3589 19.6345 21.1453 20.3039H21.1417ZM9.7201 23.2163V20.9687H21.4129V23.2163C21.4127 24.1286 21.1988 25.0283 20.7883 25.8431C20.3778 26.6579 19.782 27.3652 19.0489 27.9083C18.9409 27.9887 18.8293 28.0643 18.7153 28.1375C18.6013 28.2107 18.4969 28.2743 18.3829 28.3367C17.5203 28.8121 16.5514 29.0615 15.5665 29.0615C14.5816 29.0615 13.6127 28.8121 12.7501 28.3367C12.6301 28.2743 12.5257 28.2071 12.4177 28.1375C12.3097 28.0679 12.1921 27.9887 12.0853 27.9083C11.3518 27.3654 10.7557 26.6582 10.345 25.8434C9.93424 25.0286 9.72021 24.1288 9.7201 23.2163ZM18.3829 29.0855V30.9239C18.3822 31.035 18.3754 31.1459 18.3625 31.2563C18.2809 31.9403 17.9514 32.5708 17.4362 33.0282C16.921 33.4856 16.256 33.7382 15.5671 33.7382C14.8782 33.7382 14.2132 33.4856 13.698 33.0282C13.1828 32.5708 12.8533 31.9403 12.7717 31.2563C12.7578 31.146 12.7506 31.035 12.7501 30.9239V29.0855C13.6291 29.5073 14.5916 29.7262 15.5665 29.7262C16.5414 29.7262 17.5039 29.5073 18.3829 29.0855ZM11.1829 31.2563H12.0985C12.1774 32.1209 12.5766 32.9248 13.2178 33.5101C13.859 34.0955 14.6959 34.42 15.5641 34.42C16.4323 34.42 17.2692 34.0955 17.9104 33.5101C18.5516 32.9248 18.9508 32.1209 19.0297 31.2563H19.9453V40.3067H11.1853L11.1829 31.2563ZM8.8165 31.2563H10.5145V41.9363H8.8129L8.8165 31.2563ZM8.8165 43.7135V42.5999H10.8565C10.9447 42.5999 11.0292 42.5648 11.0915 42.5025C11.1539 42.4402 11.1889 42.3556 11.1889 42.2675V40.9715H19.9489V42.2687C19.9492 42.3564 19.9842 42.4405 20.0463 42.5025C20.1083 42.5646 20.1924 42.5996 20.2801 42.5999H22.3201V43.7123C22.3206 44.2156 22.5004 44.7023 22.8271 45.0851C23.1539 45.468 23.6063 45.7219 24.1033 45.8015V61.0031H7.0297V45.8027C7.52669 45.7231 7.97911 45.4692 8.30587 45.0863C8.63264 44.7035 8.81238 44.2168 8.8129 43.7135H8.8165ZM2.1733 56.2799V35.7767C2.17457 34.5784 2.65107 33.4295 3.49827 32.5821C4.34548 31.7347 5.49421 31.2579 6.6925 31.2563H8.1481V43.7135C8.14658 44.0394 8.03545 44.3553 7.83258 44.6105C7.62971 44.8656 7.34692 45.045 7.0297 45.1199V42.5999C7.0297 42.5111 6.99442 42.4259 6.93164 42.3631C6.86885 42.3003 6.78369 42.2651 6.6949 42.2651C6.6061 42.2651 6.52095 42.3003 6.45816 42.3631C6.39537 42.4259 6.3601 42.5111 6.3601 42.5999V56.2799H2.1733ZM5.9845 61.0031C5.56131 61.0028 5.15555 60.8345 4.85631 60.5353C4.55707 60.236 4.38882 59.8303 4.3885 59.4071C4.3834 59.3222 4.3461 59.2425 4.28421 59.1842C4.22232 59.1259 4.14051 59.0935 4.0555 59.0935C3.97048 59.0935 3.88868 59.1259 3.82679 59.1842C3.7649 59.2425 3.72759 59.3222 3.7225 59.4071C3.72243 59.9983 3.95473 60.5659 4.3693 60.9875C3.98941 60.9322 3.64208 60.7421 3.39071 60.452C3.13934 60.1618 3.0007 59.791 3.0001 59.4071V56.9447H6.3601V60.6227C6.36011 60.7227 6.32069 60.8188 6.25038 60.89C6.18008 60.9612 6.08455 61.0018 5.9845 61.0031ZM15.2245 93.0671C15.2242 93.4139 15.0863 93.7464 14.841 93.9916C14.5958 94.2368 14.2633 94.3747 13.9165 94.3751H1.6645C1.55852 94.3751 1.45688 94.333 1.38194 94.258C1.307 94.1831 1.2649 94.0814 1.2649 93.9755V92.7671C1.26589 92.4395 1.36653 92.12 1.55343 91.851C1.74034 91.582 2.00466 91.3763 2.3113 91.2611L6.7573 89.6051H15.2281L15.2245 93.0671ZM15.5569 70.9007C15.4687 70.9007 15.3842 70.9357 15.3219 70.998C15.2595 71.0604 15.2245 71.1449 15.2245 71.2331V88.9403H7.0297V61.6679H24.0913V88.9403H15.8929V71.2331C15.8929 71.1449 15.8579 71.0604 15.7955 70.998C15.7332 70.9357 15.6487 70.9007 15.5605 70.9007H15.5569ZM29.8561 93.9755C29.8561 94.0812 29.8142 94.1827 29.7395 94.2576C29.6648 94.3325 29.5635 94.3747 29.4577 94.3751H17.2009C16.8541 94.3747 16.5216 94.2368 16.2764 93.9916C16.0311 93.7464 15.8932 93.4139 15.8929 93.0671V89.6051H24.3601L28.8061 91.2611C29.1127 91.3763 29.3771 91.582 29.564 91.851C29.7509 92.12 29.8515 92.4395 29.8525 92.7671L29.8561 93.9755ZM10.8469 52.9739H20.2801C20.3683 52.9739 20.4528 52.9388 20.5151 52.8765C20.5775 52.8142 20.6125 52.7296 20.6125 52.6415V45.1943C20.6125 45.1061 20.5775 45.0216 20.5151 44.9592C20.4528 44.8969 20.3683 44.8619 20.2801 44.8619H10.8469C10.7587 44.8619 10.6742 44.8969 10.6119 44.9592C10.5495 45.0216 10.5145 45.1061 10.5145 45.1943V52.6415C10.5145 52.7296 10.5495 52.8142 10.6119 52.8765C10.6742 52.9388 10.7587 52.9739 10.8469 52.9739ZM11.1793 45.5267H19.9393V52.3091H11.1793V45.5267Z" fill="#0D0D0D"/>
</g>
<g opacity="0.7">
<path opacity="0.7" d="M66.9758 90.6368L62.6906 89.0396V61.5944C62.8116 61.6427 62.9407 61.6676 63.071 61.6676H64.4642C65.0628 61.6657 65.6362 61.4268 66.059 61.0031C66.4819 60.5793 66.7196 60.0054 66.7202 59.4068V56.9444H67.211C67.2992 56.9444 67.3837 56.9094 67.4461 56.8471C67.5084 56.7847 67.5434 56.7002 67.5434 56.612V35.7764C67.5418 34.4017 66.995 33.0838 66.023 32.1117C65.0509 31.1396 63.7329 30.5928 62.3582 30.5912H56.9774V28.7132C57.9048 28.1266 58.6688 27.315 59.1983 26.3539C59.7279 25.3928 60.0058 24.3134 60.0062 23.216V20.9684H60.7382C60.7591 20.9682 60.78 20.9662 60.8006 20.9624H60.821L60.8594 20.9504L60.881 20.9396C60.8923 20.935 60.9031 20.9294 60.9134 20.9228L60.9338 20.9096L60.9626 20.8856L60.9794 20.87L61.0046 20.8388C61.0089 20.8338 61.0129 20.8286 61.0166 20.8232C61.0249 20.8096 61.0325 20.7956 61.0394 20.7812V20.7692C61.0468 20.7509 61.0529 20.7321 61.0574 20.7128V20.696C61.0586 20.6808 61.0586 20.6656 61.0574 20.6504V19.1288C61.0556 17.6567 60.6255 16.2169 59.8197 14.9849C59.0138 13.753 57.867 12.782 56.519 12.1904V11.8652C56.5188 11.7978 56.4982 11.732 56.4598 11.6765C56.4215 11.621 56.3672 11.5784 56.3042 11.5544C54.4867 10.8689 52.4817 10.8689 50.6642 11.5544C50.6011 11.5783 50.5467 11.6208 50.5084 11.6763C50.47 11.7319 50.4494 11.7977 50.4494 11.8652V12.1904C49.1011 12.7817 47.9539 13.7526 47.1478 14.9846C46.3418 16.2166 45.9116 17.6565 45.9098 19.1288V20.6468C45.9086 20.662 45.9086 20.6772 45.9098 20.6924C45.9091 20.698 45.9091 20.7036 45.9098 20.7092C45.9132 20.7287 45.9193 20.7477 45.9278 20.7656C45.9293 20.7702 45.9313 20.7747 45.9338 20.7788C45.941 20.792 45.9482 20.8064 45.9566 20.8196L45.9686 20.8364C45.977 20.846 45.9842 20.8568 45.9938 20.8664C45.9988 20.8722 46.0044 20.8775 46.0106 20.882C46.0194 20.8909 46.029 20.899 46.0394 20.906L46.0586 20.9192L46.091 20.936L46.1126 20.9468L46.151 20.9588H46.1714C46.192 20.9626 46.2129 20.9646 46.2338 20.9648H46.9658V23.2124C46.9665 24.3099 47.2446 25.3893 47.7743 26.3504C48.3041 27.3115 49.0683 28.1231 49.9958 28.7096V30.5876H44.6282C43.2534 30.5889 41.9352 31.1356 40.9631 32.1077C39.991 33.0799 39.4443 34.398 39.443 35.7728V56.612C39.443 56.7002 39.478 56.7847 39.5403 56.8471C39.6027 56.9094 39.6872 56.9444 39.7754 56.9444H40.265V59.4068C40.2659 60.0063 40.5046 60.581 40.9286 61.0048C41.3527 61.4286 41.9275 61.667 42.527 61.6676H43.9202C44.0488 61.6664 44.1761 61.6416 44.2958 61.5944V89.0396L40.0094 90.6344C39.5756 90.7971 39.2016 91.088 38.9372 91.4686C38.6729 91.8491 38.5308 92.3011 38.5298 92.7644V93.9728C38.5296 94.1133 38.5572 94.2524 38.611 94.3821C38.6648 94.5118 38.7437 94.6297 38.8432 94.7288C38.9426 94.8279 39.0607 94.9064 39.1906 94.9598C39.3206 95.0131 39.4597 95.0403 39.6002 95.0396H51.8558C52.1802 95.0395 52.4996 94.9592 52.7856 94.806C53.0715 94.6527 53.3152 94.4313 53.495 94.1612C53.6751 94.4313 53.919 94.6528 54.2051 94.806C54.4913 94.9592 54.8108 95.0395 55.1354 95.0396H67.3922C67.6743 95.0393 67.9447 94.927 68.1441 94.7274C68.3434 94.5279 68.4554 94.2573 68.4554 93.9752V92.7668C68.4544 92.3035 68.3123 91.8515 68.048 91.471C67.7836 91.0904 67.4097 90.7995 66.9758 90.6368Z" fill="#0D0D0D"/>
<path opacity="0.7" d="M40.1079 35.7765V56.2797H44.3007V42.5997C44.3007 42.5116 44.3357 42.427 44.3981 42.3647C44.4604 42.3023 44.545 42.2673 44.6331 42.2673C44.7213 42.2673 44.8058 42.3023 44.8682 42.3647C44.9305 42.427 44.9655 42.5116 44.9655 42.5997V45.1197C45.2822 45.0443 45.5643 44.8647 45.7665 44.6096C45.9687 44.3545 46.0792 44.0388 46.0803 43.7133V31.2561H44.6283C43.4298 31.2574 42.2808 31.734 41.4333 32.5815C40.5858 33.429 40.1092 34.578 40.1079 35.7765ZM62.3631 31.2561H60.9087V43.7133C60.91 44.0391 61.0209 44.3551 61.2235 44.6102C61.4262 44.8653 61.7088 45.0448 62.0259 45.1197V42.5997C62.0259 42.5116 62.0609 42.427 62.1233 42.3647C62.1856 42.3023 62.2702 42.2673 62.3583 42.2673C62.4465 42.2673 62.531 42.3023 62.5934 42.3647C62.6557 42.427 62.6907 42.5116 62.6907 42.5997V56.2797H66.8835V35.7765C66.8823 34.578 66.4056 33.429 65.5581 32.5815C64.7107 31.734 63.5616 31.2574 62.3631 31.2561ZM53.4951 34.4049C52.6297 34.4036 51.7957 34.0806 51.1552 33.4987C50.5147 32.9167 50.1135 32.1174 50.0295 31.2561H49.1151V40.3065H57.8751V31.2561H56.9595C56.8771 32.1178 56.4765 32.9179 55.836 33.5001C55.1954 34.0824 54.3608 34.405 53.4951 34.4049Z" fill="#F4F5F4"/>
<path opacity="0.7" d="M50.6788 29.0853V30.9237C50.6793 31.0348 50.6865 31.1458 50.7004 31.2561C50.7819 31.9402 51.1115 32.5706 51.6267 33.028C52.1418 33.4854 52.8068 33.738 53.4958 33.738C54.1847 33.738 54.8497 33.4854 55.3649 33.028C55.88 32.5706 56.2096 31.9402 56.2912 31.2561C56.3051 31.1458 56.3123 31.0348 56.3128 30.9237V29.0853C55.4336 29.5071 54.4709 29.7261 53.4958 29.7261C52.5206 29.7261 51.558 29.5071 50.6788 29.0853ZM40.9312 59.4069C40.9316 59.7914 41.0707 60.1628 41.3228 60.4531C41.575 60.7434 41.9233 60.933 42.304 60.9873C41.8897 60.5656 41.6578 59.998 41.6584 59.4069C41.6584 59.3187 41.6934 59.2342 41.7557 59.1719C41.818 59.1095 41.9026 59.0745 41.9908 59.0745C42.0789 59.0745 42.1635 59.1095 42.2258 59.1719C42.2881 59.2342 42.3232 59.3187 42.3232 59.4069C42.3238 59.83 42.4921 60.2356 42.7913 60.5348C43.0905 60.8339 43.4961 61.0023 43.9192 61.0029C44.0202 61.0029 44.117 60.9629 44.1886 60.8916C44.2601 60.8203 44.3004 60.7235 44.3008 60.6225V56.9445H40.9312V59.4069ZM47.6512 23.2161C47.651 24.1285 47.8648 25.0283 48.2754 25.8431C48.6859 26.658 49.2818 27.3652 50.0152 27.9081C50.1232 27.9885 50.2336 28.0641 50.3476 28.1373C50.4616 28.2105 50.566 28.2741 50.68 28.3365C51.5428 28.812 52.5118 29.0613 53.497 29.0613C54.4821 29.0613 55.4512 28.812 56.314 28.3365C56.5444 28.2079 56.7665 28.0648 56.9788 27.9081C57.7121 27.3652 58.308 26.658 58.7185 25.8431C59.1291 25.0283 59.3429 24.1285 59.3428 23.2161V20.9685H47.65L47.6512 23.2161ZM62.6908 56.9445V60.6225C62.6908 60.7234 62.7309 60.8202 62.8022 60.8915C62.8735 60.9628 62.9703 61.0029 63.0712 61.0029C63.4945 61.0026 63.9004 60.8344 64.1998 60.5352C64.4992 60.236 64.6677 59.8302 64.6684 59.4069C64.6684 59.3187 64.7034 59.2342 64.7657 59.1719C64.8281 59.1095 64.9126 59.0745 65.0008 59.0745C65.0889 59.0745 65.1735 59.1095 65.2358 59.1719C65.2982 59.2342 65.3332 59.3187 65.3332 59.4069C65.3332 59.9979 65.1014 60.5653 64.6876 60.9873C65.0681 60.9328 65.4163 60.7431 65.6684 60.4529C65.9205 60.1626 66.0597 59.7913 66.0604 59.4069V56.9445H62.6908Z" fill="#FDDAC5"/>
<path opacity="0.7" d="M40.2468 91.2607C39.94 91.3757 39.6754 91.5814 39.4882 91.8504C39.3011 92.1194 39.2003 92.439 39.1992 92.7667V93.9751C39.1995 94.081 39.2417 94.1825 39.3166 94.2573C39.3915 94.3322 39.4929 94.3744 39.5988 94.3747H51.8556C52.2018 94.3735 52.5334 94.2351 52.7778 93.99C53.0223 93.7449 53.1597 93.4129 53.16 93.0667V89.6047H44.6928L40.2468 91.2607ZM66.744 91.2607L62.298 89.6047H53.8272V93.0667C53.8275 93.4135 53.9654 93.746 54.2107 93.9913C54.4559 94.2365 54.7884 94.3744 55.1352 94.3747H67.392C67.4978 94.3744 67.5991 94.3322 67.6738 94.2573C67.7484 94.1824 67.7904 94.0809 67.7904 93.9751V92.7667C67.7896 92.4391 67.689 92.1196 67.5021 91.8505C67.3151 91.5815 67.0507 91.3758 66.744 91.2607Z" fill="#1A1A1A"/>
<path opacity="0.7" d="M60.2403 31.2561H58.5411V41.9361H60.2403V31.2561ZM48.4479 31.2561H46.7475V41.9361H48.4503L48.4479 31.2561ZM60.2403 43.7133V42.5997H58.2087C58.1206 42.5997 58.036 42.5647 57.9737 42.5023C57.9113 42.44 57.8763 42.3555 57.8763 42.2673V40.9713H49.1163V42.2685C49.1163 42.3567 49.0813 42.4412 49.019 42.5035C48.9566 42.5659 48.8721 42.6009 48.7839 42.6009H46.7439V43.7133C46.7434 44.2164 46.5639 44.703 46.2373 45.0858C45.9108 45.4686 45.4587 45.7227 44.9619 45.8025V61.0029H62.0259V45.8025C61.5285 45.7234 61.0755 45.4697 60.7483 45.0868C60.421 44.7039 60.2409 44.217 60.2403 43.7133ZM58.5387 52.6413C58.5387 52.7295 58.5037 52.814 58.4414 52.8763C58.379 52.9387 58.2945 52.9737 58.2063 52.9737H48.7827C48.6946 52.9737 48.61 52.9387 48.5477 52.8763C48.4853 52.814 48.4503 52.7295 48.4503 52.6413V45.1941C48.4503 45.1059 48.4853 45.0214 48.5477 44.9591C48.61 44.8967 48.6946 44.8617 48.7827 44.8617H58.2087C58.2969 44.8617 58.3814 44.8967 58.4438 44.9591C58.5061 45.0214 58.5411 45.1059 58.5411 45.1941L58.5387 52.6413ZM44.9655 88.9401H53.1603V71.2329C53.1603 71.1447 53.1953 71.0602 53.2577 70.9978C53.32 70.9355 53.4046 70.9005 53.4927 70.9005C53.5809 70.9005 53.6654 70.9355 53.7278 70.9978C53.7901 71.0602 53.8251 71.1447 53.8251 71.2329V88.9401H62.0235V61.6677H44.9655V88.9401ZM49.1151 52.3089H57.8751V45.5265H49.1151V52.3089Z" fill="#1C75BC"/>
<path opacity="0.7" d="M47.9114 20.3036H59.0798C55.4832 18.9325 51.5079 18.9325 47.9114 20.3036ZM56.5322 12.9236V15.6164C56.5334 15.6308 56.5334 15.6453 56.5322 15.6596C56.522 15.7437 56.4801 15.8208 56.4149 15.8749C56.3497 15.929 56.2662 15.956 56.1817 15.9505C56.0972 15.945 56.018 15.9073 55.9604 15.8451C55.9028 15.783 55.8713 15.7012 55.8722 15.6164V12.0992C54.3348 11.5727 52.6659 11.5727 51.1286 12.0992V15.6164C51.1295 15.7012 51.0979 15.783 51.0403 15.8451C50.9827 15.9073 50.9035 15.945 50.819 15.9505C50.7345 15.956 50.651 15.929 50.5859 15.8749C50.5207 15.8208 50.4787 15.7437 50.4686 15.6596C50.4674 15.6453 50.4674 15.6308 50.4686 15.6164V12.9236C49.3072 13.4924 48.3286 14.3752 47.6436 15.4721C46.9587 16.5689 46.595 17.8357 46.5938 19.1288V20.1212C46.7414 20.0576 46.8877 19.9952 47.0353 19.9352C47.1554 19.8872 47.2694 19.8416 47.387 19.796C47.5046 19.7504 47.627 19.7048 47.747 19.6616C51.459 18.2598 55.5549 18.2598 59.267 19.6616C59.387 19.7048 59.507 19.7492 59.627 19.796C59.747 19.8428 59.867 19.8872 59.9798 19.9352C60.1274 19.9952 60.2738 20.0552 60.4202 20.1212V19.1288C60.4177 17.8343 60.052 16.5665 59.3647 15.4695C58.6773 14.3726 57.696 13.4905 56.5322 12.9236Z" fill="#FBB040"/>
<path opacity="0.7" d="M66.9758 90.6368L62.6906 89.0396V61.5944C62.8116 61.6427 62.9407 61.6676 63.071 61.6676H64.4642C65.0628 61.6657 65.6362 61.4268 66.059 61.0031C66.4819 60.5793 66.7196 60.0054 66.7202 59.4068V56.9444H67.211C67.2992 56.9444 67.3837 56.9094 67.4461 56.8471C67.5084 56.7847 67.5434 56.7002 67.5434 56.612V35.7764C67.5418 34.4017 66.995 33.0838 66.023 32.1117C65.0509 31.1396 63.7329 30.5928 62.3582 30.5912H56.9774V28.7132C57.9048 28.1266 58.6688 27.315 59.1983 26.3539C59.7279 25.3928 60.0058 24.3134 60.0062 23.216V20.9684H60.7382C60.7591 20.9682 60.78 20.9662 60.8006 20.9624H60.821L60.8594 20.9504L60.881 20.9396C60.8923 20.935 60.9031 20.9294 60.9134 20.9228L60.9338 20.9096L60.9626 20.8856L60.9794 20.87L61.0046 20.8388C61.0089 20.8338 61.0129 20.8286 61.0166 20.8232C61.0249 20.8096 61.0325 20.7956 61.0394 20.7812V20.7692C61.0468 20.7509 61.0529 20.7321 61.0574 20.7128V20.696C61.0586 20.6808 61.0586 20.6656 61.0574 20.6504V19.1288C61.0556 17.6567 60.6255 16.2169 59.8197 14.9849C59.0138 13.753 57.867 12.782 56.519 12.1904V11.8652C56.5188 11.7978 56.4982 11.732 56.4598 11.6765C56.4215 11.621 56.3672 11.5784 56.3042 11.5544C54.4867 10.8689 52.4817 10.8689 50.6642 11.5544C50.6011 11.5783 50.5467 11.6208 50.5084 11.6763C50.47 11.7319 50.4494 11.7977 50.4494 11.8652V12.1904C49.1011 12.7817 47.9539 13.7526 47.1478 14.9846C46.3418 16.2166 45.9116 17.6565 45.9098 19.1288V20.6468C45.9086 20.662 45.9086 20.6772 45.9098 20.6924C45.9091 20.698 45.9091 20.7036 45.9098 20.7092C45.9132 20.7287 45.9193 20.7477 45.9278 20.7656C45.9293 20.7702 45.9313 20.7747 45.9338 20.7788C45.941 20.792 45.9482 20.8064 45.9566 20.8196L45.9686 20.8364C45.977 20.846 45.9842 20.8568 45.9938 20.8664C45.9988 20.8722 46.0044 20.8775 46.0106 20.882C46.0194 20.8909 46.029 20.899 46.0394 20.906L46.0586 20.9192L46.091 20.936L46.1126 20.9468L46.151 20.9588H46.1714C46.192 20.9626 46.2129 20.9646 46.2338 20.9648H46.9658V23.2124C46.9665 24.3099 47.2446 25.3893 47.7743 26.3504C48.3041 27.3115 49.0683 28.1231 49.9958 28.7096V30.5876H44.6282C43.2534 30.5889 41.9352 31.1356 40.9631 32.1077C39.991 33.0799 39.4443 34.398 39.443 35.7728V56.612C39.443 56.7002 39.478 56.7847 39.5403 56.8471C39.6027 56.9094 39.6872 56.9444 39.7754 56.9444H40.265V59.4068C40.2659 60.0063 40.5046 60.581 40.9286 61.0048C41.3527 61.4286 41.9275 61.667 42.527 61.6676H43.9202C44.0488 61.6664 44.1761 61.6416 44.2958 61.5944V89.0396L40.0094 90.6344C39.5756 90.7971 39.2016 91.088 38.9372 91.4686C38.6729 91.8491 38.5308 92.3011 38.5298 92.7644V93.9728C38.5296 94.1133 38.5572 94.2524 38.611 94.3821C38.6648 94.5118 38.7437 94.6297 38.8432 94.7288C38.9426 94.8279 39.0607 94.9064 39.1906 94.9598C39.3206 95.0131 39.4597 95.0403 39.6002 95.0396H51.8558C52.1802 95.0395 52.4996 94.9592 52.7856 94.806C53.0715 94.6527 53.3152 94.4313 53.495 94.1612C53.6751 94.4313 53.919 94.6528 54.2051 94.806C54.4913 94.9592 54.8108 95.0395 55.1354 95.0396H67.3922C67.6743 95.0393 67.9447 94.927 68.1441 94.7274C68.3434 94.5279 68.4554 94.2573 68.4554 93.9752V92.7668C68.4544 92.3035 68.3123 91.8515 68.048 91.471C67.7836 91.0904 67.4097 90.7995 66.9758 90.6368ZM66.0602 59.4068C66.0595 59.7912 65.9203 60.1625 65.6682 60.4528C65.4161 60.743 65.068 60.9327 64.6874 60.9872C65.1012 60.5653 65.333 59.9978 65.333 59.4068C65.333 59.3187 65.298 59.2341 65.2357 59.1718C65.1733 59.1094 65.0888 59.0744 65.0006 59.0744C64.9125 59.0744 64.8279 59.1094 64.7656 59.1718C64.7032 59.2341 64.6682 59.3187 64.6682 59.4068C64.6676 59.8301 64.4991 60.2359 64.1996 60.5351C63.9002 60.8343 63.4943 61.0025 63.071 61.0028C62.9701 61.0028 62.8734 60.9627 62.802 60.8914C62.7307 60.8201 62.6906 60.7233 62.6906 60.6224V56.9444H66.0602V59.4068ZM60.9086 31.256H62.363C63.5615 31.2573 64.7106 31.734 65.558 32.5814C66.4055 33.4289 66.8821 34.5779 66.8834 35.7764V56.2796H62.6906V42.5996C62.6906 42.5115 62.6556 42.4269 62.5933 42.3646C62.5309 42.3022 62.4464 42.2672 62.3582 42.2672C62.2701 42.2672 62.1855 42.3022 62.1232 42.3646C62.0608 42.4269 62.0258 42.5115 62.0258 42.5996V45.1196C61.7081 45.0446 61.425 44.8645 61.2223 44.6087C61.0196 44.3528 60.909 44.0361 60.9086 43.7096V31.256ZM58.541 31.256H60.2402V41.936H58.541V31.256ZM47.021 19.9352C46.8734 19.9952 46.727 20.0552 46.5794 20.1212V19.1288C46.5807 17.8357 46.9444 16.5689 47.6293 15.472C48.3142 14.3752 49.2929 13.4923 50.4542 12.9236V15.6164C50.453 15.6308 50.453 15.6452 50.4542 15.6596C50.4643 15.7437 50.5063 15.8207 50.5715 15.8748C50.6367 15.9289 50.7201 15.956 50.8047 15.9505C50.8892 15.9449 50.9684 15.9072 51.026 15.8451C51.0835 15.783 51.1151 15.7011 51.1142 15.6164V12.0992C52.6516 11.5727 54.3204 11.5727 55.8578 12.0992V15.6164C55.8569 15.7011 55.8885 15.783 55.9461 15.8451C56.0036 15.9072 56.0828 15.9449 56.1674 15.9505C56.2519 15.956 56.3353 15.9289 56.4005 15.8748C56.4657 15.8207 56.5077 15.7437 56.5178 15.6596C56.519 15.6452 56.519 15.6308 56.5178 15.6164V12.9236C57.6789 13.4925 58.6573 14.3754 59.342 15.4723C60.0267 16.5691 60.3903 17.8358 60.3914 19.1288V20.1212C60.245 20.0576 60.0986 19.9952 59.951 19.9352C59.831 19.8872 59.711 19.8416 59.5982 19.796C59.4854 19.7504 59.3582 19.7048 59.2382 19.6616C55.5262 18.2597 51.4303 18.2597 47.7182 19.6616C47.5982 19.7048 47.4782 19.7492 47.3582 19.796C47.2382 19.8428 47.1422 19.8872 47.0258 19.9352H47.021ZM59.075 20.3036H47.9114C51.5079 18.9325 55.4833 18.9325 59.0798 20.3036H59.075ZM47.645 23.216V20.9684H59.3366V23.216C59.3367 24.1285 59.1229 25.0282 58.7124 25.843C58.3018 26.6579 57.706 27.3651 56.9726 27.908C56.8646 27.9884 56.753 28.064 56.6402 28.1372C56.5274 28.2104 56.4206 28.274 56.3078 28.3364C55.445 28.8119 54.4759 29.0612 53.4908 29.0612C52.5057 29.0612 51.5366 28.8119 50.6738 28.3364C50.5598 28.274 50.4494 28.2068 50.3414 28.1372C50.2334 28.0676 50.117 27.9884 50.009 27.908C49.2765 27.3646 48.6816 26.6572 48.2719 25.8423C47.8622 25.0275 47.6491 24.128 47.6498 23.216H47.645ZM56.3078 29.0852V30.9236C56.3073 31.0348 56.3001 31.1458 56.2862 31.256C56.2046 31.9401 55.8751 32.5705 55.3599 33.0279C54.8447 33.4853 54.1797 33.7379 53.4908 33.7379C52.8019 33.7379 52.1369 33.4853 51.6217 33.0279C51.1065 32.5705 50.777 31.9401 50.6954 31.256C50.6815 31.1458 50.6743 31.0348 50.6738 30.9236V29.0852C51.553 29.507 52.5157 29.726 53.4908 29.726C54.4659 29.726 55.4286 29.507 56.3078 29.0852ZM49.1078 31.256H50.0222C50.1011 32.1206 50.5003 32.9245 51.1415 33.5099C51.7827 34.0952 52.6196 34.4198 53.4878 34.4198C54.356 34.4198 55.1929 34.0952 55.8341 33.5099C56.4753 32.9245 56.8745 32.1206 56.9534 31.256H57.869V40.3064H49.109L49.1078 31.256ZM46.7402 31.256H48.443V41.936H46.7474L46.7402 31.256ZM46.7402 43.7132V42.5996H48.7802C48.8684 42.5996 48.9529 42.5646 49.0152 42.5023C49.0776 42.4399 49.1126 42.3554 49.1126 42.2672V40.9712H57.8726V42.2684C57.8726 42.3566 57.9076 42.4411 57.97 42.5035C58.0323 42.5658 58.1169 42.6008 58.205 42.6008H60.2402V43.7132C60.2407 44.2165 60.4205 44.7032 60.7472 45.0861C61.074 45.4689 61.5264 45.7229 62.0234 45.8024V61.0028H44.9654V45.8024C45.4622 45.7226 45.9143 45.4685 46.2408 45.0857C46.5674 44.7029 46.7469 44.2164 46.7474 43.7132H46.7402ZM40.1078 56.2796V35.7764C40.1091 34.5779 40.5857 33.4289 41.4332 32.5814C42.2807 31.734 43.4297 31.2573 44.6282 31.256H46.0802V43.7132C46.0791 44.0387 45.9685 44.3544 45.7663 44.6095C45.5641 44.8646 45.282 45.0442 44.9654 45.1196V42.5996C44.9654 42.5115 44.9304 42.4269 44.868 42.3646C44.8057 42.3022 44.7212 42.2672 44.633 42.2672C44.5448 42.2672 44.4603 42.3022 44.398 42.3646C44.3356 42.4269 44.3006 42.5115 44.3006 42.5996V56.2796H40.1078ZM43.9202 61.0028C43.4971 61.0022 43.0915 60.8338 42.7924 60.5347C42.4932 60.2355 42.3248 59.8299 42.3242 59.4068C42.3242 59.3187 42.2892 59.2341 42.2268 59.1718C42.1645 59.1094 42.0799 59.0744 41.9918 59.0744C41.9036 59.0744 41.8191 59.1094 41.7567 59.1718C41.6944 59.2341 41.6594 59.3187 41.6594 59.4068C41.6589 59.9979 41.8908 60.5655 42.305 60.9872C41.9243 60.933 41.576 60.7433 41.3239 60.453C41.0717 60.1628 40.9327 59.7913 40.9322 59.4068V56.9444H44.3018V60.6224C44.3015 60.7234 44.2611 60.8202 44.1896 60.8915C44.1181 60.9628 44.0212 61.0028 43.9202 61.0028ZM53.1602 93.0668C53.1599 93.4134 53.0221 93.7458 52.7772 93.9909C52.5322 94.2361 52.2 94.3742 51.8534 94.3748H39.6002C39.4943 94.3745 39.3928 94.3323 39.318 94.2574C39.2431 94.1826 39.2009 94.0811 39.2006 93.9752V92.7668C39.2017 92.4391 39.3025 92.1195 39.4896 91.8505C39.6767 91.5815 39.9413 91.3758 40.2482 91.2608L44.6942 89.6048H53.1602V93.0668ZM53.4926 70.9004C53.4044 70.9004 53.3199 70.9354 53.2576 70.9978C53.1952 71.0601 53.1602 71.1447 53.1602 71.2328V88.94H44.9654V61.6676H62.0258V88.94H53.8274V71.2328C53.8274 71.1447 53.7924 71.0601 53.73 70.9978C53.6677 70.9354 53.5832 70.9004 53.495 70.9004H53.4926ZM67.7906 93.9752C67.7906 94.081 67.7487 94.1825 67.674 94.2574C67.5993 94.3323 67.498 94.3745 67.3922 94.3748H55.1354C54.7886 94.3745 54.4561 94.2366 54.2109 93.9914C53.9656 93.7461 53.8277 93.4136 53.8274 93.0668V89.6048H62.2982L66.7442 91.2608C67.0509 91.3759 67.3154 91.5816 67.5023 91.8506C67.6892 92.1197 67.7898 92.4392 67.7906 92.7668V93.9752ZM48.7826 52.9736H58.2086C58.2968 52.9736 58.3813 52.9386 58.4437 52.8763C58.506 52.8139 58.541 52.7294 58.541 52.6412V45.194C58.541 45.1059 58.506 45.0213 58.4437 44.959C58.3813 44.8966 58.2968 44.8616 58.2086 44.8616H48.7826C48.6944 44.8616 48.6099 44.8966 48.5476 44.959C48.4852 45.0213 48.4502 45.1059 48.4502 45.194V52.6412C48.4502 52.7294 48.4852 52.8139 48.5476 52.8763C48.6099 52.9386 48.6944 52.9736 48.7826 52.9736ZM49.115 45.5264H57.875V52.3088H49.115V45.5264Z" fill="#0D0D0D"/>
</g>
<path d="M49.9488 89.3661L45.7092 87.7881V58.5597H46.824C47.7286 58.5588 48.5958 58.199 49.2354 57.5594C49.875 56.9198 50.2347 56.0526 50.2356 55.1481V53.2137C50.4996 53.1421 50.7329 52.986 50.8998 52.7693C51.0666 52.5526 51.1579 52.2872 51.1596 52.0137V28.6293C51.1574 26.8551 50.4516 25.1541 49.197 23.8995C47.9424 22.6449 46.2415 21.9391 44.4672 21.9369H39.2988V21.1677C40.3523 20.4128 41.2103 19.4172 41.8014 18.2638C42.3925 17.1104 42.6996 15.8326 42.6972 14.5365V12.8889C42.7573 12.8865 42.8171 12.8792 42.876 12.8673C42.906 12.8673 42.936 12.8553 42.9648 12.8469C43.0105 12.8347 43.0553 12.8199 43.0992 12.8025C43.128 12.7917 43.1544 12.7797 43.1796 12.7677C43.2229 12.7473 43.265 12.7245 43.3056 12.6993C43.3308 12.6837 43.3548 12.6669 43.3776 12.6501C43.416 12.6226 43.4525 12.5925 43.4868 12.5601C43.5072 12.5421 43.5276 12.5229 43.5492 12.5001C43.5708 12.4773 43.6068 12.4353 43.6368 12.3957C43.6545 12.3739 43.671 12.351 43.686 12.3273C43.7131 12.2861 43.7375 12.2432 43.7592 12.1989L43.7796 12.1641L43.7976 12.1161C43.8244 12.0534 43.8453 11.9883 43.86 11.9217L43.8756 11.8593V11.8161C43.8756 11.7873 43.8828 11.7609 43.8852 11.7345V9.95132C43.8836 8.22496 43.4057 6.53252 42.5042 5.06023C41.6027 3.58794 40.3125 2.39287 38.7756 1.60652C38.7408 1.38934 38.6493 1.18517 38.5105 1.01455C38.3717 0.843921 38.1904 0.712851 37.9848 0.634518C35.7453 -0.211832 33.274 -0.211832 31.0344 0.634518C30.8292 0.713269 30.6481 0.844462 30.5094 1.01501C30.3706 1.18556 30.279 1.38951 30.2436 1.60652C28.7069 2.39293 27.4169 3.58805 26.5156 5.06035C25.6143 6.53265 25.1367 8.22505 25.1352 9.95132V11.7381C25.1352 11.7609 25.1352 11.7849 25.1436 11.8089V11.8545L25.1604 11.9241C25.1758 11.9901 25.1967 12.0548 25.2228 12.1173C25.2336 12.1437 25.2456 12.1689 25.2588 12.1941C25.2805 12.2405 25.3057 12.285 25.3344 12.3273C25.35 12.3525 25.368 12.3753 25.38 12.3921C25.392 12.4089 25.4316 12.4581 25.4736 12.5025C25.4916 12.5217 25.5108 12.5397 25.5372 12.5637C25.5711 12.5949 25.6068 12.6242 25.644 12.6513L25.716 12.6993C25.7545 12.7245 25.7945 12.7469 25.836 12.7665C25.8624 12.7797 25.89 12.7917 25.9188 12.8037C25.9624 12.8204 26.0068 12.8344 26.052 12.8457C26.0808 12.8541 26.1096 12.8613 26.1396 12.8673C26.1995 12.8787 26.26 12.8859 26.3208 12.8889V14.5365C26.3204 15.834 26.6301 17.1128 27.2242 18.2663C27.8182 19.4198 28.6795 20.4146 29.736 21.1677V21.9369H24.5676C22.7942 21.9404 21.0945 22.6468 19.841 23.9012C18.5874 25.1557 17.8823 26.8559 17.88 28.6293V52.0089C17.8817 52.2823 17.9728 52.5476 18.1395 52.7642C18.3061 52.9809 18.5391 53.1371 18.8028 53.2089V55.1385C18.8016 56.044 19.1598 56.9129 19.7988 57.5544C20.4378 58.1959 21.3054 58.5575 22.2108 58.5597H23.3256V87.7881L19.086 89.3661C18.4327 89.6116 17.8695 90.05 17.4713 90.6231C17.0731 91.1963 16.8586 91.877 16.8564 92.5749V93.9321C16.8571 94.4805 17.0753 95.0062 17.4632 95.3939C17.851 95.7815 18.3769 95.9994 18.9252 95.9997H32.6772C33.3402 96.0003 33.9855 95.7865 34.5168 95.3901C35.0494 95.7868 35.696 96.0007 36.36 95.9997H50.112C50.6603 95.9991 51.186 95.7811 51.5738 95.3935C51.9616 95.0059 52.1799 94.4804 52.1808 93.9321V92.5749C52.1785 91.8767 51.9637 91.1958 51.565 90.6226C51.1663 90.0494 50.6026 89.6112 49.9488 89.3661Z" fill="white"/>
<path d="M49.5988 90.1857L44.7904 88.3953V57.5997C44.9263 57.6543 45.0713 57.6824 45.2176 57.6825H46.7776C47.1113 57.6828 47.4419 57.6174 47.7503 57.49C48.0587 57.3625 48.339 57.1755 48.5751 56.9397C48.8112 56.7039 48.9986 56.4239 49.1265 56.1157C49.2544 55.8074 49.3203 55.477 49.3204 55.1433V52.3833H49.8712C49.9201 52.3833 49.9685 52.3737 50.0136 52.355C50.0587 52.3363 50.0997 52.3089 50.1343 52.2744C50.1688 52.2398 50.1962 52.1988 50.2149 52.1537C50.2336 52.1086 50.2432 52.0602 50.2432 52.0113V28.6293C50.2413 27.087 49.6278 25.6084 48.5372 24.5178C47.4466 23.4272 45.968 22.8136 44.4256 22.8117H38.3788V20.7045C39.4194 20.0463 40.2768 19.1357 40.8711 18.0573C41.4655 16.979 41.7776 15.7678 41.7784 14.5365V12.0165H42.6004C42.6242 12.0166 42.6479 12.0142 42.6712 12.0093H42.694L42.7372 11.9961L42.7612 11.9853C42.7738 11.9795 42.7858 11.9727 42.7972 11.9649L42.82 11.9505L42.8524 11.9241L42.8704 11.9061C42.8807 11.8951 42.8903 11.8835 42.8992 11.8713L42.9124 11.8533C42.9223 11.8385 42.9307 11.8229 42.9376 11.8065C42.9405 11.8024 42.9429 11.798 42.9448 11.7933C42.9534 11.7732 42.9603 11.7523 42.9652 11.7309C42.9658 11.7245 42.9658 11.7181 42.9652 11.7117C42.9685 11.6947 42.9705 11.6774 42.9712 11.6601V9.95133C42.9694 8.29936 42.487 6.68362 41.5827 5.30116C40.6784 3.91869 39.3913 2.82926 37.8784 2.16573V1.79973C37.8784 1.72409 37.8554 1.65024 37.8126 1.58791C37.7697 1.52557 37.709 1.47768 37.6384 1.45053C35.5982 0.680879 33.3475 0.680879 31.3072 1.45053C31.2366 1.47768 31.1759 1.52557 31.1331 1.58791C31.0902 1.65024 31.0673 1.72409 31.0672 1.79973V2.15973C29.5543 2.82321 28.267 3.91259 27.3625 5.29504C26.458 6.67749 25.9753 8.29326 25.9732 9.94533V11.6469C25.972 11.6641 25.972 11.6813 25.9732 11.6985V11.7177C25.9778 11.739 25.9842 11.7599 25.9924 11.7801L26.0008 11.7945C26.0076 11.8103 26.0157 11.8256 26.0248 11.8401L26.0392 11.8593L26.0668 11.8929L26.086 11.9109C26.0968 11.9193 26.1064 11.9289 26.1184 11.9373L26.14 11.9517L26.176 11.9721L26.2012 11.9829L26.2444 11.9961H26.2672C26.2901 12.001 26.3134 12.0034 26.3368 12.0033H27.1588V14.5233C27.1597 15.7545 27.4716 16.9655 28.0658 18.0438C28.6599 19.1222 29.5169 20.0329 30.5572 20.6913V22.8117H24.5224C22.9801 22.8136 21.5015 23.4272 20.4109 24.5178C19.3203 25.6084 18.7067 27.087 18.7048 28.6293V52.0089C18.7048 52.0579 18.7145 52.1063 18.7333 52.1516C18.752 52.1968 18.7795 52.2378 18.8142 52.2724C18.8489 52.307 18.89 52.3343 18.9353 52.353C18.9806 52.3716 19.0291 52.3811 19.078 52.3809H19.6288V55.1409C19.6295 55.8136 19.8969 56.4586 20.3725 56.9344C20.848 57.4102 21.4929 57.678 22.1656 57.6789H23.7352C23.8791 57.6774 24.0215 57.6493 24.1552 57.5961V88.3953L19.3468 90.1857C18.8602 90.3682 18.4406 90.6946 18.1439 91.1214C17.8472 91.5482 17.6875 92.0552 17.686 92.5749V93.9321C17.6879 94.2491 17.8152 94.5525 18.04 94.776C18.2649 94.9995 18.569 95.1249 18.886 95.1249H32.638C33.0023 95.125 33.3609 95.0351 33.682 94.8632C34.0031 94.6913 34.2769 94.4428 34.4788 94.1397C34.6807 94.4427 34.9542 94.6911 35.2751 94.8629C35.596 95.0348 35.9544 95.1248 36.3184 95.1249H50.0656C50.3814 95.123 50.6837 94.9968 50.907 94.7735C51.1303 94.5502 51.2565 94.2479 51.2584 93.9321V92.5749C51.2569 92.0553 51.0973 91.5485 50.8008 91.1218C50.5044 90.695 50.0852 90.3686 49.5988 90.1857Z" fill="#0D0D0D"/>
<path d="M19.4512 28.6293V51.6357H24.1552V36.2877C24.1552 36.1887 24.1945 36.0938 24.2645 36.0238C24.3345 35.9538 24.4294 35.9145 24.5284 35.9145C24.6273 35.9145 24.7223 35.9538 24.7923 36.0238C24.8623 36.0938 24.9016 36.1887 24.9016 36.2877V39.1197C25.2593 39.0363 25.5783 38.8345 25.8068 38.5469C26.0354 38.2594 26.1599 37.903 26.1604 37.5357V23.5581H24.5224C23.1779 23.5597 21.8889 24.0945 20.9382 25.0452C19.9876 25.9959 19.4528 27.2848 19.4512 28.6293ZM44.422 23.5581H42.79V37.5357C42.79 37.9019 42.9133 38.2573 43.1402 38.5447C43.3671 38.8322 43.6842 39.0347 44.0404 39.1197V36.2877C44.0404 36.1887 44.0797 36.0938 44.1497 36.0238C44.2197 35.9538 44.3146 35.9145 44.4136 35.9145C44.5125 35.9145 44.6075 35.9538 44.6775 36.0238C44.7475 36.0938 44.7868 36.1887 44.7868 36.2877V51.6357H49.4908V28.6293C49.4892 27.2852 48.9547 25.9966 48.0045 25.046C47.0544 24.0954 45.766 23.5603 44.422 23.5581ZM34.4728 27.0909C33.5018 27.0898 32.5659 26.7275 31.8473 26.0745C31.1286 25.4215 30.6786 24.5246 30.5848 23.5581H29.5576V33.7125H39.388V23.5581H38.3608C38.2669 24.5246 37.8169 25.4215 37.0983 26.0745C36.3796 26.7275 35.4438 27.0898 34.4728 27.0909Z" fill="#F4F5F4"/>
<path d="M31.312 21.1198V23.1826C31.312 24.0209 31.645 24.8248 32.2378 25.4176C32.8306 26.0103 33.6345 26.3434 34.4728 26.3434C35.3111 26.3434 36.1151 26.0103 36.7078 25.4176C37.3006 24.8248 37.6336 24.0209 37.6336 23.1826V21.1198C36.6473 21.5937 35.5671 21.8397 34.4728 21.8397C33.3786 21.8397 32.2983 21.5937 31.312 21.1198ZM20.374 55.1434C20.3744 55.5749 20.5304 55.9919 20.8134 56.3177C21.0965 56.6435 21.4875 56.8563 21.9148 56.917C21.4518 56.4429 21.1932 55.806 21.1948 55.1434C21.1948 55.0444 21.2341 54.9495 21.3041 54.8795C21.3741 54.8095 21.469 54.7702 21.568 54.7702C21.667 54.7702 21.7619 54.8095 21.8319 54.8795C21.9019 54.9495 21.9412 55.0444 21.9412 55.1434C21.9434 55.6178 22.1329 56.0723 22.4684 56.4078C22.8039 56.7433 23.2583 56.9328 23.7328 56.935C23.846 56.9346 23.9545 56.8895 24.0345 56.8095C24.1146 56.7294 24.1597 56.621 24.16 56.5078V52.381H20.374V55.1434ZM27.9136 14.5366C27.9141 15.56 28.1542 16.5691 28.6147 17.483C29.0752 18.397 29.7434 19.1904 30.5656 19.7998C30.6856 19.8898 30.8056 19.9738 30.9388 20.0554C31.072 20.137 31.1848 20.209 31.312 20.2798C32.28 20.8135 33.3674 21.0934 34.4728 21.0934C35.5782 21.0934 36.6656 20.8135 37.6336 20.2798C37.7608 20.209 37.8844 20.1334 38.0068 20.0554C38.1292 19.9774 38.2588 19.8898 38.3788 19.7998C39.2018 19.1904 39.8705 18.3967 40.3312 17.4823C40.792 16.5678 41.032 15.5581 41.032 14.5342V12.0142H27.9136V14.5366ZM44.7904 52.381V56.5078C44.7904 56.6211 44.8354 56.7297 44.9155 56.8098C44.9957 56.8899 45.1043 56.935 45.2176 56.935C45.6925 56.9343 46.1477 56.7453 46.4834 56.4094C46.819 56.0736 47.0077 55.6182 47.008 55.1434C47.008 55.0444 47.0473 54.9495 47.1173 54.8795C47.1873 54.8095 47.2822 54.7702 47.3812 54.7702C47.4802 54.7702 47.5751 54.8095 47.6451 54.8795C47.7151 54.9495 47.7544 55.0444 47.7544 55.1434C47.757 55.8062 47.4984 56.4435 47.0344 56.917C47.4618 56.8565 47.853 56.6438 48.1361 56.318C48.4192 55.9921 48.5751 55.575 48.5752 55.1434V52.3834L44.7904 52.381Z" fill="#FDDAC5"/>
<path d="M19.6069 90.8852C19.2628 91.0143 18.966 91.2451 18.7562 91.5469C18.5463 91.8487 18.4333 92.2072 18.4321 92.5748V93.932C18.4324 94.0506 18.4797 94.1643 18.5636 94.2481C18.6474 94.332 18.7611 94.3793 18.8797 94.3796H32.6317C33.0208 94.379 33.3937 94.2241 33.6688 93.949C33.9439 93.6739 34.0987 93.301 34.0993 92.912V89.0276H24.6001L19.6069 90.8852ZM49.3381 90.8852L44.3497 89.0276H34.8457V92.912C34.846 93.3009 35.0006 93.6738 35.2755 93.949C35.5504 94.2241 35.9232 94.3789 36.3121 94.3796H50.0653C50.1839 94.3793 50.2976 94.332 50.3815 94.2481C50.4654 94.1643 50.5126 94.0506 50.5129 93.932V92.5748C50.5116 92.2072 50.3985 91.8488 50.1887 91.547C49.9788 91.2453 49.6822 91.0144 49.3381 90.8852Z" fill="#1A1A1A"/>
<path d="M42.0434 23.5581H40.1342V35.5401H42.0434V23.5581ZM28.811 23.5581H26.9018V35.5401H28.811V23.5581ZM42.0434 37.5357V36.2865H39.7634C39.7144 36.2865 39.6658 36.2768 39.6206 36.2581C39.5753 36.2393 39.5341 36.2118 39.4995 36.1772C39.4648 36.1425 39.4373 36.1014 39.4186 36.0561C39.3998 36.0108 39.3902 35.9623 39.3902 35.9133V34.4577H29.5574V35.9133C29.5574 35.9623 29.5477 36.0108 29.529 36.0561C29.5102 36.1014 29.4827 36.1425 29.4481 36.1772C29.4134 36.2118 29.3723 36.2393 29.327 36.2581C29.2817 36.2768 29.2332 36.2865 29.1842 36.2865H26.9042V37.5357C26.9031 38.1002 26.7013 38.6459 26.3348 39.0752C25.9683 39.5046 25.4611 39.7896 24.9038 39.8793V56.9349H44.0402V39.8793C43.4835 39.7888 42.9771 39.5035 42.6114 39.0742C42.2456 38.6449 42.0443 38.0997 42.0434 37.5357ZM40.1342 47.5521C40.1342 47.6511 40.0949 47.746 40.0249 47.816C39.9549 47.886 39.86 47.9253 39.761 47.9253H29.1842C29.1352 47.9253 29.0866 47.9156 29.0414 47.8969C28.9961 47.8781 28.9549 47.8506 28.9203 47.816C28.8856 47.7813 28.8581 47.7402 28.8394 47.6949C28.8206 47.6496 28.811 47.6011 28.811 47.5521V39.1965C28.811 39.1475 28.8206 39.099 28.8394 39.0537C28.8581 39.0084 28.8856 38.9673 28.9203 38.9326C28.9549 38.898 28.9961 38.8705 29.0414 38.8517C29.0866 38.833 29.1352 38.8233 29.1842 38.8233H39.761C39.86 38.8233 39.9549 38.8626 40.0249 38.9326C40.0949 39.0026 40.1342 39.0975 40.1342 39.1965V47.5521ZM24.9014 88.2813H34.0994V68.4129C34.0994 68.3139 34.1387 68.219 34.2087 68.149C34.2787 68.079 34.3736 68.0397 34.4726 68.0397C34.5716 68.0397 34.6665 68.079 34.7365 68.149C34.8065 68.219 34.8458 68.3139 34.8458 68.4129V88.2813H44.0402V57.6813H24.9014V88.2813ZM29.5574 47.1789H39.3878V39.5697H29.5574V47.1789Z" fill="#1C75BC"/>
<path d="M28.2071 11.2691H40.7375C36.7025 9.7299 32.2421 9.7299 28.2071 11.2691ZM37.8791 2.98907V6.00947C37.8803 6.02585 37.8803 6.0423 37.8791 6.05867C37.8685 6.15381 37.8215 6.24117 37.7481 6.30257C37.6746 6.36398 37.5803 6.39471 37.4848 6.38838C37.3893 6.38204 37.2999 6.33912 37.2352 6.26855C37.1705 6.19798 37.1355 6.10519 37.1375 6.00947V2.06387C35.4129 1.47187 33.5401 1.47187 31.8155 2.06387V6.00947C31.8149 6.10345 31.7788 6.19372 31.7144 6.26214C31.6499 6.33056 31.562 6.37205 31.4682 6.37828C31.3744 6.38451 31.2818 6.35502 31.2089 6.29573C31.1359 6.23644 31.0882 6.15175 31.0751 6.05867C31.074 6.0423 31.074 6.02585 31.0751 6.00947V2.98787C29.7725 3.62587 28.6747 4.61612 27.9063 5.84631C27.1378 7.0765 26.7295 8.4974 26.7275 9.94788V11.0639C26.8919 10.9919 27.0575 10.9223 27.2219 10.8551C27.3539 10.8011 27.4859 10.7495 27.6179 10.6991C27.7499 10.6487 27.8855 10.5971 28.0187 10.5491C32.1833 8.97472 36.7794 8.97472 40.9439 10.5491C41.0783 10.5971 41.2115 10.6475 41.3459 10.6991C41.6457 10.8133 41.9426 10.9349 42.2363 11.0639V9.95148C42.2339 8.49943 41.8243 7.07717 41.0541 5.84624C40.2839 4.6153 39.1839 3.62502 37.8791 2.98787V2.98907Z" fill="#FBB040"/>
<path d="M49.5988 90.1857L44.7904 88.3953V57.5997C44.9263 57.6543 45.0713 57.6824 45.2176 57.6825H46.7776C47.1113 57.6828 47.4419 57.6174 47.7503 57.49C48.0587 57.3625 48.339 57.1755 48.5751 56.9397C48.8112 56.7039 48.9986 56.4239 49.1265 56.1157C49.2544 55.8074 49.3203 55.477 49.3204 55.1433V52.3833H49.8712C49.9201 52.3833 49.9685 52.3737 50.0136 52.355C50.0587 52.3363 50.0997 52.3089 50.1343 52.2744C50.1688 52.2398 50.1962 52.1988 50.2149 52.1537C50.2336 52.1086 50.2432 52.0602 50.2432 52.0113V28.6293C50.2413 27.087 49.6278 25.6084 48.5372 24.5178C47.4466 23.4272 45.968 22.8136 44.4256 22.8117H38.3788V20.7045C39.4194 20.0463 40.2768 19.1357 40.8711 18.0573C41.4655 16.979 41.7776 15.7678 41.7784 14.5365V12.0165H42.6004C42.6242 12.0166 42.6479 12.0142 42.6712 12.0093H42.694L42.7372 11.9961L42.7612 11.9853C42.7738 11.9795 42.7858 11.9727 42.7972 11.9649L42.82 11.9505L42.8524 11.9241L42.8704 11.9061C42.8807 11.8951 42.8903 11.8835 42.8992 11.8713L42.9124 11.8533C42.9223 11.8385 42.9307 11.8229 42.9376 11.8065C42.9405 11.8024 42.9429 11.798 42.9448 11.7933C42.9534 11.7732 42.9603 11.7523 42.9652 11.7309C42.9658 11.7245 42.9658 11.7181 42.9652 11.7117C42.9685 11.6947 42.9705 11.6774 42.9712 11.6601V9.95133C42.9694 8.29936 42.487 6.68362 41.5827 5.30116C40.6784 3.91869 39.3913 2.82926 37.8784 2.16573V1.79973C37.8784 1.72409 37.8554 1.65024 37.8126 1.58791C37.7697 1.52557 37.709 1.47768 37.6384 1.45053C35.5982 0.680879 33.3475 0.680879 31.3072 1.45053C31.2366 1.47768 31.1759 1.52557 31.1331 1.58791C31.0902 1.65024 31.0673 1.72409 31.0672 1.79973V2.15973C29.5543 2.82321 28.267 3.91259 27.3625 5.29504C26.458 6.67749 25.9753 8.29326 25.9732 9.94533V11.6469C25.972 11.6641 25.972 11.6813 25.9732 11.6985V11.7177C25.9778 11.739 25.9842 11.7599 25.9924 11.7801L26.0008 11.7945C26.0076 11.8103 26.0157 11.8256 26.0248 11.8401L26.0392 11.8593L26.0668 11.8929L26.086 11.9109C26.0968 11.9193 26.1064 11.9289 26.1184 11.9373L26.14 11.9517L26.176 11.9721L26.2012 11.9829L26.2444 11.9961H26.2672C26.2901 12.001 26.3134 12.0034 26.3368 12.0033H27.1588V14.5233C27.1597 15.7545 27.4716 16.9655 28.0658 18.0438C28.6599 19.1222 29.5169 20.0329 30.5572 20.6913V22.8117H24.5224C22.9801 22.8136 21.5015 23.4272 20.4109 24.5178C19.3203 25.6084 18.7067 27.087 18.7048 28.6293V52.0089C18.7048 52.0579 18.7145 52.1063 18.7333 52.1516C18.752 52.1968 18.7795 52.2378 18.8142 52.2724C18.8489 52.307 18.89 52.3343 18.9353 52.353C18.9806 52.3716 19.0291 52.3811 19.078 52.3809H19.6288V55.1409C19.6295 55.8136 19.8969 56.4586 20.3725 56.9344C20.848 57.4102 21.4929 57.678 22.1656 57.6789H23.7352C23.8791 57.6774 24.0215 57.6493 24.1552 57.5961V88.3953L19.3468 90.1857C18.8602 90.3682 18.4406 90.6946 18.1439 91.1214C17.8472 91.5482 17.6875 92.0552 17.686 92.5749V93.9321C17.6879 94.2491 17.8152 94.5525 18.04 94.776C18.2649 94.9995 18.569 95.1249 18.886 95.1249H32.638C33.0023 95.125 33.3609 95.0351 33.682 94.8632C34.0031 94.6913 34.2769 94.4428 34.4788 94.1397C34.6807 94.4427 34.9542 94.6911 35.2751 94.8629C35.596 95.0348 35.9544 95.1248 36.3184 95.1249H50.0656C50.3814 95.123 50.6837 94.9968 50.907 94.7735C51.1303 94.5502 51.2565 94.2479 51.2584 93.9321V92.5749C51.2569 92.0553 51.0973 91.5485 50.8008 91.1218C50.5044 90.695 50.0852 90.3686 49.5988 90.1857ZM48.5704 55.1457C48.5704 55.5774 48.4144 55.9945 48.1313 56.3203C47.8483 56.6462 47.457 56.8589 47.0296 56.9193C47.4936 56.4458 47.7523 55.8086 47.7496 55.1457C47.7496 55.0467 47.7103 54.9518 47.6403 54.8818C47.5703 54.8118 47.4754 54.7725 47.3764 54.7725C47.2775 54.7725 47.1825 54.8118 47.1125 54.8818C47.0426 54.9518 47.0032 55.0467 47.0032 55.1457C47.0029 55.6206 46.8142 56.0759 46.4786 56.4118C46.1429 56.7477 45.6877 56.9367 45.2128 56.9373C45.0995 56.9373 44.9909 56.8923 44.9108 56.8122C44.8306 56.7321 44.7856 56.6234 44.7856 56.5101V52.3809H48.5656L48.5704 55.1457ZM42.79 23.5581H44.422C45.7667 23.5594 47.056 24.0941 48.0069 25.0448C48.9579 25.9955 49.4929 27.2846 49.4944 28.6293V51.6357H44.7904V36.2877C44.7904 36.1887 44.7511 36.0938 44.6811 36.0238C44.6111 35.9538 44.5162 35.9145 44.4172 35.9145C44.3183 35.9145 44.2233 35.9538 44.1533 36.0238C44.0834 36.0938 44.044 36.1887 44.044 36.2877V39.1197C43.6876 39.0355 43.37 38.8336 43.1424 38.5466C42.9149 38.2597 42.7908 37.9044 42.79 37.5381V23.5581ZM40.1344 23.5581H42.0436V35.5401H40.1344V23.5581ZM27.2128 10.8549C27.0484 10.9221 26.8828 10.9917 26.7184 11.0637V9.95133C26.7204 8.50086 27.1287 7.07995 27.8972 5.84976C28.6656 4.61957 29.7634 3.62933 31.066 2.99133V6.00933C31.0649 6.02571 31.0649 6.04215 31.066 6.05853C31.0791 6.1516 31.1268 6.23629 31.1998 6.29558C31.2727 6.35487 31.3653 6.38437 31.4591 6.37813C31.5529 6.3719 31.6408 6.33041 31.7053 6.26199C31.7697 6.19357 31.8058 6.10331 31.8064 6.00933V2.06373C33.531 1.47173 35.4038 1.47173 37.1284 2.06373V6.00933C37.1264 6.10504 37.1614 6.19783 37.2261 6.2684C37.2908 6.33897 37.3802 6.38189 37.4757 6.38823C37.5713 6.39457 37.6655 6.36384 37.739 6.30243C37.8124 6.24102 37.8594 6.15366 37.87 6.05853C37.8712 6.04215 37.8712 6.02571 37.87 6.00933V2.98773C39.1725 3.62595 40.2701 4.61625 41.0385 5.84639C41.8069 7.07653 42.2154 8.49732 42.2176 9.94773V11.0637C42.0536 10.9923 41.8888 10.9227 41.7232 10.8549C41.5912 10.8009 41.4592 10.7493 41.3272 10.6989C41.1952 10.6485 41.0596 10.5969 40.9252 10.5489C36.7607 8.97457 32.1646 8.97457 28 10.5489C27.8668 10.5969 27.7324 10.6473 27.5992 10.6989C27.466 10.7505 27.3448 10.7997 27.2128 10.8549ZM40.738 11.2689H28.2076C32.2426 9.72975 36.703 9.72975 40.738 11.2689ZM27.9136 14.5365V12.0165H41.032V14.5365C41.0316 15.5601 40.7914 16.5693 40.3307 17.4833C39.8699 18.3973 39.2015 19.1906 38.3788 19.7997C38.2588 19.8897 38.1328 19.9737 38.0068 20.0553C37.8808 20.1369 37.7608 20.2089 37.6336 20.2797C36.6656 20.8135 35.5782 21.0934 34.4728 21.0934C33.3674 21.0934 32.28 20.8135 31.312 20.2797C31.1848 20.2089 31.0612 20.1333 30.9388 20.0553C30.8164 19.9773 30.6868 19.8897 30.5656 19.7997C29.7434 19.1904 29.0752 18.397 28.6147 17.483C28.1542 16.5691 27.9141 15.56 27.9136 14.5365ZM37.6336 21.1221V23.1849C37.6336 24.0232 37.3006 24.8272 36.7079 25.4199C36.1151 26.0127 35.3111 26.3457 34.4728 26.3457C33.6345 26.3457 32.8306 26.0127 32.2378 25.4199C31.645 24.8272 31.312 24.0232 31.312 23.1849V21.1197C32.2983 21.5936 33.3786 21.8397 34.4728 21.8397C35.5671 21.8397 36.6473 21.5936 37.6336 21.1197V21.1221ZM29.5576 23.5581H30.5848C30.678 24.5247 31.1278 25.422 31.8466 26.0749C32.5655 26.7278 33.5017 27.0896 34.4728 27.0896C35.4439 27.0896 36.3802 26.7278 37.099 26.0749C37.8179 25.422 38.2677 24.5247 38.3608 23.5581H39.388V33.7125H29.5576V23.5581ZM26.902 23.5581H28.8112V35.5401H26.902V23.5581ZM26.902 37.5357V36.2865H29.182C29.231 36.2865 29.2796 36.2769 29.3249 36.2581C29.3701 36.2394 29.4113 36.2119 29.4459 36.1772C29.4806 36.1426 29.5081 36.1014 29.5268 36.0561C29.5456 36.0109 29.5552 35.9623 29.5552 35.9133V34.4577H39.3856V35.9133C39.3856 35.9623 39.3953 36.0109 39.414 36.0561C39.4328 36.1014 39.4603 36.1426 39.4949 36.1772C39.5296 36.2119 39.5707 36.2394 39.616 36.2581C39.6613 36.2769 39.7098 36.2865 39.7588 36.2865H42.0388V37.5357C42.04 38.1004 42.242 38.6462 42.6087 39.0756C42.9754 39.505 43.4829 39.7899 44.0404 39.8793V56.9349H24.9016V39.8793C25.4589 39.7896 25.9662 39.5046 26.3327 39.0753C26.6991 38.6459 26.9009 38.1002 26.902 37.5357ZM19.4512 51.6357V28.6293C19.4528 27.2848 19.9876 25.9959 20.9383 25.0452C21.889 24.0945 23.178 23.5597 24.5224 23.5581H26.1604V37.5357C26.16 37.903 26.0354 38.2594 25.8069 38.547C25.5784 38.8345 25.2593 39.0364 24.9016 39.1197V36.2877C24.9016 36.1887 24.8623 36.0938 24.7923 36.0238C24.7223 35.9538 24.6274 35.9145 24.5284 35.9145C24.4295 35.9145 24.3345 35.9538 24.2645 36.0238C24.1946 36.0938 24.1552 36.1887 24.1552 36.2877V51.6357H19.4512ZM23.728 56.9349C23.2536 56.9327 22.7991 56.7433 22.4636 56.4077C22.1281 56.0722 21.9386 55.6178 21.9364 55.1433C21.9364 55.0443 21.8971 54.9494 21.8271 54.8794C21.7571 54.8094 21.6622 54.7701 21.5632 54.7701C21.4643 54.7701 21.3693 54.8094 21.2993 54.8794C21.2294 54.9494 21.19 55.0443 21.19 55.1433C21.1885 55.806 21.447 56.4429 21.91 56.9169C21.4827 56.8563 21.0917 56.6435 20.8086 56.3177C20.5256 55.9919 20.3696 55.5749 20.3692 55.1433V52.3833H24.1504V56.5077C24.1501 56.6201 24.1057 56.7279 24.0267 56.8078C23.9477 56.8877 23.8404 56.9334 23.728 56.9349ZM34.0996 92.9121C34.099 93.3012 33.9442 93.6741 33.6691 93.9492C33.394 94.2243 33.0211 94.3791 32.632 94.3797H18.88C18.7614 94.3794 18.6478 94.3321 18.5639 94.2483C18.48 94.1644 18.4328 94.0507 18.4324 93.9321V92.5749C18.4336 92.2073 18.5466 91.8488 18.7565 91.547C18.9663 91.2452 19.2631 91.0144 19.6072 90.8853L24.6004 89.0277H34.1044L34.0996 92.9121ZM34.4728 68.0397C34.3739 68.0397 34.2789 68.079 34.2089 68.149C34.139 68.219 34.0996 68.3139 34.0996 68.4129V88.2813H24.9016V57.6813H44.0404V88.2813H34.846V68.4129C34.846 68.3139 34.8067 68.219 34.7367 68.149C34.6667 68.079 34.5718 68.0397 34.4728 68.0397ZM50.5132 93.9321C50.5129 94.0507 50.4657 94.1644 50.3818 94.2483C50.2979 94.3321 50.1842 94.3794 50.0656 94.3797H36.3124C35.9235 94.3791 35.5507 94.2242 35.2758 93.9491C35.0009 93.674 34.8464 93.301 34.846 92.9121V89.0277H44.35L49.3384 90.8853C49.6825 91.0146 49.9791 91.2454 50.189 91.5472C50.3988 91.8489 50.5119 92.2074 50.5132 92.5749V93.9321ZM29.1844 47.9253H39.7612C39.8602 47.9253 39.9551 47.886 40.0251 47.816C40.0951 47.746 40.1344 47.6511 40.1344 47.5521V39.1965C40.1344 39.0975 40.0951 39.0026 40.0251 38.9326C39.9551 38.8626 39.8602 38.8233 39.7612 38.8233H29.1844C29.1354 38.8233 29.0869 38.833 29.0416 38.8517C28.9963 38.8705 28.9552 38.898 28.9205 38.9326C28.8859 38.9673 28.8584 39.0084 28.8396 39.0537C28.8209 39.099 28.8112 39.1475 28.8112 39.1965V47.5521C28.8112 47.6011 28.8209 47.6497 28.8396 47.6949C28.8584 47.7402 28.8859 47.7814 28.9205 47.816C28.9552 47.8507 28.9963 47.8782 29.0416 47.8969C29.0869 47.9157 29.1354 47.9253 29.1844 47.9253ZM29.5576 39.5697H39.388V47.1789H29.5576V39.5697Z" fill="#0D0D0D"/>
</g>
<defs>
<clipPath id="clip0">
<rect width="69.12" height="96" fill="white"/>
</clipPath>
</defs>
</svg>
