<svg width="128" height="80" viewBox="0 0 128 80" fill="none" xmlns="http://www.w3.org/2000/svg">
<path fill-rule="evenodd" clip-rule="evenodd" d="M48.6371 34.0313V26.9966C48.6371 26.3411 48.09 25.797 47.4318 25.797H39.8096C38.1923 25.797 36.0963 32.2631 36.0963 34.6788C36.0963 38.2358 35.9535 38.7303 37.0319 38.7303H40.2588C41.1364 38.7303 42.3628 35.9342 43.4937 35.9342C44.5668 35.9342 46.2265 35.9157 47.1517 35.9157C48.3146 35.9157 48.6371 35.5099 48.6371 34.0313V34.0313ZM53.8359 34.8485V43.6396H98.1216C98.8481 43.6396 99.4428 43.0479 99.4428 42.3241V34.8485H53.8362H53.8359ZM31.4471 39.3667H32.9668C33.1123 39.3667 33.2313 39.4852 33.2313 39.6301V43.3872C33.2313 43.5315 33.1123 43.6502 32.9668 43.6502H31.4471V39.3667ZM45.3648 53.7346C43.7183 53.7346 42.3808 52.4033 42.3808 50.7639C42.3808 49.1224 43.7183 47.7932 45.3648 47.7932C47.0141 47.7932 48.3488 49.1224 48.3488 50.7639C48.3488 52.403 47.0141 53.7346 45.3648 53.7346ZM45.3648 56C42.4601 56 40.1051 53.6554 40.1051 50.7642C40.1051 47.8728 42.4601 45.5289 45.3648 45.5289C48.2695 45.5289 50.6243 47.8728 50.6243 50.7642C50.6243 53.6556 48.2692 56 45.3648 56ZM45.3648 52.0533C44.6511 52.0533 44.0698 51.4744 44.0698 50.7639C44.0698 50.0513 44.6514 49.4748 45.3648 49.4748C46.081 49.4748 46.6599 50.051 46.6599 50.7639C46.6599 51.4744 46.081 52.0533 45.3648 52.0533ZM90.06 46.5335H95.2035C95.9301 46.5335 96.5248 47.1258 96.5248 47.8491V51.1588C96.5248 51.8821 95.9303 52.4743 95.2035 52.4743H91.3922C91.5402 51.9273 91.6196 51.3562 91.6196 50.7639C91.6196 49.1513 91.033 47.6756 90.06 46.5335V46.5335ZM53.8356 46.5335H80.014C79.0442 47.6756 78.4572 49.1513 78.4572 50.7639C78.4572 51.3562 78.5368 51.927 78.6848 52.4743H65.779C65.6731 53.0928 65.1288 53.569 64.476 53.569H55.1569C54.5069 53.569 53.9598 53.0928 53.854 52.4743H53.8356V46.5335V46.5335ZM85.0382 53.7346C83.3892 53.7346 82.0545 52.4033 82.0545 50.7639C82.0545 49.1224 83.3895 47.7932 85.0382 47.7932C86.6848 47.7932 88.0222 49.1224 88.0222 50.7639C88.0222 52.403 86.6848 53.7346 85.0382 53.7346ZM85.0382 56C82.1336 56 79.7788 53.6554 79.7788 50.7642C79.7788 47.8728 82.1336 45.5289 85.0382 45.5289C87.9429 45.5289 90.2977 47.8728 90.2977 50.7642C90.2977 53.6556 87.9429 56 85.0382 56ZM85.0382 52.0533C84.3223 52.0533 83.7432 51.4744 83.7432 50.7639C83.7432 50.0513 84.3221 49.4748 85.0382 49.4748C85.752 49.4748 86.3335 50.051 86.3335 50.7639C86.3335 51.4744 85.752 52.0533 85.0382 52.0533ZM33.03 52.4743H38.5088C38.374 51.9273 38.3001 51.3535 38.3001 50.7639C38.3001 46.878 41.4638 43.7317 45.3648 43.7317C48.7189 43.7317 51.5281 46.0575 52.2495 49.1777V26.9966C52.2495 25.3469 50.894 24 49.2393 24H36.9364C36.1672 24 35.3716 24.7026 34.6027 25.797H37.0261C36.6032 26.0151 35.9002 27.0861 35.6835 27.441C34.9277 28.6879 34.3119 30.1009 33.7885 31.4557C33.231 32.8946 32.7419 34.3812 32.3455 35.8702L32.3294 35.9255H30.4634C30.1806 37.0542 30.0194 37.9567 30.0194 38.4327V44.9546H34.9512C35.39 44.9546 35.744 45.31 35.744 45.7443C35.744 46.1787 35.39 46.5335 34.9512 46.5335H29.2053C28.5419 46.5335 28 47.0727 28 47.7331V51.2745C28 51.9322 28.5419 52.4741 29.2053 52.4741H33.0294L33.03 52.4743Z" fill="#434242"/>
<path d="M60.2626 36.3405C60.4445 36.3405 60.61 36.4145 60.7296 36.5335C60.8491 36.6525 60.9238 36.8173 60.9238 36.9984V41.2797C60.9238 41.4608 60.8494 41.6253 60.7296 41.7446C60.61 41.8636 60.4445 41.9379 60.2626 41.9379C60.0807 41.9379 59.9152 41.8638 59.7956 41.7446C59.6761 41.6256 59.6017 41.4608 59.6017 41.2797V36.9984C59.6017 36.8176 59.6761 36.6525 59.7956 36.5335C59.9152 36.4145 60.081 36.3405 60.2626 36.3405ZM93.2704 36.3405C93.4524 36.3405 93.6179 36.4145 93.7374 36.5335C93.857 36.6525 93.9316 36.8173 93.9316 36.9984V41.2797C93.9316 41.4608 93.8572 41.6253 93.7374 41.7446C93.6179 41.8636 93.4524 41.9379 93.2704 41.9379C93.0885 41.9379 92.923 41.8638 92.8035 41.7446C92.6839 41.6256 92.6095 41.4608 92.6095 41.2797V36.9984C92.6095 36.8176 92.6839 36.6525 92.8035 36.5335C92.923 36.4145 93.0888 36.3405 93.2704 36.3405ZM86.6689 36.3405C86.8508 36.3405 87.0163 36.4145 87.1358 36.5335C87.2554 36.6525 87.3301 36.8173 87.3301 36.9984V41.2797C87.3301 41.4608 87.2557 41.6253 87.1358 41.7446C87.0163 41.8636 86.8508 41.9379 86.6689 41.9379C86.487 41.9379 86.3215 41.8638 86.2019 41.7446C86.0824 41.6256 86.008 41.4608 86.008 41.2797V36.9984C86.008 36.8176 86.0824 36.6525 86.2019 36.5335C86.3215 36.4145 86.4872 36.3405 86.6689 36.3405ZM80.0673 36.3405C80.2492 36.3405 80.4147 36.4145 80.5343 36.5335C80.6538 36.6525 80.7285 36.8173 80.7285 36.9984V41.2797C80.7285 41.4608 80.6541 41.6253 80.5343 41.7446C80.4147 41.8636 80.2492 41.9379 80.0673 41.9379C79.8854 41.9379 79.7199 41.8638 79.6003 41.7446C79.4808 41.6256 79.4064 41.4608 79.4064 41.2797V36.9984C79.4064 36.8176 79.4808 36.6525 79.6003 36.5335C79.7199 36.4145 79.8857 36.3405 80.0673 36.3405ZM73.4657 36.3405C73.6477 36.3405 73.8132 36.4145 73.9327 36.5335C74.0523 36.6525 74.1269 36.8173 74.1269 36.9984V41.2797C74.1269 41.4608 74.0525 41.6253 73.9327 41.7446C73.8132 41.8636 73.6477 41.9379 73.4657 41.9379C73.2838 41.9379 73.1183 41.8638 72.9988 41.7446C72.8792 41.6256 72.8048 41.4608 72.8048 41.2797V36.9984C72.8048 36.8176 72.8792 36.6525 72.9988 36.5335C73.1183 36.4145 73.2841 36.3405 73.4657 36.3405ZM66.8642 36.3405C67.0461 36.3405 67.2116 36.4145 67.3311 36.5335C67.4507 36.6525 67.5254 36.8173 67.5254 36.9984V41.2797C67.5254 41.4608 67.451 41.6253 67.3311 41.7446C67.2116 41.8636 67.0461 41.9379 66.8642 41.9379C66.6823 41.9379 66.5168 41.8638 66.3972 41.7446C66.2777 41.6256 66.2033 41.4608 66.2033 41.2797V36.9984C66.2033 36.8176 66.2777 36.6525 66.3972 36.5335C66.5168 36.4145 66.6825 36.3405 66.8642 36.3405Z" fill="#FEFEFE"/>
</svg>
