<svg width="456" height="181" viewBox="0 0 456 181" fill="none" xmlns="http://www.w3.org/2000/svg">
<path d="M161.81 158.84C161.894 159.064 162.002 159.278 162.13 159.48C162.434 159.429 162.732 159.348 163.02 159.24C165.34 158 167.63 156.73 169.97 155.5C170.273 155.383 170.533 155.177 170.717 154.909C170.901 154.642 171 154.325 171 154V105.78C170.952 105.436 170.858 105.099 170.72 104.78H170.47C168.07 106.1 165.72 107.46 163.27 108.72C162.831 108.872 162.452 109.159 162.186 109.54C161.92 109.92 161.781 110.376 161.79 110.84V158.25C161.77 158.447 161.777 158.645 161.81 158.84V158.84ZM130.84 141.74C130.9 138.74 130.84 135.74 130.84 132.74C130.819 132.501 130.782 132.264 130.73 132.03L95.56 152L95.16 151.83V105.41C94.56 105.68 94.16 105.82 93.88 106C91.52 107.31 89.19 108.63 86.81 109.92C86.5006 110.057 86.2397 110.283 86.0613 110.571C85.8829 110.858 85.7953 111.192 85.81 111.53C85.81 126.8 85.88 142.06 85.81 157.32C85.81 159.49 87.04 161.1 88.81 162.69C89.1501 163.013 89.5633 163.249 90.0142 163.378C90.4652 163.507 90.9406 163.524 91.4 163.43C92.6735 163.181 93.9148 162.788 95.1 162.26C107.45 156.33 118.95 149.65 130.26 142.8C130.429 142.677 130.569 142.519 130.669 142.335C130.77 142.152 130.828 141.949 130.84 141.74V141.74Z" fill="#FAC41A"/>
<path d="M157.81 143.86C159.437 140.67 159.971 137.033 159.33 133.51C158.77 130.29 157.57 127.25 153.61 125.17C148.477 122.503 143.317 119.857 138.13 117.23C136.96 116.64 135.9 117.13 135.89 118.23V125.42C135.89 126.31 136.37 126.84 137.41 127.31C140.7 128.79 144 130.31 147.16 131.88C148.916 132.803 150.589 133.877 152.16 135.09C153.79 136.31 153.6 137.02 151.78 138.09C151.45 138.29 151.11 138.46 150.78 138.65L142.98 142.8C136.98 145.97 130.98 149.16 124.98 152.3C124.177 152.701 123.297 152.923 122.4 152.95C122.05 152.95 121.62 152.16 121.32 151.7C121.109 151.431 120.818 151.236 120.489 151.143C120.161 151.05 119.811 151.063 119.49 151.18C119.28 151.246 119.089 151.361 118.932 151.516C118.775 151.671 118.658 151.861 118.59 152.07C118.53 152.936 118.53 153.804 118.59 154.67C118.413 155.594 118.44 156.545 118.67 157.457C118.899 158.37 119.326 159.22 119.92 159.95C120.748 160.991 121.936 161.683 123.25 161.89C125.202 162.181 127.195 161.83 128.93 160.89C137.67 156.21 146.44 151.57 155.09 146.81C156.258 146.104 157.201 145.081 157.81 143.86V143.86ZM82.58 142.11L82.19 142.28C82 142.36 81.86 142.42 81.73 142.49L70.63 148.41L46 161.59C44.7061 162.294 43.3703 162.919 42 163.46C40.9718 163.971 39.7854 164.065 38.69 163.72C38.4074 163.587 38.1557 163.396 37.9508 163.16C37.7459 162.924 37.5924 162.648 37.5 162.35C37.3768 162.122 37.1979 161.93 36.98 161.79L36.72 161.58L36.66 161.53L36.05 161.72V161.82C36.09 162.61 36.09 163.401 36.05 164.19C35.8295 165.992 36.0774 167.821 36.77 169.5C37.1601 170.309 37.7398 171.013 38.46 171.55C39.4684 172.356 40.7098 172.816 42 172.86C42.5515 172.854 43.0984 172.759 43.62 172.58C45.228 172.08 46.7931 171.451 48.3 170.7C59.71 164.7 70.96 158.7 81.84 152.82C81.99 152.74 82.71 152.33 82.72 151.91V142L82.58 142.11ZM201.44 142.11L201.04 142.28C200.85 142.36 200.71 142.42 200.58 142.49L189.48 148.41C181.26 152.81 173.033 157.203 164.8 161.59C163.537 162.294 162.231 162.918 160.89 163.46C159.858 163.972 158.669 164.065 157.57 163.72C157.289 163.584 157.039 163.392 156.835 163.157C156.63 162.921 156.476 162.647 156.38 162.35C156.262 162.121 156.082 161.93 155.86 161.8L155.6 161.58V161.53L154.98 161.72V161.82C155.02 162.61 155.02 163.401 154.98 164.19C154.764 165.992 155.012 167.82 155.7 169.5C156.093 170.307 156.673 171.01 157.39 171.55C158.39 172.35 159.62 172.809 160.9 172.86C161.455 172.854 162.005 172.759 162.53 172.58C164.135 172.08 165.697 171.451 167.2 170.7C178.61 164.7 189.86 158.7 200.74 152.82C200.89 152.74 201.62 152.33 201.63 151.91V142L201.44 142.11ZM109.58 162.9C108.88 161.85 107.81 161.69 106.46 162.38C103.12 164.07 99.76 165.76 96.46 167.51C95.9092 167.902 95.4262 168.382 95.03 168.93C95.1752 169.369 95.3523 169.797 95.56 170.21C97.56 173.21 99.48 176.21 101.47 179.27C102.23 180.44 103.28 180.63 104.73 179.89C107.997 178.23 111.257 176.563 114.51 174.89C115.92 174.17 116.31 173.32 115.61 172.22C113.643 169.107 111.633 166 109.58 162.9V162.9ZM446.9 127.85C446.21 127.017 445.341 126.349 444.358 125.897C443.374 125.446 442.302 125.221 441.22 125.24H213.58C206.76 125.24 202.83 124.24 200.86 121.99C198.89 119.74 198.47 116.05 199.25 109.99C200.57 99.81 202.82 89.52 204.99 79.58C205.8 75.89 206.63 72.08 207.4 68.33C210.52 53.23 213.62 38.44 216.9 22.79C218.3 16.2633 219.683 9.66667 221.05 3L221.68 0H218.61C195.74 0 130.29 0.23 129.61 0.23H128.3L127.56 1.33C127.4 1.57 123.66 7.25 120.19 17.67L117.76 25L124 20.5C132.57 14.35 146.27 14.12 154.45 13.99C156.86 13.99 158.78 13.92 160.21 13.76C176.55 13.43 182.86 13.45 194.3 13.48H205.19L205.1 14.02C204.74 16.21 204.39 18.28 203.98 20.29C202.127 29.43 200.247 38.54 198.34 47.62C194.34 66.97 190.13 86.98 186.34 106.73C184.58 115.85 186.34 124.15 191.22 130.1C196.1 136.05 203.96 139.35 213.22 139.35H216.52C298.63 139.35 447.68 139.11 450.59 138.97L455.41 138.74L446.9 127.85Z" fill="#FAC41A"/>
<path d="M82.92 100.34C73.92 98.85 61.37 98.96 52.77 107.95C47.99 112.95 43.97 118.86 40.07 124.57C38.07 127.5 36.01 130.57 33.9 133.36C31.79 136.15 30.74 136.49 30.71 136.5C27.1467 136.831 23.5648 136.914 19.99 136.75H18.76C19.92 134.53 21.02 132.37 22.1 130.24C25.87 122.8 29.1 116.37 33.45 111.08L33.63 110.86C40.24 102.77 47.07 94.4 57.31 94.4C64.14 94.4 71.1 94.47 77.83 94.54C94.83 94.71 112.51 94.89 129.83 93.99C139.62 93.47 149.93 89.47 156.74 83.54C169.48 72.45 177.63 56.54 183.98 30.33L184.88 26.62H171.28C163.99 26.62 157.1 26.52 150.14 26.73C141.7 26.99 132.72 27.6 123.46 28.54C105.72 30.35 90.74 45.54 86.2 66.37L82.79 81.92H68.25C57.44 81.92 45.18 81.92 35.4 90.03C24.64 98.94 16 110.89 9.06 126.57C7.23 130.7 5.72 134.93 4.13 139.41C3.31 141.72 2.46 144.1 1.52 146.59L0 150.59H4.33C7.51 150.59 10.62 150.59 13.65 150.53C20.52 150.45 27.01 150.38 32.88 150.72H34C39.89 150.72 43.06 147.83 44.81 140.98C50.1 120.21 58.24 111.91 74.81 110.35C75.89 110.25 77.02 109.7 81.54 107.12C82.37 106.65 83.39 106.12 83.64 105.95L92.64 101.87L82.92 100.34ZM91.73 68.44C109.34 37.6 134.64 38.87 161.42 40.22L167.55 40.51C162.25 62.51 145.79 83.31 122.99 82.51C109.93 82.05 96.88 81.93 83.99 81.91L91.73 68.44ZM326.92 15.24C357.33 15.36 388.78 15.47 420.79 14.33L425.5 14.16L422.8 8.86999C422.29 7.86999 421.71 6.71999 421.23 5.86999C420.52 4.55999 419.52 2.62999 417.45 2.86999C385.77 2.00999 355.32 1.86999 325.86 1.72999C296.18 1.58999 265.49 1.43999 233.43 0.559993L230.87 0.429993L230.4 2.99999C230.04 4.87999 229.82 5.99999 229.58 7.24999C229.31 8.61999 229.03 10.06 228.58 12.68L227.89 16.36L231.64 16.23C264.35 15 296.16 15.13 326.92 15.24ZM417.83 51.1C415.59 48.1 414.04 39.86 409.78 39.75C344.78 37.99 288.28 39.22 223.2 37.36C222.2 42.9 221.25 47.43 220.2 53.24C288.21 50.63 350 53.72 417.83 51.1V51.1ZM402.7 75.68C337.75 73.92 281.25 75.15 216.2 73.3C215.2 78.83 214.25 83.37 213.2 89.18C281.2 86.57 342.96 89.66 410.85 87.03L408.14 81.71C405.78 77.1 404.87 75.3 402.7 75.68V75.68Z" fill="#FAC41A"/>
</svg>
