<svg width="327" height="108" viewBox="0 0 327 108" fill="none" xmlns="http://www.w3.org/2000/svg">
<path d="M144.59 107.16H297.76L230.47 0L144.59 107.16Z" fill="#AD8B7C"/>
<path d="M144.59 107.16H238.08L230.47 0L144.59 107.16Z" fill="#735245"/>
<path d="M219.42 107.16L294.13 64.62L326.76 107.16H219.42Z" fill="#E0D8D4"/>
<path d="M219.42 107.16L294.13 64.62L305.03 107.16H219.42Z" fill="#998E8A"/>
<path d="M288.13 107.16H163.57L214.47 66.5L288.13 107.16Z" fill="#92BF8F"/>
<path d="M163.57 107.16L214.47 66.5L217.01 107.16H163.57Z" fill="#628060"/>
<path d="M21.76 107.16H174.93L101.42 8.82996L21.76 107.16Z" fill="#996E5C"/>
<path d="M21.76 107.16H115.25L101.42 8.82996L21.76 107.16Z" fill="#735245"/>
<path d="M110.09 107.16L68.09 34.16L21.3 107.16H110.09Z" fill="#BFCCB8"/>
<path d="M82.96 107.16L68.09 34.16L21.3 107.16H82.96Z" fill="#60665C"/>
<path d="M86.68 107.16L42.72 69.09L0 107.16H86.68Z" fill="#628060"/>
<path d="M42.72 69.09L0 107.16H47.72L42.72 69.09Z" fill="#735245"/>
<path d="M219.36 107.16H98.54L160.92 43.89L219.36 107.16Z" fill="#665F5C"/>
<path d="M168.25 107.16H98.54L160.92 43.89L168.25 107.16Z" fill="#998E8A"/>
</svg>
