<svg width="375" height="108" viewBox="0 0 375 108" fill="none" xmlns="http://www.w3.org/2000/svg">
<path d="M240.34 26.73L165.63 107.16H318.8L240.34 26.73Z" fill="#665F5C"/>
<path d="M240.34 26.73L225.31 107.16H318.8L240.34 26.73Z" fill="#735245"/>
<path d="M146.42 0L79.13 107.16H232.3L146.42 0Z" fill="#996E5C"/>
<path d="M146.42 0L138.81 107.16H232.3L146.42 0Z" fill="#735245"/>
<path d="M0.910034 107.16L82.76 64.62L157.47 107.16H0.910034Z" fill="#92BF8F"/>
<path d="M71.86 107.16L82.76 64.62L157.47 107.16H71.86Z" fill="#628060"/>
<path d="M284.31 43.89L346.68 107.16H225.86L284.31 43.89Z" fill="#C2A89D"/>
<path d="M284.31 43.89L346.68 107.16H276.98L284.31 43.89Z" fill="#996E5C"/>
<path d="M162.42 66.5L213.32 107.16H88.76L162.42 66.5Z" fill="#D6CBC6"/>
<path d="M159.88 107.16L162.42 66.5L213.32 107.16H159.88Z" fill="#8F998A"/>
<path d="M374.92 107.16L319.69 59.26L265.18 107.16H374.92Z" fill="#808080"/>
<path d="M374.92 107.16L319.69 59.26L313.26 107.16H374.92Z" fill="#ABC29D"/>
<path d="M285.56 107.16L242.84 69.09L198.87 107.16H285.56Z" fill="#BFCCB8"/>
<path d="M237.84 107.16H285.56L242.84 69.09L237.84 107.16Z" fill="#998E8A"/>
</svg>
