<svg width="40" height="96" viewBox="0 0 40 96" fill="none" xmlns="http://www.w3.org/2000/svg">
<path d="M35.5017 90L30.7017 88.2131V57.4822C30.8374 57.5362 30.9822 57.564 31.1282 57.564H32.6871C33.3585 57.5635 34.0022 57.2965 34.4769 56.8218C34.9516 56.3471 35.2186 55.7034 35.2191 55.032V52.2753H35.7646C35.8135 52.2755 35.8619 52.2659 35.9071 52.2473C35.9523 52.2286 35.9934 52.2013 36.028 52.1667C36.0625 52.1321 36.0899 52.091 36.1086 52.0458C36.1272 52.0006 36.1367 51.9522 36.1366 51.9033V28.572C36.1352 27.0327 35.523 25.5568 34.4345 24.4683C33.346 23.3798 31.8701 22.7677 30.3308 22.7662H24.3057V20.663C25.3437 20.006 26.1989 19.0974 26.7918 18.0216C27.3847 16.9458 27.6962 15.7375 27.6973 14.5091V11.9913H28.5177C28.5412 11.991 28.5645 11.9884 28.5875 11.9837H28.6104C28.6246 11.9837 28.6399 11.976 28.653 11.9706L28.6781 11.9597L28.7141 11.94L28.7359 11.9248C28.7473 11.9163 28.7582 11.9072 28.7686 11.8975L28.7871 11.88C28.7974 11.8695 28.8069 11.8582 28.8155 11.8462L28.8286 11.8277C28.8388 11.8133 28.8476 11.798 28.8548 11.7819C28.8548 11.7819 28.8548 11.772 28.8624 11.7677C28.8708 11.7476 28.8773 11.7268 28.8821 11.7055C28.8826 11.699 28.8826 11.6924 28.8821 11.6859V9.92731C28.8803 8.27874 28.3988 6.66632 27.4963 5.28671C26.5938 3.90711 25.3093 2.81996 23.7995 2.15786V1.79786C23.7995 1.72222 23.7764 1.64839 23.7333 1.58622C23.6902 1.52404 23.6292 1.47648 23.5584 1.44986C21.5225 0.68045 19.2758 0.68045 17.2399 1.44986C17.1691 1.47648 17.1081 1.52404 17.065 1.58622C17.0219 1.64839 16.9988 1.72222 16.9988 1.79786V2.16222C15.4911 2.82516 14.2087 3.91213 13.3077 5.29079C12.4066 6.66945 11.9259 8.28033 11.9239 9.92731V11.6259C11.9227 11.6429 11.9227 11.6601 11.9239 11.6771V11.6968C11.9291 11.7179 11.9357 11.7387 11.9435 11.759C11.9435 11.7644 11.9435 11.7688 11.9511 11.7731C11.9582 11.7891 11.9666 11.8044 11.9762 11.819L11.9904 11.8375C11.9987 11.8497 12.0082 11.8611 12.0188 11.8713C12.0188 11.8779 12.0308 11.8833 12.0373 11.8899L12.069 11.916L12.0919 11.9313C12.1034 11.9384 12.1154 11.9446 12.1279 11.9499C12.1355 11.9545 12.1436 11.9585 12.1519 11.9619C12.1661 11.9619 12.1802 11.9706 12.1944 11.975H12.2173C12.2403 11.9797 12.2637 11.9823 12.2871 11.9826H13.1075V14.5091C13.1083 15.7379 13.4196 16.9466 14.0125 18.0228C14.6055 19.0991 15.4608 20.008 16.4991 20.6651V22.7684H10.4773C8.93835 22.7699 7.46279 23.3817 6.37436 24.4697C5.28594 25.5577 4.67353 27.0331 4.67151 28.572V51.9033C4.67151 51.9522 4.68113 52.0005 4.69983 52.0457C4.71852 52.0908 4.74593 52.1318 4.78047 52.1664C4.81501 52.2009 4.85602 52.2283 4.90115 52.247C4.94629 52.2657 4.99466 52.2753 5.04351 52.2753H5.58897V55.032C5.5894 55.365 5.6554 55.6946 5.7832 56.002C5.91101 56.3094 6.09812 56.5887 6.33384 56.8238C6.56957 57.0589 6.8493 57.2453 7.15706 57.3723C7.46481 57.4993 7.79458 57.5645 8.12751 57.564H9.69078C9.83462 57.5628 9.977 57.5351 10.1108 57.4822V88.2164L5.31188 90C4.82571 90.1825 4.4067 90.5088 4.11065 90.9354C3.81461 91.3621 3.65559 91.8688 3.65479 92.3881L3.65479 93.7419C3.65507 94.0577 3.78068 94.3606 4.00402 94.5839C4.22736 94.8073 4.5302 94.9328 4.84606 94.9331H18.5708C18.934 94.9332 19.2916 94.8436 19.6118 94.6723C19.9321 94.5011 20.2052 94.2534 20.4068 93.9513C20.6086 94.2534 20.8819 94.5011 21.2023 94.6723C21.5228 94.8436 21.8805 94.9332 22.2439 94.9331H35.9675C36.2834 94.9328 36.5862 94.8073 36.8095 94.5839C37.0329 94.3606 37.1585 94.0577 37.1588 93.7419V92.3881C37.158 91.8688 36.999 91.3621 36.7029 90.9354C36.4069 90.5088 35.9879 90.1825 35.5017 90Z" fill="#4D4D4D"/>
<path d="M5.41553 28.5721V51.5313H10.1064V36.2183C10.1064 36.119 10.1459 36.0238 10.216 35.9537C10.2862 35.8835 10.3814 35.8441 10.4806 35.8441C10.5799 35.8441 10.675 35.8835 10.7452 35.9537C10.8154 36.0238 10.8548 36.119 10.8548 36.2183V39.0415C11.2106 38.9576 11.5276 38.7561 11.7547 38.4696C11.9817 38.1832 12.1055 37.8285 12.1061 37.463V23.5103H10.4773C9.1354 23.512 7.84891 24.0458 6.90001 24.9947C5.95111 25.9436 5.41726 27.2301 5.41553 28.5721ZM30.3363 23.5103H28.7075V37.4597C28.7083 37.8252 28.8321 38.1798 29.0592 38.4662C29.2862 38.7526 29.6031 38.9541 29.9588 39.0383V36.2183C29.9561 36.1676 29.9637 36.117 29.9811 36.0694C29.9986 36.0218 30.0256 35.9783 30.0605 35.9415C30.0954 35.9047 30.1374 35.8754 30.1839 35.8554C30.2305 35.8353 30.2807 35.825 30.3313 35.825C30.382 35.825 30.4322 35.8353 30.4788 35.8554C30.5253 35.8754 30.5673 35.9047 30.6022 35.9415C30.6371 35.9783 30.6641 36.0218 30.6815 36.0694C30.699 36.117 30.7066 36.1676 30.7039 36.2183V51.5346H35.3948V28.5721C35.3934 27.2306 34.86 25.9444 33.9118 24.9956C32.9635 24.0467 31.6777 23.5126 30.3363 23.5103ZM20.409 27.0372C19.4396 27.036 18.5054 26.6743 17.7879 26.0224C17.0705 25.3705 16.6212 24.4751 16.5275 23.5103H15.5021V33.6448H25.3126V23.5103H24.2872C24.1937 24.475 23.7447 25.3704 23.0274 26.0223C22.3102 26.6743 21.376 27.036 20.4068 27.0372H20.409Z" fill="#F4F5F4"/>
<path d="M17.253 21.0798V23.1384C17.2538 23.2627 17.2618 23.3869 17.277 23.5104C17.3687 24.2761 17.7379 24.9817 18.3148 25.4936C18.8917 26.0055 19.6362 26.2882 20.4074 26.2882C21.1786 26.2882 21.9231 26.0055 22.5 25.4936C23.0769 24.9817 23.4461 24.2761 23.5378 23.5104C23.553 23.3869 23.561 23.2627 23.5618 23.1384V21.0798C22.5773 21.5523 21.4994 21.7977 20.4074 21.7977C19.3155 21.7977 18.2375 21.5523 17.253 21.0798ZM6.3374 55.0322C6.33784 55.463 6.49362 55.8792 6.77616 56.2044C7.05871 56.5297 7.44906 56.7421 7.87558 56.8027C7.4116 56.3303 7.15184 55.6944 7.15231 55.0322C7.15231 54.9335 7.1915 54.8389 7.26127 54.7691C7.33103 54.6994 7.42565 54.6602 7.52431 54.6602C7.62297 54.6602 7.71759 54.6994 7.78735 54.7691C7.85712 54.8389 7.89631 54.9335 7.89631 55.0322C7.89689 55.5062 8.08545 55.9607 8.42064 56.2959C8.75583 56.631 9.21028 56.8196 9.68431 56.8202C9.79735 56.8199 9.90568 56.7749 9.98561 56.6949C10.0655 56.615 10.1106 56.5067 10.1109 56.3936V52.2755H6.3374V55.0322ZM13.8603 14.5093C13.8608 15.5311 14.1006 16.5385 14.5603 17.451C15.0201 18.3635 15.6871 19.1557 16.5079 19.7642C16.629 19.8536 16.7534 19.9387 16.881 20.0205C17.0087 20.1024 17.1254 20.1733 17.253 20.2387C18.2189 20.7718 19.3042 21.0514 20.4074 21.0514C21.5106 21.0514 22.5959 20.7718 23.5618 20.2387C23.6883 20.1689 23.8116 20.0936 23.9338 20.0205C24.0559 19.9475 24.1847 19.8536 24.3058 19.7642C25.127 19.1561 25.7943 18.364 26.2541 17.4514C26.7139 16.5388 26.9534 15.5311 26.9534 14.5093V11.9915H13.8625L13.8603 14.5093ZM30.7094 52.2755V56.3936C30.7097 56.5067 30.7547 56.615 30.8347 56.6949C30.9146 56.7749 31.0229 56.8199 31.1359 56.8202C31.6099 56.8196 32.0642 56.631 32.3992 56.2958C32.7342 55.9606 32.9226 55.5061 32.9229 55.0322C32.928 54.9369 32.9695 54.8471 33.0388 54.7815C33.1081 54.7158 33.1999 54.6793 33.2954 54.6793C33.3909 54.6793 33.4827 54.7158 33.552 54.7815C33.6213 54.8471 33.6628 54.9369 33.6679 55.0322C33.6684 55.6944 33.4087 56.3303 32.9447 56.8027C33.371 56.7418 33.7611 56.5293 34.0434 56.2041C34.3257 55.8789 34.4814 55.4628 34.4818 55.0322V52.2755H30.7094Z" fill="#FDDAC5"/>
<path d="M5.57154 90.7015C5.22802 90.8303 4.93189 91.0606 4.72258 91.3619C4.51327 91.6632 4.40072 92.0212 4.3999 92.388V93.7418C4.3999 93.8602 4.44691 93.9737 4.53059 94.0573C4.61426 94.141 4.72775 94.188 4.84608 94.188H18.5708C18.9584 94.1877 19.3301 94.0339 19.6045 93.7601C19.8789 93.4863 20.0337 93.1149 20.0348 92.7273V88.848H10.5494L5.57154 90.7015ZM35.2443 90.7015L30.2664 88.8469H20.7821V92.7273C20.7827 93.1156 20.9372 93.4878 21.2119 93.7623C21.4866 94.0367 21.8589 94.191 22.2472 94.1913H35.9675C36.086 94.1913 36.1996 94.1443 36.2834 94.0607C36.3673 93.977 36.4145 93.8636 36.4148 93.7451V92.388C36.4138 92.0211 36.301 91.6631 36.0915 91.3618C35.882 91.0606 35.5857 90.8302 35.2421 90.7015H35.2443Z" fill="#4C4C4C"/>
<path d="M27.9626 23.5103H26.0568V35.4688H27.9626V23.5103ZM14.7626 23.5103H12.8513V35.4688H14.7572L14.7626 23.5103ZM27.9626 37.4597V36.2183H25.6848C25.586 36.218 25.4914 36.1785 25.4217 36.1086C25.352 36.0387 25.3128 35.9439 25.3128 35.8452V34.3888H15.5023V35.8408C15.5023 35.8898 15.4926 35.9383 15.4739 35.9836C15.4551 36.0288 15.4276 36.07 15.393 36.1046C15.3583 36.1393 15.3172 36.1667 15.2719 36.1855C15.2267 36.2042 15.1782 36.2139 15.1292 36.2139H12.8513V37.4597C12.8507 38.0232 12.6494 38.568 12.2836 38.9966C11.9178 39.4251 11.4113 39.7095 10.855 39.7986V56.8168H29.959V39.7986C29.4027 39.7093 28.8964 39.4249 28.5306 38.9963C28.1649 38.5678 27.9635 38.0231 27.9626 37.4597ZM26.0568 47.4546C26.0568 47.5534 26.0176 47.6481 25.9479 47.7181C25.8782 47.788 25.7836 47.8274 25.6848 47.8277H15.1292C15.0304 47.8274 14.9358 47.788 14.8661 47.7181C14.7963 47.6481 14.7572 47.5534 14.7572 47.4546V39.1168C14.7572 39.068 14.7668 39.0196 14.7855 38.9744C14.8042 38.9293 14.8316 38.8883 14.8661 38.8538C14.9007 38.8192 14.9417 38.7918 14.9868 38.7731C15.0319 38.7544 15.0803 38.7448 15.1292 38.7448H25.6848C25.7337 38.7448 25.782 38.7544 25.8272 38.7731C25.8723 38.7918 25.9133 38.8192 25.9478 38.8538C25.9824 38.8883 26.0098 38.9293 26.0285 38.9744C26.0472 39.0196 26.0568 39.068 26.0568 39.1168V47.4546ZM10.855 88.103H20.035V68.2746C20.035 68.2258 20.0446 68.1774 20.0633 68.1323C20.082 68.0871 20.1094 68.0461 20.1439 68.0116C20.1785 67.977 20.2195 67.9496 20.2646 67.9309C20.3098 67.9122 20.3581 67.9026 20.407 67.9026C20.4558 67.9026 20.5042 67.9122 20.5493 67.9309C20.5945 67.9496 20.6355 67.977 20.67 68.0116C20.7046 68.0461 20.732 68.0871 20.7507 68.1323C20.7694 68.1774 20.779 68.2258 20.779 68.2746V88.103H29.959V57.5641H10.855V88.103ZM15.5023 47.0848H25.3128V39.491H15.5023V47.0848Z" fill="#67DCCB"/>
<path d="M14.1537 11.2463H26.6599C24.6597 10.4966 22.5428 10.1065 20.4068 10.0943C18.2708 10.1065 16.1538 10.4966 14.1537 11.2463ZM23.8071 2.98161V6.00015C23.8083 6.01613 23.8083 6.03217 23.8071 6.04815C23.8008 6.14696 23.7554 6.23919 23.681 6.30455C23.6067 6.36992 23.5094 6.40306 23.4106 6.3967C23.3118 6.39033 23.2195 6.34498 23.1542 6.27061C23.0888 6.19625 23.0557 6.09896 23.062 6.00015V2.05979C21.3411 1.46933 19.4724 1.46933 17.7515 2.05979V6.00015C17.7538 6.09586 17.7189 6.18874 17.6543 6.25936C17.5897 6.32999 17.5002 6.37288 17.4047 6.37908C17.3092 6.38528 17.2149 6.3543 17.1417 6.29263C17.0685 6.23095 17.022 6.14335 17.0119 6.04815C17.0107 6.03217 17.0107 6.01613 17.0119 6.00015V2.98161C15.7111 3.61769 14.6147 4.60566 13.847 5.8334C13.0794 7.06113 12.6712 8.47946 12.6689 9.92743V11.0423C12.8326 10.9696 12.9969 10.8998 13.162 10.8329C13.294 10.7794 13.4249 10.7238 13.5569 10.678C13.6889 10.6322 13.8242 10.5765 13.9573 10.5274C16.0217 9.7607 18.2046 9.36229 20.4068 9.35034C22.6089 9.3622 24.7919 9.76061 26.8562 10.5274C26.9904 10.5765 27.1235 10.6256 27.2577 10.678C27.3919 10.7303 27.5206 10.7794 27.6515 10.8329C27.8159 10.9005 27.9806 10.9703 28.1457 11.0423V9.92743C28.1438 8.47992 27.7363 7.06191 26.9695 5.83423C26.2026 4.60654 25.1071 3.61831 23.8071 2.98161Z" fill="#FABF08"/>
<path d="M35.5017 90L30.7017 88.2131V57.4822C30.8374 57.5362 30.9822 57.564 31.1282 57.564H32.6871C33.3585 57.5635 34.0022 57.2965 34.4769 56.8218C34.9516 56.3471 35.2186 55.7034 35.2191 55.032V52.2753H35.7646C35.8135 52.2755 35.8619 52.2659 35.9071 52.2473C35.9523 52.2286 35.9934 52.2013 36.028 52.1667C36.0625 52.1321 36.0899 52.091 36.1086 52.0458C36.1272 52.0006 36.1367 51.9522 36.1366 51.9033V28.572C36.1352 27.0327 35.523 25.5568 34.4345 24.4683C33.346 23.3798 31.8701 22.7677 30.3308 22.7662H24.3057V20.663C25.3437 20.006 26.1989 19.0974 26.7918 18.0216C27.3847 16.9458 27.6962 15.7375 27.6973 14.5091V11.9913H28.5177C28.5412 11.991 28.5645 11.9884 28.5875 11.9837H28.6104C28.6246 11.9837 28.6399 11.976 28.653 11.9706L28.6781 11.9597L28.7141 11.94L28.7359 11.9248C28.7473 11.9163 28.7582 11.9072 28.7686 11.8975L28.7871 11.88C28.7974 11.8695 28.8069 11.8582 28.8155 11.8462L28.8286 11.8277C28.8388 11.8133 28.8476 11.798 28.8548 11.7819C28.8548 11.7819 28.8548 11.772 28.8624 11.7677C28.8708 11.7476 28.8773 11.7268 28.8821 11.7055C28.8826 11.699 28.8826 11.6924 28.8821 11.6859V9.92731C28.8803 8.27874 28.3988 6.66632 27.4963 5.28671C26.5938 3.90711 25.3093 2.81996 23.7995 2.15786V1.79786C23.7995 1.72222 23.7764 1.64839 23.7333 1.58622C23.6902 1.52404 23.6292 1.47648 23.5584 1.44986C21.5225 0.68045 19.2758 0.68045 17.2399 1.44986C17.1691 1.47648 17.1081 1.52404 17.065 1.58622C17.0219 1.64839 16.9988 1.72222 16.9988 1.79786V2.16222C15.4911 2.82516 14.2087 3.91213 13.3077 5.29079C12.4066 6.66945 11.9259 8.28033 11.9239 9.92731V11.6259C11.9222 11.6429 11.9222 11.6601 11.9239 11.6771C11.9233 11.6837 11.9233 11.6902 11.9239 11.6968C11.9291 11.7179 11.9357 11.7387 11.9435 11.759C11.9435 11.7644 11.9435 11.7688 11.9511 11.7731C11.9582 11.7891 11.9666 11.8044 11.9762 11.819L11.9904 11.8375C11.9987 11.8497 12.0082 11.8611 12.0188 11.8713C12.0188 11.8779 12.0308 11.8833 12.0373 11.8899L12.069 11.916L12.0919 11.9313C12.1034 11.9384 12.1154 11.9446 12.1279 11.9499C12.1355 11.9545 12.1436 11.9585 12.1519 11.9619C12.1661 11.9619 12.1802 11.9706 12.1944 11.975H12.2173C12.2403 11.9797 12.2637 11.9823 12.2871 11.9826H13.1075V14.5091C13.1083 15.7379 13.4196 16.9466 14.0125 18.0228C14.6055 19.0991 15.4608 20.008 16.4991 20.6651V22.7684H10.4773C8.93835 22.7699 7.46279 23.3817 6.37436 24.4697C5.28594 25.5577 4.67353 27.0331 4.67151 28.572V51.9033C4.67151 51.9522 4.68113 52.0005 4.69983 52.0457C4.71852 52.0908 4.74593 52.1318 4.78047 52.1664C4.81501 52.2009 4.85602 52.2283 4.90115 52.247C4.94629 52.2657 4.99466 52.2753 5.04351 52.2753H5.58897V55.032C5.5894 55.365 5.6554 55.6946 5.7832 56.002C5.91101 56.3094 6.09812 56.5887 6.33384 56.8238C6.56957 57.0589 6.8493 57.2453 7.15706 57.3723C7.46481 57.4993 7.79458 57.5645 8.12751 57.564H9.69078C9.83462 57.5628 9.977 57.5351 10.1108 57.4822V88.2164L5.31188 90C4.82571 90.1825 4.4067 90.5088 4.11065 90.9354C3.81461 91.3621 3.65559 91.8688 3.65479 92.3881L3.65479 93.7419C3.65507 94.0577 3.78068 94.3606 4.00402 94.5839C4.22736 94.8073 4.5302 94.9328 4.84606 94.9331H18.5708C18.934 94.9332 19.2916 94.8436 19.6118 94.6723C19.9321 94.5011 20.2052 94.2534 20.4068 93.9513C20.6086 94.2534 20.8819 94.5011 21.2023 94.6723C21.5228 94.8436 21.8805 94.9332 22.2439 94.9331H35.9675C36.2834 94.9328 36.5862 94.8073 36.8095 94.5839C37.0329 94.3606 37.1585 94.0577 37.1588 93.7419V92.3881C37.158 91.8688 36.999 91.3621 36.7029 90.9354C36.4069 90.5088 35.9879 90.1825 35.5017 90ZM34.4762 55.0288C34.4758 55.4594 34.3202 55.8755 34.0379 56.2007C33.7556 56.5259 33.3655 56.7384 32.9391 56.7993C33.4031 56.3268 33.6629 55.691 33.6624 55.0288C33.6573 54.9335 33.6158 54.8437 33.5465 54.7781C33.4772 54.7124 33.3853 54.6758 33.2899 54.6758C33.1944 54.6758 33.1026 54.7124 33.0333 54.7781C32.964 54.8437 32.9225 54.9335 32.9173 55.0288C32.917 55.5027 32.7287 55.9572 32.3937 56.2924C32.0587 56.6276 31.6043 56.8162 31.1304 56.8168C31.0174 56.8165 30.9091 56.7715 30.8291 56.6915C30.7492 56.6116 30.7042 56.5033 30.7039 56.3902V52.2753H34.4762V55.0288ZM28.7075 23.5102H30.3362C31.6783 23.5117 32.9649 24.0454 33.9139 24.9944C34.8629 25.9434 35.3966 27.23 35.3981 28.572V51.5313H30.7093V36.2182C30.7121 36.1676 30.7045 36.117 30.687 36.0694C30.6695 36.0218 30.6425 35.9783 30.6076 35.9415C30.5728 35.9047 30.5308 35.8754 30.4842 35.8553C30.4376 35.8353 30.3875 35.825 30.3368 35.825C30.2861 35.825 30.2359 35.8353 30.1894 35.8553C30.1428 35.8754 30.1008 35.9047 30.0659 35.9415C30.0311 35.9783 30.0041 36.0218 29.9866 36.0694C29.9691 36.117 29.9615 36.1676 29.9642 36.2182V39.0415C29.6086 38.9574 29.2916 38.7558 29.0646 38.4694C28.8376 38.183 28.7137 37.8284 28.713 37.463L28.7075 23.5102ZM26.0566 23.5102H27.9624V35.4688H26.0566V23.5102ZM13.1621 10.8328C12.997 10.9004 12.8326 10.9702 12.669 11.0422V9.92731C12.6699 8.47918 13.0769 7.06033 13.8436 5.83181C14.6103 4.60329 15.706 3.61431 17.0064 2.97713V6.00004C17.0053 6.01602 17.0053 6.03206 17.0064 6.04804C17.0165 6.14324 17.0631 6.23084 17.1363 6.29251C17.2095 6.35419 17.3037 6.38517 17.3993 6.37897C17.4948 6.37277 17.5842 6.32987 17.6489 6.25925C17.7135 6.18863 17.7483 6.09575 17.7461 6.00004V2.05968C19.467 1.46922 21.3357 1.46922 23.0566 2.05968V6.00004C23.0543 6.09575 23.0892 6.18863 23.1538 6.25925C23.2184 6.32987 23.3079 6.37277 23.4034 6.37897C23.4989 6.38517 23.5931 6.35419 23.6664 6.29251C23.7396 6.23084 23.7861 6.14324 23.7962 6.04804C23.7974 6.03206 23.7974 6.01602 23.7962 6.00004V2.9815C25.0982 3.61666 26.196 4.60423 26.9649 5.83204C27.7337 7.05984 28.1428 8.47865 28.1457 9.92731V11.0422C27.9813 10.9695 27.8166 10.8997 27.6515 10.8328C27.5206 10.7793 27.3886 10.7237 27.2577 10.6779C27.1268 10.632 26.9904 10.5764 26.8562 10.5273C24.7919 9.7605 22.6089 9.36208 20.4068 9.35022C18.2047 9.36217 16.0217 9.76058 13.9573 10.5273C13.8242 10.5764 13.6901 10.6255 13.557 10.6779C13.4239 10.7302 13.2941 10.7793 13.1621 10.8328ZM26.6599 11.2462H14.1537C16.1538 10.4964 18.2708 10.1064 20.4068 10.0942C22.5428 10.1064 24.6598 10.4964 26.6599 11.2462ZM13.8602 14.5091V11.9913H26.9511V14.5091C26.9511 15.531 26.7116 16.5386 26.2518 17.4512C25.792 18.3638 25.1247 19.1559 24.3035 19.764C24.1824 19.8535 24.0581 19.9386 23.9315 20.0204C23.805 20.1022 23.6861 20.1731 23.5595 20.2386C22.5936 20.7717 21.5084 21.0513 20.4051 21.0513C19.3019 21.0513 18.2167 20.7717 17.2508 20.2386C17.1231 20.1688 16.9999 20.0935 16.8788 20.0204C16.7577 19.9473 16.6268 19.8535 16.5057 19.764C15.6852 19.1553 15.0187 18.3631 14.5593 17.4506C14.0999 16.5381 13.8605 15.5307 13.8602 14.5091ZM23.5617 21.0819V23.1382C23.5609 23.2626 23.5529 23.3868 23.5377 23.5102C23.446 24.276 23.0768 24.9816 22.4999 25.4935C21.9231 26.0054 21.1786 26.2881 20.4073 26.2881C19.6361 26.2881 18.8916 26.0054 18.3147 25.4935C17.7379 24.9816 17.3687 24.276 17.277 23.5102C17.2618 23.3868 17.2538 23.2626 17.253 23.1382V21.0797C18.2374 21.5522 19.3154 21.7975 20.4073 21.7975C21.4993 21.7975 22.5773 21.5522 23.5617 21.0797V21.0819ZM15.5021 23.5102H16.5275C16.6192 24.4759 17.0676 25.3726 17.7852 26.0253C18.5028 26.6779 19.4379 27.0396 20.4079 27.0396C21.3779 27.0396 22.313 26.6779 23.0305 26.0253C23.7481 25.3726 24.1965 24.4759 24.2882 23.5102H25.3137V33.6448H15.5021V23.5102ZM12.8511 23.5102H14.757V35.4688H12.8511V23.5102ZM12.8511 37.4597V36.2182H15.129C15.2279 36.2182 15.3228 36.1789 15.3928 36.1089C15.4627 36.039 15.5021 35.9441 15.5021 35.8451V34.3888H25.3126V35.8408C25.3126 35.9395 25.3518 36.0343 25.4215 36.1042C25.4912 36.1741 25.5858 36.2136 25.6846 36.2139H27.9624V37.4597C27.9633 38.0231 28.1647 38.5678 28.5304 38.9963C28.8962 39.4248 29.4025 39.7092 29.9588 39.7986V56.8168H10.8548V39.7986C11.4111 39.7094 11.9176 39.4251 12.2834 38.9965C12.6492 38.568 12.8505 38.0231 12.8511 37.4597ZM5.41551 51.5324V28.572C5.41724 27.2301 5.9511 25.9436 6.9 24.9947C7.8489 24.0458 9.13538 23.512 10.4773 23.5102H12.1061V37.4597C12.1055 37.8252 11.9817 38.1799 11.7546 38.4663C11.5276 38.7528 11.2105 38.9543 10.8548 39.0382V36.2182C10.8548 36.1196 10.8156 36.0249 10.7458 35.9552C10.6761 35.8854 10.5814 35.8462 10.4828 35.8462C10.3841 35.8462 10.2895 35.8854 10.2197 35.9552C10.15 36.0249 10.1108 36.1196 10.1108 36.2182V51.5346L5.41551 51.5324ZM9.68424 56.8211C9.21021 56.8206 8.75576 56.632 8.42057 56.2968C8.08538 55.9616 7.89682 55.5072 7.89624 55.0331C7.89624 54.9345 7.85705 54.8399 7.78728 54.7701C7.71752 54.7003 7.6229 54.6611 7.52424 54.6611C7.42558 54.6611 7.33096 54.7003 7.2612 54.7701C7.19143 54.8399 7.15224 54.9345 7.15224 55.0331C7.15177 55.6953 7.41152 56.3312 7.87551 56.8037C7.44899 56.743 7.05864 56.5306 6.77609 56.2054C6.49355 55.8802 6.33777 55.464 6.33733 55.0331V52.2753H10.1108V56.3935C10.1105 56.5065 10.0655 56.6149 9.98553 56.6948C9.9056 56.7747 9.79728 56.8198 9.68424 56.82V56.8211ZM20.0348 92.7273C20.0345 93.1155 19.8802 93.4877 19.6057 93.7622C19.3312 94.0367 18.959 94.191 18.5708 94.1913H4.84606C4.72772 94.1913 4.61423 94.1443 4.53056 94.0606C4.44688 93.977 4.39988 93.8635 4.39988 93.7451V92.3881C4.40069 92.0212 4.51324 91.6633 4.72255 91.362C4.93186 91.0607 5.228 90.8303 5.57151 90.7015L10.5493 88.847H20.0402L20.0348 92.7273ZM20.4068 67.9059C20.3081 67.9059 20.2135 67.9451 20.1437 68.0148C20.074 68.0846 20.0348 68.1792 20.0348 68.2779V88.103H10.8548V57.564H29.9588V88.103H20.7821V68.2746C20.7822 68.2254 20.7726 68.1767 20.7537 68.1313C20.7349 68.0859 20.7072 68.0447 20.6723 68.0101C20.6374 67.9754 20.5959 67.9481 20.5503 67.9297C20.5047 67.9112 20.4559 67.902 20.4068 67.9026V67.9059ZM36.4148 93.7419C36.4145 93.8603 36.3672 93.9738 36.2834 94.0574C36.1995 94.1411 36.0859 94.188 35.9675 94.188H22.2439C21.8567 94.1869 21.4857 94.0327 21.2119 93.759C20.938 93.4853 20.7835 93.1145 20.7821 92.7273V88.848H30.2675L35.2453 90.7026C35.589 90.8313 35.8852 91.0617 36.0947 91.363C36.3042 91.6642 36.417 92.0222 36.4181 92.3891L36.4148 93.7419ZM15.129 47.8288H25.6846C25.7834 47.8285 25.878 47.789 25.9477 47.7191C26.0174 47.6492 26.0566 47.5544 26.0566 47.4557V39.1168C26.0566 39.0679 26.047 39.0195 26.0283 38.9744C26.0096 38.9293 25.9822 38.8883 25.9476 38.8537C25.9131 38.8192 25.8721 38.7918 25.827 38.7731C25.7818 38.7544 25.7335 38.7448 25.6846 38.7448H15.129C15.0801 38.7448 15.0317 38.7544 14.9866 38.7731C14.9415 38.7918 14.9005 38.8192 14.8659 38.8537C14.8314 38.8883 14.804 38.9293 14.7853 38.9744C14.7666 39.0195 14.757 39.0679 14.757 39.1168V47.4546C14.7568 47.5036 14.7663 47.5521 14.7849 47.5975C14.8036 47.6428 14.8309 47.684 14.8655 47.7187C14.9 47.7535 14.9411 47.7811 14.9863 47.8C15.0315 47.8188 15.08 47.8286 15.129 47.8288ZM15.5021 39.491H25.3126V47.0837H15.5021V39.491Z" fill="#4D4D4D"/>
</svg>
