<svg width="444" height="263" viewBox="0 0 444 263" fill="none" xmlns="http://www.w3.org/2000/svg">
<g clip-path="url(#clip0)">
<g opacity="0.07">
<path d="M78.2 53.8299C78.2 53.8299 75.85 47.2699 71.7 44.9999C67.55 42.7299 63.18 47.7099 63.18 47.7099C63.18 47.7099 59.44 36.4999 50 36.6099C39.9 36.7199 33.83 54.6799 33.83 54.6799C30.73 55.1299 27.91 58.7899 27.91 58.7899L84.52 58.8799C82.87 56.3599 78.2 53.8299 78.2 53.8299Z" fill="black"/>
<path d="M216.6 66.1799C216.6 66.1799 207.6 46.1799 193.87 48.8399C185.31 50.4999 180.87 62.2399 180.87 62.2399C180.87 62.2399 174.42 52.9799 169.24 54.7699C164.06 56.5599 161 66.3899 161 66.3899C161 66.3899 155.66 68.9699 154.85 71.5499L226.44 71.6599C226.44 71.6599 226.46 67.0899 216.6 66.1799Z" fill="black"/>
<path d="M159.1 16.25C157.1 16.25 151.1 1.88997 143.51 2.48997C135.92 3.08997 131.83 13.77 131.83 13.77C131.83 13.77 122.58 10.85 117.05 20.46L165.73 20.54C165.73 20.54 161.14 16.26 159.1 16.25Z" fill="black"/>
<path d="M266.51 32.49C266.51 32.49 262.09 19.27 254.66 19.16C247.76 19.07 244.97 27.27 244.97 27.27C244.97 27.27 241.78 23.59 238.72 25.27C235.66 26.95 233.92 31.76 233.92 31.76C233.92 31.76 230.48 33.61 229.23 35.46L270.86 35.53C270.86 35.53 268.79 32.83 266.51 32.49Z" fill="black"/>
</g>
<path d="M437.51 87.48C437.54 105.962 431.687 123.975 420.8 138.91C412.002 151.016 400.244 160.663 386.653 166.927C373.061 173.192 358.09 175.865 343.17 174.69C328.251 173.516 313.882 168.534 301.438 160.22C288.994 151.906 278.891 140.539 272.095 127.205C265.299 113.871 262.037 99.0168 262.622 84.0624C263.206 69.1081 267.618 54.5538 275.434 41.7913C283.25 29.0289 294.21 18.4851 307.265 11.1682C320.32 3.85125 335.034 0.00596403 350 0C352.4 0 354.777 0.0966667 357.13 0.29C370.685 1.37079 383.796 5.61802 395.41 12.69C408.26 20.4886 418.884 31.468 426.255 44.5685C433.626 57.669 437.495 72.4483 437.49 87.48H437.51Z" fill="#EBEBEB"/>
<path d="M368.92 128.78C367.81 131.72 369.65 131.84 369.77 133.06C369.89 134.28 369.77 136.62 366.22 140.17C362.67 143.72 356.79 142.99 355.56 144.46C354.33 145.93 352.25 152.18 349.31 154.26C346.37 156.34 345.88 155.12 341.72 155.98C337.56 156.84 334.36 162.22 333.14 164.8C331.92 167.38 333.38 171.66 330.44 171.8C327.5 171.94 326.15 165.55 323.44 162.12C320.73 158.69 319.89 155.63 319.03 151.58C318.17 147.53 319.52 139.09 319.03 135.78C318.54 132.47 309.72 126.59 306.53 122.55C303.34 118.51 299 110.4 299.2 107.7C299.568 105.083 300.871 102.689 302.87 100.96C304.34 99.86 303.73 99.25 303.98 98.27C304.23 97.29 305.45 97.04 305.69 95.82C305.93 94.6 304.96 90.91 303.69 90.3C302.42 89.69 301.61 91.77 300.87 91.4C300.13 91.03 297.93 88.46 297.08 88.22C296.23 87.98 296.46 89.81 295.24 87.48C294.02 85.15 293.4 79.27 292.42 78.29C291.44 77.31 290.7 80.01 288.42 78.29C286.14 76.57 285.11 73.29 284.13 72.78C283.15 72.27 281.8 72.9 280.79 70.94C279.78 68.98 281.68 65.43 280.79 65.8C279.9 66.17 278 68.98 277.51 66.29C277.02 63.6 279.96 54.52 279.51 49.62C279.123 44.4535 280.799 39.3441 284.17 35.41C284.17 35.41 284.66 32.71 285.17 31C285.68 29.29 296.17 22.42 297.42 20.46C297.926 19.3649 298.221 18.1843 298.29 16.98C313.27 5.94106 331.392 -0.00963336 350 1.17063e-05C352.4 1.17063e-05 354.777 0.0966784 357.13 0.290012L357.38 0.610012C358.46 2.00001 359.6 2.82001 362.71 4.00001C365.82 5.18001 366.55 6.61001 365.89 7.84001C365.596 8.33532 365.17 8.73897 364.66 9.00568C364.149 9.27239 363.574 9.39163 363 9.35001C361.78 9.43001 360.63 8.78001 359.33 9.60001C358.03 10.42 356.71 14.83 355 15.07C353.29 15.31 350.26 11.15 349.61 9.92001C348.96 8.69001 351 6.08001 350 4.86001C349 3.64001 347.25 3.86001 344.47 3.63001C341.69 3.40001 335.24 4.45001 335.47 5.51001C335.7 6.57001 344.94 5.35001 345.19 7.51001C345.44 9.67001 338.41 13.23 337.19 12.91C335.97 12.59 334.33 10.45 332.54 10.21C330.75 9.97001 329.27 11.43 328.14 11.6C327.01 11.77 325.68 10.37 323.96 10.7C322.24 11.03 321.84 12.5 320.96 13.07C320.08 13.64 317.96 13.64 317.69 14.95C317.42 16.26 320.39 16.95 321.12 17.81C321.85 18.67 320.22 21.4 320.96 21.97C321.7 22.54 326.27 18.54 327.41 17.56C328.55 16.58 329.53 12.33 331.98 12.42C334.43 12.51 335.25 16.66 336.07 17.07C336.89 17.48 338.68 16.07 341.38 16.66C344.08 17.25 345.95 23.12 346.44 24.91C346.93 26.7 348.08 28.51 347.1 29.24C346.12 29.97 341.71 28.75 341.1 27.61C340.49 26.47 344.04 24.75 343.8 24.34C343.316 24.0054 342.754 23.7987 342.169 23.7393C341.583 23.6798 340.992 23.7695 340.45 24C339.39 24.64 338.9 26 337.75 26.3C336.6 26.6 333.59 23.2 332.75 24.18C331.91 25.16 333.57 28.26 334.38 29C335.19 29.74 338.22 30.14 338.47 31C338.72 31.86 336.47 33.61 333.65 33.45C330.83 33.29 328.59 31.16 327.52 32.06C326.45 32.96 327.03 35.33 326.3 36.14C325.57 36.95 321.56 36.39 319.6 38.51C317.64 40.63 316.74 43.82 314.78 45.62C312.82 47.42 311.92 45.13 309.31 47.62C306.7 50.11 306.31 55.79 306.2 57.75C306.09 59.71 306.2 61.26 305.55 61.02C304.9 60.78 304 59.02 303.75 58.02C303.5 57.02 304.33 55.17 304.33 54.51C304.33 53.85 300.57 50.51 298.33 50.18C296.09 49.85 294.17 51.65 292.53 52.96C290.89 54.27 288.05 54 287 55C285.95 56 285.12 65.46 285.93 67.67C286.74 69.88 287.81 69.87 290.43 68.73C293.05 67.59 291.57 65.38 293.12 65.87C293.819 66.1302 294.421 66.5986 294.845 67.2121C295.269 67.8255 295.494 68.5544 295.49 69.3C295.49 70.61 292.39 73.71 292.8 74.61C293.21 75.51 295.9 74.44 297.21 74.85C298.52 75.26 299.21 76.08 298.76 79.43C298.31 82.78 298.6 85.43 300.56 86.49C302.52 87.55 303.62 84.9 304.48 85.27C305.34 85.64 306.56 87.6 307.79 87.47C309.02 87.34 308.4 86.25 310.73 85.47C313.06 84.69 312.2 84.25 312.73 82.78C313.26 81.31 314.73 80.08 316.28 80.78C317.83 81.48 316.77 82.62 316.89 83.84C317.01 85.06 319.78 85.28 322 86C324.22 86.72 325.43 86 329.84 87.47C334.25 88.94 334.5 93.35 336.33 94.09C338.16 94.83 344.33 93.6 348.71 96.79C353.09 99.98 351.89 105.85 354.1 107.57C356.31 109.29 364.51 111.57 367.7 112.22C370.89 112.87 371.38 110.63 373.95 111.22C376.52 111.81 377.95 112.57 378.85 116.12C379.6 119.28 370 125.83 368.92 128.78Z" fill="#DBDBDB"/>
<path d="M303.08 66.12C303.16 66.82 305.2 67.12 307.65 68.49C310.1 69.86 311 74 312.31 73.88C313.62 73.76 313.21 71.88 313.7 71.43C313.912 71.285 314.086 71.0903 314.206 70.8629C314.327 70.6355 314.389 70.3822 314.389 70.125C314.389 69.8678 314.327 69.6145 314.206 69.387C314.086 69.1596 313.912 68.9649 313.7 68.82C312.39 67.76 311.12 65.47 308.7 65.14C306.28 64.81 305.91 63.84 304.85 63.92C304.581 63.925 304.316 63.989 304.074 64.1076C303.832 64.2262 303.62 64.3964 303.451 64.6062C303.282 64.816 303.161 65.0603 303.097 65.3219C303.033 65.5835 303.027 65.8559 303.08 66.12Z" fill="#DBDBDB"/>
<path d="M316.56 73C316.19 74 316.56 74.72 319.17 75.37C321.78 76.02 324.23 74.72 323.42 74.19C322.61 73.66 321.42 73.9 321.87 73C322.32 72.1 322.19 70.8 320.07 71C317.95 71.2 316.88 72.09 316.56 73Z" fill="#DBDBDB"/>
<path d="M325.71 73.2601C324.81 73.3901 324.32 74.9501 325.21 75.9301C326.1 76.9101 326.11 76.7401 327.21 75.9301C328.31 75.1201 329.9 74.7001 329.49 73.8801C329.08 73.0601 326.6 73.1301 325.71 73.2601Z" fill="#DBDBDB"/>
<path d="M332.81 76.6C333.21 75.38 335.26 76.6 336.16 77.89C337.06 79.18 336.65 81.07 336.16 82.46C335.67 83.85 335.34 85.46 334.16 84.83C332.98 84.2 334.24 82.22 334.08 81.07C333.92 79.92 332.48 77.6 332.81 76.6Z" fill="#DBDBDB"/>
<path d="M368 8.45001C367.57 9.45001 369.55 9.84001 370.69 10.5C371.83 11.16 372.74 11.56 373.39 10.5C373.5 10.2639 373.558 10.0068 373.559 9.74635C373.56 9.4859 373.506 9.2282 373.398 8.99087C373.291 8.75353 373.134 8.54214 372.937 8.37114C372.741 8.20013 372.51 8.07354 372.26 8.00001C371.37 7.72001 368.43 7.47001 368 8.45001Z" fill="#DBDBDB"/>
<path d="M383.46 18C384.21 18.8 385.46 18.65 386.4 19.8C387.34 20.95 386.97 22.9 388.11 23.47C389.25 24.04 390.11 23.47 390.11 22.66C390.11 21.85 388.48 19.8 388.64 19.39C388.8 18.98 391.01 19.96 391.5 21.19C391.99 22.42 391.01 24.13 392.16 24.45C393.31 24.77 393.05 23.31 393.54 22.98C394.03 22.65 395.1 22.82 395.01 21.84C394.632 20.3378 393.788 18.9936 392.6 18C391.547 17.0603 390.291 16.376 388.93 16C388.191 15.7901 387.415 15.7396 386.655 15.8516C385.895 15.9637 385.167 16.2358 384.52 16.65C383.62 17.44 383 17.52 383.46 18Z" fill="#DBDBDB"/>
<path d="M418.8 33.41C418.745 33.7391 418.583 34.0412 418.34 34.27C416.62 35.49 414.58 31.27 412.21 30.43C409.84 29.59 408.78 26.59 408.29 27.24C407.8 27.89 407.96 28.79 407.23 29.85C406.5 30.91 405.43 30.67 404.94 32.71C404.45 34.75 407.23 38.51 406.57 39.71C405.91 40.91 405.1 40.53 403.79 40.45C402.48 40.37 402.73 41.51 401.02 41.02C399.31 40.53 400.77 38.4 398.08 35.87C395.39 33.34 394.48 32.87 395.08 31.7C395.68 30.53 394.83 28.93 396.08 28.76C397.33 28.59 398.28 30.4 399.08 30.89C399.88 31.38 400.96 29.89 401.08 28.6C401.2 27.31 398.22 25.5 397.16 24.48C396.1 23.46 396.01 19.78 396.42 19.04C396.83 18.3 398.06 18.55 398.42 16.76C398.61 15.7 396.94 13.94 395.53 12.66C404.462 18.1339 412.343 25.1612 418.8 33.41Z" fill="#DBDBDB"/>
<path d="M431 106.64C431.24 104.02 429.93 103.86 431.24 99.04C432.55 94.22 429.85 89.04 428.87 88.04C427.89 87.04 425.77 87.3 424.05 88.36C422.33 89.42 423.56 90.24 422.42 90.65C421.28 91.06 420.13 90.4 419.07 90.49C418.01 90.58 417.07 93.26 414.74 93.18C412.41 93.1 410.98 89.83 409.27 87.5C407.56 85.17 404.04 83.71 402.9 80.85C401.76 77.99 403.96 73.58 403.47 70.23C402.98 66.88 400.77 67.61 400.36 65.74C399.95 63.87 400.69 64.74 401.26 62.96C401.83 61.18 400.61 60.18 401.75 57.08C402.89 53.98 404.94 52.42 404.45 51.03C403.96 49.64 402.45 47.36 402.32 45.73C402.19 44.1 403.88 44.17 406.98 41.88C410.08 39.59 410.9 39.76 413.27 40.58C414.974 41.1872 416.723 41.662 418.5 42C419.89 42.24 421.77 45.84 422.34 45.67C422.91 45.5 422.99 44.45 423.24 42.9C423.385 42.2247 423.734 41.6103 424.24 41.14C433.457 55.9259 438.051 73.126 437.434 90.5383C436.818 107.951 431.019 124.783 420.78 138.88C429.13 126.19 430.75 109.25 431 106.64Z" fill="#DBDBDB"/>
<path d="M297.42 37.5901C297.42 37.5901 297.75 37.4801 298.42 37.3101" stroke="#C7C7C7" stroke-width="0.75" stroke-miterlimit="10"/>
<path d="M300.32 36.77C314.26 33.09 375.41 19.77 413.43 56.93" stroke="#C7C7C7" stroke-width="0.75" stroke-miterlimit="10" stroke-dasharray="2.02 2.02"/>
<path d="M414.15 57.65L414.86 58.36" stroke="#C7C7C7" stroke-width="0.75" stroke-miterlimit="10"/>
<path d="M317.37 90.45C317.314 90.1197 317.298 89.7841 317.32 89.45" stroke="#C7C7C7" stroke-width="0.75" stroke-miterlimit="10"/>
<path d="M317.42 87.48C318 78.69 319.84 53.71 299.07 38.73" stroke="#C7C7C7" stroke-width="0.75" stroke-miterlimit="10" stroke-dasharray="1.99 1.99"/>
<path d="M298.26 38.15C297.98 37.96 297.71 37.77 297.42 37.59" stroke="#C7C7C7" stroke-width="0.75" stroke-miterlimit="10"/>
<path d="M318.33 87.48L319.01 86.76" stroke="#C7C7C7" stroke-width="0.75" stroke-miterlimit="10"/>
<path d="M320.45 85.3599C328.75 77.5299 361.09 51.0599 412.86 58.0799" stroke="#C7C7C7" stroke-width="0.75" stroke-miterlimit="10" stroke-dasharray="2.01 2.01"/>
<path d="M413.86 58.22L414.86 58.36" stroke="#C7C7C7" stroke-width="0.75" stroke-miterlimit="10"/>
<path d="M347.18 101.93C347.18 101.93 347.24 101.59 347.31 100.93" stroke="#C7C7C7" stroke-width="0.75" stroke-miterlimit="10"/>
<path d="M347.48 98.93C348.12 88.37 346.61 52.76 299.37 38.17" stroke="#C7C7C7" stroke-width="0.75" stroke-miterlimit="10" stroke-dasharray="2.03 2.03"/>
<path d="M298.38 37.87L297.38 37.59" stroke="#C7C7C7" stroke-width="0.75" stroke-miterlimit="10"/>
<path d="M414.86 58.36C414.86 58.36 414.52 58.42 413.86 58.57" stroke="#C7C7C7" stroke-width="0.75" stroke-miterlimit="10"/>
<path d="M411.94 59.05C398.87 62.51 345.84 80.51 335.4 146.78" stroke="#C7C7C7" stroke-width="0.75" stroke-miterlimit="10" stroke-dasharray="2.01 2.01"/>
<path d="M335.25 147.78L335.1 148.78" stroke="#C7C7C7" stroke-width="0.75" stroke-miterlimit="10"/>
<path d="M317.37 90.45C317.37 90.45 344.06 116.61 335.1 148.77" stroke="#C7C7C7" stroke-width="0.75" stroke-miterlimit="10" stroke-dasharray="2 2"/>
<path d="M302.91 28.44C302.64 25.69 300.75 22.96 297.42 22.96C294.09 22.96 292.22 25.69 291.94 28.44C291.52 32.67 294.38 36.51 297.42 40C300.47 36.51 303.33 32.67 302.91 28.44ZM297.42 31.44C296.827 31.44 296.247 31.2641 295.753 30.9344C295.26 30.6048 294.875 30.1363 294.648 29.5881C294.421 29.0399 294.362 28.4367 294.478 27.8548C294.593 27.2728 294.879 26.7383 295.299 26.3187C295.718 25.8991 296.253 25.6134 296.835 25.4977C297.417 25.3819 298.02 25.4413 298.568 25.6684C299.116 25.8954 299.585 26.28 299.914 26.7733C300.244 27.2667 300.42 27.8467 300.42 28.44C300.425 28.8373 300.352 29.2318 300.203 29.6004C300.055 29.969 299.835 30.3044 299.556 30.5872C299.276 30.8701 298.944 31.0946 298.577 31.2479C298.211 31.4012 297.817 31.4801 297.42 31.48V31.44Z" fill="#A6A6A6"/>
<path d="M351.63 92.48C351.36 89.74 349.47 87.01 346.15 87.01C342.83 87.01 340.94 89.74 340.67 92.48C340.25 96.72 343.1 100.55 346.15 104.05C349.2 100.55 352.05 96.72 351.63 92.48ZM346.15 95.48C345.557 95.48 344.977 95.3041 344.483 94.9744C343.99 94.6448 343.605 94.1762 343.378 93.6281C343.151 93.0799 343.092 92.4767 343.208 91.8947C343.323 91.3128 343.609 90.7782 344.029 90.3587C344.448 89.9391 344.983 89.6534 345.565 89.5377C346.147 89.4219 346.75 89.4813 347.298 89.7084C347.846 89.9354 348.315 90.3199 348.644 90.8133C348.974 91.3066 349.15 91.8867 349.15 92.48C349.157 92.8782 349.084 93.2736 348.936 93.6434C348.788 94.0132 348.568 94.3498 348.289 94.6337C348.01 94.9176 347.677 95.1431 347.31 95.297C346.942 95.4508 346.548 95.5301 346.15 95.53V95.48Z" fill="#FFC727"/>
<path d="M321.92 80.58C321.65 77.84 319.76 75.11 316.44 75.11C313.12 75.11 311.23 77.84 310.95 80.58C310.53 84.81 313.39 88.65 316.44 92.15C319.48 88.65 322.34 84.81 321.92 80.58ZM316.44 83.58C315.847 83.58 315.267 83.404 314.773 83.0744C314.28 82.7448 313.895 82.2762 313.668 81.728C313.441 81.1799 313.382 80.5767 313.498 79.9947C313.613 79.4128 313.899 78.8782 314.319 78.4587C314.738 78.0391 315.273 77.7534 315.855 77.6376C316.437 77.5219 317.04 77.5813 317.588 77.8083C318.136 78.0354 318.605 78.4199 318.934 78.9133C319.264 79.4066 319.44 79.9866 319.44 80.58C319.447 80.9781 319.374 81.3736 319.226 81.7434C319.078 82.1132 318.858 82.4498 318.579 82.7337C318.3 83.0176 317.967 83.2431 317.6 83.3969C317.232 83.5508 316.838 83.63 316.44 83.63V83.58Z" fill="#A6A6A6"/>
<path d="M420.34 50.14C420.07 47.39 418.18 44.66 414.85 44.66C411.52 44.66 409.65 47.39 409.37 50.14C408.95 54.37 411.81 58.21 414.85 61.7C417.9 58.21 420.76 54.37 420.34 50.14ZM414.85 53.14C414.257 53.14 413.677 52.9641 413.183 52.6344C412.69 52.3048 412.305 51.8363 412.078 51.2881C411.851 50.7399 411.792 50.1367 411.908 49.5548C412.023 48.9728 412.309 48.4383 412.729 48.0187C413.148 47.5992 413.683 47.3134 414.265 47.1977C414.847 47.0819 415.45 47.1413 415.998 47.3684C416.546 47.5955 417.015 47.98 417.344 48.4733C417.674 48.9667 417.85 49.5467 417.85 50.14C417.855 50.5374 417.782 50.9318 417.633 51.3004C417.485 51.669 417.265 52.0044 416.986 52.2873C416.706 52.5701 416.374 52.7946 416.007 52.9479C415.641 53.1012 415.247 53.1801 414.85 53.18V53.14Z" fill="#A6A6A6"/>
<path d="M340.58 141.65C340.31 138.91 338.42 136.18 335.1 136.18C331.78 136.18 329.89 138.91 329.62 141.65C329.2 145.89 332.05 149.72 335.1 153.22C338.15 149.72 341 145.89 340.58 141.65ZM335.1 144.65C334.507 144.65 333.927 144.474 333.433 144.144C332.94 143.815 332.555 143.346 332.328 142.798C332.101 142.25 332.042 141.647 332.158 141.065C332.273 140.483 332.559 139.948 332.979 139.529C333.398 139.109 333.933 138.823 334.515 138.708C335.097 138.592 335.7 138.651 336.248 138.878C336.796 139.105 337.265 139.49 337.594 139.983C337.924 140.477 338.1 141.057 338.1 141.65C338.107 142.048 338.034 142.444 337.886 142.813C337.738 143.183 337.518 143.52 337.239 143.804C336.96 144.088 336.627 144.313 336.26 144.467C335.892 144.621 335.498 144.7 335.1 144.7V144.65Z" fill="#FFC727"/>
<path opacity="0.1" d="M231.98 262.44C348.998 262.44 443.86 257.264 443.86 250.88C443.86 244.496 348.998 239.32 231.98 239.32C114.962 239.32 20.1 244.496 20.1 250.88C20.1 257.264 114.962 262.44 231.98 262.44Z" fill="black"/>
<path d="M0 229.26L55.48 229.01L110.97 228.93L221.93 228.76L332.9 228.93L388.38 229.01L443.87 229.26L388.38 229.5L332.9 229.59L221.93 229.76L110.97 229.59L55.48 229.5L0 229.26Z" fill="#263238"/>
<path d="M76.11 229.25C76.11 229.25 74.92 223.69 72.55 222.84C70.18 221.99 68.72 224.47 68.72 224.47C68.72 224.47 68.16 219.16 64.79 217.58C61.42 216 58.89 219.24 58.89 219.24C58.89 219.24 56.3 212.5 51.67 212.5C47.04 212.5 44.67 222.36 44.67 222.36C44.67 222.36 41.94 219.42 39.15 221.08C36.36 222.74 36.35 229.25 36.35 229.25H76.11Z" fill="#455A64"/>
<path d="M164.27 229.25H122.47C122.47 229.25 123.84 223.35 126.62 222.94C129.4 222.53 130.68 225.25 130.68 225.25C130.68 225.25 130.55 217.03 135.68 215.63C140.81 214.23 145.2 221.49 145.2 221.49C145.2 221.49 148.44 217.35 152.87 217.62C157.3 217.89 158.41 224.73 158.41 224.73C158.41 224.73 162.49 222.35 164.27 229.25Z" fill="#37474F"/>
<path d="M42.1 229.25H20.1C20.1 229.25 20.1 225.97 22.31 225.1C22.8985 224.853 23.5504 224.801 24.1708 224.95C24.7913 225.099 25.348 225.443 25.76 225.93C25.76 225.93 26.64 219.93 30.67 219.93C34.7 219.93 36.67 225.12 36.67 225.12C37.0116 224.624 37.4908 224.238 38.0487 224.011C38.6066 223.783 39.2188 223.724 39.81 223.84C42 224.12 42.1 229.25 42.1 229.25Z" fill="#37474F"/>
<path d="M219.65 94.2L225.06 214.27H323.48L313.31 165.54L280.51 155.18C279.659 154.883 278.884 154.402 278.241 153.771C277.598 153.14 277.103 152.375 276.79 151.53L257.17 101.17L219.65 94.2Z" fill="#FFC727"/>
<path d="M230.5 106.84L232.95 150.16L268.47 153.49L253.17 108.42L230.5 106.84Z" fill="#455A64"/>
<g opacity="0.3">
<path opacity="0.3" d="M231.84 130.57L232.4 140.45L243.05 151.1L253.33 152.07L231.84 130.57Z" fill="white"/>
<path opacity="0.3" d="M237.76 107.35L260.54 130.13L258.14 123.07L242.77 107.7L237.76 107.35Z" fill="white"/>
<path opacity="0.3" d="M230.79 111.93L230.85 113.13L267.07 149.35L266.48 147.63L230.79 111.93Z" fill="white"/>
<path opacity="0.3" d="M232.61 144.1L232.68 145.3L238.01 150.63L239.26 150.75L232.61 144.1Z" fill="white"/>
</g>
<path d="M230.5 106.84L253.17 108.42L268.47 153.49L266.1 153.26L251.63 110.66L230.6 108.74L230.5 106.84Z" fill="#263238"/>
<path d="M279.01 156.26V212.44" stroke="#263238" stroke-miterlimit="10"/>
<path d="M317.63 165.66L309.63 164.4L314.3 180.88L318.42 180.45C318.86 180.402 319.263 180.186 319.547 179.846C319.83 179.507 319.971 179.071 319.94 178.63L319.06 167.21C319.029 166.829 318.872 166.469 318.612 166.188C318.353 165.907 318.007 165.721 317.63 165.66Z" fill="white"/>
<path d="M272.88 141.84C270.96 143.47 272.69 158.18 274.06 157.93C275.43 157.68 278.34 157.13 279.52 156.19C280.7 155.25 287.35 143.36 285.74 140.89C284.13 138.42 274.36 140.58 272.88 141.84Z" fill="#FFC727"/>
<path opacity="0.1" d="M272.88 141.84C270.96 143.47 272.69 158.18 274.06 157.93C275.43 157.68 278.34 157.13 279.52 156.19C280.7 155.25 287.35 143.36 285.74 140.89C284.13 138.42 274.36 140.58 272.88 141.84Z" fill="black"/>
<path opacity="0.1" d="M247.12 162.8H234.93V159.38L247.12 160.04V162.8Z" fill="black"/>
<path d="M222.34 214.27H19.99L30.7 69.9799L215.05 60.1899L222.34 214.27Z" fill="#FFC727"/>
<path d="M62.83 173.27C63.042 173.032 63.3362 172.883 63.6535 172.853C63.9708 172.824 64.2876 172.915 64.54 173.11C65.6501 174.198 67.1265 174.833 68.68 174.89C69.7408 174.89 70.7801 174.592 71.68 174.03C71.9993 173.855 72.2805 173.618 72.5071 173.333C72.7338 173.048 72.9013 172.72 73 172.37C73.0516 172.122 73.0272 171.864 72.93 171.63C72.7955 171.35 72.5883 171.112 72.33 170.94C71.4198 170.36 70.3976 169.978 69.33 169.82C68.3584 169.638 67.414 169.332 66.52 168.91C65.712 168.54 65.058 167.9 64.67 167.1C64.423 166.506 64.357 165.852 64.48 165.22C64.6417 164.519 64.944 163.858 65.3686 163.277C65.7931 162.696 66.3311 162.207 66.95 161.84C68.2102 161.034 69.6741 160.604 71.17 160.6C72.9071 160.66 74.5705 161.317 75.88 162.46C75.9959 162.561 76.0897 162.685 76.1555 162.825C76.2213 162.964 76.2577 163.115 76.2624 163.269C76.267 163.423 76.24 163.576 76.1828 163.719C76.1256 163.862 76.0395 163.992 75.93 164.1C75.7458 164.363 75.4676 164.545 75.153 164.608C74.8384 164.671 74.5115 164.611 74.24 164.44C73.2718 163.568 72.0314 163.059 70.73 163C69.7541 162.978 68.7937 163.246 67.97 163.77C67.6914 163.926 67.4469 164.137 67.2511 164.39C67.0553 164.642 66.9121 164.931 66.83 165.24C66.7748 165.458 66.7997 165.689 66.9 165.89C67.0126 166.127 67.1849 166.33 67.4 166.48C68.2308 167.006 69.1654 167.348 70.14 167.48C71.1827 167.668 72.193 168.005 73.14 168.48C74.0041 168.871 74.7094 169.545 75.14 170.39C75.4065 171.021 75.4728 171.72 75.33 172.39C75.1594 173.132 74.8413 173.832 74.3947 174.449C73.948 175.066 73.3819 175.586 72.73 175.98C71.3794 176.839 69.8109 177.294 68.21 177.29C66.1309 177.248 64.1461 176.415 62.66 174.96C62.5575 174.839 62.4804 174.699 62.4333 174.547C62.3863 174.396 62.3702 174.237 62.3861 174.079C62.4019 173.921 62.4494 173.768 62.5257 173.629C62.602 173.49 62.7055 173.368 62.83 173.27Z" fill="#263238"/>
<path d="M82.85 170.25L81.85 175.96C81.7799 176.321 81.5893 176.647 81.3094 176.885C81.0296 177.123 80.6772 177.259 80.31 177.27C80.1501 177.274 79.9913 177.243 79.8452 177.178C79.6992 177.112 79.5696 177.015 79.4659 176.894C79.3623 176.772 79.2874 176.628 79.2465 176.474C79.2057 176.319 79.2 176.157 79.23 176L81.69 161.95C81.7695 161.589 81.9669 161.264 82.2511 161.027C82.5352 160.789 82.8901 160.653 83.26 160.64C83.4232 160.636 83.5852 160.669 83.7335 160.737C83.8819 160.805 84.0128 160.906 84.116 161.033C84.2193 161.159 84.2923 161.308 84.3294 161.467C84.3664 161.626 84.3667 161.791 84.33 161.95L83.33 167.67H89.5L90.5 161.95C90.5786 161.592 90.773 161.269 91.0532 161.033C91.3333 160.796 91.6836 160.658 92.05 160.64C92.2143 160.635 92.3776 160.667 92.5275 160.734C92.6774 160.802 92.81 160.902 92.9151 161.029C93.0202 161.155 93.0951 161.304 93.1341 161.463C93.1731 161.623 93.1751 161.789 93.14 161.95L90.67 176C90.5945 176.36 90.401 176.684 90.1202 176.921C89.8394 177.159 89.4874 177.296 89.12 177.31C88.9533 177.32 88.7865 177.291 88.6327 177.226C88.479 177.161 88.3424 177.061 88.2339 176.934C88.1254 176.807 88.0477 176.656 88.0072 176.494C87.9666 176.332 87.9641 176.163 88 176L89 170.29L82.85 170.25Z" fill="#263238"/>
<path d="M98.57 177.3C98.4068 177.305 98.2446 177.273 98.0956 177.206C97.9465 177.139 97.8146 177.039 97.7097 176.914C97.6048 176.789 97.5296 176.642 97.4898 176.484C97.45 176.325 97.4467 176.16 97.48 176L100 161.94C100.079 161.582 100.273 161.259 100.553 161.023C100.833 160.786 101.184 160.648 101.55 160.63C101.715 160.623 101.88 160.654 102.031 160.721C102.182 160.788 102.316 160.888 102.422 161.015C102.528 161.141 102.604 161.29 102.644 161.451C102.683 161.611 102.685 161.779 102.65 161.94L100.12 176C100.043 176.358 99.8483 176.68 99.5676 176.915C99.287 177.151 98.936 177.286 98.57 177.3Z" fill="#263238"/>
<path d="M104.57 175.94L107.05 161.89C107.127 161.531 107.321 161.208 107.602 160.97C107.882 160.733 108.233 160.596 108.6 160.58H112.86C113.498 160.556 114.134 160.679 114.717 160.94C115.299 161.202 115.814 161.593 116.222 162.086C116.629 162.578 116.917 163.157 117.064 163.779C117.211 164.4 117.213 165.047 117.07 165.67C116.789 167.074 116.045 168.342 114.957 169.272C113.869 170.202 112.5 170.74 111.07 170.8H108.12L107.22 175.94C107.143 176.299 106.949 176.622 106.669 176.859C106.388 177.096 106.037 177.234 105.67 177.25C105.505 177.257 105.34 177.226 105.189 177.159C105.038 177.092 104.904 176.992 104.798 176.865C104.692 176.739 104.616 176.59 104.576 176.429C104.537 176.269 104.535 176.101 104.57 175.94ZM112.41 163.22H109.41L108.56 168.15H111.49C112.181 168.121 112.843 167.861 113.369 167.411C113.894 166.961 114.254 166.348 114.39 165.67C114.458 165.374 114.458 165.067 114.39 164.771C114.322 164.475 114.188 164.199 113.997 163.963C113.806 163.726 113.564 163.537 113.289 163.408C113.014 163.28 112.714 163.215 112.41 163.22Z" fill="#263238"/>
<path d="M118.46 175.94L120.93 161.89C121.009 161.532 121.203 161.209 121.483 160.973C121.763 160.736 122.114 160.598 122.48 160.58H126.74C127.379 160.554 128.016 160.677 128.6 160.937C129.184 161.197 129.7 161.589 130.109 162.082C130.517 162.574 130.806 163.154 130.954 163.776C131.101 164.399 131.104 165.047 130.96 165.67C130.679 167.074 129.935 168.342 128.847 169.272C127.759 170.202 126.39 170.74 124.96 170.8H121.96L121.06 175.94C120.985 176.3 120.791 176.624 120.51 176.861C120.229 177.099 119.877 177.236 119.51 177.25C119.349 177.249 119.19 177.212 119.045 177.142C118.901 177.072 118.773 176.971 118.673 176.845C118.572 176.72 118.501 176.573 118.464 176.417C118.427 176.26 118.426 176.097 118.46 175.94ZM126.29 163.22H123.29L122.43 168.15H125.36C126.052 168.123 126.714 167.863 127.24 167.413C127.766 166.963 128.126 166.349 128.26 165.67C128.328 165.375 128.328 165.068 128.261 164.773C128.193 164.478 128.06 164.202 127.87 163.967C127.68 163.731 127.44 163.541 127.166 163.412C126.892 163.282 126.593 163.217 126.29 163.22Z" fill="#263238"/>
<path d="M133.6 177.3C133.436 177.305 133.272 177.273 133.123 177.206C132.973 177.138 132.84 177.038 132.735 176.911C132.63 176.785 132.555 176.636 132.516 176.477C132.477 176.317 132.475 176.151 132.51 175.99L135 161.94C135.079 161.582 135.273 161.259 135.553 161.023C135.833 160.786 136.184 160.648 136.55 160.63C136.715 160.623 136.88 160.654 137.031 160.721C137.182 160.788 137.316 160.888 137.422 161.015C137.528 161.141 137.604 161.29 137.644 161.451C137.683 161.611 137.685 161.779 137.65 161.94L135.15 176C135.073 176.358 134.878 176.68 134.598 176.915C134.317 177.151 133.966 177.286 133.6 177.3Z" fill="#263238"/>
<path d="M142.08 162C142.122 161.771 142.211 161.552 142.341 161.36C142.472 161.167 142.642 161.003 142.84 160.88C142.971 160.775 143.123 160.699 143.286 160.656C143.449 160.614 143.619 160.606 143.785 160.633C143.951 160.66 144.109 160.722 144.249 160.815C144.39 160.907 144.509 161.028 144.6 161.17L150.46 171.93L152.2 162C152.279 161.642 152.473 161.319 152.753 161.083C153.033 160.846 153.384 160.708 153.75 160.69C153.914 160.685 154.078 160.717 154.228 160.784C154.377 160.852 154.51 160.952 154.615 161.079C154.72 161.205 154.795 161.354 154.834 161.513C154.873 161.673 154.875 161.839 154.84 162L152.37 176C152.303 176.364 152.112 176.693 151.829 176.932C151.547 177.171 151.19 177.305 150.82 177.31C150.643 177.317 150.467 177.28 150.308 177.201C150.149 177.122 150.012 177.005 149.91 176.86C149.874 176.807 149.844 176.75 149.82 176.69L144 166L142.23 176C142.167 176.364 141.978 176.694 141.697 176.934C141.416 177.173 141.059 177.306 140.69 177.31C140.522 177.331 140.352 177.308 140.196 177.245C140.039 177.182 139.901 177.081 139.794 176.95C139.687 176.819 139.615 176.664 139.585 176.497C139.554 176.331 139.566 176.16 139.62 176L142.08 162Z" fill="#263238"/>
<path d="M158.37 168.91C158.856 166.599 160.107 164.518 161.922 163.007C163.737 161.495 166.009 160.64 168.37 160.58C170.205 160.53 171.992 161.177 173.37 162.39C173.487 162.515 173.577 162.663 173.636 162.823C173.694 162.984 173.719 163.155 173.71 163.326C173.701 163.497 173.657 163.665 173.581 163.818C173.506 163.972 173.4 164.108 173.27 164.22C173.047 164.493 172.727 164.669 172.378 164.714C172.028 164.758 171.675 164.668 171.39 164.46C170.428 163.62 169.187 163.17 167.91 163.2C166.268 163.222 164.686 163.82 163.44 164.89C162.191 165.898 161.338 167.315 161.03 168.89C160.882 169.589 160.896 170.312 161.069 171.005C161.242 171.698 161.571 172.343 162.03 172.89C162.513 173.44 163.111 173.878 163.781 174.171C164.451 174.465 165.178 174.608 165.91 174.59C167.082 174.575 168.232 174.261 169.25 173.68L169.82 170.51H166.51C166.346 170.516 166.183 170.484 166.034 170.417C165.884 170.349 165.753 170.248 165.649 170.121C165.545 169.994 165.472 169.845 165.436 169.685C165.4 169.525 165.401 169.359 165.44 169.2C165.508 168.839 165.699 168.512 165.979 168.273C166.259 168.035 166.612 167.9 166.98 167.89H171.58C171.745 167.883 171.91 167.914 172.061 167.981C172.212 168.048 172.346 168.148 172.452 168.275C172.558 168.401 172.634 168.55 172.674 168.711C172.713 168.871 172.715 169.039 172.68 169.2L171.77 174.35C171.745 174.471 171.705 174.589 171.65 174.7L171.58 174.85C171.46 175.071 171.289 175.26 171.08 175.4C169.434 176.545 167.485 177.175 165.48 177.21C164.426 177.264 163.373 177.076 162.403 176.66C161.433 176.243 160.571 175.61 159.884 174.808C159.198 174.006 158.704 173.058 158.441 172.035C158.179 171.013 158.154 169.944 158.37 168.91Z" fill="#263238"/>
<path d="M167.86 115.37C169.705 115.255 171.555 115.255 173.4 115.37C175.252 115.465 177.098 115.656 178.93 115.94C182.658 116.498 186.308 117.485 189.81 118.88C191.592 119.616 193.311 120.496 194.95 121.51C195.78 122.02 196.57 122.6 197.37 123.18L198.5 124.18C198.88 124.5 199.23 124.87 199.6 125.18C201.042 126.617 202.274 128.25 203.26 130.03L203.95 131.4C204.15 131.88 204.32 132.4 204.51 132.84C204.7 133.28 204.82 133.84 204.97 134.29L205.17 135.01L205.33 135.75C205.775 137.734 205.936 139.771 205.81 141.8C205.678 143.821 205.277 145.815 204.62 147.73C203.287 151.461 201.181 154.869 198.44 157.73C195.808 160.501 192.774 162.861 189.44 164.73C186.197 166.6 182.681 167.95 179.02 168.73L178.87 168.24C182.129 166.715 185.205 164.826 188.04 162.61C190.834 160.473 193.362 158.009 195.57 155.27C197.704 152.646 199.332 149.649 200.37 146.43C201.345 143.308 201.493 139.986 200.8 136.79L200.68 136.19L200.51 135.59C200.413 135.197 200.292 134.809 200.15 134.43C200.01 134.05 199.88 133.68 199.73 133.31L199.23 132.22C198.471 130.775 197.534 129.431 196.44 128.22C194.078 125.769 191.315 123.74 188.27 122.22C185.105 120.604 181.806 119.266 178.41 118.22C174.948 117.077 171.426 116.125 167.86 115.37Z" fill="#263238"/>
<path d="M183.74 160.1L179.58 168.23L188 171.78L175.45 169.74L183.74 160.1Z" fill="#263238"/>
<path opacity="0.1" d="M222.34 214.27H19.99L20.57 206.52L221.38 193.92L222.34 214.27Z" fill="black"/>
<path d="M18.97 220.76H328.01V211.56H18.97V220.76Z" fill="#EBEBEB"/>
<path d="M334.44 207.14L303.62 209.04V222.15H336.74L334.44 207.14Z" fill="#DBDBDB"/>
<path d="M32.28 222.15V209.31L12.82 207.3L10.43 222.15H32.28Z" fill="#DBDBDB"/>
<path d="M101 223.54C101 223.54 98.12 202.25 77 202.25C55.88 202.25 52.81 223.54 52.81 223.54" stroke="#C7C7C7" stroke-width="10" stroke-miterlimit="10"/>
<path d="M76.91 202.94C46.78 202.94 46.73 249.76 76.91 249.76C107.09 249.76 107.09 202.94 76.91 202.94Z" fill="#263238"/>
<path d="M76.91 215.72C63.23 215.72 63.21 236.98 76.91 236.98C90.61 236.98 90.61 215.72 76.91 215.72Z" fill="#C7C7C7"/>
<path d="M281.48 223.54C281.48 223.54 278.61 202.25 257.54 202.25C236.47 202.25 233.35 223.54 233.35 223.54" stroke="#C7C7C7" stroke-width="10" stroke-miterlimit="10"/>
<path d="M257.53 202.94C227.4 202.94 227.35 249.76 257.53 249.76C287.71 249.76 287.71 202.94 257.53 202.94Z" fill="#263238"/>
<path d="M257.53 215.72C243.85 215.72 243.83 236.98 257.53 236.98C271.23 236.98 271.23 215.72 257.53 215.72Z" fill="#C7C7C7"/>
<path d="M386.76 215.45H352.68V253.19H386.76V215.45Z" fill="#FFC727"/>
<path opacity="0.1" d="M386.76 215.45H352.68V253.19H386.76V215.45Z" fill="black"/>
<path d="M335.08 253.2H352.68V215.46H335.08V253.2Z" fill="#FFC727"/>
<path opacity="0.32" d="M335.08 253.2H352.68V215.46H335.08V253.2Z" fill="black"/>
<path d="M366.83 223.61H367.55H368.09L368.4 222.98L368.83 223.61L369.42 222.32L369.98 223.61H371.58H372.3L372.57 222.75L372.81 223.61H373.29V215.45H366.83V223.61Z" fill="white"/>
<path d="M336.3 250.59C337.6 247.923 338.89 245.233 340.17 242.52L344 234.4L347.77 226.25C349.02 223.53 350.25 220.79 351.48 218.05C350.18 220.74 348.88 223.43 347.61 226.13L343.79 234.25L340 242.4C338.76 245.12 337.527 247.85 336.3 250.59Z" fill="#FFC727"/>
<path d="M336.3 218.05C337.52 220.79 338.757 223.523 340.01 226.25L343.78 234.4L347.6 242.52C348.87 245.22 350.17 247.91 351.47 250.59C350.24 247.85 349.01 245.12 347.76 242.4L344 234.25L340.18 226.13C338.893 223.43 337.6 220.737 336.3 218.05Z" fill="#FFC727"/>
<path d="M402.54 177.72H368.46V215.46H402.54V177.72Z" fill="#FFC727"/>
<path opacity="0.1" d="M402.54 177.72H368.46V215.46H402.54V177.72Z" fill="black"/>
<path d="M350.86 215.45H368.46V177.71H350.86V215.45Z" fill="#FFC727"/>
<path opacity="0.32" d="M350.86 215.45H368.46V177.71H350.86V215.45Z" fill="black"/>
<path d="M382.61 185.87H383.33H383.87L384.18 185.24L384.61 185.87L385.2 184.58L385.76 185.87H387.35H388.08L388.34 185.01L388.59 185.87H389.06V177.72H382.61V185.87Z" fill="white"/>
<path d="M352.07 212.85C353.403 210.183 354.697 207.493 355.95 204.78L359.77 196.66L363.53 188.51C364.783 185.79 366.023 183.06 367.25 180.32C365.917 182.987 364.623 185.677 363.37 188.39L359.55 196.51L355.79 204.66C354.543 207.38 353.303 210.11 352.07 212.85Z" fill="#FFC727"/>
<path d="M352.07 180.32C353.3 183.05 354.54 185.79 355.79 188.51L359.55 196.66L363.37 204.78C364.65 207.447 365.943 210.137 367.25 212.85C366.017 210.11 364.777 207.38 363.53 204.66L359.77 196.51L356 188.39C354.667 185.69 353.357 183 352.07 180.32Z" fill="#FFC727"/>
<path d="M430.54 215.45H396.46V253.19H430.54V215.45Z" fill="#FFC727"/>
<path opacity="0.1" d="M430.54 215.45H396.46V253.19H430.54V215.45Z" fill="black"/>
<path d="M378.86 253.2H396.46V215.46H378.86V253.2Z" fill="#FFC727"/>
<path opacity="0.32" d="M378.86 253.2H396.46V215.46H378.86V253.2Z" fill="black"/>
<path d="M410.61 223.61H411.33H411.87L412.18 222.98L412.62 223.61L413.2 222.32L413.76 223.61H415.36H416.09L416.35 222.75L416.6 223.61H417.07V215.45H410.61V223.61Z" fill="white"/>
<path d="M380.08 250.59C381.38 247.923 382.67 245.233 383.95 242.52L387.77 234.4L391.54 226.25C392.79 223.53 394.03 220.79 395.25 218.05C393.917 220.717 392.627 223.41 391.38 226.13L387.56 234.25L383.79 242.4C382.543 245.12 381.307 247.85 380.08 250.59Z" fill="#FFC727"/>
<path d="M380.08 218.05C381.3 220.79 382.537 223.523 383.79 226.25L387.56 234.4L391.38 242.52C392.66 245.187 393.95 247.877 395.25 250.59C394.03 247.85 392.793 245.12 391.54 242.4L387.77 234.25L384 226.13C382.667 223.43 381.36 220.737 380.08 218.05Z" fill="#FFC727"/>
<path d="M297.48 253.63C298.72 254.03 334 253.63 335.33 252.71C335.84 252.38 336.07 247.24 336.18 241.02V240.82C336.18 239.54 336.18 238.22 336.18 236.88C336.18 236.69 336.18 236.51 336.18 236.33L334.51 218L310.92 218.23L313.25 236.36V237.08L313.39 240.83V241.22C313.39 241.22 299.96 247.43 298.6 248.54C297.24 249.65 296.25 253.24 297.48 253.63Z" fill="#AD6359"/>
<path d="M297.48 253.63C298.72 254.03 334 253.63 335.33 252.71C335.84 252.38 336.07 247.24 336.18 241.02V240.82C336.18 239.54 336.18 238.22 336.18 236.88C336.18 236.69 336.18 236.51 336.18 236.33L313.18 236.39V237.11L313.32 240.86V241.25C313.32 241.25 299.89 247.46 298.53 248.57C297.17 249.68 296.25 253.24 297.48 253.63Z" fill="#EBEBEB"/>
<path d="M297.48 253.63C298.12 253.84 307.7 253.82 317.07 253.63L322.61 253.5C329.29 253.31 334.81 253.04 335.32 252.7C335.83 252.36 336.06 247.38 336.17 241.27V241C336.165 240.933 336.165 240.867 336.17 240.8H313.44V241.19C313.44 241.19 300.01 247.4 298.65 248.51C297.29 249.62 296.24 253.24 297.48 253.63Z" fill="#FFC727"/>
<path d="M297.86 252.26C303.81 252.04 327.81 251.7 333.7 251.93C333.75 251.93 333.75 251.93 333.7 251.93C327.81 252.28 303.81 252.42 297.87 252.32C297.74 252.36 297.74 252.27 297.86 252.26Z" fill="#263238"/>
<path d="M310.88 241C313.22 240.53 316.08 240.85 317.88 242.5C317.95 242.56 317.88 242.66 317.79 242.64C315.545 241.946 313.232 241.493 310.89 241.29C310.858 241.283 310.829 241.265 310.808 241.239C310.786 241.214 310.774 241.182 310.773 241.149C310.772 241.116 310.782 241.083 310.801 241.056C310.821 241.029 310.848 241.01 310.88 241Z" fill="#263238"/>
<path d="M309.21 242C311.54 241.53 314.41 241.85 316.21 243.5C316.28 243.56 316.21 243.66 316.11 243.64C313.865 242.946 311.552 242.493 309.21 242.29C309.178 242.282 309.15 242.263 309.13 242.237C309.109 242.21 309.098 242.178 309.098 242.145C309.098 242.112 309.109 242.08 309.13 242.054C309.15 242.027 309.178 242.009 309.21 242Z" fill="#263238"/>
<path d="M307.53 243C309.87 242.53 312.73 242.85 314.53 244.5C314.6 244.56 314.53 244.66 314.43 244.64C312.185 243.945 309.872 243.492 307.53 243.29C307.498 243.282 307.47 243.263 307.45 243.237C307.429 243.21 307.418 243.178 307.418 243.145C307.418 243.112 307.429 243.08 307.45 243.054C307.47 243.027 307.498 243.009 307.53 243Z" fill="#263238"/>
<path d="M317.07 253.63L322.61 253.5C329.29 253.31 334.81 253.04 335.32 252.7C335.83 252.36 336.06 247.38 336.17 241.27V241C336.165 240.933 336.165 240.867 336.17 240.8C333 243 322.06 250.31 317.07 253.63Z" fill="#263238"/>
<path d="M311.77 240.94H337.18C337.18 240.94 332.06 181.6 332.26 180.57C332.52 179.24 334.02 173.23 336.01 165.39L338.01 157.57C339.91 150.18 342.01 142.12 343.82 135.1C346.55 124.58 348.68 116.41 348.68 116.41H327.15C327.15 116.41 324.64 124.41 321.47 134.71C316.32 151.53 309.47 174.71 308.76 180.31C307.65 189.4 311.77 240.94 311.77 240.94Z" fill="#263238"/>
<path d="M313 236.61C316.88 236.52 315.77 236.49 319.65 236.46C321.55 236.46 334.03 236.33 335.8 236.62V236.7C334.03 237 321.55 236.89 319.65 236.87C315.77 236.87 316.88 236.8 313 236.72C312.989 236.715 312.98 236.708 312.974 236.698C312.967 236.688 312.964 236.677 312.964 236.665C312.964 236.653 312.967 236.642 312.974 236.632C312.98 236.622 312.989 236.615 313 236.61Z" fill="#37474F"/>
<path d="M327.58 176.94C328.41 173.27 329.65 169.67 330.74 166.06C332.94 158.727 335.153 151.393 337.38 144.06C338.5 140.4 339.617 136.733 340.73 133.06C341.3 131.21 341.87 129.37 342.45 127.52C343.03 125.67 343.66 123.93 344.17 122.11C344.37 121.37 344.49 121.78 344.22 122.72C343.69 124.61 343.16 126.51 342.6 128.4C341.507 132.14 340.407 135.883 339.3 139.63C337.1 147.117 334.88 154.573 332.64 162C331.52 165.733 330.397 169.46 329.27 173.18C328.703 174.954 328.246 176.76 327.9 178.59C327.597 180.501 327.523 182.441 327.68 184.37C327.92 188.26 328.37 192.14 328.73 196.02L329.81 207.68C330.517 215.407 331.227 223.14 331.94 230.88C332.02 231.88 332.11 232.88 332.19 233.82C332.19 234.15 331.71 234.13 331.68 233.82C330.84 226.17 330.2 218.5 329.48 210.82C328.76 203.14 328.05 195.58 327.34 187.96C327.16 186.04 326.96 184.13 326.96 182.2C326.968 180.429 327.176 178.664 327.58 176.94Z" fill="#37474F"/>
<path d="M329.69 116.41C331.18 127.97 334.03 149.66 336.11 165.41C340.96 146.35 348.77 116.41 348.77 116.41H329.69Z" fill="#37474F"/>
<path d="M324.4 254C325.63 254.41 360.91 254.08 362.24 253.21C362.76 252.89 363.01 247.75 363.13 241.53V241.33C363.13 240.05 363.18 238.73 363.18 237.39C363.18 237.21 363.18 237.02 363.18 236.84C363.26 227.84 362.62 218.54 362.62 218.54L339.56 218.69L340.2 236.82V237.54L340.33 241.29V241.68C340.33 241.68 326.88 247.84 325.51 248.95C324.14 250.06 323.16 253.58 324.4 254Z" fill="#AD6359"/>
<path d="M324.4 254C325.63 254.41 360.91 254.08 362.24 253.21C362.76 252.89 363.01 247.75 363.13 241.53V241.33C363.13 240.05 363.18 238.73 363.18 237.39C363.18 237.21 363.18 237.02 363.18 236.84H340.18V237.56L340.31 241.31V241.7C340.31 241.7 326.86 247.86 325.49 248.97C324.12 250.08 323.16 253.58 324.4 254Z" fill="#EBEBEB"/>
<path d="M324.4 254C325.63 254.41 360.91 254.08 362.24 253.21C362.76 252.89 363.01 247.75 363.13 241.53V241.33H340.37V241.72C340.37 241.72 326.92 247.88 325.55 248.99C324.18 250.1 323.16 253.58 324.4 254Z" fill="#FFC727"/>
<path d="M324.78 252.6C330.78 252.4 354.78 252.15 360.62 252.4C360.67 252.4 360.67 252.4 360.62 252.4C354.73 252.73 330.73 252.79 324.78 252.66C324.66 252.7 324.66 252.61 324.78 252.6Z" fill="#263238"/>
<path d="M337.84 241.35C340.18 240.89 343.04 241.22 344.84 242.87C344.91 242.94 344.84 243.04 344.74 243.01C342.494 242.314 340.181 241.855 337.84 241.64C337.808 241.632 337.78 241.613 337.76 241.587C337.739 241.56 337.728 241.528 337.728 241.495C337.728 241.462 337.739 241.43 337.76 241.404C337.78 241.377 337.808 241.359 337.84 241.35Z" fill="#263238"/>
<path d="M336.16 242.38C338.5 241.92 341.36 242.26 343.16 243.91C343.23 243.97 343.16 244.07 343.06 244.05C340.816 243.345 338.503 242.885 336.16 242.68C336.12 242.68 336.082 242.664 336.054 242.636C336.026 242.608 336.01 242.57 336.01 242.53C336.01 242.49 336.026 242.452 336.054 242.424C336.082 242.396 336.12 242.38 336.16 242.38Z" fill="#263238"/>
<path d="M334.48 243.42C336.82 242.96 339.68 243.29 341.48 244.94C341.55 245 341.48 245.1 341.38 245.08C339.138 244.38 336.829 243.921 334.49 243.71C334.458 243.703 334.429 243.685 334.407 243.659C334.386 243.634 334.374 243.602 334.373 243.569C334.372 243.536 334.382 243.503 334.401 243.476C334.421 243.449 334.448 243.43 334.48 243.42Z" fill="#263238"/>
<path d="M327.66 116.41C328.007 122.642 328.965 128.825 330.52 134.87C330.71 135.54 330.91 136.21 331.13 136.87C333.293 137.741 335.372 138.809 337.34 140.06C337.34 140.06 337.59 148.35 337.84 157.6C338.11 167.93 338.4 179.46 338.34 181.9C338.12 191.05 339.48 241.34 339.48 241.34L364.88 241.45C364.88 241.45 360.29 185.28 360.32 181.93C360.37 176.54 359.09 152.74 358.1 135.38C357.5 124.68 357 116.44 357 116.44L327.66 116.41Z" fill="#263238"/>
<path d="M340.63 236.79C344.51 236.73 343.39 236.69 347.27 236.67C349.17 236.67 361.65 236.61 363.42 236.91C363.42 236.91 363.42 236.98 363.42 236.99C361.65 237.27 349.17 237.11 347.27 237.09C343.39 237.03 344.5 237 340.62 236.91C340.55 236.91 340.55 236.8 340.63 236.79Z" fill="#37474F"/>
<path d="M355.14 120.09C355.61 134.26 356.14 148.43 356.74 162.6C357.34 176.77 358.23 191.02 359.42 205.2C360.09 213.12 360.71 224.26 361.57 232.2C361.57 232.25 361.49 232.27 361.48 232.2C359.64 218.14 358.6 200.76 357.69 186.61C356.78 172.46 356.17 158.3 355.69 144.13C355.41 136.13 355.21 128.13 354.97 120.13C355 120 355.14 120 355.14 120.09Z" fill="#37474F"/>
<path d="M330.35 136.23C332.875 137.284 335.304 138.556 337.61 140.03C337.7 140.09 337.61 140.23 337.54 140.18C335.09 138.99 332.54 137.85 330.2 136.52C330.181 136.51 330.164 136.497 330.15 136.48C330.136 136.464 330.126 136.445 330.119 136.425C330.113 136.404 330.111 136.383 330.112 136.361C330.114 136.34 330.12 136.319 330.13 136.3C330.14 136.281 330.153 136.264 330.17 136.25C330.186 136.236 330.205 136.226 330.225 136.219C330.246 136.213 330.267 136.211 330.289 136.212C330.31 136.214 330.331 136.22 330.35 136.23Z" fill="#37474F"/>
<path d="M328.88 124C329.1 125.18 329.39 126.35 329.64 127.52C329.89 128.69 330.06 129.75 330.35 130.84C330.589 131.894 331.123 132.858 331.89 133.62C332.33 134.02 332.8 134.37 333.26 134.74C333.51 134.94 333.78 135.13 334.04 135.33C334.04 135.18 333.98 135.02 333.95 134.86C333.87 134.41 333.8 133.96 333.72 133.51C333.55 132.51 333.39 131.51 333.24 130.51C332.94 128.51 332.67 126.57 332.24 124.63C332.24 124.614 332.246 124.599 332.258 124.588C332.269 124.576 332.284 124.57 332.3 124.57C332.316 124.57 332.331 124.576 332.342 124.588C332.354 124.599 332.36 124.614 332.36 124.63C332.85 126.55 333.36 128.46 333.81 130.4C334.02 131.4 334.76 136.04 334.81 136.4C334.86 136.76 334.87 137.08 334.88 137.4C334.921 137.732 334.921 138.068 334.88 138.4C334.88 138.49 334.76 138.47 334.72 138.4C334.581 138.08 334.48 137.744 334.42 137.4C334.33 137.06 334.26 136.72 334.2 136.4L334.14 136.03C333.68 135.75 333.25 135.38 332.82 135.03C332.39 134.68 331.88 134.37 331.43 134.03C330.619 133.337 330.034 132.418 329.75 131.39C329.463 130.282 329.276 129.151 329.19 128.01C329.05 126.68 328.94 125.34 328.75 124.01C328.75 124 328.87 124 328.88 124Z" fill="#37474F"/>
<path d="M337.3 86.25C336.15 90.7 331.6 100.87 323.96 109.25C320.96 112.48 297.62 115.91 295.15 115.2C293.43 114.7 288.36 99.75 290.01 98.49C293.1 96.14 315.01 98.88 315.9 98.31C321.498 94.0322 326.662 89.2158 331.32 83.93C335.27 79.24 339.19 78.84 337.3 86.25Z" fill="#AD6359"/>
<path d="M332.3 99.5601L318.16 95.4001C318.16 95.4001 329.42 83.7501 333.7 81.2501C338.52 78.4501 338.9 81.5201 337.59 86.6601C336.28 91.8001 332.3 99.5601 332.3 99.5601Z" fill="#FFC727"/>
<path d="M320.89 93.4801C321.4 93.5501 325.82 94.7701 326.78 95.0601C327.74 95.3501 331.66 96.4801 332.62 96.8601C332.62 96.8601 332.62 96.9401 332.62 96.9301C331.62 96.7401 327.62 95.6101 326.62 95.3301C325.62 95.0501 321.29 93.7501 320.83 93.5401C320.82 93.5201 320.85 93.4701 320.89 93.4801Z" fill="#263238"/>
<path d="M326.85 98L332.3 99.61C332.3 99.61 336.3 91.84 337.59 86.71C338.59 82.96 338.59 80.3 336.68 80.24L326.85 98Z" fill="#263238"/>
<path d="M359.37 126.65L322.7 126.48C322.7 127.2 330.65 85.48 334.48 80.48C335.31 79.42 340.91 78.06 343.48 80.42C354.52 90.75 359.36 127.12 359.37 126.65Z" fill="#FFC727"/>
<path opacity="0.1" d="M330.89 91.91L335.58 92.24L335.3 98.42L332.07 99.28L330.23 97.81L330.89 91.91Z" fill="black"/>
<path d="M336.94 85.5C338.68 85.92 341.27 82.61 342.52 80.12C342.418 78.7387 342.244 77.3635 342 76C341.83 74.69 341.68 73.23 341.63 71.89C341.63 71.61 333.28 74.22 333.28 74.22C333.823 75.8824 334.159 77.6054 334.28 79.35C334.3 79.5328 334.3 79.7173 334.28 79.9V80C334.09 81.08 335.07 85.05 336.94 85.5Z" fill="#AD6359"/>
<path d="M334.23 79.94V80C334.516 80.0206 334.804 80.0206 335.09 80C340.09 79.72 341.14 73.47 341.34 71.89C339.86 72.16 333.34 74.21 333.34 74.21C333.879 75.8735 334.215 77.596 334.34 79.34C334.322 79.543 334.286 79.744 334.23 79.94Z" fill="#263238"/>
<path d="M343.21 61.86C343.92 64.86 341.77 73.41 339.52 75.18C336.26 77.76 331.21 77.69 329.09 73.84C326.97 69.99 330.03 59.07 332.52 57.48C336.18 55.14 342.16 57.36 343.21 61.86Z" fill="#AD6359"/>
<path d="M334.67 66.45C334.67 66.45 334.67 66.45 334.67 66.51C334.51 67.08 334.42 67.76 334.89 68.08C334.3 67.86 334.42 67 334.67 66.45Z" fill="#263238"/>
<path d="M335.33 65.9999C336.27 66.1599 335.88 67.9999 335.01 67.8799C334.14 67.7599 334.54 65.8399 335.33 65.9999Z" fill="#263238"/>
<path d="M331.55 65.85C331.55 65.85 331.5 65.85 331.49 65.85C331.39 66.44 331.18 67.09 330.61 67.17C331.27 67.29 331.55 66.42 331.55 65.85Z" fill="#263238"/>
<path d="M331.16 65.14C330.24 64.88 329.78 66.73 330.63 66.97C331.48 67.21 331.92 65.36 331.16 65.14Z" fill="#263238"/>
<path d="M336.24 65.28C336 65.16 335.8 65.01 335.57 64.87C335.34 64.73 335.09 64.61 334.96 64.33C334.933 64.2438 334.934 64.1511 334.965 64.0661C334.996 63.9811 335.054 63.9086 335.13 63.86C335.292 63.7883 335.469 63.7607 335.645 63.78C335.821 63.7994 335.988 63.8649 336.13 63.97C336.453 64.1375 336.703 64.419 336.83 64.76C336.851 64.8389 336.849 64.922 336.825 65C336.802 65.0781 336.757 65.148 336.695 65.2019C336.634 65.2559 336.559 65.2917 336.479 65.3055C336.398 65.3193 336.316 65.3104 336.24 65.28Z" fill="#263238"/>
<path d="M330.63 64.05C330.89 64.0649 331.15 64.0649 331.41 64.05C331.687 64.0741 331.964 64.0074 332.2 63.86C332.264 63.7974 332.306 63.7162 332.32 63.6281C332.335 63.54 332.32 63.4496 332.28 63.37C332.171 63.2286 332.027 63.1188 331.862 63.052C331.696 62.9852 331.516 62.9638 331.34 62.99C330.971 62.9777 330.612 63.1105 330.34 63.36C330.29 63.4191 330.257 63.491 330.246 63.5675C330.234 63.6441 330.244 63.7224 330.274 63.7938C330.304 63.8653 330.353 63.927 330.416 63.9722C330.479 64.0174 330.553 64.0443 330.63 64.05Z" fill="#263238"/>
<path d="M334.26 71.93C334.1 72.04 333.92 72.2 333.71 72.17C333.492 72.1262 333.287 72.0339 333.11 71.9C333.169 72.0314 333.262 72.1445 333.38 72.2272C333.498 72.3099 333.636 72.3593 333.78 72.37C333.905 72.3646 334.025 72.3216 334.125 72.2466C334.225 72.1717 334.3 72.0683 334.34 71.95C334.34 71.95 334.29 71.92 334.26 71.93Z" fill="#263238"/>
<path d="M334 70.0699C333.807 70.2693 333.576 70.4265 333.319 70.5315C333.063 70.6365 332.787 70.6871 332.51 70.6799C332.266 70.6785 332.023 70.6414 331.79 70.5699H331.66H331.54C331.508 70.5586 331.482 70.5362 331.465 70.5068C331.449 70.4774 331.443 70.443 331.45 70.41C331.45 70.41 331.45 70.4099 331.45 70.3499V70.2999C331.53 69.8499 331.71 69.1799 331.71 69.1799C331.53 69.1799 330.62 69.4299 330.71 69.1799C331.182 67.1817 331.852 65.2355 332.71 63.3699C332.71 63.3567 332.715 63.344 332.725 63.3346C332.734 63.3252 332.747 63.3199 332.76 63.3199C332.773 63.3199 332.786 63.3252 332.795 63.3346C332.805 63.344 332.81 63.3567 332.81 63.3699C332.39 65.2199 331.65 66.9799 331.2 68.8299C331.527 68.7513 331.864 68.721 332.2 68.7399C332.26 68.7399 331.82 70.03 331.8 70.2299C332.163 70.343 332.545 70.3809 332.924 70.3414C333.302 70.3019 333.668 70.1857 334 69.9999C334 69.9999 334.06 69.9999 334 70.0699Z" fill="#263238"/>
<path d="M332.11 70.3901C332.29 70.7593 332.562 71.0761 332.9 71.3101C333.085 71.4356 333.307 71.4954 333.53 71.4801C334.01 71.4801 334.11 71.0401 334.1 70.6601C334.098 70.4569 334.068 70.2549 334.01 70.0601C333.429 70.3713 332.762 70.487 332.11 70.3901Z" fill="#263238"/>
<path d="M332.9 71.3099C333.085 71.4355 333.307 71.4953 333.53 71.48C334.01 71.48 334.11 71.04 334.1 70.66C333.856 70.6155 333.604 70.6557 333.386 70.7739C333.167 70.8921 332.996 71.0812 332.9 71.3099Z" fill="#FF98B9"/>
<path d="M330.7 60.06C331.17 59.39 331.7 58.73 332.16 58.67C332.62 58.61 332.7 59.75 333.69 60.03C335.03 60.4 335.94 59.29 337.87 59.54C340.64 59.91 341.37 62.44 340.64 66.32C340 69.79 342 70.55 342 70.55C342 70.55 344.83 63.18 343.19 60.22C342.159 58.5634 340.58 57.3202 338.728 56.7064C336.875 56.0926 334.866 56.147 333.05 56.86C331.69 57.49 330.7 60.06 330.7 60.06Z" fill="#263238"/>
<path d="M340.55 68.83C340.55 68.83 342.74 66.22 343.94 67.02C345.14 67.82 343.33 71.73 341.8 72.15C341.606 72.2165 341.402 72.2433 341.197 72.2287C340.993 72.2141 340.794 72.1585 340.612 72.0651C340.43 71.9717 340.269 71.8425 340.138 71.6853C340.007 71.528 339.909 71.3459 339.85 71.15L340.55 68.83Z" fill="#AD6359"/>
<path d="M343.39 68.12C342.892 68.3142 342.44 68.6114 342.064 68.9922C341.688 69.3731 341.397 69.8289 341.21 70.33C341.278 70.2298 341.367 70.1457 341.471 70.084C341.575 70.0222 341.691 69.9842 341.812 69.9728C341.932 69.9613 342.054 69.9766 342.167 70.0176C342.281 70.0587 342.385 70.1243 342.47 70.21C342.47 70.21 342.47 70.27 342.47 70.21C342.292 70.1361 342.095 70.1195 341.907 70.1625C341.719 70.2055 341.549 70.306 341.42 70.45C341.206 70.6889 341.018 70.9504 340.86 71.23C340.86 71.32 340.64 71.23 340.69 71.15C340.77 69.9 342 68.13 343.39 68.12Z" fill="#263238"/>
<path d="M331.27 58.39C333.774 58.665 336.201 59.4186 338.42 60.61C340.242 62.1132 341.917 63.7876 343.42 65.61C343.58 65.8 345.94 58.61 340.2 56.07C334 53.37 331.27 58.39 331.27 58.39Z" fill="#FFC727"/>
<path d="M343.15 65.29C343.15 65.29 340.2 59.29 338.23 57.67C336.26 56.05 331.46 54.41 328.15 55.16C325.57 55.74 330.78 59.93 330.78 59.93C330.879 59.6845 331.035 59.4659 331.235 59.2921C331.435 59.1184 331.673 58.9943 331.93 58.93C333.53 58.63 336.26 59.63 337.76 60.49C339.65 61.59 343.15 65.29 343.15 65.29Z" fill="#FFC727"/>
<path opacity="0.2" d="M343.15 65.29C343.15 65.29 340.2 59.29 338.23 57.67C336.26 56.05 331.46 54.41 328.15 55.16C325.57 55.74 330.78 59.93 330.78 59.93C330.879 59.6845 331.035 59.4659 331.235 59.2921C331.435 59.1184 331.673 58.9943 331.93 58.93C333.53 58.63 336.26 59.63 337.76 60.49C339.65 61.59 343.15 65.29 343.15 65.29Z" fill="black"/>
<path d="M360.77 104.24H331.85V136.26H360.77V104.24Z" fill="#FFC727"/>
<path opacity="0.1" d="M360.77 104.24H331.85V136.26H360.77V104.24Z" fill="black"/>
<path d="M316.92 136.27H331.85V104.24H316.92V136.27Z" fill="#FFC727"/>
<path opacity="0.32" d="M316.92 136.27H331.85V104.24H316.92V136.27Z" fill="black"/>
<path d="M343.85 111.17H344.46H344.92L345.19 110.63L345.55 111.17L346.05 110.07L346.53 111.17H347.88H348.5L348.72 110.43L348.93 111.17H349.33V104.24H343.85V111.17Z" fill="white"/>
<path d="M317.94 134.06C319.05 131.79 320.14 129.5 321.23 127.21L324.47 120.32L327.67 113.4C328.73 111.09 329.78 108.78 330.82 106.4C329.707 108.68 328.61 110.963 327.53 113.25L324.29 120.14L321.09 127.06C320.03 129.4 318.98 131.733 317.94 134.06Z" fill="#FFC727"/>
<path d="M317.94 106.45C318.94 108.78 320.03 111.09 321.09 113.45L324.29 120.37L327.53 127.26C328.61 129.55 329.71 131.84 330.82 134.11C329.78 131.79 328.73 129.457 327.67 127.11L324.47 120.19L321.23 113.3C320.14 111 319.05 108.73 317.94 106.45Z" fill="#FFC727"/>
<path d="M350.1 83.17C357.16 88.48 370.84 100.37 372.04 106.8C373.61 115.24 366.42 131.8 363.36 135.04C361.29 137.21 352.18 129.25 351.63 127.26C351.08 125.27 358.48 111.83 358.54 110.26C358.6 108.69 349.13 94.61 345 88.34C339.85 80.43 344.13 78.68 350.1 83.17Z" fill="#AD6359"/>
<path d="M348 128.4C348.65 127.65 348.26 127.31 346.54 127.65C344.82 127.99 338.29 130.77 337.54 128.41C336.79 126.05 346.03 122.25 348.93 121.91C351.509 121.742 354.098 121.786 356.67 122.04C355 123.15 351.22 126.2 348 128.4Z" fill="#AD6359"/>
<path d="M364.21 134C361.29 138.87 352.82 141.94 346.5 142.06C345.787 142.096 345.083 141.892 344.5 141.48C341.67 141.58 340.77 140.27 340.77 140.27C338.11 139.56 337.37 138.1 337.37 138.1C337.37 138.1 334.05 138.18 333.66 136.18C333.22 133.94 337.98 134.26 340.66 132.84C346.9 129.57 354.86 123.19 356.57 122.07L364.21 134Z" fill="#AD6359"/>
<path d="M349.67 134C347.858 134.979 345.98 135.831 344.05 136.55C341.889 137.202 339.683 137.697 337.45 138.03C337.439 138.035 337.43 138.042 337.424 138.052C337.417 138.062 337.414 138.073 337.414 138.085C337.414 138.097 337.417 138.108 337.424 138.118C337.43 138.128 337.439 138.135 337.45 138.14C341.829 137.932 346.069 136.532 349.71 134.09C349.8 134 349.77 133.94 349.67 134Z" fill="#263238"/>
<path d="M352.19 137.46C348.582 139.028 344.727 139.949 340.8 140.18C344.783 140.371 348.741 139.45 352.23 137.52C352.34 137.49 352.31 137.41 352.19 137.46Z" fill="#263238"/>
<path d="M353.51 139.36C350.619 140.46 347.591 141.157 344.51 141.43C344.51 141.43 344.51 141.43 344.51 141.43C347.625 141.471 350.706 140.786 353.51 139.43C353.68 139.41 353.63 139.31 353.51 139.36Z" fill="#263238"/>
<path d="M350.5 98.8601L363.89 92.7C363.89 92.7 351.06 82.8001 346.46 81.0001C341.29 78.9301 341.36 82.0001 343.4 86.9201C345.44 91.8401 350.5 98.8601 350.5 98.8601Z" fill="#FFC727"/>
<path d="M360.92 91.19C360.42 91.33 356.22 93.19 355.31 93.61C354.4 94.03 350.69 95.72 349.79 96.24C349.79 96.24 349.79 96.32 349.79 96.31C350.79 95.97 354.52 94.31 355.45 93.86C356.38 93.41 360.45 91.52 360.92 91.25C361 91.23 361 91.18 360.92 91.19Z" fill="#263238"/>
<path d="M314.24 118.4L292.21 120.21L284.82 90.09L306.85 88.28L314.24 118.4Z" fill="#37474F"/>
<path d="M301.58 90.53L291.14 91.38L290.33 88.05L300.77 87.2L301.58 90.53Z" fill="#A6A6A6"/>
<path d="M298.4 87.4L297.11 87.5L296.74 85.97L293.61 86.22L293.99 87.76L292.7 87.86L292.02 85.07L297.74 84.61L298.4 87.4Z" fill="#A6A6A6"/>
<path d="M281.6 103.79C281.634 104.305 281.834 104.795 282.169 105.188C282.504 105.581 282.957 105.855 283.46 105.97C283.46 105.97 281.66 107.44 282.17 109.3C282.43 110.3 284.17 110.68 284.17 110.68C283.782 111.034 283.498 111.488 283.35 111.992C283.201 112.497 283.195 113.032 283.33 113.54C283.533 113.952 283.834 114.307 284.208 114.574C284.581 114.841 285.015 115.011 285.47 115.07C285.47 115.07 284.69 116.88 285.57 118.07C287.34 120.45 298.79 117.86 299.57 113.24C299.95 111.08 297.18 111.87 297.18 111.87C297.18 111.87 300.89 109.78 300.41 107.4C299.93 105.02 296.41 106.26 296.41 106.26C296.41 106.26 299.98 104.26 299.24 101.79C298.5 99.32 295.15 101.12 295.15 101.12C295.15 101.12 297.31 98.82 296.32 97.12C294.68 94.28 289.77 99.41 287.11 99.39L286.11 95.46C286.11 95.46 281.38 101.7 281.6 103.79Z" fill="#AD6359"/>
<path d="M285.75 115.15V115.21C289.883 115.29 293.943 114.111 297.39 111.83C297.5 111.76 297.39 111.55 297.29 111.61C293.635 113.344 289.748 114.536 285.75 115.15Z" fill="#263238"/>
<path d="M295.39 100.81C291.961 103.489 287.92 105.273 283.63 106C283.57 106 283.63 106.09 283.63 106.09C286.048 106.074 288.434 105.542 290.63 104.53C292.541 103.783 294.224 102.549 295.51 100.95C295.54 100.86 295.46 100.75 295.39 100.81Z" fill="#263238"/>
<path d="M333.55 81.46C333.675 82.1078 333.856 82.7435 334.09 83.36C334.316 83.9707 334.591 84.5625 334.91 85.13C335.217 85.6831 335.62 86.1774 336.1 86.59C336.32 86.778 336.586 86.9056 336.87 86.96C337.153 86.9714 337.435 86.913 337.69 86.79C338.857 86.2291 339.882 85.4122 340.69 84.4C340.9 84.15 341.1 83.89 341.3 83.63C341.5 83.37 341.69 83.1 341.87 82.83C342.05 82.56 342.25 82.29 342.42 82.01C342.59 81.73 342.77 81.44 342.95 81.17C342.453 82.4126 341.798 83.5856 341 84.66C340.218 85.79 339.153 86.6937 337.91 87.28C337.561 87.4344 337.18 87.4997 336.8 87.47C336.429 87.3974 336.085 87.2284 335.8 86.98C335.285 86.5149 334.87 85.9502 334.58 85.32C333.97 84.1198 333.619 82.8047 333.55 81.46Z" fill="#263238"/>
</g>
<defs>
<clipPath id="clip0">
<rect width="443.86" height="262.44" fill="white"/>
</clipPath>
</defs>
</svg>
