<svg width="134" height="32" viewBox="0 0 134 32" fill="none" xmlns="http://www.w3.org/2000/svg">
<g clip-path="url(#clip0)">
<path fill-rule="evenodd" clip-rule="evenodd" d="M53.0094 31.9825C51.1241 31.9825 49.5962 30.4546 49.5962 28.5699C49.5962 26.6846 51.1241 25.1574 53.0094 25.1574C54.8941 25.1574 56.4206 26.6846 56.4206 28.5699C56.4206 30.4546 54.8941 31.9825 53.0094 31.9825ZM13.9152 15.1804V9.80026C13.9152 9.29903 13.4991 8.88283 12.9978 8.88283H7.19456C5.96326 8.88283 4.3676 13.8281 4.3676 15.6761C4.3676 15.8075 4.36691 15.934 4.36691 16.055C4.36622 16.2133 4.42291 16.3502 4.53491 16.4622C4.64691 16.5749 4.78311 16.6316 4.94212 16.6316H11.0516C11.6842 16.6274 12.3438 16.6219 12.7842 16.6219C13.6698 16.6219 13.9152 16.3115 13.9152 15.1804ZM29.2862 21.0929L28.4773 20.6262L26.9487 19.7434C26.9093 19.7206 26.8858 19.6805 26.8858 19.6341V19.0416C26.8858 18.9725 26.9425 18.9158 27.0116 18.9158H33.1281C33.1972 18.9158 33.2539 18.9732 33.2539 19.0416V19.6341C33.2539 19.6798 33.2304 19.7206 33.191 19.7434L31.6617 20.6262L30.8535 21.0929C30.8342 21.104 30.3509 21.1102 30.373 21.1102H30.6012C30.6233 21.1102 29.3049 21.104 29.2862 21.0929ZM40.2511 23.1289H17.9293V2.57073C17.9293 1.16036 18.9615 0.0175476 20.2377 0.0175476C20.5696 0.0175476 20.8413 0.317597 20.8413 0.685399C20.8413 1.05389 20.5696 1.35325 20.2377 1.35325C19.63 1.35325 19.1371 1.89873 19.1371 2.57073V21.6681H40.2511V23.1289ZM37.5846 24.7433H40.2511V29.2848H38.5442C38.6553 28.8581 38.7115 28.419 38.7115 27.9781C38.7115 26.7551 38.2891 25.6324 37.5846 24.7433ZM28.7649 24.7433H29.4148C28.9765 25.295 29.2012 25.2908 28.7649 24.7433ZM33.4993 30.2506C32.2459 30.2506 31.2282 29.2323 31.2282 27.9781C31.2282 26.7233 32.2459 25.707 33.4993 25.707C34.7535 25.707 35.7711 26.7233 35.7711 27.9781C35.7711 29.2323 34.7535 30.2506 33.4993 30.2506ZM33.4993 31.9825C31.2884 31.9825 29.4957 30.1898 29.4957 27.9781C29.4957 25.7672 31.2884 23.9745 33.4993 23.9745C35.711 23.9745 37.5044 25.7672 37.5044 27.9781C37.5044 30.1898 35.711 31.9825 33.4993 31.9825ZM33.4993 28.964C32.9539 28.964 32.5135 28.5215 32.5135 27.9781C32.5135 27.4333 32.9539 26.9929 33.4993 26.9929C34.0427 26.9929 34.4859 27.4333 34.4859 27.9781C34.4859 28.5215 34.0427 28.964 33.4993 28.964ZM24.6804 30.2506C23.4249 30.2506 22.4086 29.2323 22.4086 27.9781C22.4086 26.7233 23.4249 25.707 24.6804 25.707C25.9338 25.707 26.9515 26.7233 26.9515 27.9781C26.9515 29.2323 25.9338 30.2506 24.6804 30.2506ZM24.6804 31.9825C22.4687 31.9825 20.676 30.1898 20.676 27.9781C20.676 25.7672 22.4687 23.9745 24.6804 23.9745C26.8913 23.9745 28.6826 25.7672 28.6826 27.9781C28.6826 30.1898 26.8913 31.9825 24.6804 31.9825ZM24.6804 28.964C24.1349 28.964 23.6945 28.5215 23.6945 27.9781C23.6945 27.4333 24.1349 26.9929 24.6804 26.9929C25.2238 26.9929 25.6663 27.4333 25.6663 27.9781C25.6663 28.5215 25.2238 28.964 24.6804 28.964ZM17.8733 24.7433H20.5958C19.8913 25.6324 19.4689 26.7551 19.4689 27.9781C19.4689 28.4296 19.527 28.8679 19.6342 29.2848H17.8733V24.7433ZM16.6655 9.80026L16.662 7.50841H5.85886C5.82775 7.52984 5.79871 7.55473 5.77106 7.58308C4.97116 8.40717 4.65521 9.14969 4.05373 10.1404C2.80237 12.2138 2.68622 14.5098 1.91743 16.5915V24.7426C1.41274 24.7426 1 25.1553 1 25.66V28.3687C1 28.8721 1.41274 29.2862 1.91743 29.2862H6.20454C6.09936 28.8581 6.04597 28.4189 6.04553 27.9781C6.04553 25.006 8.45422 22.6001 11.4243 22.6001C13.9775 22.6001 16.1165 24.3782 16.6655 26.7648V9.80026ZM16.6606 6.96708L16.6544 3.87671C14.1856 3.72184 10.5573 5.25527 7.11644 6.96708H16.6606ZM2.59358 19.2615H3.75022C3.86084 19.2615 3.9521 19.3521 3.9521 19.4627V22.336C3.9521 22.4466 3.86084 22.5371 3.75022 22.5371H2.59358V19.2615ZM11.4243 30.2499C10.1709 30.2499 9.15249 29.2316 9.15249 27.9781C9.15249 26.7226 10.1709 25.7063 11.4243 25.7063C12.6798 25.7063 13.6961 26.7226 13.6961 27.9781C13.6961 29.2316 12.6798 30.2499 11.4243 30.2499ZM11.4243 31.9825C9.21264 31.9825 7.41995 30.1898 7.41995 27.9781C7.41995 25.7665 9.21264 23.9745 11.4243 23.9745C13.6353 23.9745 15.4286 25.7665 15.4286 27.9781C15.4286 30.1898 13.6353 31.9825 11.4243 31.9825ZM11.4243 28.964C10.8809 28.964 10.4384 28.5215 10.4384 27.9781C10.4384 27.4333 10.8809 26.9923 11.4243 26.9923C11.9698 26.9923 12.4102 27.4333 12.4102 27.9781C12.4102 28.5215 11.9698 28.964 11.4243 28.964ZM21.0819 16.7436C21.1731 16.5203 21.3031 16.3115 21.4739 16.1151L21.9191 15.6049C22.3574 15.1023 22.9306 14.8416 23.597 14.8416H40.1198C41.6408 14.8416 42.9426 15.6547 43.6146 17.0187L45.67 21.1855C45.8615 21.5748 46.2335 21.8071 46.6683 21.8071H130.086L133.091 7.44619H133.591L132.086 21.8071V23.4767H44.5714C43.3671 23.4767 42.3079 22.9049 41.7106 21.8589L40.1163 19.0686C39.9884 18.8557 39.8204 18.6904 39.6241 18.5791L39.6248 18.5777C39.4333 18.4706 39.2051 18.4132 38.9514 18.4132H20.9263L21.0819 16.7436ZM122.796 25.1685H123.445C123.007 25.7202 123.231 25.7153 122.796 25.1685ZM115.415 25.1685H116.065C115.626 25.7202 115.85 25.7153 115.415 25.1685ZM108.034 25.1685H108.684C108.245 25.7202 108.47 25.7153 108.034 25.1685ZM100.653 25.1685H101.303C100.865 25.7202 101.089 25.7153 100.653 25.1685ZM93.272 25.1685H93.9219C93.4836 25.7202 93.7083 25.7153 93.272 25.1685ZM85.8918 25.1685H86.541C86.1027 25.7202 86.3274 25.7153 85.8918 25.1685ZM78.5109 25.1685H79.16C78.7217 25.7202 78.9464 25.7153 78.5109 25.1685ZM71.1299 25.1685H71.7798C71.3415 25.7202 71.5655 25.7153 71.1299 25.1685ZM63.749 25.1685H64.3989C63.9606 25.7202 64.1852 25.7153 63.749 25.1685ZM132.086 25.1685H129.785C129.859 25.2334 129.93 25.3005 130 25.3696H130.004C130.823 26.1889 131.33 27.32 131.33 28.5699C131.33 29.2544 131.177 29.9036 130.905 30.485H132.086V25.1685ZM126.812 31.9825C124.927 31.9825 123.399 30.4546 123.399 28.5699C123.399 26.6846 124.927 25.1574 126.812 25.1574C128.697 25.1574 130.223 26.6846 130.223 28.5699C130.223 30.4546 128.697 31.9825 126.812 31.9825ZM126.811 29.4099C126.346 29.4099 125.97 29.0331 125.97 28.5699C125.97 28.1053 126.346 27.7292 126.811 27.7292C127.274 27.7292 127.651 28.1053 127.651 28.5699C127.651 29.0331 127.274 29.4099 126.811 29.4099ZM126.812 30.5064C125.742 30.5064 124.875 29.6381 124.875 28.5699C124.875 27.4997 125.742 26.6334 126.812 26.6334C127.881 26.6334 128.748 27.4997 128.748 28.5699C128.748 29.6381 127.881 30.5064 126.812 30.5064ZM119.431 31.9825C117.546 31.9825 116.018 30.4546 116.018 28.5699C116.018 26.6846 117.546 25.1574 119.431 25.1574C121.316 25.1574 122.842 26.6846 122.842 28.5699C122.842 30.4546 121.316 31.9825 119.431 31.9825ZM119.43 29.4099C118.965 29.4099 118.59 29.0331 118.59 28.5699C118.59 28.1053 118.965 27.7292 119.43 27.7292C119.893 27.7292 120.27 28.1053 120.27 28.5699C120.27 29.0331 119.893 29.4099 119.43 29.4099ZM119.431 30.5064C118.361 30.5064 117.494 29.6381 117.494 28.5699C117.494 27.4997 118.361 26.6334 119.431 26.6334C120.5 26.6334 121.367 27.4997 121.367 28.5699C121.367 29.6381 120.5 30.5064 119.431 30.5064ZM112.05 31.9825C110.165 31.9825 108.637 30.4546 108.637 28.5699C108.637 26.6846 110.165 25.1574 112.05 25.1574C113.935 25.1574 115.461 26.6846 115.461 28.5699C115.461 30.4546 113.935 31.9825 112.05 31.9825ZM112.049 29.4099C111.585 29.4099 111.209 29.0331 111.209 28.5699C111.209 28.1053 111.585 27.7292 112.049 27.7292C112.513 27.7292 112.889 28.1053 112.889 28.5699C112.889 29.0331 112.513 29.4099 112.049 29.4099ZM112.05 30.5064C110.98 30.5064 110.114 29.6381 110.114 28.5699C110.114 27.4997 110.98 26.6334 112.05 26.6334C113.119 26.6334 113.986 27.4997 113.986 28.5699C113.986 29.6381 113.119 30.5064 112.05 30.5064ZM104.67 31.9825C102.784 31.9825 101.256 30.4546 101.256 28.5699C101.256 26.6846 102.784 25.1574 104.67 25.1574C106.554 25.1574 108.081 26.6846 108.081 28.5699C108.081 30.4546 106.554 31.9825 104.67 31.9825ZM104.668 29.4099C104.204 29.4099 103.828 29.0331 103.828 28.5699C103.828 28.1053 104.204 27.7292 104.668 27.7292C105.132 27.7292 105.509 28.1053 105.509 28.5699C105.509 29.0331 105.132 29.4099 104.668 29.4099ZM104.67 30.5064C103.599 30.5064 102.733 29.6381 102.733 28.5699C102.733 27.4997 103.599 26.6334 104.67 26.6334C105.738 26.6334 106.606 27.4997 106.606 28.5699C106.606 29.6381 105.738 30.5064 104.67 30.5064ZM97.2888 31.9825C95.4035 31.9825 93.8756 30.4546 93.8756 28.5699C93.8756 26.6846 95.4035 25.1574 97.2888 25.1574C99.1735 25.1574 100.7 26.6846 100.7 28.5699C100.7 30.4546 99.1735 31.9825 97.2888 31.9825ZM97.2874 29.4099C96.8228 29.4099 96.4474 29.0331 96.4474 28.5699C96.4474 28.1053 96.8228 27.7292 97.2874 27.7292C97.7506 27.7292 98.1281 28.1053 98.1281 28.5699C98.1281 29.0331 97.7506 29.4099 97.2874 29.4099ZM97.2888 30.5064C96.2186 30.5064 95.3523 29.6381 95.3523 28.5699C95.3523 27.4997 96.2186 26.6334 97.2888 26.6334C98.357 26.6334 99.2246 27.4997 99.2246 28.5699C99.2246 29.6381 98.357 30.5064 97.2888 30.5064ZM89.9079 31.9825C88.0226 31.9825 86.4947 30.4546 86.4947 28.5699C86.4947 26.6846 88.0226 25.1574 89.9079 25.1574C91.7925 25.1574 93.319 26.6846 93.319 28.5699C93.319 30.4546 91.7925 31.9825 89.9079 31.9825ZM89.9072 29.4099C89.4419 29.4099 89.0665 29.0331 89.0665 28.5699C89.0665 28.1053 89.4419 27.7292 89.9072 27.7292C90.3697 27.7292 90.7472 28.1053 90.7472 28.5699C90.7472 29.0331 90.3697 29.4099 89.9072 29.4099ZM89.9079 30.5064C88.8377 30.5064 87.9714 29.6381 87.9714 28.5699C87.9714 27.4997 88.8377 26.6334 89.9079 26.6334C90.9767 26.6334 91.8437 27.4997 91.8437 28.5699C91.8437 29.6381 90.9767 30.5064 89.9079 30.5064ZM82.527 31.9825C80.6423 31.9825 79.1137 30.4546 79.1137 28.5699C79.1137 26.6846 80.6423 25.1574 82.527 25.1574C84.4116 25.1574 85.9381 26.6846 85.9381 28.5699C85.9381 30.4546 84.4116 31.9825 82.527 31.9825ZM82.5263 29.4099C82.061 29.4099 81.6856 29.0331 81.6856 28.5699C81.6856 28.1053 82.061 27.7292 82.5263 27.7292C82.9895 27.7292 83.3663 28.1053 83.3663 28.5699C83.3663 29.0331 82.9895 29.4099 82.5263 29.4099ZM82.527 30.5064C81.4567 30.5064 80.5905 29.6381 80.5905 28.5699C80.5905 27.4997 81.4567 26.6334 82.527 26.6334C83.5958 26.6334 84.4628 27.4997 84.4628 28.5699C84.4628 29.6381 83.5958 30.5064 82.527 30.5064ZM75.146 31.9825C73.2614 31.9825 71.7328 30.4546 71.7328 28.5699C71.7328 26.6846 73.2614 25.1574 75.146 25.1574C77.0307 25.1574 78.5572 26.6846 78.5572 28.5699C78.5572 30.4546 77.0307 31.9825 75.146 31.9825ZM75.1453 29.4099C74.68 29.4099 74.3046 29.0331 74.3046 28.5699C74.3046 28.1053 74.68 27.7292 75.1453 27.7292C75.6085 27.7292 75.9853 28.1053 75.9853 28.5699C75.9853 29.0331 75.6085 29.4099 75.1453 29.4099ZM75.146 30.5064C74.0758 30.5064 73.2095 29.6381 73.2095 28.5699C73.2095 27.4997 74.0758 26.6334 75.146 26.6334C76.2149 26.6334 77.0825 27.4997 77.0825 28.5699C77.0825 29.6381 76.2149 30.5064 75.146 30.5064ZM67.7651 31.9825C65.8804 31.9825 64.3519 30.4546 64.3519 28.5699C64.3519 26.6846 65.8804 25.1574 67.7651 25.1574C69.6497 25.1574 71.1762 26.6846 71.1762 28.5699C71.1762 30.4546 69.6497 31.9825 67.7651 31.9825ZM67.7644 29.4099C67.2998 29.4099 66.9237 29.0331 66.9237 28.5699C66.9237 28.1053 67.2998 27.7292 67.7644 27.7292C68.2276 27.7292 68.6044 28.1053 68.6044 28.5699C68.6044 29.0331 68.2276 29.4099 67.7644 29.4099ZM67.7651 30.5064C66.6949 30.5064 65.8286 29.6381 65.8286 28.5699C65.8286 27.4997 66.6949 26.6334 67.7651 26.6334C68.8339 26.6334 69.7016 27.4997 69.7016 28.5699C69.7016 29.6381 68.8339 30.5064 67.7651 30.5064ZM60.3848 31.9825C58.4995 31.9825 56.9709 30.4546 56.9709 28.5699C56.9709 26.6846 58.4995 25.1574 60.3848 25.1574C62.2695 25.1574 63.796 26.6846 63.796 28.5699C63.796 30.4546 62.2695 31.9825 60.3848 31.9825ZM60.3835 29.4099C59.9189 29.4099 59.5428 29.0331 59.5428 28.5699C59.5428 28.1053 59.9189 27.7292 60.3835 27.7292C60.8467 27.7292 61.2242 28.1053 61.2242 28.5699C61.2242 29.0331 60.8467 29.4099 60.3835 29.4099ZM60.3848 30.5064C59.3139 30.5064 58.4484 29.6381 58.4484 28.5699C58.4484 27.4997 59.3139 26.6334 60.3848 26.6334C61.453 26.6334 62.3207 27.4997 62.3207 28.5699C62.3207 29.6381 61.453 30.5064 60.3848 30.5064ZM47.7268 25.1685H50.0283C49.9543 25.2334 49.8824 25.3005 49.8133 25.3696H49.8092C48.9899 26.1889 48.4831 27.32 48.4831 28.5699C48.4831 29.2544 48.6352 29.9036 48.9076 30.485H47.7268V25.1685ZM56.3708 25.1685H57.0207C56.5824 25.7202 56.8071 25.7153 56.3708 25.1685ZM53.0081 29.4099C52.5435 29.4099 52.1681 29.0331 52.1681 28.5699C52.1681 28.1053 52.5435 27.7292 53.0081 27.7292C53.4713 27.7292 53.8488 28.1053 53.8488 28.5699C53.8488 29.0331 53.4713 29.4099 53.0081 29.4099ZM53.0094 30.5064C51.9392 30.5064 51.073 29.6381 51.073 28.5699C51.073 27.4997 51.9392 26.6334 53.0094 26.6334C54.0776 26.6334 54.9452 27.4997 54.9452 28.5699C54.9452 29.6381 54.0776 30.5064 53.0094 30.5064Z" fill="#434242"/>
</g>
<defs>
<clipPath id="clip0">
<rect width="132.591" height="32" fill="white" transform="translate(1)"/>
</clipPath>
</defs>
</svg>
