<svg width="118" height="32" viewBox="0 0 118 32" fill="none" xmlns="http://www.w3.org/2000/svg">
<path fill-rule="evenodd" clip-rule="evenodd" d="M14.9173 15.1802V9.79901C14.9173 9.29757 14.5008 8.88177 14 8.88177H8.19548C6.96398 8.88177 5.3678 13.8278 5.3678 15.6754C5.3678 15.8073 5.3678 15.9337 5.36711 16.0546C5.36711 16.2134 5.42305 16.3502 5.53495 16.4621C5.64753 16.5747 5.78359 16.6313 5.94245 16.6313H12.0537C12.6856 16.6272 13.3459 16.6216 13.7866 16.6216C14.6721 16.6216 14.9173 16.3115 14.9173 15.1802ZM23.7553 17.5782C23.8458 17.3551 23.9763 17.1459 24.1469 16.9497L24.5924 16.4393C25.0303 15.9365 25.6036 15.6761 26.2701 15.6761H41.9612C43.4821 15.6761 44.7861 16.4876 45.4568 17.8531L49.1851 25.4403C49.8564 26.8058 51.1598 27.6174 52.6814 27.6174H81.7994C82.0101 27.6174 82.1993 27.5801 82.3651 27.5076C82.5309 27.435 82.6856 27.3211 82.8265 27.1678L86.8366 22.7991C87.1329 22.4766 87.4755 22.23 87.8588 22.0615C88.2415 21.8937 88.6538 21.808 89.0896 21.808H116.713V23.4774H89.0896C88.879 23.4774 88.6897 23.5147 88.524 23.5872C88.3582 23.6604 88.2035 23.7737 88.0626 23.9277L84.0524 28.2956C83.7561 28.6182 83.4136 28.8648 83.0302 29.0333C82.6476 29.2018 82.2359 29.2868 81.7994 29.2868H50.2557C49.4151 29.2868 48.6277 29.0789 47.9363 28.688L47.937 28.6866C47.2477 28.2963 46.6648 27.7286 46.231 27.0075L41.9577 19.9031C41.83 19.6904 41.6614 19.5253 41.4653 19.4141L41.466 19.4127C41.2746 19.305 41.046 19.2483 40.7925 19.2483H23.5992L23.7553 17.5782ZM105.225 24.7448H105.875C105.436 25.2967 105.661 25.2918 105.225 24.7448ZM31.5435 21.6353L30.734 21.1684L29.2049 20.285C29.1648 20.2622 29.142 20.2222 29.142 20.1759V19.7788C29.142 19.7097 29.1986 19.6531 29.2677 19.6531H35.3858C35.4549 19.6531 35.5115 19.7097 35.5115 19.7788V20.1759C35.5115 20.2222 35.4887 20.2622 35.4487 20.285L33.9195 21.1684L33.11 21.6353C33.0907 21.6464 33.0706 21.6519 33.0478 21.6519H31.6057C31.5829 21.6519 31.5629 21.6464 31.5435 21.6353ZM109.96 31.9853C107.749 31.9853 105.956 30.1923 105.956 27.9807C105.956 25.7684 107.749 23.9761 109.96 23.9761C112.172 23.9761 113.965 25.7684 113.965 27.9807C113.965 30.1923 112.172 31.9853 109.96 31.9853ZM109.96 30.2524C108.707 30.2524 107.689 29.2343 107.689 27.9807C107.689 26.725 108.707 25.7083 109.96 25.7083C111.214 25.7083 112.233 26.725 112.233 27.9807C112.233 29.2343 111.214 30.2524 109.96 30.2524ZM109.962 28.9663C109.417 28.9663 108.977 28.5236 108.977 27.9807C108.977 27.4351 109.417 26.9944 109.962 26.9944C110.506 26.9944 110.949 27.4351 110.949 27.9807C110.949 28.5236 110.506 28.9663 109.962 28.9663ZM114.046 24.7448H116.713V29.2868H115.006C115.117 28.8603 115.173 28.4214 115.173 27.9807C115.173 26.7568 114.75 25.6337 114.046 24.7448ZM96.402 24.7448H97.0519C96.6133 25.2967 96.8378 25.2918 96.402 24.7448ZM101.137 31.9853C98.925 31.9853 97.1327 30.1923 97.1327 27.9807C97.1327 25.7684 98.925 23.9761 101.137 23.9761C103.349 23.9761 105.143 25.7684 105.143 27.9807C105.143 30.1923 103.349 31.9853 101.137 31.9853ZM101.137 30.2524C99.8837 30.2524 98.865 29.2343 98.865 27.9807C98.865 26.725 99.8837 25.7083 101.137 25.7083C102.391 25.7083 103.41 26.725 103.41 27.9807C103.41 29.2343 102.391 30.2524 101.137 30.2524ZM101.137 28.9663C100.592 28.9663 100.151 28.5236 100.151 27.9807C100.151 27.4351 100.592 26.9944 101.137 26.9944C101.681 26.9944 102.124 27.4351 102.124 27.9807C102.124 28.5236 101.681 28.9663 101.137 28.9663ZM92.3165 31.9853C90.1049 31.9853 88.3112 30.1923 88.3112 27.9807C88.3112 25.7684 90.1049 23.9761 92.3165 23.9761C94.5281 23.9761 96.3191 25.7684 96.3191 27.9807C96.3191 30.1923 94.5281 31.9853 92.3165 31.9853ZM92.3165 30.2524C91.0609 30.2524 90.0442 29.2343 90.0442 27.9807C90.0442 26.725 91.0609 25.7083 92.3165 25.7083C93.5701 25.7083 94.5882 26.725 94.5882 27.9807C94.5882 29.2343 93.5701 30.2524 92.3165 30.2524ZM92.3165 28.9663C91.7709 28.9663 91.3302 28.5236 91.3302 27.9807C91.3302 27.4351 91.7709 26.9944 92.3165 26.9944C92.8601 26.9944 93.3028 27.4351 93.3028 27.9807C93.3028 28.5236 92.8601 28.9663 92.3165 28.9663ZM41.2581 23.4774H18.9322V2.56819C18.9322 1.1578 19.9648 0.0147095 21.2405 0.0147095C21.5727 0.0147095 21.8442 0.314468 21.8442 0.682605C21.8442 1.05143 21.5727 1.35119 21.2405 1.35119C20.6327 1.35119 20.1403 1.89615 20.1403 2.56819V22.0166H41.2581V23.4774ZM38.5906 24.7448H41.2581V29.2868H39.5507C39.6617 28.8603 39.7179 28.4214 39.7178 27.9807C39.7178 26.7568 39.2951 25.6337 38.5906 24.7448ZM29.7698 24.7448H30.4198C29.9812 25.2967 30.2057 25.2918 29.7698 24.7448ZM34.5052 30.2524C33.2516 30.2524 32.2328 29.2343 32.2328 27.9807C32.2328 26.725 33.2516 25.7083 34.5052 25.7083C35.7588 25.7083 36.7776 26.725 36.7776 27.9807C36.7776 29.2343 35.7588 30.2524 34.5052 30.2524ZM34.5052 31.9853C32.2936 31.9853 30.5006 30.1923 30.5006 27.9807C30.5006 25.7684 32.2936 23.9761 34.5052 23.9761C36.7168 23.9761 38.5105 25.7684 38.5105 27.9807C38.5105 30.1923 36.7168 31.9853 34.5052 31.9853ZM34.5052 28.9663C33.9596 28.9663 33.5189 28.5236 33.5189 27.9807C33.5189 27.4351 33.9596 26.9944 34.5052 26.9944C35.0488 26.9944 35.4915 27.4351 35.4915 27.9807C35.4915 28.5236 35.0488 28.9663 34.5052 28.9663ZM25.6844 30.2524C24.4287 30.2524 23.412 29.2343 23.412 27.9807C23.412 26.725 24.4287 25.7083 25.6844 25.7083C26.938 25.7083 27.9561 26.725 27.9561 27.9807C27.9561 29.2343 26.938 30.2524 25.6844 30.2524ZM25.6844 31.9853C23.4728 31.9853 21.6791 30.1923 21.6791 27.9807C21.6791 25.7684 23.4728 23.9761 25.6844 23.9761C27.896 23.9761 29.687 25.7684 29.687 27.9807C29.687 30.1923 27.896 31.9853 25.6844 31.9853ZM25.6844 28.9663C25.1388 28.9663 24.6981 28.5236 24.6981 27.9807C24.6981 27.4351 25.1388 26.9944 25.6844 26.9944C26.228 26.9944 26.6707 27.4351 26.6707 27.9807C26.6707 28.5236 26.228 28.9663 25.6844 28.9663ZM18.8763 24.7448H21.599C20.8945 25.6337 20.4718 26.7568 20.4718 27.9807C20.4718 28.4317 20.5298 28.8703 20.6369 29.2868H18.8763V24.7448ZM17.6683 9.79901L17.6641 7.5073H6.85969C6.82861 7.52871 6.7996 7.55358 6.77197 7.58189C5.97146 8.40589 5.65582 9.14838 5.05423 10.1395C3.8027 12.213 3.68597 14.5095 2.91793 16.5919V24.7441C2.41234 24.7441 2 25.1565 2 25.6614V28.3709C2 28.8738 2.41234 29.2882 2.91793 29.2882H7.20572C7.10007 28.8601 7.0465 28.4209 7.04617 27.98C7.04617 25.0073 9.45529 22.6009 12.4259 22.6009C14.9801 22.6009 17.1192 24.3794 17.6683 26.7665V9.79901ZM17.6634 6.9658L17.6572 3.87497C15.1873 3.71956 11.5584 5.25358 8.11743 6.9658H17.6634ZM3.59342 19.2621H4.75101C4.86152 19.2621 4.952 19.3526 4.952 19.4631V22.3371C4.952 22.4476 4.86152 22.5388 4.75101 22.5388H3.59342V19.2621ZM12.4259 30.2524C11.1723 30.2524 10.1536 29.2336 10.1536 27.98C10.1536 26.7243 11.1723 25.7076 12.4259 25.7076C13.6816 25.7076 14.6983 26.7243 14.6983 27.98C14.6983 29.2336 13.6816 30.2524 12.4259 30.2524ZM12.4259 31.9853C10.2144 31.9853 8.42064 30.1916 8.42064 27.98C8.42064 25.7684 10.2144 23.9754 12.4259 23.9754C14.6375 23.9754 16.4313 25.7684 16.4313 27.98C16.4313 30.1916 14.6375 31.9853 12.4259 31.9853ZM12.4259 28.9663C11.8824 28.9663 11.4396 28.5236 11.4396 27.98C11.4396 27.4351 11.8824 26.9944 12.4259 26.9944C12.9716 26.9944 13.4123 27.4351 13.4123 27.98C13.4123 28.5236 12.9716 28.9663 12.4259 28.9663Z" fill="#434242"/>
</svg>
