<svg width="118" height="32" viewBox="0 0 118 32" fill="none" xmlns="http://www.w3.org/2000/svg">
<g clip-path="url(#clip0)">
<path fill-rule="evenodd" clip-rule="evenodd" d="M21.0899 16.744C21.1804 16.5202 21.3109 16.3109 21.4822 16.1154L21.9278 15.6042C22.3657 15.102 22.939 14.8409 23.6056 14.8409H40.1346C41.6564 14.8409 42.9585 15.6546 43.6312 17.0189L45.6869 21.1869C45.879 21.5765 46.2513 21.8093 46.6858 21.8093H113.737L116.743 7.44296H117.243L115.738 21.8093V23.4788H44.5879C43.3833 23.4788 42.3237 22.9069 41.7261 21.8611L40.1319 19.069C40.0041 18.8563 39.8356 18.6912 39.6387 18.58L39.6394 18.5786C39.448 18.4708 39.2194 18.4135 38.9659 18.4135H20.9338L21.0899 16.744ZM104.804 24.7463H105.453C105.015 25.2983 105.24 25.2941 104.804 24.7463ZM109.401 31.9889C107.189 31.9889 105.396 30.195 105.396 27.9832C105.396 25.7707 107.189 23.9775 109.401 23.9775C111.614 23.9775 113.407 25.7707 113.407 27.9832C113.407 30.195 111.614 31.9889 109.401 31.9889ZM109.401 30.2558C108.148 30.2558 107.129 29.2369 107.129 27.9832C107.129 26.7267 108.148 25.7106 109.401 25.7106C110.655 25.7106 111.674 26.7267 111.674 27.9832C111.674 29.2369 110.655 30.2558 109.401 30.2558ZM109.401 28.9696C108.856 28.9696 108.415 28.5268 108.415 27.9832C108.415 27.4375 108.856 26.9968 109.401 26.9968C109.945 26.9968 110.388 27.4375 110.388 27.9832C110.388 28.5268 109.945 28.9696 109.401 28.9696ZM96.257 24.7463H96.907C96.4684 25.2983 96.6929 25.2941 96.257 24.7463ZM100.855 31.9889C98.6429 31.9889 96.849 30.195 96.849 27.9832C96.849 25.7707 98.6429 23.9775 100.855 23.9775C103.067 23.9775 104.861 25.7707 104.861 27.9832C104.861 30.195 103.067 31.9889 100.855 31.9889ZM100.855 30.2558C99.6009 30.2558 98.5821 29.2369 98.5821 27.9832C98.5821 26.7267 99.6009 25.7106 100.855 25.7106C102.109 25.7106 103.128 26.7267 103.128 27.9832C103.128 29.2369 102.109 30.2558 100.855 30.2558ZM100.855 28.9696C100.31 28.9696 99.8689 28.5268 99.8689 27.9832C99.8689 27.4375 100.31 26.9968 100.855 26.9968C101.398 26.9968 101.842 27.4375 101.842 27.9832C101.842 28.5268 101.398 28.9696 100.855 28.9696ZM87.7103 24.7463H88.3603C87.9217 25.2983 88.1469 25.2941 87.7103 24.7463ZM92.3087 31.9889C90.0962 31.9889 88.303 30.195 88.303 27.9832C88.303 25.7707 90.0962 23.9775 92.3087 23.9775C94.5211 23.9775 96.3143 25.7707 96.3143 27.9832C96.3143 30.195 94.5211 31.9889 92.3087 31.9889ZM92.3087 30.2558C91.0542 30.2558 90.0361 29.2369 90.0361 27.9832C90.0361 26.7267 91.0542 25.7106 92.3087 25.7106C93.5624 25.7106 94.5812 26.7267 94.5812 27.9832C94.5812 29.2369 93.5624 30.2558 92.3087 30.2558ZM92.3087 28.9696C91.763 28.9696 91.3223 28.5268 91.3223 27.9832C91.3223 27.4375 91.763 26.9968 92.3087 26.9968C92.8523 26.9968 93.2951 27.4375 93.2951 27.9832C93.2951 28.5268 92.8523 28.9696 92.3087 28.9696ZM113.07 24.7463H115.738V29.2894H114.03C114.141 28.863 114.198 28.424 114.197 27.9832C114.197 26.7592 113.775 25.636 113.07 24.7463ZM79.1643 24.7463H79.8143C79.3757 25.2983 79.6002 25.2941 79.1643 24.7463ZM83.762 31.9889C81.5495 31.9889 79.7563 30.195 79.7563 27.9832C79.7563 25.7707 81.5495 23.9775 83.762 23.9775C85.9744 23.9775 87.7683 25.7707 87.7683 27.9832C87.7683 30.195 85.9744 31.9889 83.762 31.9889ZM83.762 30.2558C82.5082 30.2558 81.4894 29.2369 81.4894 27.9832C81.4894 26.7267 82.5082 25.7106 83.762 25.7106C85.0164 25.7106 86.0345 26.7267 86.0345 27.9832C86.0345 29.2369 85.0164 30.2558 83.762 30.2558ZM83.762 28.9696C83.2163 28.9696 82.7756 28.5268 82.7756 27.9832C82.7756 27.4375 83.2163 26.9968 83.762 26.9968C84.3056 26.9968 84.7484 27.4375 84.7484 27.9832C84.7484 28.5268 84.3056 28.9696 83.762 28.9696ZM75.2173 31.9889C73.0049 31.9889 71.211 30.195 71.211 27.9832C71.211 25.7707 73.0049 23.9775 75.2173 23.9775C77.4291 23.9775 79.2209 25.7707 79.2209 27.9832C79.2209 30.195 77.4291 31.9889 75.2173 31.9889ZM75.2173 30.2558C73.9609 30.2558 72.9441 29.2369 72.9441 27.9832C72.9441 26.7267 73.9609 25.7106 75.2173 25.7106C76.4711 25.7106 77.4892 26.7267 77.4892 27.9832C77.4892 29.2369 76.4711 30.2558 75.2173 30.2558ZM75.216 28.9696C74.6703 28.9696 74.2296 28.5268 74.2296 27.9832C74.2296 27.4375 74.6703 26.9968 75.216 26.9968C75.7596 26.9968 76.2023 27.4375 76.2023 27.9832C76.2023 28.5268 75.7596 28.9696 75.216 28.9696ZM68.8244 24.7463H71.5481C70.8435 25.636 70.4207 26.7592 70.4207 27.9832C70.4207 28.4343 70.4788 28.8729 70.5858 29.2894H68.8244V24.7463ZM13.9205 15.1801V9.79774C13.9205 9.29625 13.5033 8.87973 13.0025 8.87973H7.19675C5.96514 8.87973 4.36881 13.8276 4.36881 15.6754C4.36881 15.8073 4.36881 15.9337 4.36811 16.0546C4.36742 16.2135 4.42407 16.3502 4.53597 16.4621C4.64787 16.5747 4.78464 16.6314 4.94351 16.6314H11.0553C11.688 16.6272 12.3484 16.6217 12.7891 16.6217C13.6746 16.6217 13.9205 16.3115 13.9205 15.1801ZM29.2974 21.095L28.4885 20.6281L26.9585 19.7446C26.9191 19.7218 26.8957 19.6817 26.8957 19.6355V19.0428C26.8957 18.973 26.9523 18.9164 27.0214 18.9164H33.1408C33.2098 18.9164 33.2665 18.9737 33.2665 19.0428V19.6355C33.2665 19.681 33.243 19.7218 33.2036 19.7446L31.6736 20.6281L30.8647 21.095C30.8454 21.1061 30.3619 21.1116 30.3847 21.1116H30.6126C30.6347 21.1116 29.3161 21.1061 29.2974 21.095ZM40.2666 23.1314H17.9359V2.56555C17.9359 1.15434 18.9686 0.0111389 20.2451 0.0111389C20.5773 0.0111389 20.8488 0.310926 20.8488 0.679098C20.8488 1.04796 20.5773 1.34775 20.2451 1.34775C19.6372 1.34775 19.144 1.89344 19.144 2.56555V21.6704H40.2666V23.1314ZM37.5982 24.7463H40.2666V29.2894H38.5583C38.6699 28.863 38.7264 28.424 38.7262 27.9832C38.7262 26.7592 38.3035 25.636 37.5982 24.7463ZM28.7759 24.7463H29.4259C28.9873 25.2983 29.2118 25.2941 28.7759 24.7463ZM33.5124 30.2558C32.258 30.2558 31.2398 29.2369 31.2398 27.9832C31.2398 26.7267 32.258 25.7106 33.5124 25.7106C34.7661 25.7106 35.785 26.7267 35.785 27.9832C35.785 29.2369 34.7661 30.2558 33.5124 30.2558ZM33.5124 31.9889C31.2999 31.9889 29.5067 30.195 29.5067 27.9832C29.5067 25.7707 31.2999 23.9775 33.5124 23.9775C35.7249 23.9775 37.5181 25.7707 37.5181 27.9832C37.5181 30.195 35.7249 31.9889 33.5124 31.9889ZM33.5124 28.9689C32.9667 28.9689 32.526 28.5261 32.526 27.9832C32.526 27.4375 32.9667 26.9968 33.5124 26.9968C34.0553 26.9968 34.4988 27.4375 34.4988 27.9832C34.4988 28.5261 34.0553 28.9689 33.5124 28.9689ZM24.6894 30.2558C23.4336 30.2558 22.4168 29.2369 22.4168 27.9832C22.4168 26.7267 23.4336 25.7106 24.6894 25.7106C25.9438 25.7106 26.962 26.7267 26.962 27.9832C26.962 29.2369 25.9438 30.2558 24.6894 30.2558ZM24.6894 31.9889C22.4776 31.9889 20.6837 30.195 20.6837 27.9832C20.6837 25.7707 22.4776 23.9775 24.6894 23.9775C26.9019 23.9775 28.693 25.7707 28.693 27.9832C28.693 30.195 26.9019 31.9889 24.6894 31.9889ZM24.6894 28.9689C24.1444 28.9689 23.703 28.5261 23.703 27.9832C23.703 27.4375 24.1444 26.9968 24.6894 26.9968C25.233 26.9968 25.6758 27.4375 25.6758 27.9832C25.6758 28.5261 25.233 28.9689 24.6894 28.9689ZM17.8799 24.7463H20.6029C19.8983 25.636 19.4756 26.7592 19.4756 27.9832C19.4756 28.4343 19.5343 28.8729 19.6414 29.2894H17.8799V24.7463ZM16.6718 9.79774L16.6677 7.50513H5.86083C5.82975 7.52654 5.80074 7.55141 5.77311 7.57973C4.97252 8.4038 4.65685 9.14705 4.05451 10.1376C2.80287 12.2119 2.68682 14.5087 1.91801 16.5913V24.7456C1.41238 24.7456 1 25.1587 1 25.6637V28.3735C1 28.8764 1.41238 29.2915 1.91801 29.2915H6.2069C6.10124 28.8632 6.04767 28.4237 6.04734 27.9825C6.04734 25.0095 8.45738 22.6022 11.4283 22.6022C13.9827 22.6022 16.1227 24.3816 16.6718 26.7689V9.79774ZM16.6663 6.96357L16.6608 3.87176C14.1906 3.71703 10.5607 5.2512 7.11939 6.96357H16.6663ZM2.59426 19.2624H3.75127C3.86248 19.2624 3.95297 19.3529 3.95297 19.4641V22.3384C3.95297 22.4489 3.86248 22.5401 3.75127 22.5401H2.59426V19.2624ZM11.4283 30.2558C10.1739 30.2558 9.15573 29.2369 9.15573 27.9825C9.15573 26.7267 10.1739 25.7099 11.4283 25.7099C12.6841 25.7099 13.7009 26.7267 13.7009 27.9825C13.7009 29.2369 12.6841 30.2558 11.4283 30.2558ZM11.4283 31.9889C9.21582 31.9889 7.42263 30.195 7.42263 27.9825C7.42263 25.77 9.21582 23.9768 11.4283 23.9768C13.6401 23.9768 15.434 25.77 15.434 27.9825C15.434 30.195 13.6401 31.9889 11.4283 31.9889ZM11.4283 28.9689C10.8847 28.9689 10.4419 28.5261 10.4419 27.9825C10.4419 27.4375 10.8847 26.9961 11.4283 26.9961C11.974 26.9961 12.4147 27.4375 12.4147 27.9825C12.4147 28.5261 11.974 28.9689 11.4283 28.9689Z" fill="#434242"/>
</g>
<defs>
<clipPath id="clip0">
<rect width="116.243" height="32" fill="white" transform="translate(1)"/>
</clipPath>
</defs>
</svg>
