<svg width="118" height="32" viewBox="0 0 118 32" fill="none" xmlns="http://www.w3.org/2000/svg">
<g clip-path="url(#clip0)">
<path fill-rule="evenodd" clip-rule="evenodd" d="M114.198 27.9832H113.408H114.198ZM21.0899 16.7439C21.1811 16.5201 21.3109 16.3108 21.4822 16.1154L21.9278 15.6042C22.3657 15.102 22.939 14.8409 23.6056 14.8409H40.1346C41.6564 14.8409 42.9584 15.6546 43.6312 17.0189L45.6869 21.1869C45.879 21.5765 46.2513 21.8092 46.6865 21.8092H113.738L116.743 7.44295H117.243L115.738 21.8092V23.4795H44.5879C43.3833 23.4795 42.3237 22.9075 41.7261 21.8611L40.1319 19.069C40.0041 18.8563 39.8356 18.6912 39.6387 18.58L39.6394 18.5786C39.448 18.4708 39.2194 18.4135 38.9659 18.4135H20.9338L21.0899 16.7439ZM104.804 24.7463H105.454C105.015 25.2982 105.24 25.2941 104.804 24.7463ZM96.257 24.7463H96.907C96.4684 25.2982 96.6929 25.2941 96.257 24.7463ZM109.401 31.9889C107.189 31.9889 105.396 30.195 105.396 27.9832C105.396 25.7707 107.189 23.9775 109.401 23.9775C111.614 23.9775 113.408 25.7707 113.408 27.9832C113.408 30.195 111.614 31.9889 109.401 31.9889ZM109.401 30.2558C108.148 30.2558 107.129 29.2369 107.129 27.9832C107.129 26.7274 108.148 25.7106 109.401 25.7106C110.656 25.7106 111.674 26.7274 111.674 27.9832C111.674 29.2369 110.656 30.2558 109.401 30.2558ZM100.855 31.9889C98.6429 31.9889 96.8497 30.195 96.8497 27.9832C96.8497 25.7707 98.6429 23.9775 100.855 23.9775C103.067 23.9775 104.861 25.7707 104.861 27.9832C104.861 30.195 103.067 31.9889 100.855 31.9889ZM100.855 30.2558C99.6009 30.2558 98.5828 29.2369 98.5828 27.9832C98.5828 26.7274 99.6009 25.7106 100.855 25.7106C102.109 25.7106 103.128 26.7274 103.128 27.9832C103.128 29.2369 102.109 30.2558 100.855 30.2558ZM109.401 28.9696C108.856 28.9696 108.415 28.5268 108.415 27.9832C108.415 27.4382 108.856 26.9968 109.401 26.9968C109.945 26.9968 110.388 27.4382 110.388 27.9832C110.388 28.5268 109.945 28.9696 109.401 28.9696ZM100.855 28.9696C100.31 28.9696 99.869 28.5268 99.869 27.9832C99.869 27.4382 100.31 26.9968 100.855 26.9968C101.398 26.9968 101.842 27.4382 101.842 27.9832C101.842 28.5268 101.398 28.9696 100.855 28.9696ZM87.711 24.7463H88.3603C87.9224 25.2982 88.1469 25.2941 87.711 24.7463ZM92.3087 31.9889C90.0962 31.9889 88.303 30.195 88.303 27.9832C88.303 25.7707 90.0962 23.9775 92.3087 23.9775C94.5211 23.9775 96.3143 25.7707 96.3143 27.9832C96.3143 30.195 94.5211 31.9889 92.3087 31.9889ZM92.3087 30.2558C91.0549 30.2558 90.0361 29.2369 90.0361 27.9832C90.0361 26.7274 91.0549 25.7106 92.3087 25.7106C93.5624 25.7106 94.5812 26.7274 94.5812 27.9832C94.5812 29.2369 93.5624 30.2558 92.3087 30.2558ZM92.3087 28.9696C91.763 28.9696 91.3223 28.5268 91.3223 27.9832C91.3223 27.4382 91.763 26.9968 92.3087 26.9968C92.8523 26.9968 93.2951 27.4382 93.2951 27.9832C93.2951 28.5268 92.8523 28.9696 92.3087 28.9696ZM79.1643 24.7463H79.8143C79.3757 25.2982 79.6002 25.2941 79.1643 24.7463ZM83.762 31.9889C81.5502 31.9889 79.757 30.195 79.757 27.9832C79.757 25.7707 81.5502 23.9775 83.762 23.9775C85.9744 23.9775 87.7683 25.7707 87.7683 27.9832C87.7683 30.195 85.9744 31.9889 83.762 31.9889ZM83.762 30.2558C82.5082 30.2558 81.4894 29.2369 81.4894 27.9832C81.4894 26.7274 82.5082 25.7106 83.762 25.7106C85.0164 25.7106 86.0352 26.7274 86.0352 27.9832C86.0352 29.2369 85.0164 30.2558 83.762 30.2558ZM83.762 28.9696C83.217 28.9696 82.7763 28.5268 82.7763 27.9832C82.7763 27.4382 83.217 26.9968 83.762 26.9968C84.3056 26.9968 84.7491 27.4382 84.7491 27.9832C84.7491 28.5268 84.3056 28.9696 83.762 28.9696ZM70.6176 24.7463H71.2676C70.829 25.2982 71.0542 25.2941 70.6176 24.7463ZM75.216 31.9889C73.0035 31.9889 71.2103 30.195 71.2103 27.9832C71.2103 25.7707 73.0035 23.9775 75.216 23.9775C77.4284 23.9775 79.2216 25.7707 79.2216 27.9832C79.2216 30.195 77.4284 31.9889 75.216 31.9889ZM75.216 30.2558C73.9622 30.2558 72.9434 29.2369 72.9434 27.9832C72.9434 26.7274 73.9622 25.7106 75.216 25.7106C76.4697 25.7106 77.4885 26.7274 77.4885 27.9832C77.4885 29.2369 76.4697 30.2558 75.216 30.2558ZM75.216 28.9696C74.6703 28.9696 74.2296 28.5268 74.2296 27.9832C74.2296 27.4382 74.6703 26.9968 75.216 26.9968C75.7596 26.9968 76.2024 27.4382 76.2024 27.9832C76.2024 28.5268 75.7596 28.9696 75.216 28.9696ZM113.07 24.7463H115.738V29.2901H114.03C114.142 28.8634 114.198 28.4242 114.198 27.9832C114.198 27.9556 114.197 27.9279 114.197 27.901C114.179 26.7095 113.759 25.616 113.07 24.7463V24.7463ZM62.0716 24.7463H62.7216C62.283 25.2982 62.5075 25.2941 62.0716 24.7463ZM66.6693 31.9889C64.4568 31.9889 62.6636 30.195 62.6636 27.9832C62.6636 25.7707 64.4568 23.9775 66.6693 23.9775C68.8817 23.9775 70.6756 25.7707 70.6756 27.9832C70.6756 30.195 68.8817 31.9889 66.6693 31.9889ZM66.6693 30.2558C65.4155 30.2558 64.3967 29.2369 64.3967 27.9832C64.3967 26.7274 65.4155 25.7106 66.6693 25.7106C67.9237 25.7106 68.9418 26.7274 68.9418 27.9832C68.9418 29.2369 67.9237 30.2558 66.6693 30.2558ZM66.6693 28.9696C66.1236 28.9696 65.6829 28.5268 65.6829 27.9832C65.6829 27.4382 66.1236 26.9968 66.6693 26.9968C67.2129 26.9968 67.6557 27.4382 67.6557 27.9832C67.6557 28.5268 67.2129 28.9696 66.6693 28.9696ZM58.1246 31.9889C55.9122 31.9889 54.1183 30.195 54.1183 27.9832C54.1183 25.7707 55.9122 23.9775 58.1246 23.9775C60.3364 23.9775 62.1282 25.7707 62.1282 27.9832C62.1282 30.195 60.3364 31.9889 58.1246 31.9889ZM58.1246 30.2558C56.8682 30.2558 55.8514 29.2369 55.8514 27.9832C55.8514 26.7274 56.8682 25.7106 58.1246 25.7106C59.3784 25.7106 60.3965 26.7274 60.3965 27.9832C60.3965 29.2369 59.3784 30.2558 58.1246 30.2558ZM58.1233 28.9696C57.5776 28.9696 57.1369 28.5268 57.1369 27.9832C57.1369 27.4382 57.5776 26.9968 58.1233 26.9968C58.6669 26.9968 59.1097 27.4382 59.1097 27.9832C59.1097 28.5268 58.6669 28.9696 58.1233 28.9696ZM51.7317 24.7463H54.4554C53.7508 25.636 53.328 26.7592 53.328 27.9832C53.328 28.4343 53.3861 28.8729 53.4931 29.2901H51.7317V24.7463V24.7463ZM13.9205 15.1801V9.79773C13.9205 9.29624 13.5033 8.87971 13.0025 8.87971H7.19675C5.96514 8.87971 4.36881 13.8276 4.36881 15.6754C4.36881 15.8073 4.36881 15.9337 4.36811 16.0546C4.36742 16.2134 4.42407 16.3502 4.53597 16.4621C4.64787 16.5747 4.78464 16.6314 4.94351 16.6314H11.056C11.688 16.6272 12.3484 16.6217 12.7891 16.6217C13.6746 16.6217 13.9205 16.3115 13.9205 15.1801V15.1801ZM29.2974 21.095L28.4885 20.6281L26.9585 19.7446C26.9191 19.7218 26.8957 19.6817 26.8957 19.6354V19.0428C26.8957 18.973 26.9523 18.9164 27.0214 18.9164H33.1408C33.2098 18.9164 33.2665 18.9737 33.2665 19.0428V19.6354C33.2665 19.681 33.243 19.7218 33.2036 19.7446L31.6736 20.6281L30.8647 21.095C30.8454 21.1061 30.3619 21.1116 30.3847 21.1116H30.6126C30.6347 21.1116 29.3161 21.1061 29.2974 21.095V21.095ZM40.2666 23.1314H17.9359V2.56553C17.9359 1.15432 18.9686 0.0111246 20.2451 0.0111246C20.5773 0.0111246 20.8488 0.310912 20.8488 0.679084C20.8488 1.04795 20.5773 1.34773 20.2451 1.34773C19.6372 1.34773 19.144 1.89343 19.144 2.56553V21.6704H40.2666V23.1314V23.1314ZM37.5982 24.7463H40.2666V29.2894H38.5583C38.6699 28.863 38.7264 28.424 38.7262 27.9832C38.7262 26.7592 38.3035 25.636 37.5982 24.7463V24.7463ZM28.7759 24.7463H29.4259C28.9873 25.2982 29.2118 25.2941 28.7759 24.7463ZM33.5124 30.2558C32.258 30.2558 31.2398 29.2369 31.2398 27.9832C31.2398 26.7274 32.258 25.7106 33.5124 25.7106C34.7661 25.7106 35.785 26.7274 35.785 27.9832C35.785 29.2369 34.7661 30.2558 33.5124 30.2558ZM33.5124 31.9889C31.2999 31.9889 29.5067 30.195 29.5067 27.9832C29.5067 25.7707 31.2999 23.9775 33.5124 23.9775C35.7249 23.9775 37.5181 25.7707 37.5181 27.9832C37.5181 30.195 35.7249 31.9889 33.5124 31.9889V31.9889ZM33.5124 28.9689C32.9667 28.9689 32.526 28.5268 32.526 27.9832C32.526 27.4375 32.9667 26.9968 33.5124 26.9968C34.056 26.9968 34.4988 27.4375 34.4988 27.9832C34.4988 28.5268 34.056 28.9689 33.5124 28.9689ZM24.6894 30.2558C23.4336 30.2558 22.4168 29.2369 22.4168 27.9832C22.4168 26.7274 23.4336 25.7106 24.6894 25.7106C25.9438 25.7106 26.962 26.7274 26.962 27.9832C26.962 29.2369 25.9438 30.2558 24.6894 30.2558ZM24.6894 31.9889C22.4776 31.9889 20.6837 30.195 20.6837 27.9832C20.6837 25.7707 22.4776 23.9775 24.6894 23.9775C26.9019 23.9775 28.693 25.7707 28.693 27.9832C28.693 30.195 26.9019 31.9889 24.6894 31.9889ZM24.6894 28.9689C24.1444 28.9689 23.703 28.5268 23.703 27.9832C23.703 27.4375 24.1444 26.9968 24.6894 26.9968C25.233 26.9968 25.6758 27.4375 25.6758 27.9832C25.6758 28.5268 25.233 28.9689 24.6894 28.9689ZM17.8799 24.7463H20.6029C19.8983 25.636 19.4756 26.7592 19.4756 27.9832C19.4756 28.4343 19.5343 28.8729 19.6414 29.2894H17.8799V24.7463V24.7463ZM16.6718 9.79773L16.6677 7.50511H5.86083C5.82975 7.52653 5.80074 7.5514 5.77311 7.57972C4.97252 8.40379 4.65685 9.14704 4.05451 10.1376C2.80287 12.2119 2.68682 14.5087 1.91801 16.592V24.7456C1.41238 24.7456 1 25.1587 1 25.6637V28.3735C1 28.8764 1.41238 29.2915 1.91801 29.2915H6.2069C6.10124 28.8632 6.04767 28.4237 6.04734 27.9825C6.04734 25.0095 8.45738 22.6022 11.4283 22.6022C13.9827 22.6022 16.1227 24.3816 16.6718 26.7689V9.79773V9.79773ZM16.6663 6.96356L16.6608 3.87175C14.1906 3.71702 10.5607 5.25118 7.11939 6.96356H16.6663V6.96356ZM2.59426 19.2624H3.75127C3.86248 19.2624 3.95297 19.3529 3.95297 19.4641V22.3384C3.95297 22.4489 3.86248 22.5401 3.75127 22.5401H2.59426V19.2624ZM11.4283 30.2558C10.1739 30.2558 9.15573 29.2369 9.15573 27.9825C9.15573 26.7267 10.1739 25.7099 11.4283 25.7099C12.6841 25.7099 13.7009 26.7267 13.7009 27.9825C13.7009 29.2369 12.6841 30.2558 11.4283 30.2558ZM11.4283 31.9889C9.21582 31.9889 7.42263 30.195 7.42263 27.9825C7.42263 25.7707 9.21582 23.9768 11.4283 23.9768C13.6401 23.9768 15.434 25.7707 15.434 27.9825C15.434 30.195 13.6401 31.9889 11.4283 31.9889ZM11.4283 28.9689C10.8847 28.9689 10.4419 28.5261 10.4419 27.9825C10.4419 27.4375 10.8847 26.9961 11.4283 26.9961C11.974 26.9961 12.4147 27.4375 12.4147 27.9825C12.4147 28.5261 11.974 28.9689 11.4283 28.9689Z" fill="#434242"/>
</g>
<defs>
<clipPath id="clip0">
<rect width="116.243" height="32" fill="white" transform="translate(1)"/>
</clipPath>
</defs>
</svg>
